M48
;Layer_Color=9474304
;FILE_FORMAT=2:3
INCH
;TYPE=PLATED
T1F00S00C0.025
T2F00S00C0.030
T3F00S00C0.033
T4F00S00C0.035
T5F00S00C0.039
T6F00S00C0.040
T7F00S00C0.050
T8F00S00C0.060
T9F00S00C0.067
T10F00S00C0.080
T11F00S00C0.118
;TYPE=NON_PLATED
T12F00S00C0.128
%
T01
X04560Y04520
X04660
Y04620
X04560
X04760
Y04520
X04860
X04960
Y04620
X04860
X02340Y05640
Y05740
Y05840
Y05940
Y06040
X02240
Y05940
Y05840
Y05740
Y05640
T02
X02260Y04060
Y04140
X02340
Y04060
Y04220
X02260
X02180Y04480
Y04640
X02430
Y04480
X03205Y04640
X03640Y04599
Y04521
X03444Y04180
X03366
X05248Y04985
X05180Y05262
X05374Y05891
X04080Y05120
X04000
Y05040
X04080
X03920
Y05120
X03350Y04924
Y04846
X03130
Y04924
X03322Y05387
X02860Y05400
Y05480
X02780
Y05400
Y05560
X02860
X02910Y04924
Y04846
X03401Y06431
X04852Y06275
T03
X04700Y05035
X04805Y05140
X04730Y06020
X04505Y05140
X04400Y05035
X04305Y04900
X04605
X02630Y05180
X02330
X02860Y06170
Y06470
X02740
Y06770
X03010Y06760
Y06860
X03310
Y06760
X04730Y06320
T04
X02370Y03750
X02470
X02520Y03850
X02420
X03095Y03852
X03045Y03752
X03060Y04395
X02960
X02860
X02760
X03160
X03260
X03360
X03460
X03195Y03852
X03145Y03752
X04480Y03782
Y03978
X04882Y05560
X05078
X05055Y06115
X04955
X05155
X05255
X05355
X05455
X05555
X05655
X03630Y06095
Y06195
Y05995
Y05895
Y05795
Y05695
Y05595
Y05495
X03330
Y05595
Y05695
Y05795
Y05895
Y05995
Y06095
Y06195
X03360Y04695
X03460
X03260
X03160
X03060
X02960
X02860
X02760
X02160Y04900
Y05180
X03020Y06500
Y06600
X03160
Y06500
X03330Y06295
X03630
X05005Y06315
X05105
X05205
X05305
X05405
X05505
X05605
T05
X03980Y03720
X04080
X04130Y05922
X04230
X04230Y06090
X04130
X02620Y05940
Y05840
X02360Y04760
X02260
T06
X03925Y05892
Y06092
T07
X02500Y06350
Y06450
Y06670
Y06770
T08
X03880Y03940
X03980
X04080
T09
X05460Y03809
X05800
Y04551
X05460
Y04789
X05780
Y05531
X05460
T10
X03641Y03296
X03841
X04041
X04405Y03295
X04605
T11
X03980Y04640
T12
X02220Y03500
X02670
X02895Y03502
X03345
M30
