%FSLAX23Y23*%
%MOIN*%
G70*
G01*
G75*
%ADD10C,0.020*%
%ADD11C,0.047*%
%ADD12C,0.010*%
%ADD13R,0.067X0.067*%
%ADD14C,0.067*%
%ADD15C,0.055*%
%ADD16C,0.059*%
%ADD17P,0.216X8X22.5*%
%ADD18C,0.070*%
%ADD19C,0.055*%
%ADD20R,0.055X0.055*%
G04:AMPARAMS|DCode=21|XSize=100mil|YSize=60mil|CornerRadius=0mil|HoleSize=0mil|Usage=FLASHONLY|Rotation=0.000|XOffset=0mil|YOffset=0mil|HoleType=Round|Shape=Octagon|*
%AMOCTAGOND21*
4,1,8,0.050,-0.015,0.050,0.015,0.035,0.030,-0.035,0.030,-0.050,0.015,-0.050,-0.015,-0.035,-0.030,0.035,-0.030,0.050,-0.015,0.0*
%
%ADD21OCTAGOND21*%

%ADD22O,0.100X0.060*%
%ADD23C,0.065*%
%ADD24R,0.049X0.049*%
%ADD25C,0.049*%
%ADD26R,0.049X0.049*%
%ADD27R,0.059X0.059*%
%ADD28C,0.116*%
%ADD29C,0.059*%
%ADD30C,0.060*%
%ADD31R,0.059X0.059*%
%ADD32R,0.059X0.059*%
%ADD33P,0.130X8X202.5*%
%ADD34C,0.120*%
%ADD35C,0.050*%
%ADD36R,0.075X0.040*%
%ADD37R,0.070X0.040*%
%ADD38C,0.010*%
%ADD39C,0.002*%
%ADD40C,0.006*%
%ADD41C,0.008*%
%ADD42C,0.024*%
%ADD43C,0.005*%
%ADD44C,0.006*%
%ADD45C,0.008*%
D12*
X1160Y2480D02*
X1410D01*
X1160D02*
Y2640D01*
X1410D01*
Y2480D02*
Y2640D01*
X1105Y3445D02*
Y4235D01*
Y3445D02*
X1435D01*
Y4235D01*
X1105D02*
X1435D01*
X1155Y2315D02*
X1405D01*
Y1965D02*
Y2315D01*
X1155Y1965D02*
X1405D01*
X1155D02*
Y2315D01*
X1675Y3655D02*
X1925D01*
Y3305D02*
Y3655D01*
X1675Y3305D02*
X1925D01*
X1675D02*
Y3655D01*
X2521Y1450D02*
X2560D01*
Y1411D02*
Y1450D01*
X2521Y1410D02*
X2560D01*
X3121D02*
X3160D01*
Y1411D02*
Y1450D01*
X3121D02*
X3160D01*
X2520Y1095D02*
X3121D01*
X2520Y1495D02*
X3121D01*
Y1450D02*
Y1495D01*
X3121Y1096D02*
Y1410D01*
X2520Y1450D02*
Y1495D01*
X2521Y1096D02*
Y1410D01*
X2550Y2815D02*
Y2875D01*
X2580D01*
X2590Y2865D01*
Y2845D01*
X2580Y2835D01*
X2550D01*
X2570D02*
X2590Y2815D01*
X2650D02*
X2610D01*
X2650Y2855D01*
Y2865D01*
X2640Y2875D01*
X2620D01*
X2610Y2865D01*
X2720Y2660D02*
Y2720D01*
X2750D01*
X2760Y2710D01*
Y2690D01*
X2750Y2680D01*
X2720D01*
X2740D02*
X2760Y2660D01*
X2810D02*
Y2720D01*
X2780Y2690D01*
X2820D01*
X2532Y2050D02*
X2522Y2060D01*
X2502D01*
X2492Y2050D01*
Y2010D01*
X2502Y2000D01*
X2522D01*
X2532Y2010D01*
X2552Y2000D02*
X2572D01*
X2562D01*
Y2060D01*
X2552Y2050D01*
X2602Y2000D02*
X2622D01*
X2612D01*
Y2060D01*
X2602Y2050D01*
X3200Y2375D02*
Y2335D01*
X3210Y2325D01*
X3230D01*
X3240Y2335D01*
Y2375D01*
X3230Y2385D01*
X3210D01*
X3220Y2365D02*
X3200Y2385D01*
X3210D02*
X3200Y2375D01*
X3180Y2385D02*
X3160D01*
X3170D01*
Y2325D01*
X3180Y2335D01*
X2745Y3070D02*
Y3110D01*
X2735Y3120D01*
X2715D01*
X2705Y3110D01*
Y3070D01*
X2715Y3060D01*
X2735D01*
X2725Y3080D02*
X2745Y3060D01*
X2735D02*
X2745Y3070D01*
X2805Y3060D02*
X2765D01*
X2805Y3100D01*
Y3110D01*
X2795Y3120D01*
X2775D01*
X2765Y3110D01*
X1087Y4612D02*
Y4552D01*
X1117D01*
X1127Y4562D01*
Y4602D01*
X1117Y4612D01*
X1087D01*
X1147Y4552D02*
X1167D01*
X1157D01*
Y4612D01*
X1147Y4602D01*
X1736Y4512D02*
Y4572D01*
X1766D01*
X1776Y4562D01*
Y4542D01*
X1766Y4532D01*
X1736D01*
X1756D02*
X1776Y4512D01*
X1796D02*
X1816D01*
X1806D01*
Y4572D01*
X1796Y4562D01*
X1520Y3700D02*
Y3680D01*
Y3690D01*
X1460D01*
Y3700D01*
Y3680D01*
X1510Y3610D02*
X1520Y3620D01*
Y3640D01*
X1510Y3650D01*
X1470D01*
X1460Y3640D01*
Y3620D01*
X1470Y3610D01*
X1520Y3590D02*
X1460D01*
Y3560D01*
X1470Y3550D01*
X1510D01*
X1520Y3560D01*
Y3590D01*
X1460Y3490D02*
Y3530D01*
X1500Y3490D01*
X1510D01*
X1520Y3500D01*
Y3520D01*
X1510Y3530D01*
X1130Y3360D02*
Y3420D01*
X1160D01*
X1170Y3410D01*
Y3390D01*
X1160Y3380D01*
X1130D01*
X1190Y3360D02*
X1210D01*
X1200D01*
Y3420D01*
X1190Y3410D01*
X1583Y4074D02*
X1573Y4084D01*
X1553D01*
X1543Y4074D01*
Y4034D01*
X1553Y4024D01*
X1573D01*
X1583Y4034D01*
X1643Y4024D02*
X1603D01*
X1643Y4064D01*
Y4074D01*
X1633Y4084D01*
X1613D01*
X1603Y4074D01*
X1480Y2800D02*
X1470Y2810D01*
X1450D01*
X1440Y2800D01*
Y2760D01*
X1450Y2750D01*
X1470D01*
X1480Y2760D01*
X1500Y2800D02*
X1510Y2810D01*
X1530D01*
X1540Y2800D01*
Y2790D01*
X1530Y2780D01*
X1520D01*
X1530D01*
X1540Y2770D01*
Y2760D01*
X1530Y2750D01*
X1510D01*
X1500Y2760D01*
X3056Y4292D02*
X3046Y4302D01*
X3026D01*
X3016Y4292D01*
Y4252D01*
X3026Y4242D01*
X3046D01*
X3056Y4252D01*
X3106Y4242D02*
Y4302D01*
X3076Y4272D01*
X3116D01*
X3065Y3875D02*
X3055Y3885D01*
X3035D01*
X3025Y3875D01*
Y3835D01*
X3035Y3825D01*
X3055D01*
X3065Y3835D01*
X3125Y3885D02*
X3085D01*
Y3855D01*
X3105Y3865D01*
X3115D01*
X3125Y3855D01*
Y3835D01*
X3115Y3825D01*
X3095D01*
X3085Y3835D01*
X2278Y3108D02*
X2268Y3118D01*
X2248D01*
X2238Y3108D01*
Y3068D01*
X2248Y3058D01*
X2268D01*
X2278Y3068D01*
X2338Y3118D02*
X2318Y3108D01*
X2298Y3088D01*
Y3068D01*
X2308Y3058D01*
X2328D01*
X2338Y3068D01*
Y3078D01*
X2328Y3088D01*
X2298D01*
X2587Y2782D02*
X2577Y2792D01*
X2557D01*
X2547Y2782D01*
Y2742D01*
X2557Y2732D01*
X2577D01*
X2587Y2742D01*
X2607Y2792D02*
X2647D01*
Y2782D01*
X2607Y2742D01*
Y2732D01*
X2077Y3108D02*
X2067Y3118D01*
X2047D01*
X2037Y3108D01*
Y3068D01*
X2047Y3058D01*
X2067D01*
X2077Y3068D01*
X2097Y3108D02*
X2107Y3118D01*
X2127D01*
X2137Y3108D01*
Y3098D01*
X2127Y3088D01*
X2137Y3078D01*
Y3068D01*
X2127Y3058D01*
X2107D01*
X2097Y3068D01*
Y3078D01*
X2107Y3088D01*
X2097Y3098D01*
Y3108D01*
X2107Y3088D02*
X2127D01*
X2200Y2200D02*
X2190Y2210D01*
X2170D01*
X2160Y2200D01*
Y2160D01*
X2170Y2150D01*
X2190D01*
X2200Y2160D01*
X2220D02*
X2230Y2150D01*
X2250D01*
X2260Y2160D01*
Y2200D01*
X2250Y2210D01*
X2230D01*
X2220Y2200D01*
Y2190D01*
X2230Y2180D01*
X2260D01*
X1857Y3108D02*
X1847Y3118D01*
X1827D01*
X1817Y3108D01*
Y3068D01*
X1827Y3058D01*
X1847D01*
X1857Y3068D01*
X1877Y3058D02*
X1897D01*
X1887D01*
Y3118D01*
X1877Y3108D01*
X1927D02*
X1937Y3118D01*
X1957D01*
X1967Y3108D01*
Y3068D01*
X1957Y3058D01*
X1937D01*
X1927Y3068D01*
Y3108D01*
X3076Y2007D02*
X3066Y2017D01*
X3046D01*
X3036Y2007D01*
Y1967D01*
X3046Y1957D01*
X3066D01*
X3076Y1967D01*
X3096Y1957D02*
X3116D01*
X3106D01*
Y2017D01*
X3096Y2007D01*
X3186Y1957D02*
X3146D01*
X3186Y1997D01*
Y2007D01*
X3176Y2017D01*
X3156D01*
X3146Y2007D01*
X1765Y2065D02*
X1745D01*
X1755D01*
Y2015D01*
X1745Y2005D01*
X1735D01*
X1725Y2015D01*
X1785Y2005D02*
X1805D01*
X1795D01*
Y2065D01*
X1785Y2055D01*
X2420Y2060D02*
X2400D01*
X2410D01*
Y2010D01*
X2400Y2000D01*
X2390D01*
X2380Y2010D01*
X2480Y2000D02*
X2440D01*
X2480Y2040D01*
Y2050D01*
X2470Y2060D01*
X2450D01*
X2440Y2050D01*
X1248Y3364D02*
Y3424D01*
X1278D01*
X1288Y3414D01*
Y3394D01*
X1278Y3384D01*
X1248D01*
X1268D02*
X1288Y3364D01*
X1308Y3414D02*
X1318Y3424D01*
X1338D01*
X1348Y3414D01*
Y3404D01*
X1338Y3394D01*
X1328D01*
X1338D01*
X1348Y3384D01*
Y3374D01*
X1338Y3364D01*
X1318D01*
X1308Y3374D01*
X1285Y2595D02*
X1275Y2605D01*
X1255D01*
X1245Y2595D01*
Y2585D01*
X1255Y2575D01*
X1275D01*
X1285Y2565D01*
Y2555D01*
X1275Y2545D01*
X1255D01*
X1245Y2555D01*
X1305Y2545D02*
X1325D01*
X1315D01*
Y2605D01*
X1305Y2595D01*
X1200Y2400D02*
X1190Y2410D01*
X1170D01*
X1160Y2400D01*
Y2390D01*
X1170Y2380D01*
X1190D01*
X1200Y2370D01*
Y2360D01*
X1190Y2350D01*
X1170D01*
X1160Y2360D01*
X1220Y2400D02*
X1230Y2410D01*
X1250D01*
X1260Y2400D01*
Y2390D01*
X1250Y2380D01*
X1240D01*
X1250D01*
X1260Y2370D01*
Y2360D01*
X1250Y2350D01*
X1230D01*
X1220Y2360D01*
X2485Y4460D02*
Y4410D01*
X2495Y4400D01*
X2515D01*
X2525Y4410D01*
Y4460D01*
X2545Y4400D02*
X2565D01*
X2555D01*
Y4460D01*
X2545Y4450D01*
X1706Y2819D02*
Y2769D01*
X1716Y2759D01*
X1736D01*
X1746Y2769D01*
Y2819D01*
X1766Y2809D02*
X1776Y2819D01*
X1796D01*
X1806Y2809D01*
Y2799D01*
X1796Y2789D01*
X1786D01*
X1796D01*
X1806Y2779D01*
Y2769D01*
X1796Y2759D01*
X1776D01*
X1766Y2769D01*
X2839Y2379D02*
Y2339D01*
X2859Y2319D01*
X2879Y2339D01*
Y2379D01*
X2899Y2319D02*
Y2379D01*
X2929D01*
X2939Y2369D01*
Y2349D01*
X2929Y2339D01*
X2899D01*
X2919D02*
X2939Y2319D01*
X2959D02*
X2979D01*
X2969D01*
Y2379D01*
X2959Y2369D01*
X2820Y4365D02*
Y4355D01*
X2840Y4335D01*
X2860Y4355D01*
Y4365D01*
X2840Y4335D02*
Y4305D01*
X2880D02*
X2900D01*
X2890D01*
Y4365D01*
X2880Y4355D01*
X1720Y3740D02*
X1710Y3750D01*
X1690D01*
X1680Y3740D01*
Y3730D01*
X1690Y3720D01*
X1710D01*
X1720Y3710D01*
Y3700D01*
X1710Y3690D01*
X1690D01*
X1680Y3700D01*
X1780Y3690D02*
X1740D01*
X1780Y3730D01*
Y3740D01*
X1770Y3750D01*
X1750D01*
X1740Y3740D01*
X2440Y1170D02*
X2430Y1160D01*
Y1140D01*
X2440Y1130D01*
X2480D01*
X2490Y1140D01*
Y1160D01*
X2480Y1170D01*
X2490Y1200D02*
Y1220D01*
X2480Y1230D01*
X2460D01*
X2450Y1220D01*
Y1200D01*
X2460Y1190D01*
X2480D01*
X2490Y1200D01*
Y1250D02*
X2450D01*
Y1280D01*
X2460Y1290D01*
X2490D01*
Y1350D02*
Y1310D01*
X2450Y1350D01*
X2440D01*
X2430Y1340D01*
Y1320D01*
X2440Y1310D01*
X1877Y4424D02*
Y4483D01*
X1906D01*
X1916Y4473D01*
Y4453D01*
X1906Y4443D01*
X1877D01*
X1976Y4424D02*
X1936D01*
X1976Y4463D01*
Y4473D01*
X1966Y4483D01*
X1946D01*
X1936Y4473D01*
X3866Y4458D02*
X3859Y4465D01*
X3846D01*
X3839Y4458D01*
Y4452D01*
X3846Y4445D01*
X3859D01*
X3866Y4438D01*
Y4432D01*
X3859Y4425D01*
X3846D01*
X3839Y4432D01*
X3906Y4465D02*
X3879D01*
Y4425D01*
X3906D01*
X3879Y4445D02*
X3892D01*
X3919Y4425D02*
Y4465D01*
X3939D01*
X3946Y4458D01*
Y4445D01*
X3939Y4438D01*
X3919D01*
X3932D02*
X3946Y4425D01*
X3959Y4465D02*
Y4438D01*
X3972Y4425D01*
X3986Y4438D01*
Y4465D01*
X4019D02*
X4006D01*
X3999Y4458D01*
Y4432D01*
X4006Y4425D01*
X4019D01*
X4026Y4432D01*
Y4458D01*
X4019Y4465D01*
X4079Y4425D02*
X4092D01*
X4086D01*
Y4465D01*
X4079Y4458D01*
X3371Y4415D02*
Y4475D01*
X3401D01*
X3411Y4465D01*
Y4445D01*
X3401Y4435D01*
X3371D01*
X3431Y4465D02*
X3441Y4475D01*
X3461D01*
X3471Y4465D01*
Y4455D01*
X3461Y4445D01*
X3451D01*
X3461D01*
X3471Y4435D01*
Y4425D01*
X3461Y4415D01*
X3441D01*
X3431Y4425D01*
X3866Y4158D02*
X3859Y4165D01*
X3846D01*
X3839Y4158D01*
Y4152D01*
X3846Y4145D01*
X3859D01*
X3866Y4138D01*
Y4132D01*
X3859Y4125D01*
X3846D01*
X3839Y4132D01*
X3906Y4165D02*
X3879D01*
Y4125D01*
X3906D01*
X3879Y4145D02*
X3892D01*
X3919Y4125D02*
Y4165D01*
X3939D01*
X3946Y4158D01*
Y4145D01*
X3939Y4138D01*
X3919D01*
X3932D02*
X3946Y4125D01*
X3959Y4165D02*
Y4138D01*
X3972Y4125D01*
X3986Y4138D01*
Y4165D01*
X4019D02*
X4006D01*
X3999Y4158D01*
Y4132D01*
X4006Y4125D01*
X4019D01*
X4026Y4132D01*
Y4158D01*
X4019Y4165D01*
X4106Y4125D02*
X4079D01*
X4106Y4152D01*
Y4158D01*
X4099Y4165D01*
X4086D01*
X4079Y4158D01*
X3371Y4115D02*
Y4175D01*
X3401D01*
X3411Y4165D01*
Y4145D01*
X3401Y4135D01*
X3371D01*
X3461Y4115D02*
Y4175D01*
X3431Y4145D01*
X3471D01*
X3866Y3858D02*
X3859Y3865D01*
X3846D01*
X3839Y3858D01*
Y3852D01*
X3846Y3845D01*
X3859D01*
X3866Y3838D01*
Y3832D01*
X3859Y3825D01*
X3846D01*
X3839Y3832D01*
X3906Y3865D02*
X3879D01*
Y3825D01*
X3906D01*
X3879Y3845D02*
X3892D01*
X3919Y3825D02*
Y3865D01*
X3939D01*
X3946Y3858D01*
Y3845D01*
X3939Y3838D01*
X3919D01*
X3932D02*
X3946Y3825D01*
X3959Y3865D02*
Y3838D01*
X3972Y3825D01*
X3986Y3838D01*
Y3865D01*
X4019D02*
X4006D01*
X3999Y3858D01*
Y3832D01*
X4006Y3825D01*
X4019D01*
X4026Y3832D01*
Y3858D01*
X4019Y3865D01*
X4079Y3858D02*
X4086Y3865D01*
X4099D01*
X4106Y3858D01*
Y3852D01*
X4099Y3845D01*
X4092D01*
X4099D01*
X4106Y3838D01*
Y3832D01*
X4099Y3825D01*
X4086D01*
X4079Y3832D01*
X3371Y3815D02*
Y3875D01*
X3401D01*
X3411Y3865D01*
Y3845D01*
X3401Y3835D01*
X3371D01*
X3471Y3875D02*
X3431D01*
Y3845D01*
X3451Y3855D01*
X3461D01*
X3471Y3845D01*
Y3825D01*
X3461Y3815D01*
X3441D01*
X3431Y3825D01*
X3866Y3558D02*
X3859Y3565D01*
X3846D01*
X3839Y3558D01*
Y3552D01*
X3846Y3545D01*
X3859D01*
X3866Y3538D01*
Y3532D01*
X3859Y3525D01*
X3846D01*
X3839Y3532D01*
X3906Y3565D02*
X3879D01*
Y3525D01*
X3906D01*
X3879Y3545D02*
X3892D01*
X3919Y3525D02*
Y3565D01*
X3939D01*
X3946Y3558D01*
Y3545D01*
X3939Y3538D01*
X3919D01*
X3932D02*
X3946Y3525D01*
X3959Y3565D02*
Y3538D01*
X3972Y3525D01*
X3986Y3538D01*
Y3565D01*
X4019D02*
X4006D01*
X3999Y3558D01*
Y3532D01*
X4006Y3525D01*
X4019D01*
X4026Y3532D01*
Y3558D01*
X4019Y3565D01*
X4099Y3525D02*
Y3565D01*
X4079Y3545D01*
X4106D01*
X3371Y3515D02*
Y3575D01*
X3401D01*
X3411Y3565D01*
Y3545D01*
X3401Y3535D01*
X3371D01*
X3471Y3575D02*
X3451Y3565D01*
X3431Y3545D01*
Y3525D01*
X3441Y3515D01*
X3461D01*
X3471Y3525D01*
Y3535D01*
X3461Y3545D01*
X3431D01*
X3866Y3258D02*
X3859Y3265D01*
X3846D01*
X3839Y3258D01*
Y3252D01*
X3846Y3245D01*
X3859D01*
X3866Y3238D01*
Y3232D01*
X3859Y3225D01*
X3846D01*
X3839Y3232D01*
X3906Y3265D02*
X3879D01*
Y3225D01*
X3906D01*
X3879Y3245D02*
X3892D01*
X3919Y3225D02*
Y3265D01*
X3939D01*
X3946Y3258D01*
Y3245D01*
X3939Y3238D01*
X3919D01*
X3932D02*
X3946Y3225D01*
X3959Y3265D02*
Y3238D01*
X3972Y3225D01*
X3986Y3238D01*
Y3265D01*
X4019D02*
X4006D01*
X3999Y3258D01*
Y3232D01*
X4006Y3225D01*
X4019D01*
X4026Y3232D01*
Y3258D01*
X4019Y3265D01*
X4106D02*
X4079D01*
Y3245D01*
X4092Y3252D01*
X4099D01*
X4106Y3245D01*
Y3232D01*
X4099Y3225D01*
X4086D01*
X4079Y3232D01*
X3371Y3215D02*
Y3275D01*
X3401D01*
X3411Y3265D01*
Y3245D01*
X3401Y3235D01*
X3371D01*
X3431Y3275D02*
X3471D01*
Y3265D01*
X3431Y3225D01*
Y3215D01*
X3866Y1323D02*
X3859Y1330D01*
X3846D01*
X3839Y1323D01*
Y1297D01*
X3846Y1290D01*
X3859D01*
X3866Y1297D01*
Y1310D01*
X3852D01*
X3879Y1330D02*
X3892D01*
X3886D01*
Y1290D01*
X3879D01*
X3892D01*
X3932Y1330D02*
X3919D01*
X3912Y1323D01*
Y1297D01*
X3919Y1290D01*
X3932D01*
X3939Y1297D01*
Y1323D01*
X3932Y1330D01*
X3992Y1290D02*
X4006D01*
X3999D01*
Y1330D01*
X3992Y1323D01*
X3371Y1280D02*
Y1340D01*
X3401D01*
X3411Y1330D01*
Y1310D01*
X3401Y1300D01*
X3371D01*
X3431Y1330D02*
X3441Y1340D01*
X3461D01*
X3471Y1330D01*
Y1320D01*
X3461Y1310D01*
X3471Y1300D01*
Y1290D01*
X3461Y1280D01*
X3441D01*
X3431Y1290D01*
Y1300D01*
X3441Y1310D01*
X3431Y1320D01*
Y1330D01*
X3441Y1310D02*
X3461D01*
X3866Y1623D02*
X3859Y1630D01*
X3846D01*
X3839Y1623D01*
Y1597D01*
X3846Y1590D01*
X3859D01*
X3866Y1597D01*
Y1610D01*
X3852D01*
X3879Y1630D02*
X3892D01*
X3886D01*
Y1590D01*
X3879D01*
X3892D01*
X3932Y1630D02*
X3919D01*
X3912Y1623D01*
Y1597D01*
X3919Y1590D01*
X3932D01*
X3939Y1597D01*
Y1623D01*
X3932Y1630D01*
X4019Y1590D02*
X3992D01*
X4019Y1617D01*
Y1623D01*
X4012Y1630D01*
X3999D01*
X3992Y1623D01*
X3371Y1580D02*
Y1640D01*
X3401D01*
X3411Y1630D01*
Y1610D01*
X3401Y1600D01*
X3371D01*
X3431Y1590D02*
X3441Y1580D01*
X3461D01*
X3471Y1590D01*
Y1630D01*
X3461Y1640D01*
X3441D01*
X3431Y1630D01*
Y1620D01*
X3441Y1610D01*
X3471D01*
X3866Y1923D02*
X3859Y1930D01*
X3846D01*
X3839Y1923D01*
Y1897D01*
X3846Y1890D01*
X3859D01*
X3866Y1897D01*
Y1910D01*
X3852D01*
X3879Y1930D02*
X3892D01*
X3886D01*
Y1890D01*
X3879D01*
X3892D01*
X3932Y1930D02*
X3919D01*
X3912Y1923D01*
Y1897D01*
X3919Y1890D01*
X3932D01*
X3939Y1897D01*
Y1923D01*
X3932Y1930D01*
X3992Y1923D02*
X3999Y1930D01*
X4012D01*
X4019Y1923D01*
Y1917D01*
X4012Y1910D01*
X4006D01*
X4012D01*
X4019Y1903D01*
Y1897D01*
X4012Y1890D01*
X3999D01*
X3992Y1897D01*
X3321Y1880D02*
Y1940D01*
X3351D01*
X3361Y1930D01*
Y1910D01*
X3351Y1900D01*
X3321D01*
X3381Y1880D02*
X3401D01*
X3391D01*
Y1940D01*
X3381Y1930D01*
X3431D02*
X3441Y1940D01*
X3461D01*
X3471Y1930D01*
Y1890D01*
X3461Y1880D01*
X3441D01*
X3431Y1890D01*
Y1930D01*
X3866Y2223D02*
X3859Y2230D01*
X3846D01*
X3839Y2223D01*
Y2197D01*
X3846Y2190D01*
X3859D01*
X3866Y2197D01*
Y2210D01*
X3852D01*
X3879Y2230D02*
X3892D01*
X3886D01*
Y2190D01*
X3879D01*
X3892D01*
X3932Y2230D02*
X3919D01*
X3912Y2223D01*
Y2197D01*
X3919Y2190D01*
X3932D01*
X3939Y2197D01*
Y2223D01*
X3932Y2230D01*
X4012Y2190D02*
Y2230D01*
X3992Y2210D01*
X4019D01*
X3341Y2180D02*
Y2240D01*
X3371D01*
X3381Y2230D01*
Y2210D01*
X3371Y2200D01*
X3341D01*
X3401Y2180D02*
X3421D01*
X3411D01*
Y2240D01*
X3401Y2230D01*
X3451Y2180D02*
X3471D01*
X3461D01*
Y2240D01*
X3451Y2230D01*
X3866Y2523D02*
X3859Y2530D01*
X3846D01*
X3839Y2523D01*
Y2497D01*
X3846Y2490D01*
X3859D01*
X3866Y2497D01*
Y2510D01*
X3852D01*
X3879Y2530D02*
X3892D01*
X3886D01*
Y2490D01*
X3879D01*
X3892D01*
X3932Y2530D02*
X3919D01*
X3912Y2523D01*
Y2497D01*
X3919Y2490D01*
X3932D01*
X3939Y2497D01*
Y2523D01*
X3932Y2530D01*
X4019D02*
X3992D01*
Y2510D01*
X4006Y2517D01*
X4012D01*
X4019Y2510D01*
Y2497D01*
X4012Y2490D01*
X3999D01*
X3992Y2497D01*
X3321Y2480D02*
Y2540D01*
X3351D01*
X3361Y2530D01*
Y2510D01*
X3351Y2500D01*
X3321D01*
X3381Y2480D02*
X3401D01*
X3391D01*
Y2540D01*
X3381Y2530D01*
X3471Y2480D02*
X3431D01*
X3471Y2520D01*
Y2530D01*
X3461Y2540D01*
X3441D01*
X3431Y2530D01*
X3866Y2823D02*
X3859Y2830D01*
X3846D01*
X3839Y2823D01*
Y2797D01*
X3846Y2790D01*
X3859D01*
X3866Y2797D01*
Y2810D01*
X3852D01*
X3879Y2830D02*
X3892D01*
X3886D01*
Y2790D01*
X3879D01*
X3892D01*
X3932Y2830D02*
X3919D01*
X3912Y2823D01*
Y2797D01*
X3919Y2790D01*
X3932D01*
X3939Y2797D01*
Y2823D01*
X3932Y2830D01*
X4019D02*
X4006Y2823D01*
X3992Y2810D01*
Y2797D01*
X3999Y2790D01*
X4012D01*
X4019Y2797D01*
Y2803D01*
X4012Y2810D01*
X3992D01*
X3321Y2780D02*
Y2840D01*
X3351D01*
X3361Y2830D01*
Y2810D01*
X3351Y2800D01*
X3321D01*
X3381Y2780D02*
X3401D01*
X3391D01*
Y2840D01*
X3381Y2830D01*
X3431D02*
X3441Y2840D01*
X3461D01*
X3471Y2830D01*
Y2820D01*
X3461Y2810D01*
X3451D01*
X3461D01*
X3471Y2800D01*
Y2790D01*
X3461Y2780D01*
X3441D01*
X3431Y2790D01*
X2550Y1540D02*
X2590D01*
X2570Y1560D02*
Y1520D01*
X2610Y1570D02*
Y1530D01*
X2630Y1510D01*
X2650Y1530D01*
Y1570D01*
X2735Y1540D02*
X2775D01*
X2755Y1560D02*
Y1520D01*
X2835Y1570D02*
X2795D01*
Y1540D01*
X2815Y1550D01*
X2825D01*
X2835Y1540D01*
Y1520D01*
X2825Y1510D01*
X2805D01*
X2795Y1520D01*
X2855Y1570D02*
Y1530D01*
X2875Y1510D01*
X2895Y1530D01*
Y1570D01*
X2990Y1560D02*
X2980Y1570D01*
X2960D01*
X2950Y1560D01*
Y1520D01*
X2960Y1510D01*
X2980D01*
X2990Y1520D01*
Y1540D01*
X2970D01*
X3010Y1510D02*
Y1570D01*
X3050Y1510D01*
Y1570D01*
X3070D02*
Y1510D01*
X3100D01*
X3110Y1520D01*
Y1560D01*
X3100Y1570D01*
X3070D01*
X1430Y2265D02*
Y2205D01*
X1470D01*
X1490Y2265D02*
X1510D01*
X1500D01*
Y2205D01*
X1490D01*
X1510D01*
X1540D02*
Y2265D01*
X1580Y2205D01*
Y2265D01*
X1600D02*
Y2205D01*
Y2225D01*
X1640Y2265D01*
X1610Y2235D01*
X1640Y2205D01*
X1430Y2095D02*
Y2035D01*
X1470D01*
X1490D02*
Y2075D01*
X1510Y2095D01*
X1530Y2075D01*
Y2035D01*
Y2065D01*
X1490D01*
X1590Y2085D02*
X1580Y2095D01*
X1560D01*
X1550Y2085D01*
Y2075D01*
X1560Y2065D01*
X1580D01*
X1590Y2055D01*
Y2045D01*
X1580Y2035D01*
X1560D01*
X1550Y2045D01*
X1610Y2095D02*
X1650D01*
X1630D01*
Y2035D01*
X1455Y1975D02*
X1475D01*
X1465D01*
Y1915D01*
X1455D01*
X1475D01*
X1505D02*
Y1975D01*
X1545Y1915D01*
Y1975D01*
X1565Y1915D02*
Y1975D01*
X1595D01*
X1605Y1965D01*
Y1945D01*
X1595Y1935D01*
X1565D01*
X1625Y1975D02*
Y1925D01*
X1635Y1915D01*
X1655D01*
X1665Y1925D01*
Y1975D01*
X1685D02*
X1725D01*
X1705D01*
Y1915D01*
X2085Y1970D02*
X2065D01*
X2055Y1960D01*
Y1920D01*
X2065Y1910D01*
X2085D01*
X2095Y1920D01*
Y1960D01*
X2085Y1970D01*
X2115D02*
Y1920D01*
X2125Y1910D01*
X2145D01*
X2155Y1920D01*
Y1970D01*
X2175D02*
X2215D01*
X2195D01*
Y1910D01*
X2235D02*
Y1970D01*
X2265D01*
X2275Y1960D01*
Y1940D01*
X2265Y1930D01*
X2235D01*
X2295Y1970D02*
Y1920D01*
X2305Y1910D01*
X2325D01*
X2335Y1920D01*
Y1970D01*
X2355D02*
X2395D01*
X2375D01*
Y1910D01*
X1480Y2700D02*
X1540D01*
Y2670D01*
X1530Y2660D01*
X1510D01*
X1500Y2670D01*
Y2700D01*
Y2680D02*
X1480Y2660D01*
X1540Y2600D02*
Y2640D01*
X1480D01*
Y2600D01*
X1510Y2640D02*
Y2620D01*
X1530Y2540D02*
X1540Y2550D01*
Y2570D01*
X1530Y2580D01*
X1520D01*
X1510Y2570D01*
Y2550D01*
X1500Y2540D01*
X1490D01*
X1480Y2550D01*
Y2570D01*
X1490Y2580D01*
X1540Y2480D02*
Y2520D01*
X1480D01*
Y2480D01*
X1510Y2520D02*
Y2500D01*
X1540Y2460D02*
Y2420D01*
Y2440D01*
X1480D01*
X1950Y3650D02*
X1970D01*
X1960D01*
Y3590D01*
X1950D01*
X1970D01*
X2040Y3640D02*
X2030Y3650D01*
X2010D01*
X2000Y3640D01*
Y3600D01*
X2010Y3590D01*
X2030D01*
X2040Y3600D01*
X2060Y3650D02*
Y3590D01*
X2090D01*
X2100Y3600D01*
Y3640D01*
X2090Y3650D01*
X2060D01*
X2160Y3590D02*
X2120D01*
X2160Y3630D01*
Y3640D01*
X2150Y3650D01*
X2130D01*
X2120Y3640D01*
X1995Y3355D02*
X1985Y3365D01*
X1965D01*
X1955Y3355D01*
Y3345D01*
X1965Y3335D01*
X1985D01*
X1995Y3325D01*
Y3315D01*
X1985Y3305D01*
X1965D01*
X1955Y3315D01*
X2055Y3365D02*
X2015D01*
Y3305D01*
X2055D01*
X2015Y3335D02*
X2035D01*
X2075Y3305D02*
Y3365D01*
X2115Y3305D01*
Y3365D01*
X2175Y3355D02*
X2165Y3365D01*
X2145D01*
X2135Y3355D01*
Y3345D01*
X2145Y3335D01*
X2165D01*
X2175Y3325D01*
Y3315D01*
X2165Y3305D01*
X2145D01*
X2135Y3315D01*
X2225Y3365D02*
X2205D01*
X2195Y3355D01*
Y3315D01*
X2205Y3305D01*
X2225D01*
X2235Y3315D01*
Y3355D01*
X2225Y3365D01*
X2255Y3305D02*
Y3365D01*
X2285D01*
X2295Y3355D01*
Y3335D01*
X2285Y3325D01*
X2255D01*
X2275D02*
X2295Y3305D01*
X2355Y3355D02*
X2345Y3365D01*
X2325D01*
X2315Y3355D01*
Y3345D01*
X2325Y3335D01*
X2345D01*
X2355Y3325D01*
Y3315D01*
X2345Y3305D01*
X2325D01*
X2315Y3315D01*
X1815Y1155D02*
X1855D01*
X1835D01*
Y1095D01*
X1875Y1155D02*
X1915Y1095D01*
Y1155D02*
X1875Y1095D01*
X2115Y1125D02*
X2155D01*
X2265Y1145D02*
X2255Y1155D01*
X2235D01*
X2225Y1145D01*
Y1105D01*
X2235Y1095D01*
X2255D01*
X2265Y1105D01*
Y1125D01*
X2245D01*
X2285Y1095D02*
Y1155D01*
X2325Y1095D01*
Y1155D01*
X2345D02*
Y1095D01*
X2375D01*
X2385Y1105D01*
Y1145D01*
X2375Y1155D01*
X2345D01*
X1590Y1140D02*
X1580Y1150D01*
X1560D01*
X1550Y1140D01*
Y1100D01*
X1560Y1090D01*
X1580D01*
X1590Y1100D01*
Y1120D01*
X1570D01*
X1610Y1090D02*
Y1150D01*
X1650Y1090D01*
Y1150D01*
X1670D02*
Y1090D01*
X1700D01*
X1710Y1100D01*
Y1140D01*
X1700Y1150D01*
X1670D01*
X1445Y1120D02*
X1485D01*
X1140Y1090D02*
Y1150D01*
X1170D01*
X1180Y1140D01*
Y1120D01*
X1170Y1110D01*
X1140D01*
X1160D02*
X1180Y1090D01*
X1200Y1150D02*
X1240Y1090D01*
Y1150D02*
X1200Y1090D01*
X1280Y1150D02*
X1320D01*
X1300D01*
Y1090D01*
X1340Y1150D02*
X1380Y1090D01*
Y1150D02*
X1340Y1090D01*
X1970Y1095D02*
Y1155D01*
X2000D01*
X2010Y1145D01*
Y1125D01*
X2000Y1115D01*
X1970D01*
X1990D02*
X2010Y1095D01*
X2030Y1155D02*
X2070Y1095D01*
Y1155D02*
X2030Y1095D01*
X3735Y1097D02*
X3726D01*
X3716Y1088D01*
Y1079D01*
X3735Y1060D01*
X3745D01*
X3754Y1069D01*
Y1079D01*
X3745Y1088D01*
X3735Y1079D01*
X3768Y1083D02*
X3740Y1112D01*
X3787Y1102D01*
X3759Y1130D01*
X3768Y1140D02*
X3797Y1112D01*
X3811Y1126D01*
Y1135D01*
X3792Y1154D01*
X3782D01*
X3768Y1140D01*
X3591Y1054D02*
X3610Y1073D01*
X3591Y1073D02*
X3610Y1054D01*
X3624Y1115D02*
X3605Y1097D01*
X3619Y1082D01*
X3624Y1097D01*
X3629Y1101D01*
X3638D01*
X3647Y1092D01*
Y1082D01*
X3638Y1073D01*
X3629D01*
X3633Y1125D02*
X3652Y1106D01*
X3671D01*
Y1125D01*
X3652Y1144D01*
X3410Y1072D02*
X3401D01*
X3391Y1063D01*
Y1054D01*
X3396Y1049D01*
X3406D01*
X3415Y1058D01*
X3424D01*
X3429Y1054D01*
Y1044D01*
X3420Y1035D01*
X3410D01*
X3415Y1087D02*
X3424Y1096D01*
X3420Y1091D01*
X3448Y1063D01*
X3443Y1058D01*
X3453Y1068D01*
X3462Y1124D02*
X3453D01*
X3443Y1115D01*
Y1105D01*
X3462Y1087D01*
X3472D01*
X3481Y1096D01*
Y1105D01*
X3472Y1115D01*
X3462Y1105D01*
X3495Y1110D02*
X3467Y1138D01*
X3514Y1129D01*
X3486Y1157D01*
X3523Y1138D02*
X3505Y1157D01*
Y1176D01*
X3523Y1176D01*
X3542Y1157D01*
X3528Y1171D01*
X3509Y1153D01*
X3523Y1195D02*
X3552Y1167D01*
X3571Y1186D01*
D38*
X2927Y1800D02*
G03*
X2927Y1800I-207J0D01*
G01*
X2315Y4346D02*
G03*
X2315Y4346I-5J0D01*
G01*
X2496Y2695D02*
G03*
X2496Y2695I-5J0D01*
G01*
D39*
X2785Y3912D02*
G03*
X2925Y3912I70J0D01*
G01*
Y4182D02*
G03*
X2785Y4182I-70J0D01*
G01*
Y3912D02*
Y4182D01*
X2925Y3912D02*
Y4182D01*
D40*
X2765Y3912D02*
G03*
X2945Y3912I90J0D01*
G01*
Y4182D02*
G03*
X2765Y4182I-90J0D01*
G01*
Y3912D02*
Y4182D01*
X2945Y3912D02*
Y4182D01*
D41*
X2428Y2885D02*
G03*
X2428Y2885I-98J0D01*
G01*
X2718Y2560D02*
G03*
X2718Y2560I-98J0D01*
G01*
X2208Y2885D02*
G03*
X2208Y2885I-98J0D01*
G01*
X2483Y2180D02*
G03*
X2483Y2180I-98J0D01*
G01*
X1988Y2885D02*
G03*
X1988Y2885I-98J0D01*
G01*
X2435Y4362D02*
G03*
X2485Y4362I25J0D01*
G01*
X2480Y2570D02*
G03*
X2480Y2520I0J-25D01*
G01*
X2829Y2273D02*
X3251D01*
X2829Y2292D02*
X3251D01*
X2829Y2107D02*
X3251D01*
X2829D02*
Y2292D01*
X3251Y2107D02*
Y2292D01*
X2980Y2840D02*
Y2870D01*
X2780D02*
X2980D01*
X2780Y2810D02*
Y2870D01*
Y2810D02*
X2980D01*
Y2840D01*
X2771D02*
X2780D01*
X2980D02*
X2989D01*
X3140Y2700D02*
Y2730D01*
X2940D02*
X3140D01*
X2940Y2670D02*
Y2730D01*
Y2670D02*
X3140D01*
Y2700D01*
X2931D02*
X2940D01*
X3140D02*
X3149D01*
X2829Y2447D02*
X3251D01*
X2829Y2428D02*
X3251D01*
X2829Y2613D02*
X3251D01*
Y2428D02*
Y2613D01*
X2829Y2428D02*
Y2613D01*
Y3113D02*
X3251D01*
X2829Y3132D02*
X3251D01*
X2829Y2947D02*
X3251D01*
X2829D02*
Y3132D01*
X3251Y2947D02*
Y3132D01*
X1760Y4200D02*
X1790D01*
Y4400D01*
X1730D02*
X1790D01*
X1730Y4200D02*
Y4400D01*
Y4200D02*
X1760D01*
Y4400D02*
Y4409D01*
Y4191D02*
Y4200D01*
X1663Y3790D02*
Y3990D01*
X1537Y3790D02*
Y3990D01*
Y3790D02*
X1663D01*
X1537Y3990D02*
X1663D01*
X3010Y4208D02*
X3210D01*
X3010Y4082D02*
X3210D01*
Y4208D01*
X3010Y4082D02*
Y4208D01*
X3009Y4040D02*
X3210D01*
X3009Y3914D02*
X3210D01*
Y4040D01*
X3009Y3914D02*
Y4040D01*
X3030Y1797D02*
X3230D01*
X3030Y1923D02*
X3230D01*
X3030Y1797D02*
Y1923D01*
X3230Y1797D02*
Y1923D01*
X1428Y1888D02*
X1472D01*
X1528D02*
X1725D01*
Y1078D02*
Y1473D01*
Y1527D02*
Y1888D01*
X1125D02*
X1372D01*
X1125Y1527D02*
Y1888D01*
Y1078D02*
Y1473D01*
Y1078D02*
X1725D01*
X2103Y1890D02*
X2147D01*
X2203D02*
X2400D01*
Y1080D02*
Y1475D01*
Y1529D02*
Y1890D01*
X1800D02*
X2047D01*
X1800Y1529D02*
Y1890D01*
Y1080D02*
Y1475D01*
Y1080D02*
X2400D01*
X1520Y3300D02*
Y3330D01*
X1320D02*
X1520D01*
X1320Y3270D02*
Y3330D01*
Y3270D02*
X1520D01*
Y3300D01*
X1311D02*
X1320D01*
X1520D02*
X1529D01*
X2356Y3428D02*
X2564D01*
X2485Y4362D02*
X2564D01*
X2356D02*
X2435D01*
X2564Y3428D02*
Y4362D01*
X2356Y3428D02*
Y4362D01*
X1700Y2441D02*
Y2649D01*
X2480Y2441D02*
Y2520D01*
Y2570D02*
Y2649D01*
X1700Y2441D02*
X2480D01*
X1700Y2649D02*
X2480D01*
X1190Y2823D02*
X1390D01*
X1190Y2697D02*
X1390D01*
Y2823D01*
X1190Y2697D02*
Y2823D01*
X1870Y4190D02*
Y4390D01*
Y4190D02*
X1970D01*
Y4390D01*
X1870D02*
X1970D01*
X3505Y4395D02*
Y4495D01*
X3805D01*
Y4395D02*
Y4495D01*
X3505Y4395D02*
X3805D01*
X3505Y4095D02*
Y4195D01*
X3805D01*
Y4095D02*
Y4195D01*
X3505Y4095D02*
X3805D01*
X3505Y3795D02*
Y3895D01*
X3805D01*
Y3795D02*
Y3895D01*
X3505Y3795D02*
X3805D01*
X3505Y3495D02*
Y3595D01*
X3805D01*
Y3495D02*
Y3595D01*
X3505Y3495D02*
X3805D01*
X3505Y3195D02*
Y3295D01*
X3805D01*
Y3195D02*
Y3295D01*
X3505Y3195D02*
X3805D01*
X3505Y2760D02*
Y2860D01*
X3805D01*
Y2760D02*
Y2860D01*
X3505Y2760D02*
X3805D01*
X3505Y2460D02*
Y2560D01*
X3805D01*
Y2460D02*
Y2560D01*
X3505Y2460D02*
X3805D01*
X3505Y2160D02*
Y2260D01*
X3805D01*
Y2160D02*
Y2260D01*
X3505Y2160D02*
X3805D01*
X3505Y1860D02*
Y1960D01*
X3805D01*
Y1860D02*
Y1960D01*
X3505Y1860D02*
X3805D01*
X3505Y1560D02*
Y1660D01*
X3805D01*
Y1560D02*
Y1660D01*
X3505Y1560D02*
X3805D01*
X3505Y1260D02*
Y1360D01*
X3805D01*
Y1260D02*
Y1360D01*
X3505Y1260D02*
X3805D01*
D42*
X2407Y4322D02*
G03*
X2407Y4322I-12J0D01*
G01*
X2452Y2610D02*
G03*
X2452Y2610I-12J0D01*
G01*
D43*
X1175Y4495D02*
G03*
X1175Y4305I0J-95D01*
G01*
X1630Y4280D02*
Y4325D01*
X1530D02*
X1630D01*
X1530D02*
Y4475D01*
X1630D01*
Y4520D01*
X1175Y4305D02*
X1275D01*
X1175Y4495D02*
X1275D01*
Y4280D02*
X1630D01*
X1275D02*
Y4520D01*
X1630D01*
D44*
X2930Y2029D02*
X2950D01*
X2940D01*
Y2088D01*
X2930Y2079D01*
X3060Y2029D02*
X3020D01*
X3060Y2069D01*
Y2079D01*
X3050Y2088D01*
X3030D01*
X3020Y2079D01*
X3120D02*
X3130Y2088D01*
X3150D01*
X3160Y2079D01*
Y2069D01*
X3150Y2059D01*
X3140D01*
X3150D01*
X3160Y2049D01*
Y2039D01*
X3150Y2029D01*
X3130D01*
X3120Y2039D01*
X2535Y1800D02*
X2574D01*
X2555Y1819D02*
Y1780D01*
X2330Y3022D02*
Y2982D01*
X2350Y3002D02*
X2310D01*
X2620Y2697D02*
Y2657D01*
X2640Y2677D02*
X2600D01*
X2110Y3022D02*
Y2982D01*
X2130Y3002D02*
X2090D01*
X2522Y2180D02*
X2482D01*
X2502Y2160D02*
Y2200D01*
X1890Y3022D02*
Y2982D01*
X1910Y3002D02*
X1870D01*
D45*
X1350Y4092D02*
X1342Y4108D01*
X1325Y4125D01*
X1308D01*
X1300Y4117D01*
Y4100D01*
X1308Y4092D01*
X1317D01*
X1325Y4100D01*
Y4125D01*
X1295Y3585D02*
Y3568D01*
Y3577D01*
X1345D01*
X1337Y3585D01*
Y3543D02*
X1345Y3535D01*
Y3518D01*
X1337Y3510D01*
X1303D01*
X1295Y3518D01*
Y3535D01*
X1303Y3543D01*
X1337D01*
X1245Y3552D02*
Y3585D01*
X1220D01*
X1228Y3568D01*
Y3560D01*
X1220Y3552D01*
X1203D01*
X1195Y3560D01*
Y3577D01*
X1203Y3585D01*
X1200Y4120D02*
Y4103D01*
Y4112D01*
X1250D01*
X1242Y4120D01*
M02*
