%FSLAX23Y23*%
%MOIN*%
G70*
G01*
G75*
G04 Layer_Physical_Order=2*
G04 Layer_Color=16711680*
%ADD10C,0.020*%
%ADD11C,0.047*%
%ADD12C,0.010*%
%ADD13R,0.067X0.067*%
%ADD14C,0.067*%
%ADD15C,0.055*%
%ADD16C,0.059*%
%ADD17P,0.216X8X22.5*%
%ADD18C,0.070*%
%ADD19C,0.055*%
%ADD20R,0.055X0.055*%
G04:AMPARAMS|DCode=21|XSize=100mil|YSize=60mil|CornerRadius=0mil|HoleSize=0mil|Usage=FLASHONLY|Rotation=0.000|XOffset=0mil|YOffset=0mil|HoleType=Round|Shape=Octagon|*
%AMOCTAGOND21*
4,1,8,0.050,-0.015,0.050,0.015,0.035,0.030,-0.035,0.030,-0.050,0.015,-0.050,-0.015,-0.035,-0.030,0.035,-0.030,0.050,-0.015,0.0*
%
%ADD21OCTAGOND21*%

%ADD22O,0.100X0.060*%
%ADD23C,0.065*%
%ADD24R,0.049X0.049*%
%ADD25C,0.049*%
%ADD26R,0.049X0.049*%
%ADD27R,0.059X0.059*%
%ADD28C,0.116*%
%ADD29C,0.059*%
%ADD30C,0.060*%
%ADD31R,0.059X0.059*%
%ADD32R,0.059X0.059*%
%ADD33P,0.130X8X202.5*%
%ADD34C,0.120*%
%ADD35C,0.050*%
%ADD36R,0.075X0.040*%
%ADD37R,0.070X0.040*%
D10*
X3450Y3440D02*
X3555Y3545D01*
X2571Y3440D02*
X3450D01*
X2555Y3456D02*
X2571Y3440D01*
X2555Y3456D02*
Y3850D01*
X2310Y4095D02*
X2555Y3850D01*
X2610Y4295D02*
X2824Y4509D01*
X3776D01*
X3810Y4475D01*
Y4099D02*
Y4475D01*
X3776Y4065D02*
X3810Y4099D01*
X3635Y4065D02*
X3776D01*
X3555Y4145D02*
X3635Y4065D01*
X3046Y4445D02*
X3555D01*
X2930Y4329D02*
X3046Y4445D01*
X2744Y4329D02*
X2930D01*
X2610Y4195D02*
X2744Y4329D01*
X3555Y2510D02*
X3810Y2765D01*
Y2924D01*
X3581Y3153D02*
X3810Y2924D01*
X2453Y3153D02*
X3581D01*
X2206Y3400D02*
X2453Y3153D01*
X1840Y3400D02*
X2206D01*
X2310Y3695D02*
X2385Y3620D01*
Y3476D02*
Y3620D01*
Y3476D02*
X2517Y3344D01*
X3017D01*
X2310Y4295D02*
X2561Y4546D01*
X3846D01*
X3880Y4512D01*
Y1295D02*
Y4512D01*
X3840Y1255D02*
X3880Y1295D01*
X3610Y1255D02*
X3840D01*
X3555Y1310D02*
X3610Y1255D01*
X2204Y3480D02*
X2332Y3352D01*
X1840Y3480D02*
X2204D01*
X1725Y3228D02*
X2108D01*
X1705Y3248D02*
X1725Y3228D01*
X1705Y3248D02*
Y3425D01*
X1760Y3480D01*
X1710Y4340D02*
X1920D01*
X1700Y4350D02*
X1710Y4340D01*
X1480Y4350D02*
X1700D01*
X1320Y4040D02*
X2265D01*
X2310Y3995D01*
X2662Y4147D02*
X2855D01*
X2610Y4095D02*
X2662Y4147D01*
X2658Y3947D02*
X2855D01*
X2610Y3995D02*
X2658Y3947D01*
X2855D02*
X3030D01*
X3060Y3977D01*
X1940Y2395D02*
X2185Y2640D01*
X1185Y2165D02*
X1240Y2220D01*
X1185Y1763D02*
Y2165D01*
Y1763D02*
X1276Y1672D01*
X1659D01*
X1839Y1852D01*
X2075D01*
X2560Y3245D02*
X3555D01*
X2310Y3495D02*
X2560Y3245D01*
X3555Y1610D02*
X3845Y1900D01*
Y3300D01*
X3743Y3402D02*
X3845Y3300D01*
X2532Y3402D02*
X3743D01*
X2427Y3507D02*
X2532Y3402D01*
X2427Y3507D02*
Y3678D01*
X2310Y3795D02*
X2427Y3678D01*
X1168Y3688D02*
X1220Y3740D01*
X1168Y3608D02*
Y3688D01*
Y3608D02*
X1215Y3560D01*
X1760D01*
X3555Y2810D02*
Y3073D01*
X3520Y3108D02*
X3555Y3073D01*
X2425Y3108D02*
X3520D01*
X2253Y3280D02*
X2425Y3108D01*
X1748Y3280D02*
X2253D01*
X1740Y3288D02*
X1748Y3280D01*
X1740Y3288D02*
Y3380D01*
X1760Y3400D01*
X1320Y2220D02*
X1358Y2258D01*
Y2336D01*
X1341Y2353D02*
X1358Y2336D01*
X1184Y2353D02*
X1341D01*
X1150Y2319D02*
X1184Y2353D01*
X1150Y1652D02*
Y2319D01*
Y1652D02*
X1184Y1618D01*
X1891D01*
X2025Y1752D01*
X2240Y2695D02*
Y2756D01*
X2330Y2846D01*
X2340Y2695D02*
X2436Y2599D01*
X2620D01*
X1320Y2140D02*
X1985D01*
X2240Y2395D01*
X1840Y3560D02*
X1869Y3589D01*
Y3687D01*
X1824Y3732D02*
X1869Y3687D01*
X1412Y3732D02*
X1824D01*
X1320Y3640D02*
X1412Y3732D01*
X1220Y3640D02*
X1320D01*
X1220Y3740D02*
X1320D01*
X1220Y4040D02*
X1320D01*
X1160Y2480D02*
X1410D01*
X2958Y4145D02*
X3060D01*
X2956Y4147D02*
X2958Y4145D01*
X2855Y4147D02*
X2956D01*
X1480Y4450D02*
X1760D01*
X1240Y2060D02*
X1320D01*
D11*
X1119Y3585D02*
X1780Y2924D01*
X1890D01*
X1504D02*
X1780D01*
X3000Y2500D02*
X3040Y2540D01*
X3000Y2470D02*
Y2500D01*
X2962Y2432D02*
X3000Y2470D01*
X2709Y2432D02*
X2962D01*
X2620Y2521D02*
X2709Y2432D01*
X2853Y2737D02*
X2890Y2700D01*
X2853Y2737D02*
Y2803D01*
X2730Y2840D02*
X2853Y2803D01*
X1340Y2760D02*
X1504Y2924D01*
X2878Y1860D02*
X3080D01*
X2818Y1800D02*
X2878Y1860D01*
X3080D02*
X3120Y1900D01*
Y1952D01*
X3152Y1984D01*
X3681D01*
X3755Y1910D01*
X2255Y3840D02*
X2310Y3895D01*
X1600Y3840D02*
X2255D01*
X1119Y3739D02*
X1220Y3840D01*
X1119Y3585D02*
Y3739D01*
X1780Y2924D02*
X1890D01*
X2620Y2521D02*
X2661D01*
X2684Y2544D01*
Y2773D01*
X2375Y3082D02*
X2684Y2773D01*
X1788Y3082D02*
X2375D01*
X1570Y3300D02*
X1788Y3082D01*
X3140Y2540D02*
X3212Y2468D01*
Y2137D02*
Y2468D01*
X3168Y2093D02*
X3212Y2137D01*
X3001Y2093D02*
X3168D01*
X2940Y2154D02*
X3001Y2093D01*
X2940Y2154D02*
Y2180D01*
X2730Y2840D02*
X2818Y2928D01*
X3088D01*
X3140Y2980D01*
Y3020D01*
X2440Y2395D02*
X2566Y2521D01*
X2620D01*
X3180Y1860D02*
X3473D01*
X3492Y1841D01*
X3600D01*
X3624Y1865D01*
Y1879D01*
X3655Y1910D01*
X2610Y3895D02*
X2729Y3776D01*
X3623D01*
X3655Y3808D01*
Y3845D01*
X2820Y1296D02*
X2985Y1460D01*
X3616D01*
X3655Y1421D01*
Y1310D02*
Y1421D01*
X1500Y1850D02*
X1610Y1960D01*
X2067D01*
X2175Y1852D01*
X3012Y2208D02*
X3040Y2180D01*
X3012Y2208D02*
Y2232D01*
X2992Y2252D02*
X3012Y2232D01*
X2390Y2252D02*
X2992D01*
X2346Y2208D02*
X2390Y2252D01*
X2346Y2180D02*
Y2208D01*
X3160Y4145D02*
X3310Y4295D01*
X3605D01*
X3755Y4145D01*
X1320Y3940D02*
X1600D01*
X1220D02*
X1320D01*
X1160Y2640D02*
X1410D01*
X1320Y3840D02*
X1600D01*
X1220D02*
X1320D01*
D12*
X3455Y4751D02*
X3452Y4743D01*
Y4760D01*
X3455Y4751D01*
X3461Y4757D01*
X3469Y4760D01*
X3475D01*
X3484Y4757D01*
X3489Y4751D01*
X3492Y4746D01*
X3495Y4737D01*
Y4723D01*
X3492Y4714D01*
X3489Y4709D01*
X3484Y4703D01*
X3475Y4700D01*
X3469D01*
X3461Y4703D01*
X3455Y4709D01*
X3452Y4714D01*
X3475Y4760D02*
X3481Y4757D01*
X3486Y4751D01*
X3489Y4746D01*
X3492Y4737D01*
Y4723D01*
X3489Y4714D01*
X3486Y4709D01*
X3481Y4703D01*
X3475Y4700D01*
X3418Y4760D02*
X3438Y4700D01*
X3418Y4760D02*
X3398Y4700D01*
X3418Y4751D02*
X3401Y4700D01*
X3432Y4717D02*
X3406D01*
X3444Y4700D02*
X3426D01*
X3409D02*
X3392D01*
X3376Y4760D02*
Y4700D01*
X3373Y4760D02*
X3356Y4709D01*
X3376Y4760D02*
X3356Y4700D01*
X3336Y4760D02*
X3356Y4700D01*
X3336Y4760D02*
Y4700D01*
X3333Y4760D02*
Y4700D01*
X3384Y4760D02*
X3373D01*
X3336D02*
X3324D01*
X3384Y4700D02*
X3367D01*
X3344D02*
X3324D01*
X3309Y4760D02*
Y4700D01*
X3306Y4760D02*
Y4700D01*
X3318Y4760D02*
X3283D01*
X3275Y4757D01*
X3272Y4754D01*
X3269Y4749D01*
Y4740D01*
X3272Y4734D01*
X3275Y4731D01*
X3283Y4729D01*
X3306D01*
X3283Y4760D02*
X3278Y4757D01*
X3275Y4754D01*
X3272Y4749D01*
Y4740D01*
X3275Y4734D01*
X3278Y4731D01*
X3283Y4729D01*
X3318Y4700D02*
X3298D01*
X3252Y4760D02*
Y4700D01*
X3250Y4760D02*
Y4700D01*
X3232Y4743D02*
Y4720D01*
X3261Y4760D02*
X3215D01*
Y4743D01*
X3218Y4760D01*
X3250Y4731D02*
X3232D01*
X3261Y4700D02*
X3215D01*
Y4717D01*
X3218Y4700D01*
X3198Y4760D02*
Y4700D01*
X3196Y4760D02*
Y4700D01*
X3207Y4760D02*
X3187D01*
X3207Y4700D02*
X3164D01*
Y4717D01*
X3167Y4700D01*
X3136Y4760D02*
X3144Y4757D01*
X3150Y4751D01*
X3153Y4746D01*
X3156Y4734D01*
Y4726D01*
X3153Y4714D01*
X3150Y4709D01*
X3144Y4703D01*
X3136Y4700D01*
X3130D01*
X3121Y4703D01*
X3116Y4709D01*
X3113Y4714D01*
X3110Y4726D01*
Y4734D01*
X3113Y4746D01*
X3116Y4751D01*
X3121Y4757D01*
X3130Y4760D01*
X3136D01*
X3141Y4757D01*
X3147Y4751D01*
X3150Y4746D01*
X3153Y4734D01*
Y4726D01*
X3150Y4714D01*
X3147Y4709D01*
X3141Y4703D01*
X3136Y4700D01*
X3130D02*
X3124Y4703D01*
X3119Y4709D01*
X3116Y4714D01*
X3113Y4726D01*
Y4734D01*
X3116Y4746D01*
X3119Y4751D01*
X3124Y4757D01*
X3130Y4760D01*
X3048Y4726D02*
X2996D01*
X2895Y4751D02*
X2892Y4743D01*
Y4760D01*
X2895Y4751D01*
X2900Y4757D01*
X2909Y4760D01*
X2915D01*
X2923Y4757D01*
X2929Y4751D01*
X2932Y4746D01*
X2935Y4737D01*
Y4723D01*
X2932Y4714D01*
X2929Y4709D01*
X2923Y4703D01*
X2915Y4700D01*
X2909D01*
X2900Y4703D01*
X2895Y4709D01*
X2915Y4760D02*
X2920Y4757D01*
X2926Y4751D01*
X2929Y4746D01*
X2932Y4737D01*
Y4723D01*
X2929Y4714D01*
X2926Y4709D01*
X2920Y4703D01*
X2915Y4700D01*
X2895Y4723D02*
Y4700D01*
X2892Y4723D02*
Y4700D01*
X2903Y4723D02*
X2883D01*
X2855Y4760D02*
X2864Y4757D01*
X2870Y4751D01*
X2873Y4746D01*
X2875Y4734D01*
Y4726D01*
X2873Y4714D01*
X2870Y4709D01*
X2864Y4703D01*
X2855Y4700D01*
X2850D01*
X2841Y4703D01*
X2835Y4709D01*
X2833Y4714D01*
X2830Y4726D01*
Y4734D01*
X2833Y4746D01*
X2835Y4751D01*
X2841Y4757D01*
X2850Y4760D01*
X2855D01*
X2861Y4757D01*
X2867Y4751D01*
X2870Y4746D01*
X2873Y4734D01*
Y4726D01*
X2870Y4714D01*
X2867Y4709D01*
X2861Y4703D01*
X2855Y4700D01*
X2850D02*
X2844Y4703D01*
X2838Y4709D01*
X2835Y4714D01*
X2833Y4726D01*
Y4734D01*
X2835Y4746D01*
X2838Y4751D01*
X2844Y4757D01*
X2850Y4760D01*
X2813D02*
Y4700D01*
X2810Y4760D02*
X2776Y4706D01*
X2810Y4754D02*
X2776Y4700D01*
Y4760D02*
Y4700D01*
X2821Y4760D02*
X2810D01*
X2784D02*
X2767D01*
X2821Y4700D02*
X2804D01*
X2751Y4760D02*
Y4700D01*
X2748Y4760D02*
Y4700D01*
X2760Y4760D02*
X2740D01*
X2760Y4700D02*
X2740D01*
X2675Y4726D02*
X2623D01*
X2553Y4760D02*
Y4700D01*
X2550Y4760D02*
X2516Y4706D01*
X2550Y4754D02*
X2516Y4700D01*
Y4760D02*
Y4700D01*
X2562Y4760D02*
X2550D01*
X2525D02*
X2507D01*
X2562Y4700D02*
X2545D01*
X2492Y4760D02*
Y4717D01*
X2489Y4709D01*
X2483Y4703D01*
X2474Y4700D01*
X2469D01*
X2460Y4703D01*
X2454Y4709D01*
X2452Y4717D01*
Y4760D01*
X2489D02*
Y4717D01*
X2486Y4709D01*
X2480Y4703D01*
X2474Y4700D01*
X2500Y4760D02*
X2480D01*
X2460D02*
X2443D01*
X2427D02*
Y4700D01*
X2424Y4760D02*
Y4700D01*
X2436Y4760D02*
X2416D01*
X2436Y4700D02*
X2393D01*
Y4717D01*
X2396Y4700D01*
X3486Y4865D02*
Y4805D01*
X3484Y4865D02*
X3466Y4814D01*
X3486Y4865D02*
X3466Y4805D01*
X3446Y4865D02*
X3466Y4805D01*
X3446Y4865D02*
Y4805D01*
X3444Y4865D02*
Y4805D01*
X3495Y4865D02*
X3484D01*
X3446D02*
X3435D01*
X3495Y4805D02*
X3478D01*
X3455D02*
X3435D01*
X3411Y4845D02*
X3420Y4842D01*
X3425Y4836D01*
X3428Y4828D01*
Y4822D01*
X3425Y4814D01*
X3420Y4808D01*
X3411Y4805D01*
X3405D01*
X3397Y4808D01*
X3391Y4814D01*
X3388Y4822D01*
Y4828D01*
X3391Y4836D01*
X3397Y4842D01*
X3405Y4845D01*
X3411D01*
X3417Y4842D01*
X3422Y4836D01*
X3425Y4828D01*
Y4822D01*
X3422Y4814D01*
X3417Y4808D01*
X3411Y4805D01*
X3405D02*
X3400Y4808D01*
X3394Y4814D01*
X3391Y4822D01*
Y4828D01*
X3394Y4836D01*
X3400Y4842D01*
X3405Y4845D01*
X3345Y4865D02*
Y4805D01*
X3342Y4865D02*
Y4805D01*
X3345Y4836D02*
X3351Y4842D01*
X3356Y4845D01*
X3362D01*
X3371Y4842D01*
X3376Y4836D01*
X3379Y4828D01*
Y4822D01*
X3376Y4814D01*
X3371Y4808D01*
X3362Y4805D01*
X3356D01*
X3351Y4808D01*
X3345Y4814D01*
X3362Y4845D02*
X3368Y4842D01*
X3374Y4836D01*
X3376Y4828D01*
Y4822D01*
X3374Y4814D01*
X3368Y4808D01*
X3362Y4805D01*
X3354Y4865D02*
X3342D01*
X3345Y4805D02*
X3334D01*
X3317Y4845D02*
Y4814D01*
X3314Y4808D01*
X3305Y4805D01*
X3300D01*
X3291Y4808D01*
X3285Y4814D01*
X3314Y4845D02*
Y4814D01*
X3311Y4808D01*
X3305Y4805D01*
X3285Y4845D02*
Y4805D01*
X3282Y4845D02*
Y4805D01*
X3325Y4845D02*
X3314D01*
X3294D02*
X3282D01*
X3285Y4805D02*
X3274D01*
X3258Y4865D02*
Y4805D01*
X3255Y4865D02*
Y4805D01*
X3266Y4865D02*
X3255D01*
X3266Y4805D02*
X3246D01*
X3218Y4845D02*
X3227Y4842D01*
X3232Y4836D01*
X3235Y4828D01*
Y4822D01*
X3232Y4814D01*
X3227Y4808D01*
X3218Y4805D01*
X3212D01*
X3204Y4808D01*
X3198Y4814D01*
X3195Y4822D01*
Y4828D01*
X3198Y4836D01*
X3204Y4842D01*
X3212Y4845D01*
X3218D01*
X3224Y4842D01*
X3230Y4836D01*
X3232Y4828D01*
Y4822D01*
X3230Y4814D01*
X3224Y4808D01*
X3218Y4805D01*
X3212D02*
X3207Y4808D01*
X3201Y4814D01*
X3198Y4822D01*
Y4828D01*
X3201Y4836D01*
X3207Y4842D01*
X3212Y4845D01*
X3095Y4856D02*
X3093Y4865D01*
Y4848D01*
X3095Y4856D01*
X3101Y4862D01*
X3110Y4865D01*
X3118D01*
X3127Y4862D01*
X3133Y4856D01*
Y4851D01*
X3130Y4845D01*
X3127Y4842D01*
X3121Y4839D01*
X3104Y4834D01*
X3098Y4831D01*
X3093Y4825D01*
X3133Y4851D02*
X3127Y4845D01*
X3121Y4842D01*
X3104Y4836D01*
X3098Y4834D01*
X3095Y4831D01*
X3093Y4825D01*
Y4814D01*
X3098Y4808D01*
X3107Y4805D01*
X3115D01*
X3124Y4808D01*
X3130Y4814D01*
X3133Y4822D01*
Y4805D01*
X3130Y4814D01*
X3081Y4828D02*
X3047D01*
Y4834D01*
X3049Y4839D01*
X3052Y4842D01*
X3058Y4845D01*
X3067D01*
X3075Y4842D01*
X3081Y4836D01*
X3084Y4828D01*
Y4822D01*
X3081Y4814D01*
X3075Y4808D01*
X3067Y4805D01*
X3061D01*
X3052Y4808D01*
X3047Y4814D01*
X3049Y4828D02*
Y4836D01*
X3052Y4842D01*
X3067Y4845D02*
X3072Y4842D01*
X3078Y4836D01*
X3081Y4828D01*
Y4822D01*
X3078Y4814D01*
X3072Y4808D01*
X3067Y4805D01*
X3029Y4845D02*
Y4805D01*
X3026Y4845D02*
Y4805D01*
Y4828D02*
X3023Y4836D01*
X3017Y4842D01*
X3012Y4845D01*
X3003D01*
X3000Y4842D01*
Y4839D01*
X3003Y4836D01*
X3006Y4839D01*
X3003Y4842D01*
X3037Y4845D02*
X3026D01*
X3037Y4805D02*
X3017D01*
X2985Y4845D02*
X2968Y4805D01*
X2983Y4845D02*
X2968Y4811D01*
X2951Y4845D02*
X2968Y4805D01*
X2991Y4845D02*
X2974D01*
X2963D02*
X2945D01*
X2920D02*
X2929Y4842D01*
X2934Y4836D01*
X2937Y4828D01*
Y4822D01*
X2934Y4814D01*
X2929Y4808D01*
X2920Y4805D01*
X2914D01*
X2906Y4808D01*
X2900Y4814D01*
X2897Y4822D01*
Y4828D01*
X2900Y4836D01*
X2906Y4842D01*
X2914Y4845D01*
X2920D01*
X2926Y4842D01*
X2931Y4836D01*
X2934Y4828D01*
Y4822D01*
X2931Y4814D01*
X2926Y4808D01*
X2920Y4805D01*
X2914D02*
X2909Y4808D01*
X2903Y4814D01*
X2900Y4822D01*
Y4828D01*
X2903Y4836D01*
X2909Y4842D01*
X2914Y4845D01*
X2860Y4839D02*
X2857Y4845D01*
Y4834D01*
X2860Y4839D01*
X2863Y4842D01*
X2868Y4845D01*
X2880D01*
X2885Y4842D01*
X2888Y4839D01*
Y4834D01*
X2885Y4831D01*
X2880Y4828D01*
X2865Y4822D01*
X2860Y4819D01*
X2857Y4816D01*
X2888Y4836D02*
X2885Y4834D01*
X2880Y4831D01*
X2865Y4825D01*
X2860Y4822D01*
X2857Y4819D01*
Y4811D01*
X2860Y4808D01*
X2865Y4805D01*
X2877D01*
X2883Y4808D01*
X2885Y4811D01*
X2888Y4816D01*
Y4805D01*
X2885Y4811D01*
X2742Y4842D02*
X2745Y4839D01*
X2742Y4836D01*
X2739Y4839D01*
Y4842D01*
X2742Y4845D01*
X2745D01*
X2747Y4842D01*
X2750Y4836D01*
X2756Y4822D01*
X2762Y4814D01*
X2767Y4808D01*
X2773Y4805D01*
X2782D01*
X2790Y4808D01*
X2793Y4814D01*
Y4822D01*
X2790Y4828D01*
X2773Y4839D01*
X2767Y4845D01*
X2765Y4851D01*
Y4856D01*
X2767Y4862D01*
X2773Y4865D01*
X2779Y4862D01*
X2782Y4856D01*
Y4851D01*
X2779Y4842D01*
X2773Y4834D01*
X2759Y4814D01*
X2753Y4808D01*
X2745Y4805D01*
X2742D01*
X2739Y4808D01*
Y4811D01*
X2782Y4805D02*
X2787Y4808D01*
X2790Y4814D01*
Y4822D01*
X2787Y4828D01*
X2782Y4834D01*
Y4851D02*
X2779Y4845D01*
X2756Y4814D01*
X2750Y4808D01*
X2745Y4805D01*
X2637Y4856D02*
X2635Y4848D01*
Y4865D01*
X2637Y4856D01*
X2643Y4862D01*
X2652Y4865D01*
X2657D01*
X2666Y4862D01*
X2672Y4856D01*
X2675Y4851D01*
X2677Y4842D01*
Y4828D01*
X2675Y4819D01*
X2672Y4814D01*
X2666Y4808D01*
X2657Y4805D01*
X2652D01*
X2643Y4808D01*
X2637Y4814D01*
X2657Y4865D02*
X2663Y4862D01*
X2669Y4856D01*
X2672Y4851D01*
X2675Y4842D01*
Y4828D01*
X2672Y4819D01*
X2669Y4814D01*
X2663Y4808D01*
X2657Y4805D01*
X2637Y4828D02*
Y4805D01*
X2635Y4828D02*
Y4805D01*
X2646Y4828D02*
X2626D01*
X2610Y4865D02*
Y4805D01*
X2607Y4865D02*
Y4805D01*
X2618Y4865D02*
X2598D01*
X2618Y4805D02*
X2598D01*
X2567Y4865D02*
X2576Y4862D01*
X2582Y4856D01*
X2585Y4851D01*
X2587Y4839D01*
Y4831D01*
X2585Y4819D01*
X2582Y4814D01*
X2576Y4808D01*
X2567Y4805D01*
X2562D01*
X2553Y4808D01*
X2547Y4814D01*
X2545Y4819D01*
X2542Y4831D01*
Y4839D01*
X2545Y4851D01*
X2547Y4856D01*
X2553Y4862D01*
X2562Y4865D01*
X2567D01*
X2573Y4862D01*
X2579Y4856D01*
X2582Y4851D01*
X2585Y4839D01*
Y4831D01*
X2582Y4819D01*
X2579Y4814D01*
X2573Y4808D01*
X2567Y4805D01*
X2562D02*
X2556Y4808D01*
X2550Y4814D01*
X2547Y4819D01*
X2545Y4831D01*
Y4839D01*
X2547Y4851D01*
X2550Y4856D01*
X2556Y4862D01*
X2562Y4865D01*
X2505Y4839D02*
X2502Y4845D01*
Y4834D01*
X2505Y4839D01*
X2508Y4842D01*
X2513Y4845D01*
X2525D01*
X2531Y4842D01*
X2533Y4839D01*
Y4834D01*
X2531Y4831D01*
X2525Y4828D01*
X2511Y4822D01*
X2505Y4819D01*
X2502Y4816D01*
X2533Y4836D02*
X2531Y4834D01*
X2525Y4831D01*
X2511Y4825D01*
X2505Y4822D01*
X2502Y4819D01*
Y4811D01*
X2505Y4808D01*
X2511Y4805D01*
X2522D01*
X2528Y4808D01*
X2531Y4811D01*
X2533Y4816D01*
Y4805D01*
X2531Y4811D01*
X2438Y4831D02*
X2387D01*
X2320Y4845D02*
X2302Y4805D01*
X2317Y4845D02*
X2302Y4811D01*
X2285Y4845D02*
X2302Y4805D01*
X2325Y4845D02*
X2308D01*
X2297D02*
X2280D01*
X2217Y4854D02*
X2212Y4856D01*
X2203Y4865D01*
Y4805D01*
X2206Y4862D02*
Y4805D01*
X2217D02*
X2192D01*
X2178Y4811D02*
X2181Y4808D01*
X2178Y4805D01*
X2176Y4808D01*
X2178Y4811D01*
X2146Y4865D02*
X2155Y4862D01*
X2160Y4854D01*
X2163Y4839D01*
Y4831D01*
X2160Y4816D01*
X2155Y4808D01*
X2146Y4805D01*
X2140D01*
X2132Y4808D01*
X2126Y4816D01*
X2123Y4831D01*
Y4839D01*
X2126Y4854D01*
X2132Y4862D01*
X2140Y4865D01*
X2146D01*
X2152Y4862D01*
X2155Y4859D01*
X2158Y4854D01*
X2160Y4839D01*
Y4831D01*
X2158Y4816D01*
X2155Y4811D01*
X2152Y4808D01*
X2146Y4805D01*
X2140D02*
X2135Y4808D01*
X2132Y4811D01*
X2129Y4816D01*
X2126Y4831D01*
Y4839D01*
X2129Y4854D01*
X2132Y4859D01*
X2135Y4862D01*
X2140Y4865D01*
X3475Y4970D02*
Y4910D01*
X3472Y4970D02*
Y4910D01*
X3492Y4970D02*
X3495Y4953D01*
Y4970D01*
X3452D01*
Y4953D01*
X3455Y4970D01*
X3484Y4910D02*
X3464D01*
X3438Y4944D02*
Y4941D01*
X3441D01*
Y4944D01*
X3438Y4947D01*
X3432Y4950D01*
X3421D01*
X3415Y4947D01*
X3412Y4944D01*
X3409Y4939D01*
Y4919D01*
X3406Y4913D01*
X3404Y4910D01*
X3412Y4944D02*
Y4919D01*
X3409Y4913D01*
X3404Y4910D01*
X3401D01*
X3412Y4939D02*
X3415Y4936D01*
X3432Y4933D01*
X3441Y4930D01*
X3444Y4924D01*
Y4919D01*
X3441Y4913D01*
X3432Y4910D01*
X3424D01*
X3418Y4913D01*
X3412Y4919D01*
X3432Y4933D02*
X3438Y4930D01*
X3441Y4924D01*
Y4919D01*
X3438Y4913D01*
X3432Y4910D01*
X3384Y4970D02*
Y4910D01*
X3381Y4970D02*
Y4910D01*
X3392Y4970D02*
X3381D01*
X3392Y4910D02*
X3372D01*
X3353Y4970D02*
Y4910D01*
X3350Y4970D02*
Y4910D01*
X3361Y4970D02*
X3350D01*
X3361Y4910D02*
X3341D01*
X3328Y4933D02*
X3293D01*
Y4939D01*
X3296Y4944D01*
X3299Y4947D01*
X3305Y4950D01*
X3313D01*
X3322Y4947D01*
X3328Y4941D01*
X3330Y4933D01*
Y4927D01*
X3328Y4919D01*
X3322Y4913D01*
X3313Y4910D01*
X3308D01*
X3299Y4913D01*
X3293Y4919D01*
X3296Y4933D02*
Y4941D01*
X3299Y4947D01*
X3313Y4950D02*
X3319Y4947D01*
X3325Y4941D01*
X3328Y4933D01*
Y4927D01*
X3325Y4919D01*
X3319Y4913D01*
X3313Y4910D01*
X3276Y4950D02*
Y4910D01*
X3273Y4950D02*
Y4910D01*
Y4933D02*
X3270Y4941D01*
X3264Y4947D01*
X3258Y4950D01*
X3250D01*
X3247Y4947D01*
Y4944D01*
X3250Y4941D01*
X3253Y4944D01*
X3250Y4947D01*
X3284Y4950D02*
X3273D01*
X3284Y4910D02*
X3264D01*
X3150Y4970D02*
Y4910D01*
X3147Y4970D02*
Y4910D01*
X3150Y4941D02*
X3155Y4947D01*
X3161Y4950D01*
X3167D01*
X3175Y4947D01*
X3181Y4941D01*
X3184Y4933D01*
Y4927D01*
X3181Y4919D01*
X3175Y4913D01*
X3167Y4910D01*
X3161D01*
X3155Y4913D01*
X3150Y4919D01*
X3167Y4950D02*
X3172Y4947D01*
X3178Y4941D01*
X3181Y4933D01*
Y4927D01*
X3178Y4919D01*
X3172Y4913D01*
X3167Y4910D01*
X3158Y4970D02*
X3147D01*
X3150Y4910D02*
X3138D01*
X3127Y4933D02*
X3093D01*
Y4939D01*
X3096Y4944D01*
X3099Y4947D01*
X3104Y4950D01*
X3113D01*
X3121Y4947D01*
X3127Y4941D01*
X3130Y4933D01*
Y4927D01*
X3127Y4919D01*
X3121Y4913D01*
X3113Y4910D01*
X3107D01*
X3099Y4913D01*
X3093Y4919D01*
X3096Y4933D02*
Y4941D01*
X3099Y4947D01*
X3113Y4950D02*
X3119Y4947D01*
X3124Y4941D01*
X3127Y4933D01*
Y4927D01*
X3124Y4919D01*
X3119Y4913D01*
X3113Y4910D01*
X3021Y4970D02*
Y4910D01*
X3018Y4970D02*
Y4910D01*
X3030Y4970D02*
X2995D01*
X2987Y4967D01*
X2984Y4964D01*
X2981Y4959D01*
Y4950D01*
X2984Y4944D01*
X2987Y4941D01*
X2995Y4939D01*
X3018D01*
X2995Y4970D02*
X2990Y4967D01*
X2987Y4964D01*
X2984Y4959D01*
Y4950D01*
X2987Y4944D01*
X2990Y4941D01*
X2995Y4939D01*
X3030Y4910D02*
X3010D01*
X2965Y4950D02*
Y4910D01*
X2962Y4950D02*
Y4910D01*
Y4933D02*
X2959Y4941D01*
X2953Y4947D01*
X2947Y4950D01*
X2939D01*
X2936Y4947D01*
Y4944D01*
X2939Y4941D01*
X2942Y4944D01*
X2939Y4947D01*
X2973Y4950D02*
X2962D01*
X2973Y4910D02*
X2953D01*
X2910Y4950D02*
X2918Y4947D01*
X2924Y4941D01*
X2927Y4933D01*
Y4927D01*
X2924Y4919D01*
X2918Y4913D01*
X2910Y4910D01*
X2904D01*
X2895Y4913D01*
X2890Y4919D01*
X2887Y4927D01*
Y4933D01*
X2890Y4941D01*
X2895Y4947D01*
X2904Y4950D01*
X2910D01*
X2915Y4947D01*
X2921Y4941D01*
X2924Y4933D01*
Y4927D01*
X2921Y4919D01*
X2915Y4913D01*
X2910Y4910D01*
X2904D02*
X2898Y4913D01*
X2893Y4919D01*
X2890Y4927D01*
Y4933D01*
X2893Y4941D01*
X2898Y4947D01*
X2904Y4950D01*
X2872D02*
X2855Y4910D01*
X2869Y4950D02*
X2855Y4916D01*
X2838Y4950D02*
X2855Y4910D01*
X2861Y4899D01*
X2867Y4893D01*
X2872Y4890D01*
X2875D01*
X2878Y4893D01*
X2875Y4896D01*
X2872Y4893D01*
X2878Y4950D02*
X2861D01*
X2849D02*
X2832D01*
X2821Y4933D02*
X2787D01*
Y4939D01*
X2790Y4944D01*
X2793Y4947D01*
X2798Y4950D01*
X2807D01*
X2815Y4947D01*
X2821Y4941D01*
X2824Y4933D01*
Y4927D01*
X2821Y4919D01*
X2815Y4913D01*
X2807Y4910D01*
X2801D01*
X2793Y4913D01*
X2787Y4919D01*
X2790Y4933D02*
Y4941D01*
X2793Y4947D01*
X2807Y4950D02*
X2813Y4947D01*
X2818Y4941D01*
X2821Y4933D01*
Y4927D01*
X2818Y4919D01*
X2813Y4913D01*
X2807Y4910D01*
X2743Y4941D02*
X2746Y4939D01*
X2743Y4936D01*
X2741Y4939D01*
Y4941D01*
X2746Y4947D01*
X2752Y4950D01*
X2761D01*
X2769Y4947D01*
X2775Y4941D01*
X2778Y4933D01*
Y4927D01*
X2775Y4919D01*
X2769Y4913D01*
X2761Y4910D01*
X2755D01*
X2746Y4913D01*
X2741Y4919D01*
X2761Y4950D02*
X2766Y4947D01*
X2772Y4941D01*
X2775Y4933D01*
Y4927D01*
X2772Y4919D01*
X2766Y4913D01*
X2761Y4910D01*
X2714D02*
X2717Y4913D01*
X2720Y4921D01*
Y4970D01*
X2723D01*
Y4921D01*
X2720Y4913D01*
X2714Y4910D01*
X2709D01*
X2703Y4913D01*
X2700Y4919D01*
X2731Y4950D02*
X2709D01*
X2673D02*
X2682Y4947D01*
X2687Y4941D01*
X2690Y4933D01*
Y4927D01*
X2687Y4919D01*
X2682Y4913D01*
X2673Y4910D01*
X2667D01*
X2659Y4913D01*
X2653Y4919D01*
X2650Y4927D01*
Y4933D01*
X2653Y4941D01*
X2659Y4947D01*
X2667Y4950D01*
X2673D01*
X2679Y4947D01*
X2685Y4941D01*
X2687Y4933D01*
Y4927D01*
X2685Y4919D01*
X2679Y4913D01*
X2673Y4910D01*
X2667D02*
X2662Y4913D01*
X2656Y4919D01*
X2653Y4927D01*
Y4933D01*
X2656Y4941D01*
X2662Y4947D01*
X2667Y4950D01*
X2579Y4970D02*
Y4910D01*
X2576Y4970D02*
Y4910D01*
X2559Y4953D02*
Y4930D01*
X2587Y4970D02*
X2542D01*
Y4953D01*
X2545Y4970D01*
X2576Y4941D02*
X2559D01*
X2587Y4910D02*
X2567D01*
X2525Y4970D02*
X2528Y4967D01*
X2525Y4964D01*
X2522Y4967D01*
X2525Y4970D01*
Y4950D02*
Y4910D01*
X2522Y4950D02*
Y4910D01*
X2533Y4950D02*
X2522D01*
X2533Y4910D02*
X2513D01*
X2494Y4950D02*
Y4910D01*
X2491Y4950D02*
Y4910D01*
Y4941D02*
X2486Y4947D01*
X2477Y4950D01*
X2471D01*
X2463Y4947D01*
X2460Y4941D01*
Y4910D01*
X2471Y4950D02*
X2466Y4947D01*
X2463Y4941D01*
Y4910D01*
X2503Y4950D02*
X2491D01*
X2503Y4910D02*
X2483D01*
X2471D02*
X2451D01*
X2438Y4944D02*
Y4941D01*
X2441D01*
Y4944D01*
X2438Y4947D01*
X2432Y4950D01*
X2421D01*
X2415Y4947D01*
X2412Y4944D01*
X2409Y4939D01*
Y4919D01*
X2406Y4913D01*
X2404Y4910D01*
X2412Y4944D02*
Y4919D01*
X2409Y4913D01*
X2404Y4910D01*
X2401D01*
X2412Y4939D02*
X2415Y4936D01*
X2432Y4933D01*
X2441Y4930D01*
X2444Y4924D01*
Y4919D01*
X2441Y4913D01*
X2432Y4910D01*
X2424D01*
X2418Y4913D01*
X2412Y4919D01*
X2432Y4933D02*
X2438Y4930D01*
X2441Y4924D01*
Y4919D01*
X2438Y4913D01*
X2432Y4910D01*
X2384Y4970D02*
Y4910D01*
X2381Y4970D02*
Y4910D01*
X2392Y4970D02*
X2381D01*
X2392Y4910D02*
X2372D01*
X2307Y4936D02*
X2256D01*
X2186Y4970D02*
Y4910D01*
X2183Y4970D02*
Y4910D01*
X2194Y4970D02*
X2174D01*
X2194Y4910D02*
X2174D01*
X2143Y4970D02*
Y4910D01*
X2140Y4970D02*
Y4910D01*
X2160Y4970D02*
X2163Y4953D01*
Y4970D01*
X2120D01*
Y4953D01*
X2123Y4970D01*
X2152Y4910D02*
X2132D01*
X2103Y4970D02*
Y4910D01*
X2100Y4970D02*
Y4910D01*
X2112Y4970D02*
X2078D01*
X2069Y4967D01*
X2066Y4964D01*
X2063Y4959D01*
Y4953D01*
X2066Y4947D01*
X2069Y4944D01*
X2078Y4941D01*
Y4970D02*
X2072Y4967D01*
X2069Y4964D01*
X2066Y4959D01*
Y4953D01*
X2069Y4947D01*
X2072Y4944D01*
X2078Y4941D01*
X2100D02*
X2078D01*
X2069Y4939D01*
X2066Y4936D01*
X2063Y4930D01*
Y4921D01*
X2066Y4916D01*
X2069Y4913D01*
X2078Y4910D01*
X2112D01*
X2078Y4941D02*
X2072Y4939D01*
X2069Y4936D01*
X2066Y4930D01*
Y4921D01*
X2069Y4916D01*
X2072Y4913D01*
X2078Y4910D01*
X2030Y4970D02*
X2050Y4910D01*
X2030Y4970D02*
X2010Y4910D01*
X2030Y4961D02*
X2012Y4910D01*
X2044Y4927D02*
X2018D01*
X2055Y4910D02*
X2038D01*
X2021D02*
X2004D01*
X1934Y4970D02*
Y4910D01*
X1931Y4970D02*
X1914Y4919D01*
X1934Y4970D02*
X1914Y4910D01*
X1894Y4970D02*
X1914Y4910D01*
X1894Y4970D02*
Y4910D01*
X1891Y4970D02*
Y4910D01*
X1942Y4970D02*
X1931D01*
X1894D02*
X1882D01*
X1942Y4910D02*
X1925D01*
X1902D02*
X1882D01*
X1850Y4970D02*
X1870Y4910D01*
X1850Y4970D02*
X1830Y4910D01*
X1850Y4961D02*
X1832Y4910D01*
X1864Y4927D02*
X1838D01*
X1875Y4910D02*
X1858D01*
X1841D02*
X1824D01*
X1808Y4970D02*
Y4910D01*
X1805Y4970D02*
Y4910D01*
X1816Y4970D02*
X1782D01*
X1773Y4967D01*
X1771Y4964D01*
X1768Y4959D01*
Y4953D01*
X1771Y4947D01*
X1773Y4944D01*
X1782Y4941D01*
X1805D01*
X1782Y4970D02*
X1776Y4967D01*
X1773Y4964D01*
X1771Y4959D01*
Y4953D01*
X1773Y4947D01*
X1776Y4944D01*
X1782Y4941D01*
X1816Y4910D02*
X1796D01*
X1791Y4941D02*
X1785Y4939D01*
X1782Y4936D01*
X1773Y4916D01*
X1771Y4913D01*
X1768D01*
X1765Y4916D01*
X1785Y4939D02*
X1782Y4933D01*
X1776Y4913D01*
X1773Y4910D01*
X1768D01*
X1765Y4916D01*
Y4919D01*
X1700Y4959D02*
X1697Y4956D01*
X1700Y4953D01*
X1703Y4956D01*
Y4959D01*
X1700Y4964D01*
X1697Y4967D01*
X1689Y4970D01*
X1677D01*
X1669Y4967D01*
X1666Y4964D01*
X1663Y4959D01*
Y4953D01*
X1666Y4947D01*
X1675Y4941D01*
X1689Y4936D01*
X1695Y4933D01*
X1700Y4927D01*
X1703Y4919D01*
Y4910D01*
X1677Y4970D02*
X1672Y4967D01*
X1669Y4964D01*
X1666Y4959D01*
Y4953D01*
X1669Y4947D01*
X1677Y4941D01*
X1689Y4936D01*
X1703Y4916D02*
X1700Y4919D01*
X1695D01*
X1680Y4913D01*
X1672D01*
X1666Y4916D01*
X1663Y4919D01*
Y4924D01*
X1695Y4919D02*
X1680Y4910D01*
X1669D01*
X1666Y4913D01*
X1663Y4919D01*
X1637Y4970D02*
X1646Y4967D01*
X1651Y4959D01*
X1654Y4944D01*
Y4936D01*
X1651Y4921D01*
X1646Y4913D01*
X1637Y4910D01*
X1631D01*
X1623Y4913D01*
X1617Y4921D01*
X1614Y4936D01*
Y4944D01*
X1617Y4959D01*
X1623Y4967D01*
X1631Y4970D01*
X1637D01*
X1643Y4967D01*
X1646Y4964D01*
X1649Y4959D01*
X1651Y4944D01*
Y4936D01*
X1649Y4921D01*
X1646Y4916D01*
X1643Y4913D01*
X1637Y4910D01*
X1631D02*
X1626Y4913D01*
X1623Y4916D01*
X1620Y4921D01*
X1617Y4936D01*
Y4944D01*
X1620Y4959D01*
X1623Y4964D01*
X1626Y4967D01*
X1631Y4970D01*
X1605Y4959D02*
X1600Y4961D01*
X1591Y4970D01*
Y4910D01*
X1594Y4967D02*
Y4910D01*
X1605D02*
X1580D01*
X1552Y4970D02*
X1561Y4967D01*
X1567Y4959D01*
X1569Y4944D01*
Y4936D01*
X1567Y4921D01*
X1561Y4913D01*
X1552Y4910D01*
X1547D01*
X1538Y4913D01*
X1532Y4921D01*
X1529Y4936D01*
Y4944D01*
X1532Y4959D01*
X1538Y4967D01*
X1547Y4970D01*
X1552D01*
X1558Y4967D01*
X1561Y4964D01*
X1564Y4959D01*
X1567Y4944D01*
Y4936D01*
X1564Y4921D01*
X1561Y4916D01*
X1558Y4913D01*
X1552Y4910D01*
X1547D02*
X1541Y4913D01*
X1538Y4916D01*
X1535Y4921D01*
X1532Y4936D01*
Y4944D01*
X1535Y4959D01*
X1538Y4964D01*
X1541Y4967D01*
X1547Y4970D01*
D13*
X2940Y2180D02*
D03*
X3140Y2540D02*
D03*
X2940Y3020D02*
D03*
D14*
X3040Y2180D02*
D03*
X3140D02*
D03*
X3040Y2540D02*
D03*
X2940D02*
D03*
X3040Y3020D02*
D03*
X3140D02*
D03*
D15*
X3030Y2840D02*
D03*
X2730D02*
D03*
X3190Y2700D02*
D03*
X2890D02*
D03*
X1760Y4150D02*
D03*
Y4450D02*
D03*
X1570Y3300D02*
D03*
X1270D02*
D03*
D16*
X2622Y1800D02*
D03*
X2818D02*
D03*
X2610Y3495D02*
D03*
Y3595D02*
D03*
Y3695D02*
D03*
Y3795D02*
D03*
Y3895D02*
D03*
Y3995D02*
D03*
Y4095D02*
D03*
Y4195D02*
D03*
Y4295D02*
D03*
X2310Y3495D02*
D03*
Y3595D02*
D03*
Y3695D02*
D03*
Y3795D02*
D03*
Y3895D02*
D03*
Y3995D02*
D03*
Y4095D02*
D03*
Y4195D02*
D03*
X1740Y2395D02*
D03*
X1840D02*
D03*
X1940D02*
D03*
X2040D02*
D03*
X2140D02*
D03*
X2240D02*
D03*
X2340D02*
D03*
X2440D02*
D03*
X1740Y2695D02*
D03*
X1840D02*
D03*
X1940D02*
D03*
X2040D02*
D03*
X2140D02*
D03*
X2240D02*
D03*
X2340D02*
D03*
X1920Y4340D02*
D03*
X3755Y4445D02*
D03*
X3655D02*
D03*
X3755Y4145D02*
D03*
X3655D02*
D03*
X3755Y3845D02*
D03*
X3655D02*
D03*
X3755Y3545D02*
D03*
X3655D02*
D03*
X3755Y3245D02*
D03*
X3655D02*
D03*
X3755Y2810D02*
D03*
X3655D02*
D03*
X3755Y2510D02*
D03*
X3655D02*
D03*
X3755Y2210D02*
D03*
X3655D02*
D03*
X3755Y1910D02*
D03*
X3655D02*
D03*
X3755Y1610D02*
D03*
X3655D02*
D03*
X3755Y1310D02*
D03*
X3655D02*
D03*
D17*
X3965Y1150D02*
D03*
X1120Y3010D02*
D03*
Y4825D02*
D03*
X3965D02*
D03*
D18*
X1160Y2640D02*
D03*
X1410D02*
D03*
X1160Y2480D02*
D03*
X1410D02*
D03*
X1480Y4450D02*
D03*
Y4350D02*
D03*
D19*
X1320Y3640D02*
D03*
Y3740D02*
D03*
Y3840D02*
D03*
Y3940D02*
D03*
Y4040D02*
D03*
X1220Y3640D02*
D03*
Y3740D02*
D03*
Y3840D02*
D03*
Y3940D02*
D03*
D20*
Y4040D02*
D03*
D21*
X2855Y4147D02*
D03*
D22*
Y3947D02*
D03*
D23*
X1600Y3940D02*
D03*
Y3840D02*
D03*
X3060Y4145D02*
D03*
X3160D02*
D03*
X3060Y3977D02*
D03*
X3160D02*
D03*
X3180Y1860D02*
D03*
X3080D02*
D03*
X1240Y2760D02*
D03*
X1340D02*
D03*
D24*
X2330Y2924D02*
D03*
X2620Y2599D02*
D03*
X2110Y2924D02*
D03*
X1890D02*
D03*
D25*
X2330Y2846D02*
D03*
X2620Y2521D02*
D03*
X2110Y2846D02*
D03*
X2346Y2180D02*
D03*
X1890Y2846D02*
D03*
D26*
X2424Y2180D02*
D03*
D27*
X1350Y1750D02*
D03*
X2025Y1752D02*
D03*
D28*
X1625Y1500D02*
D03*
X1225D02*
D03*
X2300Y1502D02*
D03*
X1900D02*
D03*
D29*
X1450Y1750D02*
D03*
X1400Y1850D02*
D03*
X1500D02*
D03*
X2125Y1752D02*
D03*
X2075Y1852D02*
D03*
X2175D02*
D03*
D30*
X1240Y2220D02*
D03*
X1320D02*
D03*
X1240Y2060D02*
D03*
X1320D02*
D03*
Y2140D02*
D03*
X1240D02*
D03*
X1760Y3560D02*
D03*
X1840D02*
D03*
X1760Y3400D02*
D03*
X1840D02*
D03*
Y3480D02*
D03*
X1760D02*
D03*
D31*
X2310Y4295D02*
D03*
X3555Y4445D02*
D03*
Y4145D02*
D03*
Y3845D02*
D03*
Y3545D02*
D03*
Y3245D02*
D03*
Y2810D02*
D03*
Y2510D02*
D03*
Y2210D02*
D03*
Y1910D02*
D03*
Y1610D02*
D03*
Y1310D02*
D03*
D32*
X2440Y2695D02*
D03*
X1920Y4240D02*
D03*
D33*
X3020Y1296D02*
D03*
D34*
X2820D02*
D03*
X2621D02*
D03*
D35*
X3017Y3344D02*
D03*
X2332Y3352D02*
D03*
X2108Y3228D02*
D03*
X2185Y2640D02*
D03*
D36*
X1283Y1985D02*
D03*
X1803Y3325D02*
D03*
D37*
X1280Y2295D02*
D03*
X1800Y3635D02*
D03*
M02*
