%FSLAX23Y23*%
%MOIN*%
G70*
G01*
G75*
G04 Layer_Physical_Order=1*
G04 Layer_Color=255*
%ADD10C,0.020*%
%ADD11C,0.047*%
%ADD12C,0.010*%
%ADD13C,0.120*%
%ADD14P,0.130X8X202.5*%
%ADD15C,0.070*%
%ADD16C,0.055*%
%ADD17C,0.060*%
G04:AMPARAMS|DCode=18|XSize=80mil|YSize=100mil|CornerRadius=0mil|HoleSize=0mil|Usage=FLASHONLY|Rotation=0.000|XOffset=0mil|YOffset=0mil|HoleType=Round|Shape=Octagon|*
%AMOCTAGOND18*
4,1,8,-0.020,0.050,0.020,0.050,0.040,0.030,0.040,-0.030,0.020,-0.050,-0.020,-0.050,-0.040,-0.030,-0.040,0.030,-0.020,0.050,0.0*
%
%ADD18OCTAGOND18*%

%ADD19P,0.213X8X22.5*%
%ADD20R,0.059X0.059*%
%ADD21C,0.059*%
%ADD22R,0.059X0.059*%
%ADD23C,0.059*%
%ADD24C,0.116*%
%ADD25R,0.059X0.059*%
%ADD26C,0.065*%
%ADD27C,0.049*%
%ADD28R,0.049X0.049*%
%ADD29R,0.049X0.049*%
%ADD30C,0.050*%
%ADD31R,0.050X0.050*%
G04:AMPARAMS|DCode=32|XSize=80mil|YSize=60mil|CornerRadius=0mil|HoleSize=0mil|Usage=FLASHONLY|Rotation=0.000|XOffset=0mil|YOffset=0mil|HoleType=Round|Shape=Octagon|*
%AMOCTAGOND32*
4,1,8,0.040,-0.015,0.040,0.015,0.025,0.030,-0.025,0.030,-0.040,0.015,-0.040,-0.015,-0.025,-0.030,0.025,-0.030,0.040,-0.015,0.0*
%
%ADD32OCTAGOND32*%

%ADD33O,0.100X0.060*%
G04:AMPARAMS|DCode=34|XSize=100mil|YSize=60mil|CornerRadius=0mil|HoleSize=0mil|Usage=FLASHONLY|Rotation=0.000|XOffset=0mil|YOffset=0mil|HoleType=Round|Shape=Octagon|*
%AMOCTAGOND34*
4,1,8,0.050,-0.015,0.050,0.015,0.035,0.030,-0.035,0.030,-0.050,0.015,-0.050,-0.015,-0.035,-0.030,0.035,-0.030,0.050,-0.015,0.0*
%
%ADD34OCTAGOND34*%

%ADD35R,0.070X0.040*%
%ADD36R,0.075X0.040*%
D10*
X2495Y3020D02*
Y3480D01*
Y2648D02*
Y3020D01*
X2420Y2945D02*
X2495Y3020D01*
X2160Y2695D02*
Y2874D01*
X2495Y3480D02*
X2610Y3595D01*
X2495Y3020D02*
Y3480D01*
X2487Y2640D02*
X2495Y2648D01*
X2185Y2640D02*
X2487D01*
X2776Y3604D02*
X3260Y3120D01*
X1965Y2470D02*
X2040Y2395D01*
X1855Y2470D02*
X1965D01*
X1670Y2655D02*
X1855Y2470D01*
X1670Y2655D02*
Y3695D01*
X1690Y3715D01*
X2190D01*
X2310Y3595D01*
X1890Y2745D02*
Y2846D01*
Y2745D02*
X1940Y2695D01*
X2110Y2765D02*
Y2846D01*
X2040Y2695D02*
X2110Y2765D01*
X1240Y2720D02*
Y2760D01*
X1160Y2640D02*
X1240Y2720D01*
X1705Y3535D02*
X1760Y3480D01*
X1705Y3535D02*
Y3645D01*
X1740Y3680D01*
X1860D01*
X2100Y3440D01*
X2336D01*
X2365Y3469D01*
Y3550D01*
X2610Y3795D01*
X2433Y3518D02*
X2610Y3695D01*
X2433Y3439D02*
Y3518D01*
X2400Y3405D02*
X2433Y3439D01*
X1915Y3405D02*
X2400D01*
X1840Y3480D02*
X1915Y3405D01*
X3378Y4020D02*
X3510D01*
X3048Y4350D02*
X3378Y4020D01*
X2465Y4350D02*
X3048D01*
X2310Y4195D02*
X2465Y4350D01*
X2310Y4295D02*
X2400Y4385D01*
X3070D01*
X3335Y4120D01*
X3510D01*
X2050Y2305D02*
X2140Y2395D01*
X1833Y2305D02*
X2050D01*
X1609Y2081D02*
X1833Y2305D01*
X1609Y1728D02*
Y2081D01*
X1576Y1695D02*
X1609Y1728D01*
X1405Y1695D02*
X1576D01*
X1350Y1750D02*
X1405Y1695D01*
X1862Y1915D02*
X2025Y1752D01*
X1862Y1915D02*
Y2220D01*
X2240Y2695D02*
X2330Y2785D01*
Y2846D01*
X1223Y1850D02*
X1400D01*
X1185Y1888D02*
X1223Y1850D01*
X1185Y1888D02*
Y2085D01*
X1240Y2140D01*
X2330Y2924D02*
X2440Y2814D01*
Y2695D02*
Y2814D01*
X2140Y4265D02*
Y4500D01*
Y4265D02*
X2310Y4095D01*
X2140Y2695D02*
X2160D01*
X2110Y2924D02*
X2160Y2874D01*
X1140Y2860D02*
Y2900D01*
Y2860D02*
X1240Y2760D01*
X1270Y3220D02*
X1310Y3180D01*
X1270Y3220D02*
Y3990D01*
X1320Y4040D01*
D11*
X3060Y1881D02*
X3550D01*
X3060D02*
Y1940D01*
Y1830D02*
Y1881D01*
X3160Y4017D02*
Y4145D01*
X3160Y3977D02*
X3160Y4017D01*
X1720Y3923D02*
Y4470D01*
X1637Y3840D02*
X1720Y3923D01*
X1600Y3840D02*
X1637D01*
X3318Y1640D02*
X3460Y1782D01*
X3020Y1296D02*
X3318Y1640D01*
X2960Y1356D02*
Y1720D01*
Y1356D02*
X3020Y1296D01*
X1320Y3840D02*
X1384Y3776D01*
Y2804D02*
Y3776D01*
X1340Y2760D02*
X1384Y2804D01*
X1340Y2550D02*
X1410Y2480D01*
X1340Y2550D02*
Y2760D01*
X1500Y1850D02*
Y2390D01*
X1410Y2480D02*
X1500Y2390D01*
X3456Y3820D02*
X3510D01*
X3431Y3795D02*
X3456Y3820D01*
X3431Y2007D02*
Y3795D01*
Y2007D02*
X3460Y1978D01*
X2424Y2180D02*
Y2326D01*
X2440Y2341D01*
Y2395D01*
X3060Y1881D02*
Y1940D01*
X3550Y1881D02*
X3589Y1920D01*
Y3683D01*
X3552Y3720D02*
X3589Y3683D01*
X3510Y3720D02*
X3552D01*
X2175Y1852D02*
X2346Y2023D01*
Y2180D01*
X2860Y1535D02*
Y1940D01*
X2621Y1296D02*
X2860Y1535D01*
X1529Y3261D02*
X1610Y3180D01*
X1529Y3261D02*
Y3931D01*
X1538Y3940D01*
X1600D01*
X2610Y3895D02*
X2679Y3826D01*
Y3412D02*
Y3826D01*
X2556Y3289D02*
X2679Y3412D01*
X2556Y2557D02*
Y3289D01*
Y2557D02*
X2592Y2521D01*
X2620D01*
X2960Y1830D02*
Y1940D01*
X2960Y1830D02*
X2960Y1830D01*
X2960Y1720D02*
Y1830D01*
X2340Y2290D02*
Y2395D01*
Y2290D02*
X2346Y2284D01*
Y2180D02*
Y2284D01*
X3060Y1830D02*
X3060Y1830D01*
X3060Y1720D02*
Y1830D01*
D12*
X1865Y4970D02*
Y4910D01*
X1868Y4970D02*
Y4910D01*
X1848Y4970D02*
X1845Y4953D01*
Y4970D01*
X1888D01*
Y4953D01*
X1885Y4970D01*
X1856Y4910D02*
X1876D01*
X1902Y4944D02*
Y4941D01*
X1899D01*
Y4944D01*
X1902Y4947D01*
X1908Y4950D01*
X1919D01*
X1925Y4947D01*
X1928Y4944D01*
X1931Y4939D01*
Y4919D01*
X1934Y4913D01*
X1936Y4910D01*
X1928Y4944D02*
Y4919D01*
X1931Y4913D01*
X1936Y4910D01*
X1939D01*
X1928Y4939D02*
X1925Y4936D01*
X1908Y4933D01*
X1899Y4930D01*
X1896Y4924D01*
Y4919D01*
X1899Y4913D01*
X1908Y4910D01*
X1916D01*
X1922Y4913D01*
X1928Y4919D01*
X1908Y4933D02*
X1902Y4930D01*
X1899Y4924D01*
Y4919D01*
X1902Y4913D01*
X1908Y4910D01*
X1956Y4970D02*
Y4910D01*
X1959Y4970D02*
Y4910D01*
X1948Y4970D02*
X1959D01*
X1948Y4910D02*
X1968D01*
X1987Y4970D02*
Y4910D01*
X1990Y4970D02*
Y4910D01*
X1979Y4970D02*
X1990D01*
X1979Y4910D02*
X1999D01*
X2012Y4933D02*
X2047D01*
Y4939D01*
X2044Y4944D01*
X2041Y4947D01*
X2035Y4950D01*
X2027D01*
X2018Y4947D01*
X2012Y4941D01*
X2010Y4933D01*
Y4927D01*
X2012Y4919D01*
X2018Y4913D01*
X2027Y4910D01*
X2032D01*
X2041Y4913D01*
X2047Y4919D01*
X2044Y4933D02*
Y4941D01*
X2041Y4947D01*
X2027Y4950D02*
X2021Y4947D01*
X2015Y4941D01*
X2012Y4933D01*
Y4927D01*
X2015Y4919D01*
X2021Y4913D01*
X2027Y4910D01*
X2064Y4950D02*
Y4910D01*
X2067Y4950D02*
Y4910D01*
Y4933D02*
X2070Y4941D01*
X2076Y4947D01*
X2082Y4950D01*
X2090D01*
X2093Y4947D01*
Y4944D01*
X2090Y4941D01*
X2087Y4944D01*
X2090Y4947D01*
X2056Y4950D02*
X2067D01*
X2056Y4910D02*
X2076D01*
X2190Y4970D02*
Y4910D01*
X2193Y4970D02*
Y4910D01*
X2190Y4941D02*
X2185Y4947D01*
X2179Y4950D01*
X2173D01*
X2165Y4947D01*
X2159Y4941D01*
X2156Y4933D01*
Y4927D01*
X2159Y4919D01*
X2165Y4913D01*
X2173Y4910D01*
X2179D01*
X2185Y4913D01*
X2190Y4919D01*
X2173Y4950D02*
X2168Y4947D01*
X2162Y4941D01*
X2159Y4933D01*
Y4927D01*
X2162Y4919D01*
X2168Y4913D01*
X2173Y4910D01*
X2182Y4970D02*
X2193D01*
X2190Y4910D02*
X2202D01*
X2213Y4933D02*
X2247D01*
Y4939D01*
X2244Y4944D01*
X2241Y4947D01*
X2236Y4950D01*
X2227D01*
X2219Y4947D01*
X2213Y4941D01*
X2210Y4933D01*
Y4927D01*
X2213Y4919D01*
X2219Y4913D01*
X2227Y4910D01*
X2233D01*
X2241Y4913D01*
X2247Y4919D01*
X2244Y4933D02*
Y4941D01*
X2241Y4947D01*
X2227Y4950D02*
X2221Y4947D01*
X2216Y4941D01*
X2213Y4933D01*
Y4927D01*
X2216Y4919D01*
X2221Y4913D01*
X2227Y4910D01*
X2319Y4970D02*
Y4910D01*
X2322Y4970D02*
Y4910D01*
X2310Y4970D02*
X2345D01*
X2353Y4967D01*
X2356Y4964D01*
X2359Y4959D01*
Y4950D01*
X2356Y4944D01*
X2353Y4941D01*
X2345Y4939D01*
X2322D01*
X2345Y4970D02*
X2350Y4967D01*
X2353Y4964D01*
X2356Y4959D01*
Y4950D01*
X2353Y4944D01*
X2350Y4941D01*
X2345Y4939D01*
X2310Y4910D02*
X2330D01*
X2375Y4950D02*
Y4910D01*
X2378Y4950D02*
Y4910D01*
Y4933D02*
X2381Y4941D01*
X2387Y4947D01*
X2393Y4950D01*
X2401D01*
X2404Y4947D01*
Y4944D01*
X2401Y4941D01*
X2398Y4944D01*
X2401Y4947D01*
X2367Y4950D02*
X2378D01*
X2367Y4910D02*
X2387D01*
X2430Y4950D02*
X2422Y4947D01*
X2416Y4941D01*
X2413Y4933D01*
Y4927D01*
X2416Y4919D01*
X2422Y4913D01*
X2430Y4910D01*
X2436D01*
X2445Y4913D01*
X2450Y4919D01*
X2453Y4927D01*
Y4933D01*
X2450Y4941D01*
X2445Y4947D01*
X2436Y4950D01*
X2430D01*
X2425Y4947D01*
X2419Y4941D01*
X2416Y4933D01*
Y4927D01*
X2419Y4919D01*
X2425Y4913D01*
X2430Y4910D01*
X2436D02*
X2442Y4913D01*
X2447Y4919D01*
X2450Y4927D01*
Y4933D01*
X2447Y4941D01*
X2442Y4947D01*
X2436Y4950D01*
X2468D02*
X2485Y4910D01*
X2471Y4950D02*
X2485Y4916D01*
X2502Y4950D02*
X2485Y4910D01*
X2479Y4899D01*
X2473Y4893D01*
X2468Y4890D01*
X2465D01*
X2462Y4893D01*
X2465Y4896D01*
X2468Y4893D01*
X2462Y4950D02*
X2479D01*
X2491D02*
X2508D01*
X2519Y4933D02*
X2553D01*
Y4939D01*
X2550Y4944D01*
X2547Y4947D01*
X2542Y4950D01*
X2533D01*
X2525Y4947D01*
X2519Y4941D01*
X2516Y4933D01*
Y4927D01*
X2519Y4919D01*
X2525Y4913D01*
X2533Y4910D01*
X2539D01*
X2547Y4913D01*
X2553Y4919D01*
X2550Y4933D02*
Y4941D01*
X2547Y4947D01*
X2533Y4950D02*
X2527Y4947D01*
X2522Y4941D01*
X2519Y4933D01*
Y4927D01*
X2522Y4919D01*
X2527Y4913D01*
X2533Y4910D01*
X2597Y4941D02*
X2594Y4939D01*
X2597Y4936D01*
X2599Y4939D01*
Y4941D01*
X2594Y4947D01*
X2588Y4950D01*
X2579D01*
X2571Y4947D01*
X2565Y4941D01*
X2562Y4933D01*
Y4927D01*
X2565Y4919D01*
X2571Y4913D01*
X2579Y4910D01*
X2585D01*
X2594Y4913D01*
X2599Y4919D01*
X2579Y4950D02*
X2574Y4947D01*
X2568Y4941D01*
X2565Y4933D01*
Y4927D01*
X2568Y4919D01*
X2574Y4913D01*
X2579Y4910D01*
X2626D02*
X2623Y4913D01*
X2620Y4921D01*
Y4970D01*
X2617D01*
Y4921D01*
X2620Y4913D01*
X2626Y4910D01*
X2631D01*
X2637Y4913D01*
X2640Y4919D01*
X2609Y4950D02*
X2631D01*
X2667D02*
X2658Y4947D01*
X2653Y4941D01*
X2650Y4933D01*
Y4927D01*
X2653Y4919D01*
X2658Y4913D01*
X2667Y4910D01*
X2673D01*
X2681Y4913D01*
X2687Y4919D01*
X2690Y4927D01*
Y4933D01*
X2687Y4941D01*
X2681Y4947D01*
X2673Y4950D01*
X2667D01*
X2661Y4947D01*
X2655Y4941D01*
X2653Y4933D01*
Y4927D01*
X2655Y4919D01*
X2661Y4913D01*
X2667Y4910D01*
X2673D02*
X2678Y4913D01*
X2684Y4919D01*
X2687Y4927D01*
Y4933D01*
X2684Y4941D01*
X2678Y4947D01*
X2673Y4950D01*
X2761Y4970D02*
Y4910D01*
X2764Y4970D02*
Y4910D01*
X2781Y4953D02*
Y4930D01*
X2753Y4970D02*
X2798D01*
Y4953D01*
X2795Y4970D01*
X2764Y4941D02*
X2781D01*
X2753Y4910D02*
X2773D01*
X2815Y4970D02*
X2812Y4967D01*
X2815Y4964D01*
X2818Y4967D01*
X2815Y4970D01*
Y4950D02*
Y4910D01*
X2818Y4950D02*
Y4910D01*
X2807Y4950D02*
X2818D01*
X2807Y4910D02*
X2827D01*
X2846Y4950D02*
Y4910D01*
X2849Y4950D02*
Y4910D01*
Y4941D02*
X2854Y4947D01*
X2863Y4950D01*
X2869D01*
X2877Y4947D01*
X2880Y4941D01*
Y4910D01*
X2869Y4950D02*
X2874Y4947D01*
X2877Y4941D01*
Y4910D01*
X2837Y4950D02*
X2849D01*
X2837Y4910D02*
X2857D01*
X2869D02*
X2889D01*
X2902Y4944D02*
Y4941D01*
X2899D01*
Y4944D01*
X2902Y4947D01*
X2908Y4950D01*
X2919D01*
X2925Y4947D01*
X2928Y4944D01*
X2931Y4939D01*
Y4919D01*
X2934Y4913D01*
X2936Y4910D01*
X2928Y4944D02*
Y4919D01*
X2931Y4913D01*
X2936Y4910D01*
X2939D01*
X2928Y4939D02*
X2925Y4936D01*
X2908Y4933D01*
X2899Y4930D01*
X2896Y4924D01*
Y4919D01*
X2899Y4913D01*
X2908Y4910D01*
X2916D01*
X2922Y4913D01*
X2928Y4919D01*
X2908Y4933D02*
X2902Y4930D01*
X2899Y4924D01*
Y4919D01*
X2902Y4913D01*
X2908Y4910D01*
X2956Y4970D02*
Y4910D01*
X2959Y4970D02*
Y4910D01*
X2948Y4970D02*
X2959D01*
X2948Y4910D02*
X2968D01*
X3033Y4936D02*
X3084D01*
X3154Y4970D02*
Y4910D01*
X3157Y4970D02*
Y4910D01*
X3146Y4970D02*
X3166D01*
X3146Y4910D02*
X3166D01*
X3197Y4970D02*
Y4910D01*
X3200Y4970D02*
Y4910D01*
X3180Y4970D02*
X3177Y4953D01*
Y4970D01*
X3220D01*
Y4953D01*
X3217Y4970D01*
X3188Y4910D02*
X3208D01*
X3237Y4970D02*
Y4910D01*
X3240Y4970D02*
Y4910D01*
X3228Y4970D02*
X3262D01*
X3271Y4967D01*
X3274Y4964D01*
X3277Y4959D01*
Y4953D01*
X3274Y4947D01*
X3271Y4944D01*
X3262Y4941D01*
Y4970D02*
X3268Y4967D01*
X3271Y4964D01*
X3274Y4959D01*
Y4953D01*
X3271Y4947D01*
X3268Y4944D01*
X3262Y4941D01*
X3240D02*
X3262D01*
X3271Y4939D01*
X3274Y4936D01*
X3277Y4930D01*
Y4921D01*
X3274Y4916D01*
X3271Y4913D01*
X3262Y4910D01*
X3228D01*
X3262Y4941D02*
X3268Y4939D01*
X3271Y4936D01*
X3274Y4930D01*
Y4921D01*
X3271Y4916D01*
X3268Y4913D01*
X3262Y4910D01*
X3310Y4970D02*
X3290Y4910D01*
X3310Y4970D02*
X3330Y4910D01*
X3310Y4961D02*
X3328Y4910D01*
X3296Y4927D02*
X3322D01*
X3285Y4910D02*
X3302D01*
X3319D02*
X3336D01*
X3406Y4970D02*
Y4910D01*
X3409Y4970D02*
Y4910D01*
X3426Y4953D02*
Y4930D01*
X3398Y4970D02*
X3444D01*
Y4953D01*
X3441Y4970D01*
X3409Y4941D02*
X3426D01*
X3398Y4910D02*
X3418D01*
X3455Y4933D02*
X3489D01*
Y4939D01*
X3486Y4944D01*
X3483Y4947D01*
X3478Y4950D01*
X3469D01*
X3460Y4947D01*
X3455Y4941D01*
X3452Y4933D01*
Y4927D01*
X3455Y4919D01*
X3460Y4913D01*
X3469Y4910D01*
X3475D01*
X3483Y4913D01*
X3489Y4919D01*
X3486Y4933D02*
Y4941D01*
X3483Y4947D01*
X3469Y4950D02*
X3463Y4947D01*
X3458Y4941D01*
X3455Y4933D01*
Y4927D01*
X3458Y4919D01*
X3463Y4913D01*
X3469Y4910D01*
X3507Y4970D02*
Y4910D01*
X3510Y4970D02*
Y4910D01*
Y4941D02*
X3515Y4947D01*
X3521Y4950D01*
X3527D01*
X3535Y4947D01*
X3541Y4941D01*
X3544Y4933D01*
Y4927D01*
X3541Y4919D01*
X3535Y4913D01*
X3527Y4910D01*
X3521D01*
X3515Y4913D01*
X3510Y4919D01*
X3527Y4950D02*
X3532Y4947D01*
X3538Y4941D01*
X3541Y4933D01*
Y4927D01*
X3538Y4919D01*
X3532Y4913D01*
X3527Y4910D01*
X3498Y4970D02*
X3510D01*
X3609Y4959D02*
X3612Y4956D01*
X3609Y4953D01*
X3606Y4956D01*
Y4959D01*
X3609Y4964D01*
X3612Y4967D01*
X3620Y4970D01*
X3632D01*
X3640Y4967D01*
X3643Y4964D01*
X3646Y4959D01*
Y4953D01*
X3643Y4947D01*
X3635Y4941D01*
X3620Y4936D01*
X3615Y4933D01*
X3609Y4927D01*
X3606Y4919D01*
Y4910D01*
X3632Y4970D02*
X3637Y4967D01*
X3640Y4964D01*
X3643Y4959D01*
Y4953D01*
X3640Y4947D01*
X3632Y4941D01*
X3620Y4936D01*
X3606Y4916D02*
X3609Y4919D01*
X3615D01*
X3629Y4913D01*
X3637D01*
X3643Y4916D01*
X3646Y4919D01*
Y4924D01*
X3615Y4919D02*
X3629Y4910D01*
X3640D01*
X3643Y4913D01*
X3646Y4919D01*
X3672Y4970D02*
X3663Y4967D01*
X3658Y4959D01*
X3655Y4944D01*
Y4936D01*
X3658Y4921D01*
X3663Y4913D01*
X3672Y4910D01*
X3678D01*
X3686Y4913D01*
X3692Y4921D01*
X3695Y4936D01*
Y4944D01*
X3692Y4959D01*
X3686Y4967D01*
X3678Y4970D01*
X3672D01*
X3666Y4967D01*
X3663Y4964D01*
X3661Y4959D01*
X3658Y4944D01*
Y4936D01*
X3661Y4921D01*
X3663Y4916D01*
X3666Y4913D01*
X3672Y4910D01*
X3678D02*
X3683Y4913D01*
X3686Y4916D01*
X3689Y4921D01*
X3692Y4936D01*
Y4944D01*
X3689Y4959D01*
X3686Y4964D01*
X3683Y4967D01*
X3678Y4970D01*
X3704Y4959D02*
X3709Y4961D01*
X3718Y4970D01*
Y4910D01*
X3715Y4967D02*
Y4910D01*
X3704D02*
X3729D01*
X3757Y4970D02*
X3748Y4967D01*
X3743Y4959D01*
X3740Y4944D01*
Y4936D01*
X3743Y4921D01*
X3748Y4913D01*
X3757Y4910D01*
X3763D01*
X3771Y4913D01*
X3777Y4921D01*
X3780Y4936D01*
Y4944D01*
X3777Y4959D01*
X3771Y4967D01*
X3763Y4970D01*
X3757D01*
X3751Y4967D01*
X3748Y4964D01*
X3745Y4959D01*
X3743Y4944D01*
Y4936D01*
X3745Y4921D01*
X3748Y4916D01*
X3751Y4913D01*
X3757Y4910D01*
X3763D02*
X3768Y4913D01*
X3771Y4916D01*
X3774Y4921D01*
X3777Y4936D01*
Y4944D01*
X3774Y4959D01*
X3771Y4964D01*
X3768Y4967D01*
X3763Y4970D01*
X1854Y4865D02*
Y4805D01*
X1856Y4865D02*
X1874Y4814D01*
X1854Y4865D02*
X1874Y4805D01*
X1894Y4865D02*
X1874Y4805D01*
X1894Y4865D02*
Y4805D01*
X1896Y4865D02*
Y4805D01*
X1845Y4865D02*
X1856D01*
X1894D02*
X1905D01*
X1845Y4805D02*
X1862D01*
X1885D02*
X1905D01*
X1929Y4845D02*
X1920Y4842D01*
X1915Y4836D01*
X1912Y4828D01*
Y4822D01*
X1915Y4814D01*
X1920Y4808D01*
X1929Y4805D01*
X1935D01*
X1943Y4808D01*
X1949Y4814D01*
X1952Y4822D01*
Y4828D01*
X1949Y4836D01*
X1943Y4842D01*
X1935Y4845D01*
X1929D01*
X1923Y4842D01*
X1918Y4836D01*
X1915Y4828D01*
Y4822D01*
X1918Y4814D01*
X1923Y4808D01*
X1929Y4805D01*
X1935D02*
X1940Y4808D01*
X1946Y4814D01*
X1949Y4822D01*
Y4828D01*
X1946Y4836D01*
X1940Y4842D01*
X1935Y4845D01*
X1995Y4865D02*
Y4805D01*
X1998Y4865D02*
Y4805D01*
X1995Y4836D02*
X1989Y4842D01*
X1984Y4845D01*
X1978D01*
X1969Y4842D01*
X1964Y4836D01*
X1961Y4828D01*
Y4822D01*
X1964Y4814D01*
X1969Y4808D01*
X1978Y4805D01*
X1984D01*
X1989Y4808D01*
X1995Y4814D01*
X1978Y4845D02*
X1972Y4842D01*
X1966Y4836D01*
X1964Y4828D01*
Y4822D01*
X1966Y4814D01*
X1972Y4808D01*
X1978Y4805D01*
X1986Y4865D02*
X1998D01*
X1995Y4805D02*
X2006D01*
X2023Y4845D02*
Y4814D01*
X2026Y4808D01*
X2035Y4805D01*
X2040D01*
X2049Y4808D01*
X2055Y4814D01*
X2026Y4845D02*
Y4814D01*
X2029Y4808D01*
X2035Y4805D01*
X2055Y4845D02*
Y4805D01*
X2058Y4845D02*
Y4805D01*
X2015Y4845D02*
X2026D01*
X2046D02*
X2058D01*
X2055Y4805D02*
X2066D01*
X2082Y4865D02*
Y4805D01*
X2085Y4865D02*
Y4805D01*
X2074Y4865D02*
X2085D01*
X2074Y4805D02*
X2094D01*
X2122Y4845D02*
X2113Y4842D01*
X2108Y4836D01*
X2105Y4828D01*
Y4822D01*
X2108Y4814D01*
X2113Y4808D01*
X2122Y4805D01*
X2128D01*
X2136Y4808D01*
X2142Y4814D01*
X2145Y4822D01*
Y4828D01*
X2142Y4836D01*
X2136Y4842D01*
X2128Y4845D01*
X2122D01*
X2116Y4842D01*
X2110Y4836D01*
X2108Y4828D01*
Y4822D01*
X2110Y4814D01*
X2116Y4808D01*
X2122Y4805D01*
X2128D02*
X2133Y4808D01*
X2139Y4814D01*
X2142Y4822D01*
Y4828D01*
X2139Y4836D01*
X2133Y4842D01*
X2128Y4845D01*
X2247Y4856D02*
X2250Y4848D01*
Y4865D01*
X2247Y4856D01*
X2242Y4862D01*
X2233Y4865D01*
X2227D01*
X2219Y4862D01*
X2213Y4856D01*
X2210Y4851D01*
X2207Y4842D01*
Y4828D01*
X2210Y4819D01*
X2213Y4814D01*
X2219Y4808D01*
X2227Y4805D01*
X2233D01*
X2242Y4808D01*
X2247Y4814D01*
X2227Y4865D02*
X2222Y4862D01*
X2216Y4856D01*
X2213Y4851D01*
X2210Y4842D01*
Y4828D01*
X2213Y4819D01*
X2216Y4814D01*
X2222Y4808D01*
X2227Y4805D01*
X2247Y4828D02*
Y4805D01*
X2250Y4828D02*
Y4805D01*
X2239Y4828D02*
X2259D01*
X2269D02*
X2304D01*
Y4834D01*
X2301Y4839D01*
X2298Y4842D01*
X2292Y4845D01*
X2284D01*
X2275Y4842D01*
X2269Y4836D01*
X2267Y4828D01*
Y4822D01*
X2269Y4814D01*
X2275Y4808D01*
X2284Y4805D01*
X2289D01*
X2298Y4808D01*
X2304Y4814D01*
X2301Y4828D02*
Y4836D01*
X2298Y4842D01*
X2284Y4845D02*
X2278Y4842D01*
X2272Y4836D01*
X2269Y4828D01*
Y4822D01*
X2272Y4814D01*
X2278Y4808D01*
X2284Y4805D01*
X2321Y4845D02*
Y4805D01*
X2324Y4845D02*
Y4805D01*
Y4836D02*
X2330Y4842D01*
X2339Y4845D01*
X2344D01*
X2353Y4842D01*
X2356Y4836D01*
Y4805D01*
X2344Y4845D02*
X2350Y4842D01*
X2353Y4836D01*
Y4805D01*
X2313Y4845D02*
X2324D01*
X2313Y4805D02*
X2333D01*
X2344D02*
X2364D01*
X2375Y4828D02*
X2409D01*
Y4834D01*
X2406Y4839D01*
X2403Y4842D01*
X2398Y4845D01*
X2389D01*
X2381Y4842D01*
X2375Y4836D01*
X2372Y4828D01*
Y4822D01*
X2375Y4814D01*
X2381Y4808D01*
X2389Y4805D01*
X2395D01*
X2403Y4808D01*
X2409Y4814D01*
X2406Y4828D02*
Y4836D01*
X2403Y4842D01*
X2389Y4845D02*
X2383Y4842D01*
X2378Y4836D01*
X2375Y4828D01*
Y4822D01*
X2378Y4814D01*
X2383Y4808D01*
X2389Y4805D01*
X2427Y4845D02*
Y4805D01*
X2430Y4845D02*
Y4805D01*
Y4828D02*
X2433Y4836D01*
X2438Y4842D01*
X2444Y4845D01*
X2453D01*
X2455Y4842D01*
Y4839D01*
X2453Y4836D01*
X2450Y4839D01*
X2453Y4842D01*
X2418Y4845D02*
X2430D01*
X2418Y4805D02*
X2438D01*
X2473Y4865D02*
X2470Y4862D01*
X2473Y4859D01*
X2476Y4862D01*
X2473Y4865D01*
Y4845D02*
Y4805D01*
X2476Y4845D02*
Y4805D01*
X2465Y4845D02*
X2476D01*
X2465Y4805D02*
X2485D01*
X2530Y4836D02*
X2527Y4834D01*
X2530Y4831D01*
X2533Y4834D01*
Y4836D01*
X2527Y4842D01*
X2521Y4845D01*
X2513D01*
X2504Y4842D01*
X2498Y4836D01*
X2495Y4828D01*
Y4822D01*
X2498Y4814D01*
X2504Y4808D01*
X2513Y4805D01*
X2518D01*
X2527Y4808D01*
X2533Y4814D01*
X2513Y4845D02*
X2507Y4842D01*
X2501Y4836D01*
X2498Y4828D01*
Y4822D01*
X2501Y4814D01*
X2507Y4808D01*
X2513Y4805D01*
X2559Y4845D02*
X2550Y4842D01*
X2545Y4836D01*
X2542Y4828D01*
Y4822D01*
X2545Y4814D01*
X2550Y4808D01*
X2559Y4805D01*
X2565D01*
X2573Y4808D01*
X2579Y4814D01*
X2582Y4822D01*
Y4828D01*
X2579Y4836D01*
X2573Y4842D01*
X2565Y4845D01*
X2559D01*
X2553Y4842D01*
X2547Y4836D01*
X2545Y4828D01*
Y4822D01*
X2547Y4814D01*
X2553Y4808D01*
X2559Y4805D01*
X2565D02*
X2570Y4808D01*
X2576Y4814D01*
X2579Y4822D01*
Y4828D01*
X2576Y4836D01*
X2570Y4842D01*
X2565Y4845D01*
X2645Y4831D02*
X2696D01*
X2763Y4845D02*
X2781Y4805D01*
X2766Y4845D02*
X2781Y4811D01*
X2798Y4845D02*
X2781Y4805D01*
X2758Y4845D02*
X2775D01*
X2786D02*
X2803D01*
X2866Y4854D02*
X2871Y4856D01*
X2880Y4865D01*
Y4805D01*
X2877Y4862D02*
Y4805D01*
X2866D02*
X2891D01*
X2904Y4811D02*
X2902Y4808D01*
X2904Y4805D01*
X2907Y4808D01*
X2904Y4811D01*
X2937Y4865D02*
X2928Y4862D01*
X2922Y4854D01*
X2920Y4839D01*
Y4831D01*
X2922Y4816D01*
X2928Y4808D01*
X2937Y4805D01*
X2942D01*
X2951Y4808D01*
X2957Y4816D01*
X2960Y4831D01*
Y4839D01*
X2957Y4854D01*
X2951Y4862D01*
X2942Y4865D01*
X2937D01*
X2931Y4862D01*
X2928Y4859D01*
X2925Y4854D01*
X2922Y4839D01*
Y4831D01*
X2925Y4816D01*
X2928Y4811D01*
X2931Y4808D01*
X2937Y4805D01*
X2942D02*
X2948Y4808D01*
X2951Y4811D01*
X2954Y4816D01*
X2957Y4831D01*
Y4839D01*
X2954Y4854D01*
X2951Y4859D01*
X2948Y4862D01*
X2942Y4865D01*
X1885Y4751D02*
X1888Y4743D01*
Y4760D01*
X1885Y4751D01*
X1879Y4757D01*
X1871Y4760D01*
X1865D01*
X1856Y4757D01*
X1851Y4751D01*
X1848Y4746D01*
X1845Y4737D01*
Y4723D01*
X1848Y4714D01*
X1851Y4709D01*
X1856Y4703D01*
X1865Y4700D01*
X1871D01*
X1879Y4703D01*
X1885Y4709D01*
X1888Y4714D01*
X1865Y4760D02*
X1859Y4757D01*
X1854Y4751D01*
X1851Y4746D01*
X1848Y4737D01*
Y4723D01*
X1851Y4714D01*
X1854Y4709D01*
X1859Y4703D01*
X1865Y4700D01*
X1922Y4760D02*
X1902Y4700D01*
X1922Y4760D02*
X1942Y4700D01*
X1922Y4751D02*
X1939Y4700D01*
X1908Y4717D02*
X1934D01*
X1896Y4700D02*
X1914D01*
X1931D02*
X1948D01*
X1964Y4760D02*
Y4700D01*
X1967Y4760D02*
X1984Y4709D01*
X1964Y4760D02*
X1984Y4700D01*
X2004Y4760D02*
X1984Y4700D01*
X2004Y4760D02*
Y4700D01*
X2007Y4760D02*
Y4700D01*
X1956Y4760D02*
X1967D01*
X2004D02*
X2016D01*
X1956Y4700D02*
X1973D01*
X1996D02*
X2016D01*
X2031Y4760D02*
Y4700D01*
X2034Y4760D02*
Y4700D01*
X2022Y4760D02*
X2057D01*
X2065Y4757D01*
X2068Y4754D01*
X2071Y4749D01*
Y4740D01*
X2068Y4734D01*
X2065Y4731D01*
X2057Y4729D01*
X2034D01*
X2057Y4760D02*
X2062Y4757D01*
X2065Y4754D01*
X2068Y4749D01*
Y4740D01*
X2065Y4734D01*
X2062Y4731D01*
X2057Y4729D01*
X2022Y4700D02*
X2042D01*
X2088Y4760D02*
Y4700D01*
X2090Y4760D02*
Y4700D01*
X2108Y4743D02*
Y4720D01*
X2079Y4760D02*
X2125D01*
Y4743D01*
X2122Y4760D01*
X2090Y4731D02*
X2108D01*
X2079Y4700D02*
X2125D01*
Y4717D01*
X2122Y4700D01*
X2142Y4760D02*
Y4700D01*
X2144Y4760D02*
Y4700D01*
X2133Y4760D02*
X2153D01*
X2133Y4700D02*
X2176D01*
Y4717D01*
X2173Y4700D01*
X2204Y4760D02*
X2196Y4757D01*
X2190Y4751D01*
X2187Y4746D01*
X2184Y4734D01*
Y4726D01*
X2187Y4714D01*
X2190Y4709D01*
X2196Y4703D01*
X2204Y4700D01*
X2210D01*
X2219Y4703D01*
X2224Y4709D01*
X2227Y4714D01*
X2230Y4726D01*
Y4734D01*
X2227Y4746D01*
X2224Y4751D01*
X2219Y4757D01*
X2210Y4760D01*
X2204D01*
X2199Y4757D01*
X2193Y4751D01*
X2190Y4746D01*
X2187Y4734D01*
Y4726D01*
X2190Y4714D01*
X2193Y4709D01*
X2199Y4703D01*
X2204Y4700D01*
X2210D02*
X2216Y4703D01*
X2221Y4709D01*
X2224Y4714D01*
X2227Y4726D01*
Y4734D01*
X2224Y4746D01*
X2221Y4751D01*
X2216Y4757D01*
X2210Y4760D01*
X2292Y4726D02*
X2344D01*
X2445Y4751D02*
X2448Y4743D01*
Y4760D01*
X2445Y4751D01*
X2440Y4757D01*
X2431Y4760D01*
X2425D01*
X2417Y4757D01*
X2411Y4751D01*
X2408Y4746D01*
X2405Y4737D01*
Y4723D01*
X2408Y4714D01*
X2411Y4709D01*
X2417Y4703D01*
X2425Y4700D01*
X2431D01*
X2440Y4703D01*
X2445Y4709D01*
X2425Y4760D02*
X2420Y4757D01*
X2414Y4751D01*
X2411Y4746D01*
X2408Y4737D01*
Y4723D01*
X2411Y4714D01*
X2414Y4709D01*
X2420Y4703D01*
X2425Y4700D01*
X2445Y4723D02*
Y4700D01*
X2448Y4723D02*
Y4700D01*
X2437Y4723D02*
X2457D01*
X2485Y4760D02*
X2476Y4757D01*
X2470Y4751D01*
X2467Y4746D01*
X2465Y4734D01*
Y4726D01*
X2467Y4714D01*
X2470Y4709D01*
X2476Y4703D01*
X2485Y4700D01*
X2490D01*
X2499Y4703D01*
X2505Y4709D01*
X2507Y4714D01*
X2510Y4726D01*
Y4734D01*
X2507Y4746D01*
X2505Y4751D01*
X2499Y4757D01*
X2490Y4760D01*
X2485D01*
X2479Y4757D01*
X2473Y4751D01*
X2470Y4746D01*
X2467Y4734D01*
Y4726D01*
X2470Y4714D01*
X2473Y4709D01*
X2479Y4703D01*
X2485Y4700D01*
X2490D02*
X2496Y4703D01*
X2502Y4709D01*
X2505Y4714D01*
X2507Y4726D01*
Y4734D01*
X2505Y4746D01*
X2502Y4751D01*
X2496Y4757D01*
X2490Y4760D01*
X2527D02*
Y4700D01*
X2530Y4760D02*
X2564Y4706D01*
X2530Y4754D02*
X2564Y4700D01*
Y4760D02*
Y4700D01*
X2519Y4760D02*
X2530D01*
X2556D02*
X2573D01*
X2519Y4700D02*
X2536D01*
X2589Y4760D02*
Y4700D01*
X2592Y4760D02*
Y4700D01*
X2580Y4760D02*
X2600D01*
X2580Y4700D02*
X2600D01*
X2665Y4726D02*
X2717D01*
X2787Y4760D02*
Y4700D01*
X2790Y4760D02*
X2824Y4706D01*
X2790Y4754D02*
X2824Y4700D01*
Y4760D02*
Y4700D01*
X2778Y4760D02*
X2790D01*
X2815D02*
X2833D01*
X2778Y4700D02*
X2795D01*
X2848Y4760D02*
Y4717D01*
X2851Y4709D01*
X2857Y4703D01*
X2866Y4700D01*
X2871D01*
X2880Y4703D01*
X2886Y4709D01*
X2888Y4717D01*
Y4760D01*
X2851D02*
Y4717D01*
X2854Y4709D01*
X2860Y4703D01*
X2866Y4700D01*
X2840Y4760D02*
X2860D01*
X2880D02*
X2897D01*
X2913D02*
Y4700D01*
X2916Y4760D02*
Y4700D01*
X2904Y4760D02*
X2924D01*
X2904Y4700D02*
X2947D01*
Y4717D01*
X2944Y4700D01*
D13*
X2621Y1296D02*
D03*
X2820D02*
D03*
D14*
X3020D02*
D03*
D15*
X1480Y4770D02*
D03*
Y4670D02*
D03*
Y4450D02*
D03*
Y4350D02*
D03*
D16*
X1720Y4770D02*
D03*
Y4470D02*
D03*
X1310Y3180D02*
D03*
X1610D02*
D03*
X1840Y4170D02*
D03*
Y4470D02*
D03*
D17*
X1760Y3480D02*
D03*
X1840D02*
D03*
Y3400D02*
D03*
X1760D02*
D03*
X1840Y3560D02*
D03*
X1760D02*
D03*
X1240Y2140D02*
D03*
X1320D02*
D03*
Y2060D02*
D03*
X1240D02*
D03*
X1320Y2220D02*
D03*
X1240D02*
D03*
X1410Y2480D02*
D03*
X1160D02*
D03*
X1410Y2640D02*
D03*
X1160D02*
D03*
D18*
X2860Y1940D02*
D03*
X2960D02*
D03*
X3060D02*
D03*
D19*
X2960Y2640D02*
D03*
D20*
X2440Y2695D02*
D03*
X2000Y4500D02*
D03*
X2140D02*
D03*
X1140Y3180D02*
D03*
D21*
X2340Y2695D02*
D03*
X2240D02*
D03*
X2140D02*
D03*
X2040D02*
D03*
X1940D02*
D03*
X1840D02*
D03*
X1740D02*
D03*
X2440Y2395D02*
D03*
X2340D02*
D03*
X2240D02*
D03*
X2140D02*
D03*
X2040D02*
D03*
X1940D02*
D03*
X1840D02*
D03*
X1740D02*
D03*
X2310Y4195D02*
D03*
Y4095D02*
D03*
Y3995D02*
D03*
Y3895D02*
D03*
Y3795D02*
D03*
Y3695D02*
D03*
Y3595D02*
D03*
Y3495D02*
D03*
X2610Y4295D02*
D03*
Y4195D02*
D03*
Y4095D02*
D03*
Y3995D02*
D03*
Y3895D02*
D03*
Y3795D02*
D03*
Y3695D02*
D03*
Y3595D02*
D03*
Y3495D02*
D03*
X2000Y4600D02*
D03*
X2140D02*
D03*
X1140Y2900D02*
D03*
X3460Y1782D02*
D03*
Y1978D02*
D03*
D22*
X2310Y4295D02*
D03*
D23*
X2175Y1852D02*
D03*
X2075D02*
D03*
X2125Y1752D02*
D03*
X1500Y1850D02*
D03*
X1400D02*
D03*
X1450Y1750D02*
D03*
D24*
X1875Y1502D02*
D03*
X2325D02*
D03*
X1200Y1500D02*
D03*
X1650D02*
D03*
D25*
X2025Y1752D02*
D03*
X1350Y1750D02*
D03*
D26*
X2960Y1720D02*
D03*
X3060D02*
D03*
X3160Y3977D02*
D03*
X3060D02*
D03*
X3160Y4145D02*
D03*
X3060D02*
D03*
X1340Y2760D02*
D03*
X1240D02*
D03*
X1600Y3840D02*
D03*
Y3940D02*
D03*
D27*
X1890Y2846D02*
D03*
X2346Y2180D02*
D03*
X2110Y2846D02*
D03*
X2620Y2521D02*
D03*
X2330Y2846D02*
D03*
D28*
X1890Y2924D02*
D03*
X2110D02*
D03*
X2620Y2599D02*
D03*
X2330Y2924D02*
D03*
D29*
X2424Y2180D02*
D03*
D30*
X1320Y3640D02*
D03*
Y3740D02*
D03*
Y3840D02*
D03*
Y3940D02*
D03*
Y4040D02*
D03*
X1220Y3640D02*
D03*
Y3740D02*
D03*
Y3840D02*
D03*
Y3940D02*
D03*
X2420Y2945D02*
D03*
X2185Y2640D02*
D03*
X3260Y3120D02*
D03*
X2776Y3604D02*
D03*
X1862Y2220D02*
D03*
D31*
X1220Y4040D02*
D03*
D32*
X3510Y2820D02*
D03*
Y2920D02*
D03*
Y3020D02*
D03*
Y3120D02*
D03*
Y3220D02*
D03*
Y3320D02*
D03*
Y3420D02*
D03*
Y3520D02*
D03*
Y3620D02*
D03*
Y3720D02*
D03*
Y3820D02*
D03*
Y3920D02*
D03*
Y4020D02*
D03*
Y4120D02*
D03*
Y4220D02*
D03*
Y4320D02*
D03*
D33*
X2855Y3947D02*
D03*
D34*
Y4147D02*
D03*
D35*
X1800Y3635D02*
D03*
X1280Y2295D02*
D03*
D36*
X1803Y3325D02*
D03*
X1283Y1985D02*
D03*
M02*
