%FSLAX23Y23*%
%MOIN*%
G70*
G01*
G75*
%ADD10C,0.020*%
%ADD11C,0.047*%
%ADD12C,0.010*%
%ADD13C,0.120*%
%ADD14P,0.130X8X202.5*%
%ADD15C,0.070*%
%ADD16C,0.055*%
%ADD17C,0.060*%
G04:AMPARAMS|DCode=18|XSize=80mil|YSize=100mil|CornerRadius=0mil|HoleSize=0mil|Usage=FLASHONLY|Rotation=0.000|XOffset=0mil|YOffset=0mil|HoleType=Round|Shape=Octagon|*
%AMOCTAGOND18*
4,1,8,-0.020,0.050,0.020,0.050,0.040,0.030,0.040,-0.030,0.020,-0.050,-0.020,-0.050,-0.040,-0.030,-0.040,0.030,-0.020,0.050,0.0*
%
%ADD18OCTAGOND18*%

%ADD19P,0.213X8X22.5*%
%ADD20R,0.059X0.059*%
%ADD21C,0.059*%
%ADD22R,0.059X0.059*%
%ADD23C,0.059*%
%ADD24C,0.116*%
%ADD25R,0.059X0.059*%
%ADD26C,0.065*%
%ADD27C,0.049*%
%ADD28R,0.049X0.049*%
%ADD29R,0.049X0.049*%
%ADD30C,0.050*%
%ADD31R,0.050X0.050*%
G04:AMPARAMS|DCode=32|XSize=80mil|YSize=60mil|CornerRadius=0mil|HoleSize=0mil|Usage=FLASHONLY|Rotation=0.000|XOffset=0mil|YOffset=0mil|HoleType=Round|Shape=Octagon|*
%AMOCTAGOND32*
4,1,8,0.040,-0.015,0.040,0.015,0.025,0.030,-0.025,0.030,-0.040,0.015,-0.040,-0.015,-0.025,-0.030,0.025,-0.030,0.040,-0.015,0.0*
%
%ADD32OCTAGOND32*%

%ADD33O,0.100X0.060*%
G04:AMPARAMS|DCode=34|XSize=100mil|YSize=60mil|CornerRadius=0mil|HoleSize=0mil|Usage=FLASHONLY|Rotation=0.000|XOffset=0mil|YOffset=0mil|HoleType=Round|Shape=Octagon|*
%AMOCTAGOND34*
4,1,8,0.050,-0.015,0.050,0.015,0.035,0.030,-0.035,0.030,-0.050,0.015,-0.050,-0.015,-0.035,-0.030,0.035,-0.030,0.050,-0.015,0.0*
%
%ADD34OCTAGOND34*%

%ADD35R,0.070X0.040*%
%ADD36R,0.075X0.040*%
%ADD37C,0.005*%
%ADD38C,0.008*%
%ADD39C,0.010*%
%ADD40C,0.024*%
%ADD41C,0.002*%
%ADD42C,0.006*%
%ADD43C,0.012*%
%ADD44C,0.006*%
%ADD45C,0.008*%
%ADD46R,0.075X0.031*%
%ADD47R,0.020X0.020*%
D12*
X2521Y1096D02*
Y1410D01*
X2520Y1450D02*
Y1495D01*
X3121Y1096D02*
Y1410D01*
X3121Y1450D02*
Y1495D01*
X2520D02*
X3121D01*
X2520Y1095D02*
X3121D01*
X3121Y1450D02*
X3160D01*
Y1411D02*
Y1450D01*
X3121Y1410D02*
X3160D01*
X2521D02*
X2560D01*
Y1411D02*
Y1450D01*
X2521D02*
X2560D01*
X1675Y3305D02*
Y3655D01*
Y3305D02*
X1925D01*
Y3655D01*
X1675D02*
X1925D01*
X1155Y1965D02*
Y2315D01*
Y1965D02*
X1405D01*
Y2315D01*
X1155D02*
X1405D01*
X1160Y2640D02*
X1410D01*
Y2480D02*
Y2640D01*
X1160Y2480D02*
X1410D01*
X1160D02*
Y2640D01*
X1105Y3445D02*
Y4235D01*
Y3445D02*
X1435D01*
Y4235D01*
X1105D02*
X1435D01*
X2040Y1120D02*
X2080D01*
X1365D02*
X1405D01*
X1180Y1140D02*
X1170Y1150D01*
X1150D01*
X1140Y1140D01*
Y1100D01*
X1150Y1090D01*
X1170D01*
X1180Y1100D01*
Y1120D01*
X1160D01*
X1200Y1090D02*
Y1150D01*
X1240Y1090D01*
Y1150D01*
X1260D02*
Y1090D01*
X1290D01*
X1300Y1100D01*
Y1140D01*
X1290Y1150D01*
X1260D01*
X1465D02*
X1505D01*
X1485D01*
Y1090D01*
X1525Y1150D02*
X1565Y1090D01*
Y1150D02*
X1525Y1090D01*
X1605D02*
Y1150D01*
X1635D01*
X1645Y1140D01*
Y1120D01*
X1635Y1110D01*
X1605D01*
X1625D02*
X1645Y1090D01*
X1665Y1150D02*
X1705Y1090D01*
Y1150D02*
X1665Y1090D01*
X2280Y1155D02*
X2320D01*
X2300D01*
Y1095D01*
X2340Y1155D02*
X2380Y1095D01*
Y1155D02*
X2340Y1095D01*
X2145D02*
Y1155D01*
X2175D01*
X2185Y1145D01*
Y1125D01*
X2175Y1115D01*
X2145D01*
X2165D02*
X2185Y1095D01*
X2205Y1155D02*
X2245Y1095D01*
Y1155D02*
X2205Y1095D01*
X1855Y1145D02*
X1845Y1155D01*
X1825D01*
X1815Y1145D01*
Y1105D01*
X1825Y1095D01*
X1845D01*
X1855Y1105D01*
Y1125D01*
X1835D01*
X1875Y1095D02*
Y1155D01*
X1915Y1095D01*
Y1155D01*
X1935D02*
Y1095D01*
X1965D01*
X1975Y1105D01*
Y1145D01*
X1965Y1155D01*
X1935D01*
X2440Y1170D02*
X2430Y1160D01*
Y1140D01*
X2440Y1130D01*
X2480D01*
X2490Y1140D01*
Y1160D01*
X2480Y1170D01*
X2490Y1200D02*
Y1220D01*
X2480Y1230D01*
X2460D01*
X2450Y1220D01*
Y1200D01*
X2460Y1190D01*
X2480D01*
X2490Y1200D01*
Y1250D02*
X2450D01*
Y1280D01*
X2460Y1290D01*
X2490D01*
Y1350D02*
Y1310D01*
X2450Y1350D01*
X2440D01*
X2430Y1340D01*
Y1320D01*
X2440Y1310D01*
X1087Y4932D02*
Y4872D01*
X1117D01*
X1127Y4882D01*
Y4922D01*
X1117Y4932D01*
X1087D01*
X1187Y4872D02*
X1147D01*
X1187Y4912D01*
Y4922D01*
X1177Y4932D01*
X1157D01*
X1147Y4922D01*
X1696Y4832D02*
Y4892D01*
X1726D01*
X1736Y4882D01*
Y4862D01*
X1726Y4852D01*
X1696D01*
X1716D02*
X1736Y4832D01*
X1796D02*
X1756D01*
X1796Y4872D01*
Y4882D01*
X1786Y4892D01*
X1766D01*
X1756Y4882D01*
X1720Y3740D02*
X1710Y3750D01*
X1690D01*
X1680Y3740D01*
Y3730D01*
X1690Y3720D01*
X1710D01*
X1720Y3710D01*
Y3700D01*
X1710Y3690D01*
X1690D01*
X1680Y3700D01*
X1780Y3690D02*
X1740D01*
X1780Y3730D01*
Y3740D01*
X1770Y3750D01*
X1750D01*
X1740Y3740D01*
X2820Y4365D02*
Y4355D01*
X2840Y4335D01*
X2860Y4355D01*
Y4365D01*
X2840Y4335D02*
Y4305D01*
X2880D02*
X2900D01*
X2890D01*
Y4365D01*
X2880Y4355D01*
X2895Y2380D02*
Y2340D01*
X2915Y2320D01*
X2935Y2340D01*
Y2380D01*
X2955Y2320D02*
Y2380D01*
X2985D01*
X2995Y2370D01*
Y2350D01*
X2985Y2340D01*
X2955D01*
X2975D02*
X2995Y2320D01*
X3015D02*
X3035D01*
X3025D01*
Y2380D01*
X3015Y2370D01*
X1706Y2819D02*
Y2769D01*
X1716Y2759D01*
X1736D01*
X1746Y2769D01*
Y2819D01*
X1766Y2809D02*
X1776Y2819D01*
X1796D01*
X1806Y2809D01*
Y2799D01*
X1796Y2789D01*
X1786D01*
X1796D01*
X1806Y2779D01*
Y2769D01*
X1796Y2759D01*
X1776D01*
X1766Y2769D01*
X2485Y4460D02*
Y4410D01*
X2495Y4400D01*
X2515D01*
X2525Y4410D01*
Y4460D01*
X2545Y4400D02*
X2565D01*
X2555D01*
Y4460D01*
X2545Y4450D01*
X1200Y2400D02*
X1190Y2410D01*
X1170D01*
X1160Y2400D01*
Y2390D01*
X1170Y2380D01*
X1190D01*
X1200Y2370D01*
Y2360D01*
X1190Y2350D01*
X1170D01*
X1160Y2360D01*
X1220Y2400D02*
X1230Y2410D01*
X1250D01*
X1260Y2400D01*
Y2390D01*
X1250Y2380D01*
X1240D01*
X1250D01*
X1260Y2370D01*
Y2360D01*
X1250Y2350D01*
X1230D01*
X1220Y2360D01*
X1320Y2560D02*
X1330Y2570D01*
Y2590D01*
X1320Y2600D01*
X1310D01*
X1300Y2590D01*
Y2570D01*
X1290Y2560D01*
X1280D01*
X1270Y2570D01*
Y2590D01*
X1280Y2600D01*
X1270Y2540D02*
Y2520D01*
Y2530D01*
X1330D01*
X1320Y2540D01*
X1288Y3244D02*
Y3304D01*
X1318D01*
X1328Y3294D01*
Y3274D01*
X1318Y3264D01*
X1288D01*
X1308D02*
X1328Y3244D01*
X1348Y3294D02*
X1358Y3304D01*
X1378D01*
X1388Y3294D01*
Y3284D01*
X1378Y3274D01*
X1368D01*
X1378D01*
X1388Y3264D01*
Y3254D01*
X1378Y3244D01*
X1358D01*
X1348Y3254D01*
X1816Y4532D02*
Y4592D01*
X1846D01*
X1856Y4582D01*
Y4562D01*
X1846Y4552D01*
X1816D01*
X1836D02*
X1856Y4532D01*
X1876D02*
X1896D01*
X1886D01*
Y4592D01*
X1876Y4582D01*
X1950Y4345D02*
Y4405D01*
X1980D01*
X1990Y4395D01*
Y4375D01*
X1980Y4365D01*
X1950D01*
X2010Y4395D02*
X2020Y4405D01*
X2040D01*
X2050Y4395D01*
Y4385D01*
X2040Y4375D01*
X2030D01*
X2040D01*
X2050Y4365D01*
Y4355D01*
X2040Y4345D01*
X2020D01*
X2010Y4355D01*
X2100Y4340D02*
Y4400D01*
X2130D01*
X2140Y4390D01*
Y4370D01*
X2130Y4360D01*
X2100D01*
X2190Y4340D02*
Y4400D01*
X2160Y4370D01*
X2200D01*
X2420Y2060D02*
X2400D01*
X2410D01*
Y2010D01*
X2400Y2000D01*
X2390D01*
X2380Y2010D01*
X2480Y2000D02*
X2440D01*
X2480Y2040D01*
Y2050D01*
X2470Y2060D01*
X2450D01*
X2440Y2050D01*
X1765Y2065D02*
X1745D01*
X1755D01*
Y2015D01*
X1745Y2005D01*
X1735D01*
X1725Y2015D01*
X1785Y2005D02*
X1805D01*
X1795D01*
Y2065D01*
X1785Y2055D01*
X1109Y3303D02*
Y3243D01*
X1139D01*
X1149Y3253D01*
Y3293D01*
X1139Y3303D01*
X1109D01*
X1209D02*
X1169D01*
Y3273D01*
X1189Y3283D01*
X1199D01*
X1209Y3273D01*
Y3253D01*
X1199Y3243D01*
X1179D01*
X1169Y3253D01*
X1087Y4612D02*
Y4552D01*
X1117D01*
X1127Y4562D01*
Y4602D01*
X1117Y4612D01*
X1087D01*
X1147Y4552D02*
X1167D01*
X1157D01*
Y4612D01*
X1147Y4602D01*
X2956Y1867D02*
X2946Y1877D01*
X2926D01*
X2916Y1867D01*
Y1827D01*
X2926Y1817D01*
X2946D01*
X2956Y1827D01*
X2976Y1817D02*
X2996D01*
X2986D01*
Y1877D01*
X2976Y1867D01*
X3066Y1817D02*
X3026D01*
X3066Y1857D01*
Y1867D01*
X3056Y1877D01*
X3036D01*
X3026Y1867D01*
X3298Y2172D02*
X3288Y2182D01*
X3268D01*
X3258Y2172D01*
Y2132D01*
X3268Y2122D01*
X3288D01*
X3298Y2132D01*
X3318Y2122D02*
X3338D01*
X3328D01*
Y2182D01*
X3318Y2172D01*
X3368Y2122D02*
X3388D01*
X3378D01*
Y2182D01*
X3368Y2172D01*
X1857Y3108D02*
X1847Y3118D01*
X1827D01*
X1817Y3108D01*
Y3068D01*
X1827Y3058D01*
X1847D01*
X1857Y3068D01*
X1877Y3058D02*
X1897D01*
X1887D01*
Y3118D01*
X1877Y3108D01*
X1927D02*
X1937Y3118D01*
X1957D01*
X1967Y3108D01*
Y3068D01*
X1957Y3058D01*
X1937D01*
X1927Y3068D01*
Y3108D01*
X2200Y2200D02*
X2190Y2210D01*
X2170D01*
X2160Y2200D01*
Y2160D01*
X2170Y2150D01*
X2190D01*
X2200Y2160D01*
X2220D02*
X2230Y2150D01*
X2250D01*
X2260Y2160D01*
Y2200D01*
X2250Y2210D01*
X2230D01*
X2220Y2200D01*
Y2190D01*
X2230Y2180D01*
X2260D01*
X2077Y3108D02*
X2067Y3118D01*
X2047D01*
X2037Y3108D01*
Y3068D01*
X2047Y3058D01*
X2067D01*
X2077Y3068D01*
X2097Y3108D02*
X2107Y3118D01*
X2127D01*
X2137Y3108D01*
Y3098D01*
X2127Y3088D01*
X2137Y3078D01*
Y3068D01*
X2127Y3058D01*
X2107D01*
X2097Y3068D01*
Y3078D01*
X2107Y3088D01*
X2097Y3098D01*
Y3108D01*
X2107Y3088D02*
X2127D01*
X2587Y2782D02*
X2577Y2792D01*
X2557D01*
X2547Y2782D01*
Y2742D01*
X2557Y2732D01*
X2577D01*
X2587Y2742D01*
X2607Y2792D02*
X2647D01*
Y2782D01*
X2607Y2742D01*
Y2732D01*
X2278Y3108D02*
X2268Y3118D01*
X2248D01*
X2238Y3108D01*
Y3068D01*
X2248Y3058D01*
X2268D01*
X2278Y3068D01*
X2338Y3118D02*
X2318Y3108D01*
X2298Y3088D01*
Y3068D01*
X2308Y3058D01*
X2328D01*
X2338Y3068D01*
Y3078D01*
X2328Y3088D01*
X2298D01*
X3065Y3875D02*
X3055Y3885D01*
X3035D01*
X3025Y3875D01*
Y3835D01*
X3035Y3825D01*
X3055D01*
X3065Y3835D01*
X3125Y3885D02*
X3085D01*
Y3855D01*
X3105Y3865D01*
X3115D01*
X3125Y3855D01*
Y3835D01*
X3115Y3825D01*
X3095D01*
X3085Y3835D01*
X3056Y4292D02*
X3046Y4302D01*
X3026D01*
X3016Y4292D01*
Y4252D01*
X3026Y4242D01*
X3046D01*
X3056Y4252D01*
X3106Y4242D02*
Y4302D01*
X3076Y4272D01*
X3116D01*
X1236Y2907D02*
X1226Y2917D01*
X1206D01*
X1196Y2907D01*
Y2867D01*
X1206Y2857D01*
X1226D01*
X1236Y2867D01*
X1256Y2907D02*
X1266Y2917D01*
X1286D01*
X1296Y2907D01*
Y2897D01*
X1286Y2887D01*
X1276D01*
X1286D01*
X1296Y2877D01*
Y2867D01*
X1286Y2857D01*
X1266D01*
X1256Y2867D01*
X1583Y4074D02*
X1573Y4084D01*
X1553D01*
X1543Y4074D01*
Y4034D01*
X1553Y4024D01*
X1573D01*
X1583Y4034D01*
X1643Y4024D02*
X1603D01*
X1643Y4064D01*
Y4074D01*
X1633Y4084D01*
X1613D01*
X1603Y4074D01*
X1520Y3700D02*
Y3680D01*
Y3690D01*
X1460D01*
Y3700D01*
Y3680D01*
X1510Y3610D02*
X1520Y3620D01*
Y3640D01*
X1510Y3650D01*
X1470D01*
X1460Y3640D01*
Y3620D01*
X1470Y3610D01*
X1520Y3590D02*
X1460D01*
Y3560D01*
X1470Y3550D01*
X1510D01*
X1520Y3560D01*
Y3590D01*
X1460Y3490D02*
Y3530D01*
X1500Y3490D01*
X1510D01*
X1520Y3500D01*
Y3520D01*
X1510Y3530D01*
X1130Y3360D02*
Y3420D01*
X1160D01*
X1170Y3410D01*
Y3390D01*
X1160Y3380D01*
X1130D01*
X1190Y3360D02*
X1210D01*
X1200D01*
Y3420D01*
X1190Y3410D01*
X3465Y2680D02*
Y2740D01*
X3495D01*
X3505Y2730D01*
Y2710D01*
X3495Y2700D01*
X3465D01*
X3565Y2680D02*
X3525D01*
X3565Y2720D01*
Y2730D01*
X3555Y2740D01*
X3535D01*
X3525Y2730D01*
X1985Y3365D02*
X1965D01*
X1955Y3355D01*
Y3315D01*
X1965Y3305D01*
X1985D01*
X1995Y3315D01*
Y3355D01*
X1985Y3365D01*
X2015D02*
X2055D01*
X2035D01*
Y3305D01*
X2075Y3365D02*
Y3305D01*
Y3335D01*
X2115D01*
Y3365D01*
Y3305D01*
X2175Y3365D02*
X2135D01*
Y3305D01*
X2175D01*
X2135Y3335D02*
X2155D01*
X2195Y3305D02*
Y3365D01*
X2225D01*
X2235Y3355D01*
Y3335D01*
X2225Y3325D01*
X2195D01*
X2215D02*
X2235Y3305D01*
X1950Y3650D02*
X1970D01*
X1960D01*
Y3590D01*
X1950D01*
X1970D01*
X2040Y3640D02*
X2030Y3650D01*
X2010D01*
X2000Y3640D01*
Y3600D01*
X2010Y3590D01*
X2030D01*
X2040Y3600D01*
X2060Y3650D02*
Y3590D01*
X2090D01*
X2100Y3600D01*
Y3640D01*
X2090Y3650D01*
X2060D01*
X2160Y3590D02*
X2120D01*
X2160Y3630D01*
Y3640D01*
X2150Y3650D01*
X2130D01*
X2120Y3640D01*
X1480Y2700D02*
X1540D01*
Y2670D01*
X1530Y2660D01*
X1510D01*
X1500Y2670D01*
Y2700D01*
Y2680D02*
X1480Y2660D01*
X1540Y2600D02*
Y2640D01*
X1480D01*
Y2600D01*
X1510Y2640D02*
Y2620D01*
X1530Y2540D02*
X1540Y2550D01*
Y2570D01*
X1530Y2580D01*
X1520D01*
X1510Y2570D01*
Y2550D01*
X1500Y2540D01*
X1490D01*
X1480Y2550D01*
Y2570D01*
X1490Y2580D01*
X1540Y2480D02*
Y2520D01*
X1480D01*
Y2480D01*
X1510Y2520D02*
Y2500D01*
X1540Y2460D02*
Y2420D01*
Y2440D01*
X1480D01*
X2085Y1970D02*
X2065D01*
X2055Y1960D01*
Y1920D01*
X2065Y1910D01*
X2085D01*
X2095Y1920D01*
Y1960D01*
X2085Y1970D01*
X2115D02*
Y1920D01*
X2125Y1910D01*
X2145D01*
X2155Y1920D01*
Y1970D01*
X2175D02*
X2215D01*
X2195D01*
Y1910D01*
X2235D02*
Y1970D01*
X2265D01*
X2275Y1960D01*
Y1940D01*
X2265Y1930D01*
X2235D01*
X2295Y1970D02*
Y1920D01*
X2305Y1910D01*
X2325D01*
X2335Y1920D01*
Y1970D01*
X2355D02*
X2395D01*
X2375D01*
Y1910D01*
X1455Y1975D02*
X1475D01*
X1465D01*
Y1915D01*
X1455D01*
X1475D01*
X1505D02*
Y1975D01*
X1545Y1915D01*
Y1975D01*
X1565Y1915D02*
Y1975D01*
X1595D01*
X1605Y1965D01*
Y1945D01*
X1595Y1935D01*
X1565D01*
X1625Y1975D02*
Y1925D01*
X1635Y1915D01*
X1655D01*
X1665Y1925D01*
Y1975D01*
X1685D02*
X1725D01*
X1705D01*
Y1915D01*
X1430Y2095D02*
Y2035D01*
X1470D01*
X1490D02*
Y2075D01*
X1510Y2095D01*
X1530Y2075D01*
Y2035D01*
Y2065D01*
X1490D01*
X1590Y2085D02*
X1580Y2095D01*
X1560D01*
X1550Y2085D01*
Y2075D01*
X1560Y2065D01*
X1580D01*
X1590Y2055D01*
Y2045D01*
X1580Y2035D01*
X1560D01*
X1550Y2045D01*
X1610Y2095D02*
X1650D01*
X1630D01*
Y2035D01*
X1430Y2265D02*
Y2205D01*
X1470D01*
X1490Y2265D02*
X1510D01*
X1500D01*
Y2205D01*
X1490D01*
X1510D01*
X1540D02*
Y2265D01*
X1580Y2205D01*
Y2265D01*
X1600D02*
Y2205D01*
Y2225D01*
X1640Y2265D01*
X1610Y2235D01*
X1640Y2205D01*
X2990Y1560D02*
X2980Y1570D01*
X2960D01*
X2950Y1560D01*
Y1520D01*
X2960Y1510D01*
X2980D01*
X2990Y1520D01*
Y1540D01*
X2970D01*
X3010Y1510D02*
Y1570D01*
X3050Y1510D01*
Y1570D01*
X3070D02*
Y1510D01*
X3100D01*
X3110Y1520D01*
Y1560D01*
X3100Y1570D01*
X3070D01*
X2735Y1540D02*
X2775D01*
X2755Y1560D02*
Y1520D01*
X2835Y1570D02*
X2795D01*
Y1540D01*
X2815Y1550D01*
X2825D01*
X2835Y1540D01*
Y1520D01*
X2825Y1510D01*
X2805D01*
X2795Y1520D01*
X2855Y1570D02*
Y1530D01*
X2875Y1510D01*
X2895Y1530D01*
Y1570D01*
X2550Y1540D02*
X2590D01*
X2570Y1560D02*
Y1520D01*
X2610Y1570D02*
Y1530D01*
X2630Y1510D01*
X2650Y1530D01*
Y1570D01*
X3610Y3090D02*
Y3150D01*
X3640D01*
X3650Y3140D01*
Y3120D01*
X3640Y3110D01*
X3610D01*
X3630D02*
X3650Y3090D01*
X3670Y3150D02*
Y3090D01*
X3700D01*
X3710Y3100D01*
Y3110D01*
X3700Y3120D01*
X3670D01*
X3700D01*
X3710Y3130D01*
Y3140D01*
X3700Y3150D01*
X3670D01*
X3760Y3090D02*
Y3150D01*
X3730Y3120D01*
X3770D01*
X3610Y2990D02*
Y3050D01*
X3640D01*
X3650Y3040D01*
Y3020D01*
X3640Y3010D01*
X3610D01*
X3630D02*
X3650Y2990D01*
X3670Y3050D02*
Y2990D01*
X3700D01*
X3710Y3000D01*
Y3010D01*
X3700Y3020D01*
X3670D01*
X3700D01*
X3710Y3030D01*
Y3040D01*
X3700Y3050D01*
X3670D01*
X3770D02*
X3730D01*
Y3020D01*
X3750Y3030D01*
X3760D01*
X3770Y3020D01*
Y3000D01*
X3760Y2990D01*
X3740D01*
X3730Y3000D01*
X3610Y2890D02*
Y2950D01*
X3640D01*
X3650Y2940D01*
Y2920D01*
X3640Y2910D01*
X3610D01*
X3630D02*
X3650Y2890D01*
X3670Y2950D02*
Y2890D01*
X3700D01*
X3710Y2900D01*
Y2910D01*
X3700Y2920D01*
X3670D01*
X3700D01*
X3710Y2930D01*
Y2940D01*
X3700Y2950D01*
X3670D01*
X3770D02*
X3750Y2940D01*
X3730Y2920D01*
Y2900D01*
X3740Y2890D01*
X3760D01*
X3770Y2900D01*
Y2910D01*
X3760Y2920D01*
X3730D01*
X3610Y2790D02*
Y2850D01*
X3640D01*
X3650Y2840D01*
Y2820D01*
X3640Y2810D01*
X3610D01*
X3630D02*
X3650Y2790D01*
X3670Y2850D02*
Y2790D01*
X3700D01*
X3710Y2800D01*
Y2810D01*
X3700Y2820D01*
X3670D01*
X3700D01*
X3710Y2830D01*
Y2840D01*
X3700Y2850D01*
X3670D01*
X3730D02*
X3770D01*
Y2840D01*
X3730Y2800D01*
Y2790D01*
X3610Y3490D02*
Y3550D01*
X3640D01*
X3650Y3540D01*
Y3520D01*
X3640Y3510D01*
X3610D01*
X3630D02*
X3650Y3490D01*
X3670Y3550D02*
Y3490D01*
X3700D01*
X3710Y3500D01*
Y3510D01*
X3700Y3520D01*
X3670D01*
X3700D01*
X3710Y3530D01*
Y3540D01*
X3700Y3550D01*
X3670D01*
X3730Y3540D02*
X3740Y3550D01*
X3760D01*
X3770Y3540D01*
Y3500D01*
X3760Y3490D01*
X3740D01*
X3730Y3500D01*
Y3540D01*
X3610Y3390D02*
Y3450D01*
X3640D01*
X3650Y3440D01*
Y3420D01*
X3640Y3410D01*
X3610D01*
X3630D02*
X3650Y3390D01*
X3670Y3450D02*
Y3390D01*
X3700D01*
X3710Y3400D01*
Y3410D01*
X3700Y3420D01*
X3670D01*
X3700D01*
X3710Y3430D01*
Y3440D01*
X3700Y3450D01*
X3670D01*
X3730Y3390D02*
X3750D01*
X3740D01*
Y3450D01*
X3730Y3440D01*
X3610Y3290D02*
Y3350D01*
X3640D01*
X3650Y3340D01*
Y3320D01*
X3640Y3310D01*
X3610D01*
X3630D02*
X3650Y3290D01*
X3670Y3350D02*
Y3290D01*
X3700D01*
X3710Y3300D01*
Y3310D01*
X3700Y3320D01*
X3670D01*
X3700D01*
X3710Y3330D01*
Y3340D01*
X3700Y3350D01*
X3670D01*
X3770Y3290D02*
X3730D01*
X3770Y3330D01*
Y3340D01*
X3760Y3350D01*
X3740D01*
X3730Y3340D01*
X3610Y3190D02*
Y3250D01*
X3640D01*
X3650Y3240D01*
Y3220D01*
X3640Y3210D01*
X3610D01*
X3630D02*
X3650Y3190D01*
X3670Y3250D02*
Y3190D01*
X3700D01*
X3710Y3200D01*
Y3210D01*
X3700Y3220D01*
X3670D01*
X3700D01*
X3710Y3230D01*
Y3240D01*
X3700Y3250D01*
X3670D01*
X3730Y3240D02*
X3740Y3250D01*
X3760D01*
X3770Y3240D01*
Y3230D01*
X3760Y3220D01*
X3750D01*
X3760D01*
X3770Y3210D01*
Y3200D01*
X3760Y3190D01*
X3740D01*
X3730Y3200D01*
X3605Y3885D02*
Y3945D01*
X3635D01*
X3645Y3935D01*
Y3915D01*
X3635Y3905D01*
X3605D01*
X3625D02*
X3645Y3885D01*
X3665D02*
Y3925D01*
X3685Y3945D01*
X3705Y3925D01*
Y3885D01*
Y3915D01*
X3665D01*
X3755Y3885D02*
Y3945D01*
X3725Y3915D01*
X3765D01*
X3605Y3815D02*
X3645D01*
X3625Y3835D02*
Y3795D01*
X3665Y3845D02*
Y3805D01*
X3685Y3785D01*
X3705Y3805D01*
Y3845D01*
X3605Y3715D02*
X3645D01*
X3625Y3735D02*
Y3695D01*
X3705Y3745D02*
X3665D01*
Y3715D01*
X3685Y3725D01*
X3695D01*
X3705Y3715D01*
Y3695D01*
X3695Y3685D01*
X3675D01*
X3665Y3695D01*
X3725Y3745D02*
Y3705D01*
X3745Y3685D01*
X3765Y3705D01*
Y3745D01*
X3645Y3635D02*
X3635Y3645D01*
X3615D01*
X3605Y3635D01*
Y3595D01*
X3615Y3585D01*
X3635D01*
X3645Y3595D01*
Y3615D01*
X3625D01*
X3665Y3585D02*
Y3645D01*
X3705Y3585D01*
Y3645D01*
X3725D02*
Y3585D01*
X3755D01*
X3765Y3595D01*
Y3635D01*
X3755Y3645D01*
X3725D01*
X3605Y3990D02*
Y4050D01*
X3635D01*
X3645Y4040D01*
Y4020D01*
X3635Y4010D01*
X3605D01*
X3625D02*
X3645Y3990D01*
X3665D02*
Y4030D01*
X3685Y4050D01*
X3705Y4030D01*
Y3990D01*
Y4020D01*
X3665D01*
X3725Y4040D02*
X3735Y4050D01*
X3755D01*
X3765Y4040D01*
Y4030D01*
X3755Y4020D01*
X3745D01*
X3755D01*
X3765Y4010D01*
Y4000D01*
X3755Y3990D01*
X3735D01*
X3725Y4000D01*
X3605Y4090D02*
Y4150D01*
X3635D01*
X3645Y4140D01*
Y4120D01*
X3635Y4110D01*
X3605D01*
X3625D02*
X3645Y4090D01*
X3665D02*
Y4130D01*
X3685Y4150D01*
X3705Y4130D01*
Y4090D01*
Y4120D01*
X3665D01*
X3765Y4090D02*
X3725D01*
X3765Y4130D01*
Y4140D01*
X3755Y4150D01*
X3735D01*
X3725Y4140D01*
X3605Y4190D02*
Y4250D01*
X3635D01*
X3645Y4240D01*
Y4220D01*
X3635Y4210D01*
X3605D01*
X3625D02*
X3645Y4190D01*
X3665D02*
Y4230D01*
X3685Y4250D01*
X3705Y4230D01*
Y4190D01*
Y4220D01*
X3665D01*
X3725Y4190D02*
X3745D01*
X3735D01*
Y4250D01*
X3725Y4240D01*
X3605Y4290D02*
Y4350D01*
X3635D01*
X3645Y4340D01*
Y4320D01*
X3635Y4310D01*
X3605D01*
X3625D02*
X3645Y4290D01*
X3665D02*
Y4330D01*
X3685Y4350D01*
X3705Y4330D01*
Y4290D01*
Y4320D01*
X3665D01*
X3725Y4340D02*
X3735Y4350D01*
X3755D01*
X3765Y4340D01*
Y4300D01*
X3755Y4290D01*
X3735D01*
X3725Y4300D01*
Y4340D01*
D37*
X1175Y4815D02*
G03*
X1175Y4625I0J-95D01*
G01*
Y4495D02*
G03*
X1175Y4305I0J-95D01*
G01*
X1630Y4600D02*
Y4645D01*
X1530D02*
X1630D01*
X1530D02*
Y4795D01*
X1630D01*
Y4840D01*
X1175Y4625D02*
X1275D01*
X1175Y4815D02*
X1275D01*
Y4600D02*
X1630D01*
X1275D02*
Y4840D01*
X1630D01*
Y4280D02*
Y4325D01*
X1530D02*
X1630D01*
X1530D02*
Y4475D01*
X1630D01*
Y4520D01*
X1175Y4305D02*
X1275D01*
X1175Y4495D02*
X1275D01*
Y4280D02*
X1630D01*
X1275D02*
Y4520D01*
X1630D01*
D38*
X2480Y2570D02*
G03*
X2480Y2520I0J-25D01*
G01*
X2435Y4362D02*
G03*
X2485Y4362I25J0D01*
G01*
X1988Y2885D02*
G03*
X1988Y2885I-98J0D01*
G01*
X2483Y2180D02*
G03*
X2483Y2180I-98J0D01*
G01*
X2208Y2885D02*
G03*
X2208Y2885I-98J0D01*
G01*
X2718Y2560D02*
G03*
X2718Y2560I-98J0D01*
G01*
X2428Y2885D02*
G03*
X2428Y2885I-98J0D01*
G01*
X1720Y4511D02*
Y4520D01*
Y4720D02*
Y4729D01*
X1690Y4520D02*
X1720D01*
X1690D02*
Y4720D01*
X1750D01*
Y4520D02*
Y4720D01*
X1720Y4520D02*
X1750D01*
X1700Y2649D02*
X2480D01*
X1700Y2441D02*
X2480D01*
Y2570D02*
Y2649D01*
Y2441D02*
Y2520D01*
X1700Y2441D02*
Y2649D01*
X2356Y3428D02*
Y4362D01*
X2564Y3428D02*
Y4362D01*
X2356D02*
X2435D01*
X2485D02*
X2564D01*
X2356Y3428D02*
X2564D01*
X1560Y3180D02*
X1569D01*
X1351D02*
X1360D01*
X1560Y3150D02*
Y3180D01*
X1360Y3150D02*
X1560D01*
X1360D02*
Y3210D01*
X1560D01*
Y3180D02*
Y3210D01*
X1840Y4420D02*
Y4429D01*
Y4211D02*
Y4220D01*
Y4420D02*
X1870D01*
Y4220D02*
Y4420D01*
X1810Y4220D02*
X1870D01*
X1810D02*
Y4420D01*
X1840D01*
X1950Y4450D02*
Y4650D01*
Y4450D02*
X2050D01*
Y4650D01*
X1950D02*
X2050D01*
X2090Y4450D02*
Y4650D01*
Y4450D02*
X2190D01*
Y4650D01*
X2090D02*
X2190D01*
X1800Y1080D02*
X2400D01*
X1800D02*
Y1475D01*
Y1529D02*
Y1890D01*
X2047D01*
X2400Y1529D02*
Y1890D01*
Y1080D02*
Y1475D01*
X2203Y1890D02*
X2400D01*
X2103D02*
X2147D01*
X1125Y1078D02*
X1725D01*
X1125D02*
Y1473D01*
Y1527D02*
Y1888D01*
X1372D01*
X1725Y1527D02*
Y1888D01*
Y1078D02*
Y1473D01*
X1528Y1888D02*
X1725D01*
X1428D02*
X1472D01*
X1177Y2963D02*
Y3117D01*
X1103Y2963D02*
Y3117D01*
Y2963D02*
X1177D01*
X3110Y1657D02*
Y1783D01*
X2910Y1657D02*
Y1783D01*
X3110D01*
X2910Y1657D02*
X3110D01*
X3009Y3914D02*
Y4040D01*
X3210Y3914D02*
Y4040D01*
X3009Y3914D02*
X3210D01*
X3009Y4040D02*
X3210D01*
X3010Y4082D02*
Y4208D01*
X3210Y4082D02*
Y4208D01*
X3010Y4082D02*
X3210D01*
X3010Y4208D02*
X3210D01*
X1190Y2697D02*
Y2823D01*
X1390Y2697D02*
Y2823D01*
X1190Y2697D02*
X1390D01*
X1190Y2823D02*
X1390D01*
X1537Y3990D02*
X1663D01*
X1537Y3790D02*
X1663D01*
X1537D02*
Y3990D01*
X1663Y3790D02*
Y3990D01*
D39*
X2496Y2695D02*
G03*
X2496Y2695I-5J0D01*
G01*
X2315Y4346D02*
G03*
X2315Y4346I-5J0D01*
G01*
X3667Y1880D02*
G03*
X3667Y1880I-207J0D01*
G01*
D40*
X2452Y2610D02*
G03*
X2452Y2610I-12J0D01*
G01*
X2407Y4322D02*
G03*
X2407Y4322I-12J0D01*
G01*
D41*
X2925Y4182D02*
G03*
X2785Y4182I-70J0D01*
G01*
Y3912D02*
G03*
X2925Y3912I70J0D01*
G01*
Y4182D01*
X2785Y3912D02*
Y4182D01*
D42*
X2945D02*
G03*
X2765Y4182I-90J0D01*
G01*
Y3912D02*
G03*
X2945Y3912I90J0D01*
G01*
X3460Y2845D02*
X3485Y2870D01*
X3460Y2795D02*
Y2845D01*
Y2795D02*
X3485Y2770D01*
X3535D01*
X3560Y2795D01*
Y2845D01*
X3535Y2870D02*
X3560Y2845D01*
X3460Y4295D02*
Y4345D01*
X3485Y4370D01*
X3535D02*
X3560Y4345D01*
X3485Y4370D02*
X3535D01*
X3460Y4245D02*
X3485Y4270D01*
X3460Y4195D02*
Y4245D01*
Y4195D02*
X3485Y4170D01*
X3535D01*
X3560Y4195D01*
Y4245D01*
X3535Y4270D02*
X3560Y4245D01*
X3460Y4295D02*
X3485Y4270D01*
X3535D01*
X3560Y4295D01*
Y4345D01*
X3460Y3995D02*
Y4045D01*
X3485Y4070D01*
X3535D02*
X3560Y4045D01*
X3460Y4145D02*
X3485Y4170D01*
X3460Y4095D02*
Y4145D01*
Y4095D02*
X3485Y4070D01*
X3535D01*
X3560Y4095D01*
Y4145D01*
X3535Y4170D02*
X3560Y4145D01*
X3460Y3945D02*
X3485Y3970D01*
X3460Y3895D02*
Y3945D01*
Y3895D02*
X3485Y3870D01*
X3535D01*
X3560Y3895D01*
Y3945D01*
X3535Y3970D02*
X3560Y3945D01*
X3460Y3995D02*
X3485Y3970D01*
X3535D01*
X3560Y3995D01*
Y4045D01*
X3460Y3695D02*
Y3745D01*
X3485Y3770D01*
X3535D02*
X3560Y3745D01*
X3460Y3845D02*
X3485Y3870D01*
X3460Y3795D02*
Y3845D01*
Y3795D02*
X3485Y3770D01*
X3535D01*
X3560Y3795D01*
Y3845D01*
X3535Y3870D02*
X3560Y3845D01*
X3460Y3645D02*
X3485Y3670D01*
X3460Y3595D02*
Y3645D01*
Y3595D02*
X3485Y3570D01*
X3535D01*
X3560Y3595D01*
Y3645D01*
X3535Y3670D02*
X3560Y3645D01*
X3460Y3695D02*
X3485Y3670D01*
X3535D01*
X3560Y3695D01*
Y3745D01*
X3460Y3395D02*
Y3445D01*
X3485Y3470D01*
X3535D02*
X3560Y3445D01*
X3460Y3545D02*
X3485Y3570D01*
X3460Y3495D02*
Y3545D01*
Y3495D02*
X3485Y3470D01*
X3535D01*
X3560Y3495D01*
Y3545D01*
X3535Y3570D02*
X3560Y3545D01*
X3460Y3345D02*
X3485Y3370D01*
X3460Y3295D02*
Y3345D01*
Y3295D02*
X3485Y3270D01*
X3535D01*
X3560Y3295D01*
Y3345D01*
X3535Y3370D02*
X3560Y3345D01*
X3460Y3395D02*
X3485Y3370D01*
X3535D01*
X3560Y3395D01*
Y3445D01*
X3460Y3095D02*
Y3145D01*
X3485Y3170D01*
X3535D02*
X3560Y3145D01*
X3460Y3245D02*
X3485Y3270D01*
X3460Y3195D02*
Y3245D01*
Y3195D02*
X3485Y3170D01*
X3535D01*
X3560Y3195D01*
Y3245D01*
X3535Y3270D02*
X3560Y3245D01*
X3460Y3045D02*
X3485Y3070D01*
X3460Y2995D02*
Y3045D01*
Y2995D02*
X3485Y2970D01*
X3535D01*
X3560Y2995D01*
Y3045D01*
X3535Y3070D02*
X3560Y3045D01*
X3460Y3095D02*
X3485Y3070D01*
X3535D01*
X3560Y3095D01*
Y3145D01*
X3460Y2945D02*
X3485Y2970D01*
X3460Y2895D02*
Y2945D01*
Y2895D02*
X3485Y2870D01*
X3535D01*
X3560Y2895D01*
Y2945D01*
X3535Y2970D02*
X3560Y2945D01*
X2945Y3912D02*
Y4182D01*
X2765Y3912D02*
Y4182D01*
D43*
X3060Y2000D02*
Y2140D01*
X2960Y2000D02*
Y2140D01*
X2860Y2000D02*
Y2140D01*
X2760Y2690D02*
Y2740D01*
Y2690D02*
X2810D01*
Y2590D02*
Y2690D01*
X2760Y2590D02*
X2810D01*
X2760Y2140D02*
Y2590D01*
Y2140D02*
X3160D01*
Y2590D01*
X3110D02*
X3160D01*
X3110D02*
Y2690D01*
X3160D01*
Y2740D01*
X2760D02*
X3160D01*
D44*
X3460Y2065D02*
Y2026D01*
X3479Y2045D02*
X3440D01*
X1890Y3022D02*
Y2982D01*
X1910Y3002D02*
X1870D01*
X2522Y2180D02*
X2482D01*
X2502Y2160D02*
Y2200D01*
X2110Y3022D02*
Y2982D01*
X2130Y3002D02*
X2090D01*
X2620Y2697D02*
Y2657D01*
X2640Y2677D02*
X2600D01*
X2330Y3022D02*
Y2982D01*
X2350Y3002D02*
X2310D01*
D45*
X1200Y4120D02*
Y4103D01*
Y4112D01*
X1250D01*
X1242Y4120D01*
X1245Y3552D02*
Y3585D01*
X1220D01*
X1228Y3568D01*
Y3560D01*
X1220Y3552D01*
X1203D01*
X1195Y3560D01*
Y3577D01*
X1203Y3585D01*
X1295D02*
Y3568D01*
Y3577D01*
X1345D01*
X1337Y3585D01*
Y3543D02*
X1345Y3535D01*
Y3518D01*
X1337Y3510D01*
X1303D01*
X1295Y3518D01*
Y3535D01*
X1303Y3543D01*
X1337D01*
X1350Y4092D02*
X1342Y4108D01*
X1325Y4125D01*
X1308D01*
X1300Y4117D01*
Y4100D01*
X1308Y4092D01*
X1317D01*
X1325Y4100D01*
Y4125D01*
D46*
X1140Y3105D02*
D03*
D47*
X3510Y2820D02*
D03*
Y4320D02*
D03*
Y4220D02*
D03*
Y4120D02*
D03*
Y4020D02*
D03*
Y3920D02*
D03*
Y3820D02*
D03*
Y3720D02*
D03*
Y3620D02*
D03*
Y3520D02*
D03*
Y3420D02*
D03*
Y3320D02*
D03*
Y3220D02*
D03*
Y3120D02*
D03*
Y3020D02*
D03*
Y2920D02*
D03*
M02*
