M48
;Layer_Color=9474304
;FILE_FORMAT=2:3
INCH
;TYPE=PLATED
T1F00S00C0.025
T2F00S00C0.030
T3F00S00C0.033
T4F00S00C0.035
T5F00S00C0.039
T6F00S00C0.040
T7F00S00C0.050
T8F00S00C0.060
T9F00S00C0.080
T10F00S00C0.118
T11F00S00C0.150
;TYPE=NON_PLATED
T12F00S00C0.150
%
T01
X03780Y01520
X03730Y01585
X03780Y01650
Y02215
X03730Y02280
X03780Y02345
Y02920
X03730Y02985
X03780Y03050
Y03615
X03730Y03680
X03780Y03745
Y04315
X03730Y04380
X03780Y04445
T02
X03295Y02895
X02620Y02599
Y02521
X02424Y02180
X02346
X01811Y02220
X01890Y02846
Y02924
X02110
Y02846
X02330
Y02924
X02492Y03090
X02169Y02624
X01320Y02220
Y02140
X01240
Y02060
X01320
X01240Y02220
X01760Y03400
Y03480
X01840
Y03400
Y03560
X01760
X02192Y03279
X02723Y04221
X02817
T03
X03520Y01390
X04000Y01450
Y01750
X04150Y01860
X04450
Y02560
X04150
X04000Y02450
Y02150
X03520Y02090
Y02390
Y02790
Y03090
X04000Y02850
X03520Y01690
X01270Y03300
X01570
X01760Y04050
Y04350
X03520Y04490
Y04190
Y03790
Y03490
X04000Y03550
Y03850
X04150Y03960
X04450
Y04660
X04150
X04000Y04550
Y04250
Y03150
X04150Y03260
X04450
T04
X04440Y01440
Y01540
Y01640
Y01740
X04160
Y01640
Y02340
Y02440
X04440
Y02340
Y02240
Y02140
Y02840
Y02940
Y03040
X04160
X02440Y02695
X02340
X02240
X02140
X02040
X01940
X01840
X01740
Y02395
X01840
X01940
X02040
X02140
X02240
X02340
X02440
X02640Y01840
X02837
X02175Y01852
X02075
X02125Y01752
X02025
X01450Y01750
X01350
X01400Y01850
X01500
X02310Y03495
Y03595
Y03695
Y03795
Y03895
Y03995
Y04095
Y04195
Y04295
X02060Y04260
X01960
X01980Y04560
X02080
X01880
X02610Y04295
Y04195
Y04095
Y03995
Y03895
Y03795
Y03695
Y03595
Y03495
X04160Y03740
Y03840
X04440
Y03740
Y03640
Y03540
Y03140
X04160
Y04440
Y04540
X04440
Y04440
Y04340
Y04240
X01800Y04860
X01700
X01600
X01500
X01400
T05
X03180Y01860
X03080
X01340Y02760
X01240
X01600Y03840
Y03940
X03060Y03977
X03060Y04145
X03160
X03160Y03977
T06
X01220Y03640
Y03740
Y03840
Y03940
Y04040
X01320
Y03940
Y03840
Y03740
Y03640
X02855Y03947
Y04147
T07
X01160Y02480
Y02640
X01410
Y02480
X01480Y04350
Y04450
T08
X03200Y02160
X03100
X03000
T09
X02621Y01296
X02820
X03020
T10
X03100Y02860
T11
X04410Y01180
X01120Y03010
X04410Y04825
X01120
T12
X01225Y01500
X01625
X01900Y01502
X02300
M30
