%FSLAX23Y23*%
%MOIN*%
G70*
G01*
G75*
G04 Layer_Physical_Order=1*
G04 Layer_Color=255*
%ADD10C,0.047*%
%ADD11C,0.020*%
%ADD12C,0.010*%
%ADD13C,0.055*%
%ADD14R,0.059X0.059*%
%ADD15C,0.059*%
%ADD16C,0.070*%
%ADD17R,0.059X0.059*%
%ADD18C,0.065*%
%ADD19C,0.120*%
%ADD20P,0.130X8X202.5*%
%ADD21C,0.060*%
G04:AMPARAMS|DCode=22|XSize=80mil|YSize=100mil|CornerRadius=0mil|HoleSize=0mil|Usage=FLASHONLY|Rotation=0.000|XOffset=0mil|YOffset=0mil|HoleType=Round|Shape=Octagon|*
%AMOCTAGOND22*
4,1,8,-0.020,0.050,0.020,0.050,0.040,0.030,0.040,-0.030,0.020,-0.050,-0.020,-0.050,-0.040,-0.030,-0.040,0.030,-0.020,0.050,0.0*
%
%ADD22OCTAGOND22*%

%ADD23P,0.213X8X22.5*%
%ADD24C,0.059*%
%ADD25C,0.116*%
%ADD26R,0.059X0.059*%
%ADD27C,0.049*%
%ADD28R,0.049X0.049*%
%ADD29R,0.049X0.049*%
%ADD30O,0.100X0.060*%
G04:AMPARAMS|DCode=31|XSize=100mil|YSize=60mil|CornerRadius=0mil|HoleSize=0mil|Usage=FLASHONLY|Rotation=0.000|XOffset=0mil|YOffset=0mil|HoleType=Round|Shape=Octagon|*
%AMOCTAGOND31*
4,1,8,0.050,-0.015,0.050,0.015,0.035,0.030,-0.035,0.030,-0.050,0.015,-0.050,-0.015,-0.035,-0.030,0.035,-0.030,0.050,-0.015,0.0*
%
%ADD31OCTAGOND31*%

%ADD32R,0.055X0.055*%
%ADD33C,0.055*%
%ADD34O,0.055X0.035*%
%ADD35P,0.216X8X22.5*%
%ADD36C,0.050*%
%ADD37R,0.070X0.040*%
%ADD38R,0.075X0.040*%
D10*
X4175Y4324D02*
X4192Y4340D01*
X4091Y4408D02*
X4175Y4324D01*
X4192Y4340D02*
X4440D01*
X4150Y4298D02*
X4175Y4324D01*
X4150Y4298D02*
Y4340D01*
X4440D01*
X3712Y3615D02*
X3780D01*
X3697D02*
X3712D01*
X3664Y3567D02*
X3712Y3615D01*
X1340Y2710D02*
Y2760D01*
Y2710D02*
X1410Y2640D01*
X1500Y1850D02*
Y2550D01*
X1410Y2640D02*
X1500Y2550D01*
X3080Y1355D02*
Y1860D01*
X3020Y1296D02*
X3080Y1355D01*
X3160Y4017D02*
Y4145D01*
X3160Y4016D02*
X3160Y4017D01*
X3160Y3977D02*
Y4016D01*
X1600Y3840D02*
X1640Y3880D01*
X1728D01*
X1760Y4050D01*
X1980Y4474D02*
Y4560D01*
X1760Y4254D02*
X1980Y4474D01*
X1760Y4050D02*
Y4254D01*
X4091Y4601D02*
X4150Y4660D01*
X4091Y4408D02*
Y4601D01*
X2640Y1587D02*
Y1840D01*
X2621Y1296D02*
X2640Y1587D01*
X1730Y4410D02*
X1880Y4560D01*
X1664Y4410D02*
X1730D01*
X1632Y4378D02*
X1664Y4410D01*
X1632Y3972D02*
Y4378D01*
X1600Y3940D02*
X1632Y3972D01*
X2424Y2180D02*
Y2326D01*
X2440Y2341D01*
Y2395D01*
X4000Y2150D02*
Y2335D01*
X4067Y2402D01*
Y2783D01*
X4000Y2850D02*
X4067Y2783D01*
X4192Y3640D02*
X4440D01*
X4150Y3598D02*
X4192Y3640D01*
X4150Y3260D02*
Y3598D01*
X2592Y2521D02*
X2620D01*
X2556Y2557D02*
X2592Y2521D01*
X2556Y2557D02*
Y3289D01*
X2679Y3412D01*
Y3826D01*
X2610Y3895D02*
X2679Y3826D01*
X2820Y1296D02*
X2996Y1120D01*
X3082D01*
X3180Y1218D01*
Y1860D01*
X3000Y1984D02*
Y2160D01*
X2968Y1952D02*
X3000Y1984D01*
X2752Y1952D02*
X2968D01*
X2640Y1840D02*
X2752Y1952D01*
X4371Y1609D02*
X4440Y1540D01*
X4371Y1609D02*
Y1824D01*
X4335Y1860D02*
X4371Y1824D01*
X4150Y1860D02*
X4335D01*
X4371Y2309D02*
X4440Y2240D01*
X4371Y2309D02*
Y2528D01*
X4339Y2560D02*
X4371Y2528D01*
X4150Y2560D02*
X4339D01*
X4309Y3771D02*
X4440Y3640D01*
X4309Y3771D02*
Y3878D01*
X4227Y3960D02*
X4309Y3878D01*
X4150Y3960D02*
X4227D01*
X4309Y3071D02*
X4440Y2940D01*
X4309Y3071D02*
Y3178D01*
X4227Y3260D02*
X4309Y3178D01*
X4150Y3260D02*
X4227D01*
X4150Y3960D02*
Y4298D01*
Y1860D02*
Y2208D01*
X4182Y2240D01*
X4440D01*
X4150Y2560D02*
Y2898D01*
X4192Y2940D01*
X4440D01*
X1980Y4560D02*
Y4641D01*
X1800Y4821D02*
X1980Y4641D01*
X1800Y4821D02*
Y4860D01*
X2175Y1852D02*
X2346Y2023D01*
Y2180D01*
X1529Y3341D02*
X1570Y3300D01*
X1529Y3341D02*
Y3877D01*
X1552Y3900D01*
X1560D01*
X1600Y3940D01*
X3712Y4315D02*
X3780D01*
X3664Y4267D02*
X3712Y4315D01*
X3664Y3648D02*
Y4267D01*
Y3648D02*
X3697Y3615D01*
X3680Y1520D02*
X3780D01*
X3664Y1536D02*
X3680Y1520D01*
X3664Y1536D02*
Y2176D01*
X3703Y2215D01*
X3780D01*
X3680Y2920D02*
X3780D01*
X3664Y2936D02*
X3680Y2920D01*
X3664Y2936D02*
Y3567D01*
X3712Y3615D02*
X3780D01*
X2340Y2290D02*
Y2395D01*
Y2290D02*
X2346Y2284D01*
Y2180D02*
Y2284D01*
X3100Y2020D02*
Y2160D01*
X3080Y2000D02*
X3100Y2020D01*
X3080Y1860D02*
Y2000D01*
X3200Y2020D02*
Y2160D01*
X3180Y2000D02*
X3200Y2020D01*
X3180Y1860D02*
Y2000D01*
D11*
X2160Y2695D02*
Y2874D01*
X3328Y1690D02*
X3520D01*
X3295Y1723D02*
X3328Y1690D01*
X3295Y1723D02*
Y2895D01*
X2492Y3090D02*
Y3377D01*
X2610Y3495D01*
X2684Y4354D02*
X2817Y4221D01*
X2555Y4354D02*
X2684D01*
X2521Y4320D02*
X2555Y4354D01*
X2521Y3906D02*
Y4320D01*
X2310Y3695D02*
X2521Y3906D01*
X2310Y4295D02*
Y4512D01*
X2344Y4546D01*
X3819D01*
X4097Y4268D01*
Y3103D02*
Y4268D01*
Y3103D02*
X4160Y3040D01*
X1811Y1966D02*
X2025Y1752D01*
X1811Y1966D02*
Y2220D01*
X2169Y2624D02*
X2479D01*
X2495Y2640D01*
Y2868D01*
X2442Y2921D02*
X2495Y2868D01*
X2442Y2921D02*
Y3427D01*
X2610Y3595D01*
X1890Y2745D02*
Y2846D01*
Y2745D02*
X1940Y2695D01*
X2110Y2765D02*
Y2846D01*
X2040Y2695D02*
X2110Y2765D01*
X1270Y2790D02*
Y3300D01*
X1240Y2760D02*
X1270Y2790D01*
X1240Y2560D02*
Y2760D01*
X1160Y2480D02*
X1240Y2560D01*
X2192Y3279D02*
X2485Y3572D01*
Y3670D01*
X2610Y3795D01*
X1350Y1750D02*
X1405Y1695D01*
X1505D01*
X1607Y1797D01*
Y2213D01*
X1664Y2270D01*
X2015D01*
X2140Y2395D01*
X2610Y4295D02*
X2649D01*
X2723Y4221D01*
X3988Y1640D02*
X4160D01*
X3855Y1773D02*
X3988Y1640D01*
X3855Y1773D02*
Y2544D01*
X2930Y3469D02*
X3855Y2544D01*
X2930Y3469D02*
Y4255D01*
X2785Y4400D02*
X2930Y4255D01*
X2464Y4400D02*
X2785D01*
X2417Y4353D02*
X2464Y4400D01*
X2417Y4202D02*
Y4353D01*
X2310Y4095D02*
X2417Y4202D01*
X4053Y2233D02*
X4160Y2340D01*
X4053Y2118D02*
Y2233D01*
X4032Y2097D02*
X4053Y2118D01*
X3968Y2097D02*
X4032D01*
X3921Y2144D02*
X3968Y2097D01*
X3921Y2144D02*
Y2531D01*
X2986Y3466D02*
X3921Y2531D01*
X2986Y3466D02*
Y4393D01*
X2944Y4435D02*
X2986Y4393D01*
X2382Y4435D02*
X2944D01*
X2365Y4418D02*
X2382Y4435D01*
X2365Y4250D02*
Y4418D01*
X2310Y4195D02*
X2365Y4250D01*
X2541Y3626D02*
X2610Y3695D01*
X2541Y3579D02*
Y3626D01*
X2400Y3437D02*
X2541Y3579D01*
X2400Y3264D02*
Y3437D01*
X2347Y3211D02*
X2400Y3264D01*
X2109Y3211D02*
X2347D01*
X1840Y3480D02*
X2109Y3211D01*
X1965Y2470D02*
X2040Y2395D01*
X1855Y2470D02*
X1965D01*
X1685Y2640D02*
X1855Y2470D01*
X1685Y2640D02*
Y3648D01*
X1728Y3691D01*
X2214D01*
X2310Y3595D01*
X3520Y2090D02*
Y2248D01*
X3552Y2280D01*
X3730D01*
X4440Y1740D02*
X4450Y1750D01*
Y1860D01*
X4440Y2440D02*
X4450Y2450D01*
Y2560D01*
X2240Y2695D02*
X2330Y2785D01*
Y2846D01*
X1223Y1850D02*
X1400D01*
X1185Y1888D02*
X1223Y1850D01*
X1185Y1888D02*
Y2085D01*
X1240Y2140D01*
X2060Y4045D02*
Y4260D01*
Y4045D02*
X2310Y3795D01*
X2330Y2924D02*
X2440Y2814D01*
Y2695D02*
Y2814D01*
X2140Y2695D02*
X2160D01*
X2110Y2924D02*
X2160Y2874D01*
X1270Y3300D02*
X1373Y3403D01*
Y3987D01*
X1320Y4040D02*
X1373Y3987D01*
X2080Y4420D02*
Y4560D01*
X2060Y4400D02*
X2080Y4420D01*
X2060Y4260D02*
Y4400D01*
X4450Y4605D02*
Y4660D01*
X4440Y4595D02*
X4450Y4605D01*
X4440Y4540D02*
Y4595D01*
X4450Y3905D02*
Y3960D01*
X4440Y3895D02*
X4450Y3905D01*
X4440Y3840D02*
Y3895D01*
X4450Y3205D02*
Y3260D01*
X4440Y3195D02*
X4450Y3205D01*
X4440Y3140D02*
Y3195D01*
D12*
X2030Y4970D02*
Y4910D01*
X2033Y4970D02*
Y4910D01*
X2013Y4970D02*
X2010Y4953D01*
Y4970D01*
X2053D01*
Y4953D01*
X2050Y4970D01*
X2021Y4910D02*
X2041D01*
X2067Y4944D02*
Y4941D01*
X2064D01*
Y4944D01*
X2067Y4947D01*
X2073Y4950D01*
X2084D01*
X2090Y4947D01*
X2093Y4944D01*
X2096Y4939D01*
Y4919D01*
X2099Y4913D01*
X2101Y4910D01*
X2093Y4944D02*
Y4919D01*
X2096Y4913D01*
X2101Y4910D01*
X2104D01*
X2093Y4939D02*
X2090Y4936D01*
X2073Y4933D01*
X2064Y4930D01*
X2061Y4924D01*
Y4919D01*
X2064Y4913D01*
X2073Y4910D01*
X2081D01*
X2087Y4913D01*
X2093Y4919D01*
X2073Y4933D02*
X2067Y4930D01*
X2064Y4924D01*
Y4919D01*
X2067Y4913D01*
X2073Y4910D01*
X2121Y4970D02*
Y4910D01*
X2124Y4970D02*
Y4910D01*
X2113Y4970D02*
X2124D01*
X2113Y4910D02*
X2133D01*
X2152Y4970D02*
Y4910D01*
X2155Y4970D02*
Y4910D01*
X2144Y4970D02*
X2155D01*
X2144Y4910D02*
X2164D01*
X2177Y4933D02*
X2212D01*
Y4939D01*
X2209Y4944D01*
X2206Y4947D01*
X2200Y4950D01*
X2192D01*
X2183Y4947D01*
X2177Y4941D01*
X2175Y4933D01*
Y4927D01*
X2177Y4919D01*
X2183Y4913D01*
X2192Y4910D01*
X2197D01*
X2206Y4913D01*
X2212Y4919D01*
X2209Y4933D02*
Y4941D01*
X2206Y4947D01*
X2192Y4950D02*
X2186Y4947D01*
X2180Y4941D01*
X2177Y4933D01*
Y4927D01*
X2180Y4919D01*
X2186Y4913D01*
X2192Y4910D01*
X2229Y4950D02*
Y4910D01*
X2232Y4950D02*
Y4910D01*
Y4933D02*
X2235Y4941D01*
X2241Y4947D01*
X2247Y4950D01*
X2255D01*
X2258Y4947D01*
Y4944D01*
X2255Y4941D01*
X2252Y4944D01*
X2255Y4947D01*
X2221Y4950D02*
X2232D01*
X2221Y4910D02*
X2241D01*
X2355Y4970D02*
Y4910D01*
X2358Y4970D02*
Y4910D01*
X2355Y4941D02*
X2350Y4947D01*
X2344Y4950D01*
X2338D01*
X2330Y4947D01*
X2324Y4941D01*
X2321Y4933D01*
Y4927D01*
X2324Y4919D01*
X2330Y4913D01*
X2338Y4910D01*
X2344D01*
X2350Y4913D01*
X2355Y4919D01*
X2338Y4950D02*
X2333Y4947D01*
X2327Y4941D01*
X2324Y4933D01*
Y4927D01*
X2327Y4919D01*
X2333Y4913D01*
X2338Y4910D01*
X2347Y4970D02*
X2358D01*
X2355Y4910D02*
X2367D01*
X2378Y4933D02*
X2412D01*
Y4939D01*
X2409Y4944D01*
X2406Y4947D01*
X2401Y4950D01*
X2392D01*
X2384Y4947D01*
X2378Y4941D01*
X2375Y4933D01*
Y4927D01*
X2378Y4919D01*
X2384Y4913D01*
X2392Y4910D01*
X2398D01*
X2406Y4913D01*
X2412Y4919D01*
X2409Y4933D02*
Y4941D01*
X2406Y4947D01*
X2392Y4950D02*
X2386Y4947D01*
X2381Y4941D01*
X2378Y4933D01*
Y4927D01*
X2381Y4919D01*
X2386Y4913D01*
X2392Y4910D01*
X2484Y4970D02*
Y4910D01*
X2487Y4970D02*
Y4910D01*
X2475Y4970D02*
X2510D01*
X2518Y4967D01*
X2521Y4964D01*
X2524Y4959D01*
Y4950D01*
X2521Y4944D01*
X2518Y4941D01*
X2510Y4939D01*
X2487D01*
X2510Y4970D02*
X2515Y4967D01*
X2518Y4964D01*
X2521Y4959D01*
Y4950D01*
X2518Y4944D01*
X2515Y4941D01*
X2510Y4939D01*
X2475Y4910D02*
X2495D01*
X2540Y4950D02*
Y4910D01*
X2543Y4950D02*
Y4910D01*
Y4933D02*
X2546Y4941D01*
X2552Y4947D01*
X2558Y4950D01*
X2566D01*
X2569Y4947D01*
Y4944D01*
X2566Y4941D01*
X2563Y4944D01*
X2566Y4947D01*
X2532Y4950D02*
X2543D01*
X2532Y4910D02*
X2552D01*
X2595Y4950D02*
X2587Y4947D01*
X2581Y4941D01*
X2578Y4933D01*
Y4927D01*
X2581Y4919D01*
X2587Y4913D01*
X2595Y4910D01*
X2601D01*
X2610Y4913D01*
X2615Y4919D01*
X2618Y4927D01*
Y4933D01*
X2615Y4941D01*
X2610Y4947D01*
X2601Y4950D01*
X2595D01*
X2590Y4947D01*
X2584Y4941D01*
X2581Y4933D01*
Y4927D01*
X2584Y4919D01*
X2590Y4913D01*
X2595Y4910D01*
X2601D02*
X2607Y4913D01*
X2612Y4919D01*
X2615Y4927D01*
Y4933D01*
X2612Y4941D01*
X2607Y4947D01*
X2601Y4950D01*
X2633D02*
X2650Y4910D01*
X2636Y4950D02*
X2650Y4916D01*
X2667Y4950D02*
X2650Y4910D01*
X2644Y4899D01*
X2638Y4893D01*
X2633Y4890D01*
X2630D01*
X2627Y4893D01*
X2630Y4896D01*
X2633Y4893D01*
X2627Y4950D02*
X2644D01*
X2656D02*
X2673D01*
X2684Y4933D02*
X2718D01*
Y4939D01*
X2715Y4944D01*
X2712Y4947D01*
X2707Y4950D01*
X2698D01*
X2690Y4947D01*
X2684Y4941D01*
X2681Y4933D01*
Y4927D01*
X2684Y4919D01*
X2690Y4913D01*
X2698Y4910D01*
X2704D01*
X2712Y4913D01*
X2718Y4919D01*
X2715Y4933D02*
Y4941D01*
X2712Y4947D01*
X2698Y4950D02*
X2692Y4947D01*
X2687Y4941D01*
X2684Y4933D01*
Y4927D01*
X2687Y4919D01*
X2692Y4913D01*
X2698Y4910D01*
X2762Y4941D02*
X2759Y4939D01*
X2762Y4936D01*
X2764Y4939D01*
Y4941D01*
X2759Y4947D01*
X2753Y4950D01*
X2744D01*
X2736Y4947D01*
X2730Y4941D01*
X2727Y4933D01*
Y4927D01*
X2730Y4919D01*
X2736Y4913D01*
X2744Y4910D01*
X2750D01*
X2759Y4913D01*
X2764Y4919D01*
X2744Y4950D02*
X2739Y4947D01*
X2733Y4941D01*
X2730Y4933D01*
Y4927D01*
X2733Y4919D01*
X2739Y4913D01*
X2744Y4910D01*
X2791D02*
X2788Y4913D01*
X2785Y4921D01*
Y4970D01*
X2782D01*
Y4921D01*
X2785Y4913D01*
X2791Y4910D01*
X2796D01*
X2802Y4913D01*
X2805Y4919D01*
X2774Y4950D02*
X2796D01*
X2832D02*
X2823Y4947D01*
X2818Y4941D01*
X2815Y4933D01*
Y4927D01*
X2818Y4919D01*
X2823Y4913D01*
X2832Y4910D01*
X2838D01*
X2846Y4913D01*
X2852Y4919D01*
X2855Y4927D01*
Y4933D01*
X2852Y4941D01*
X2846Y4947D01*
X2838Y4950D01*
X2832D01*
X2826Y4947D01*
X2820Y4941D01*
X2818Y4933D01*
Y4927D01*
X2820Y4919D01*
X2826Y4913D01*
X2832Y4910D01*
X2838D02*
X2843Y4913D01*
X2849Y4919D01*
X2852Y4927D01*
Y4933D01*
X2849Y4941D01*
X2843Y4947D01*
X2838Y4950D01*
X2926Y4970D02*
Y4910D01*
X2929Y4970D02*
Y4910D01*
X2946Y4953D02*
Y4930D01*
X2918Y4970D02*
X2963D01*
Y4953D01*
X2960Y4970D01*
X2929Y4941D02*
X2946D01*
X2918Y4910D02*
X2938D01*
X2980Y4970D02*
X2977Y4967D01*
X2980Y4964D01*
X2983Y4967D01*
X2980Y4970D01*
Y4950D02*
Y4910D01*
X2983Y4950D02*
Y4910D01*
X2972Y4950D02*
X2983D01*
X2972Y4910D02*
X2992D01*
X3011Y4950D02*
Y4910D01*
X3014Y4950D02*
Y4910D01*
Y4941D02*
X3019Y4947D01*
X3028Y4950D01*
X3034D01*
X3042Y4947D01*
X3045Y4941D01*
Y4910D01*
X3034Y4950D02*
X3039Y4947D01*
X3042Y4941D01*
Y4910D01*
X3002Y4950D02*
X3014D01*
X3002Y4910D02*
X3022D01*
X3034D02*
X3054D01*
X3067Y4944D02*
Y4941D01*
X3064D01*
Y4944D01*
X3067Y4947D01*
X3073Y4950D01*
X3084D01*
X3090Y4947D01*
X3093Y4944D01*
X3096Y4939D01*
Y4919D01*
X3099Y4913D01*
X3101Y4910D01*
X3093Y4944D02*
Y4919D01*
X3096Y4913D01*
X3101Y4910D01*
X3104D01*
X3093Y4939D02*
X3090Y4936D01*
X3073Y4933D01*
X3064Y4930D01*
X3061Y4924D01*
Y4919D01*
X3064Y4913D01*
X3073Y4910D01*
X3081D01*
X3087Y4913D01*
X3093Y4919D01*
X3073Y4933D02*
X3067Y4930D01*
X3064Y4924D01*
Y4919D01*
X3067Y4913D01*
X3073Y4910D01*
X3121Y4970D02*
Y4910D01*
X3124Y4970D02*
Y4910D01*
X3113Y4970D02*
X3124D01*
X3113Y4910D02*
X3133D01*
X3198Y4936D02*
X3249D01*
X3319Y4970D02*
Y4910D01*
X3322Y4970D02*
Y4910D01*
X3311Y4970D02*
X3331D01*
X3311Y4910D02*
X3331D01*
X3362Y4970D02*
Y4910D01*
X3365Y4970D02*
Y4910D01*
X3345Y4970D02*
X3342Y4953D01*
Y4970D01*
X3385D01*
Y4953D01*
X3382Y4970D01*
X3353Y4910D02*
X3373D01*
X3402Y4970D02*
Y4910D01*
X3405Y4970D02*
Y4910D01*
X3393Y4970D02*
X3427D01*
X3436Y4967D01*
X3439Y4964D01*
X3442Y4959D01*
Y4953D01*
X3439Y4947D01*
X3436Y4944D01*
X3427Y4941D01*
Y4970D02*
X3433Y4967D01*
X3436Y4964D01*
X3439Y4959D01*
Y4953D01*
X3436Y4947D01*
X3433Y4944D01*
X3427Y4941D01*
X3405D02*
X3427D01*
X3436Y4939D01*
X3439Y4936D01*
X3442Y4930D01*
Y4921D01*
X3439Y4916D01*
X3436Y4913D01*
X3427Y4910D01*
X3393D01*
X3427Y4941D02*
X3433Y4939D01*
X3436Y4936D01*
X3439Y4930D01*
Y4921D01*
X3436Y4916D01*
X3433Y4913D01*
X3427Y4910D01*
X3475Y4970D02*
X3455Y4910D01*
X3475Y4970D02*
X3495Y4910D01*
X3475Y4961D02*
X3493Y4910D01*
X3461Y4927D02*
X3487D01*
X3450Y4910D02*
X3467D01*
X3484D02*
X3501D01*
X3571Y4970D02*
Y4910D01*
X3574Y4970D02*
X3591Y4919D01*
X3571Y4970D02*
X3591Y4910D01*
X3611Y4970D02*
X3591Y4910D01*
X3611Y4970D02*
Y4910D01*
X3614Y4970D02*
Y4910D01*
X3563Y4970D02*
X3574D01*
X3611D02*
X3623D01*
X3563Y4910D02*
X3580D01*
X3603D02*
X3623D01*
X3635Y4944D02*
Y4941D01*
X3633D01*
Y4944D01*
X3635Y4947D01*
X3641Y4950D01*
X3653D01*
X3658Y4947D01*
X3661Y4944D01*
X3664Y4939D01*
Y4919D01*
X3667Y4913D01*
X3670Y4910D01*
X3661Y4944D02*
Y4919D01*
X3664Y4913D01*
X3670Y4910D01*
X3673D01*
X3661Y4939D02*
X3658Y4936D01*
X3641Y4933D01*
X3633Y4930D01*
X3630Y4924D01*
Y4919D01*
X3633Y4913D01*
X3641Y4910D01*
X3650D01*
X3655Y4913D01*
X3661Y4919D01*
X3641Y4933D02*
X3635Y4930D01*
X3633Y4924D01*
Y4919D01*
X3635Y4913D01*
X3641Y4910D01*
X3690Y4950D02*
Y4910D01*
X3692Y4950D02*
Y4910D01*
Y4933D02*
X3695Y4941D01*
X3701Y4947D01*
X3707Y4950D01*
X3715D01*
X3718Y4947D01*
Y4944D01*
X3715Y4941D01*
X3712Y4944D01*
X3715Y4947D01*
X3681Y4950D02*
X3692D01*
X3681Y4910D02*
X3701D01*
X3784Y4959D02*
X3787Y4956D01*
X3784Y4953D01*
X3781Y4956D01*
Y4959D01*
X3784Y4964D01*
X3787Y4967D01*
X3796Y4970D01*
X3807D01*
X3816Y4967D01*
X3818Y4964D01*
X3821Y4959D01*
Y4953D01*
X3818Y4947D01*
X3810Y4941D01*
X3796Y4936D01*
X3790Y4933D01*
X3784Y4927D01*
X3781Y4919D01*
Y4910D01*
X3807Y4970D02*
X3813Y4967D01*
X3816Y4964D01*
X3818Y4959D01*
Y4953D01*
X3816Y4947D01*
X3807Y4941D01*
X3796Y4936D01*
X3781Y4916D02*
X3784Y4919D01*
X3790D01*
X3804Y4913D01*
X3813D01*
X3818Y4916D01*
X3821Y4919D01*
Y4924D01*
X3790Y4919D02*
X3804Y4910D01*
X3816D01*
X3818Y4913D01*
X3821Y4919D01*
X3847Y4970D02*
X3839Y4967D01*
X3833Y4959D01*
X3830Y4944D01*
Y4936D01*
X3833Y4921D01*
X3839Y4913D01*
X3847Y4910D01*
X3853D01*
X3862Y4913D01*
X3867Y4921D01*
X3870Y4936D01*
Y4944D01*
X3867Y4959D01*
X3862Y4967D01*
X3853Y4970D01*
X3847D01*
X3842Y4967D01*
X3839Y4964D01*
X3836Y4959D01*
X3833Y4944D01*
Y4936D01*
X3836Y4921D01*
X3839Y4916D01*
X3842Y4913D01*
X3847Y4910D01*
X3853D02*
X3859Y4913D01*
X3862Y4916D01*
X3864Y4921D01*
X3867Y4936D01*
Y4944D01*
X3864Y4959D01*
X3862Y4964D01*
X3859Y4967D01*
X3853Y4970D01*
X3879Y4959D02*
X3885Y4961D01*
X3893Y4970D01*
Y4910D01*
X3890Y4967D02*
Y4910D01*
X3879D02*
X3905D01*
X3932Y4970D02*
X3924Y4967D01*
X3918Y4959D01*
X3915Y4944D01*
Y4936D01*
X3918Y4921D01*
X3924Y4913D01*
X3932Y4910D01*
X3938D01*
X3946Y4913D01*
X3952Y4921D01*
X3955Y4936D01*
Y4944D01*
X3952Y4959D01*
X3946Y4967D01*
X3938Y4970D01*
X3932D01*
X3926Y4967D01*
X3924Y4964D01*
X3921Y4959D01*
X3918Y4944D01*
Y4936D01*
X3921Y4921D01*
X3924Y4916D01*
X3926Y4913D01*
X3932Y4910D01*
X3938D02*
X3944Y4913D01*
X3946Y4916D01*
X3949Y4921D01*
X3952Y4936D01*
Y4944D01*
X3949Y4959D01*
X3946Y4964D01*
X3944Y4967D01*
X3938Y4970D01*
X2019Y4865D02*
Y4805D01*
X2021Y4865D02*
X2039Y4814D01*
X2019Y4865D02*
X2039Y4805D01*
X2059Y4865D02*
X2039Y4805D01*
X2059Y4865D02*
Y4805D01*
X2061Y4865D02*
Y4805D01*
X2010Y4865D02*
X2021D01*
X2059D02*
X2070D01*
X2010Y4805D02*
X2027D01*
X2050D02*
X2070D01*
X2094Y4845D02*
X2085Y4842D01*
X2080Y4836D01*
X2077Y4828D01*
Y4822D01*
X2080Y4814D01*
X2085Y4808D01*
X2094Y4805D01*
X2100D01*
X2108Y4808D01*
X2114Y4814D01*
X2117Y4822D01*
Y4828D01*
X2114Y4836D01*
X2108Y4842D01*
X2100Y4845D01*
X2094D01*
X2088Y4842D01*
X2083Y4836D01*
X2080Y4828D01*
Y4822D01*
X2083Y4814D01*
X2088Y4808D01*
X2094Y4805D01*
X2100D02*
X2105Y4808D01*
X2111Y4814D01*
X2114Y4822D01*
Y4828D01*
X2111Y4836D01*
X2105Y4842D01*
X2100Y4845D01*
X2160Y4865D02*
Y4805D01*
X2163Y4865D02*
Y4805D01*
X2160Y4836D02*
X2154Y4842D01*
X2149Y4845D01*
X2143D01*
X2134Y4842D01*
X2129Y4836D01*
X2126Y4828D01*
Y4822D01*
X2129Y4814D01*
X2134Y4808D01*
X2143Y4805D01*
X2149D01*
X2154Y4808D01*
X2160Y4814D01*
X2143Y4845D02*
X2137Y4842D01*
X2131Y4836D01*
X2129Y4828D01*
Y4822D01*
X2131Y4814D01*
X2137Y4808D01*
X2143Y4805D01*
X2151Y4865D02*
X2163D01*
X2160Y4805D02*
X2171D01*
X2188Y4845D02*
Y4814D01*
X2191Y4808D01*
X2200Y4805D01*
X2205D01*
X2214Y4808D01*
X2220Y4814D01*
X2191Y4845D02*
Y4814D01*
X2194Y4808D01*
X2200Y4805D01*
X2220Y4845D02*
Y4805D01*
X2223Y4845D02*
Y4805D01*
X2180Y4845D02*
X2191D01*
X2211D02*
X2223D01*
X2220Y4805D02*
X2231D01*
X2247Y4865D02*
Y4805D01*
X2250Y4865D02*
Y4805D01*
X2239Y4865D02*
X2250D01*
X2239Y4805D02*
X2259D01*
X2287Y4845D02*
X2278Y4842D01*
X2273Y4836D01*
X2270Y4828D01*
Y4822D01*
X2273Y4814D01*
X2278Y4808D01*
X2287Y4805D01*
X2293D01*
X2301Y4808D01*
X2307Y4814D01*
X2310Y4822D01*
Y4828D01*
X2307Y4836D01*
X2301Y4842D01*
X2293Y4845D01*
X2287D01*
X2281Y4842D01*
X2275Y4836D01*
X2273Y4828D01*
Y4822D01*
X2275Y4814D01*
X2281Y4808D01*
X2287Y4805D01*
X2293D02*
X2298Y4808D01*
X2304Y4814D01*
X2307Y4822D01*
Y4828D01*
X2304Y4836D01*
X2298Y4842D01*
X2293Y4845D01*
X2410Y4856D02*
X2412Y4865D01*
Y4848D01*
X2410Y4856D01*
X2404Y4862D01*
X2395Y4865D01*
X2387D01*
X2378Y4862D01*
X2372Y4856D01*
Y4851D01*
X2375Y4845D01*
X2378Y4842D01*
X2384Y4839D01*
X2401Y4834D01*
X2407Y4831D01*
X2412Y4825D01*
X2372Y4851D02*
X2378Y4845D01*
X2384Y4842D01*
X2401Y4836D01*
X2407Y4834D01*
X2410Y4831D01*
X2412Y4825D01*
Y4814D01*
X2407Y4808D01*
X2398Y4805D01*
X2390D01*
X2381Y4808D01*
X2375Y4814D01*
X2372Y4822D01*
Y4805D01*
X2375Y4814D01*
X2424Y4828D02*
X2458D01*
Y4834D01*
X2456Y4839D01*
X2453Y4842D01*
X2447Y4845D01*
X2438D01*
X2430Y4842D01*
X2424Y4836D01*
X2421Y4828D01*
Y4822D01*
X2424Y4814D01*
X2430Y4808D01*
X2438Y4805D01*
X2444D01*
X2453Y4808D01*
X2458Y4814D01*
X2456Y4828D02*
Y4836D01*
X2453Y4842D01*
X2438Y4845D02*
X2433Y4842D01*
X2427Y4836D01*
X2424Y4828D01*
Y4822D01*
X2427Y4814D01*
X2433Y4808D01*
X2438Y4805D01*
X2476Y4845D02*
Y4805D01*
X2479Y4845D02*
Y4805D01*
Y4836D02*
X2485Y4842D01*
X2493Y4845D01*
X2499D01*
X2508Y4842D01*
X2510Y4836D01*
Y4805D01*
X2499Y4845D02*
X2505Y4842D01*
X2508Y4836D01*
Y4805D01*
X2468Y4845D02*
X2479D01*
X2468Y4805D02*
X2488D01*
X2499D02*
X2519D01*
X2555Y4839D02*
X2558Y4845D01*
Y4834D01*
X2555Y4839D01*
X2552Y4842D01*
X2547Y4845D01*
X2535D01*
X2530Y4842D01*
X2527Y4839D01*
Y4834D01*
X2530Y4831D01*
X2535Y4828D01*
X2550Y4822D01*
X2555Y4819D01*
X2558Y4816D01*
X2527Y4836D02*
X2530Y4834D01*
X2535Y4831D01*
X2550Y4825D01*
X2555Y4822D01*
X2558Y4819D01*
Y4811D01*
X2555Y4808D01*
X2550Y4805D01*
X2538D01*
X2532Y4808D01*
X2530Y4811D01*
X2527Y4816D01*
Y4805D01*
X2530Y4811D01*
X2585Y4845D02*
X2576Y4842D01*
X2571Y4836D01*
X2568Y4828D01*
Y4822D01*
X2571Y4814D01*
X2576Y4808D01*
X2585Y4805D01*
X2591D01*
X2599Y4808D01*
X2605Y4814D01*
X2608Y4822D01*
Y4828D01*
X2605Y4836D01*
X2599Y4842D01*
X2591Y4845D01*
X2585D01*
X2579Y4842D01*
X2574Y4836D01*
X2571Y4828D01*
Y4822D01*
X2574Y4814D01*
X2579Y4808D01*
X2585Y4805D01*
X2591D02*
X2596Y4808D01*
X2602Y4814D01*
X2605Y4822D01*
Y4828D01*
X2602Y4836D01*
X2596Y4842D01*
X2591Y4845D01*
X2625D02*
Y4805D01*
X2628Y4845D02*
Y4805D01*
Y4828D02*
X2631Y4836D01*
X2637Y4842D01*
X2642Y4845D01*
X2651D01*
X2654Y4842D01*
Y4839D01*
X2651Y4836D01*
X2648Y4839D01*
X2651Y4842D01*
X2617Y4845D02*
X2628D01*
X2617Y4805D02*
X2637D01*
X2666Y4828D02*
X2700D01*
Y4834D01*
X2697Y4839D01*
X2694Y4842D01*
X2689Y4845D01*
X2680D01*
X2672Y4842D01*
X2666Y4836D01*
X2663Y4828D01*
Y4822D01*
X2666Y4814D01*
X2672Y4808D01*
X2680Y4805D01*
X2686D01*
X2694Y4808D01*
X2700Y4814D01*
X2697Y4828D02*
Y4836D01*
X2694Y4842D01*
X2680Y4845D02*
X2674Y4842D01*
X2669Y4836D01*
X2666Y4828D01*
Y4822D01*
X2669Y4814D01*
X2674Y4808D01*
X2680Y4805D01*
X2738Y4839D02*
X2741Y4845D01*
Y4834D01*
X2738Y4839D01*
X2735Y4842D01*
X2729Y4845D01*
X2718D01*
X2712Y4842D01*
X2709Y4839D01*
Y4834D01*
X2712Y4831D01*
X2718Y4828D01*
X2732Y4822D01*
X2738Y4819D01*
X2741Y4816D01*
X2709Y4836D02*
X2712Y4834D01*
X2718Y4831D01*
X2732Y4825D01*
X2738Y4822D01*
X2741Y4819D01*
Y4811D01*
X2738Y4808D01*
X2732Y4805D01*
X2721D01*
X2715Y4808D01*
X2712Y4811D01*
X2709Y4816D01*
Y4805D01*
X2712Y4811D01*
X2804Y4831D02*
X2856D01*
X2923Y4845D02*
X2940Y4805D01*
X2926Y4845D02*
X2940Y4811D01*
X2958Y4845D02*
X2940Y4805D01*
X2918Y4845D02*
X2935D01*
X2946D02*
X2963D01*
X3025Y4854D02*
X3031Y4856D01*
X3040Y4865D01*
Y4805D01*
X3037Y4862D02*
Y4805D01*
X3025D02*
X3051D01*
X3064Y4811D02*
X3061Y4808D01*
X3064Y4805D01*
X3067Y4808D01*
X3064Y4811D01*
X3097Y4865D02*
X3088Y4862D01*
X3082Y4854D01*
X3079Y4839D01*
Y4831D01*
X3082Y4816D01*
X3088Y4808D01*
X3097Y4805D01*
X3102D01*
X3111Y4808D01*
X3117Y4816D01*
X3119Y4831D01*
Y4839D01*
X3117Y4854D01*
X3111Y4862D01*
X3102Y4865D01*
X3097D01*
X3091Y4862D01*
X3088Y4859D01*
X3085Y4854D01*
X3082Y4839D01*
Y4831D01*
X3085Y4816D01*
X3088Y4811D01*
X3091Y4808D01*
X3097Y4805D01*
X3102D02*
X3108Y4808D01*
X3111Y4811D01*
X3114Y4816D01*
X3117Y4831D01*
Y4839D01*
X3114Y4854D01*
X3111Y4859D01*
X3108Y4862D01*
X3102Y4865D01*
X2050Y4751D02*
X2053Y4743D01*
Y4760D01*
X2050Y4751D01*
X2044Y4757D01*
X2036Y4760D01*
X2030D01*
X2021Y4757D01*
X2016Y4751D01*
X2013Y4746D01*
X2010Y4737D01*
Y4723D01*
X2013Y4714D01*
X2016Y4709D01*
X2021Y4703D01*
X2030Y4700D01*
X2036D01*
X2044Y4703D01*
X2050Y4709D01*
X2053Y4714D01*
X2030Y4760D02*
X2024Y4757D01*
X2019Y4751D01*
X2016Y4746D01*
X2013Y4737D01*
Y4723D01*
X2016Y4714D01*
X2019Y4709D01*
X2024Y4703D01*
X2030Y4700D01*
X2087Y4760D02*
X2067Y4700D01*
X2087Y4760D02*
X2107Y4700D01*
X2087Y4751D02*
X2104Y4700D01*
X2073Y4717D02*
X2099D01*
X2061Y4700D02*
X2079D01*
X2096D02*
X2113D01*
X2129Y4760D02*
Y4700D01*
X2132Y4760D02*
X2149Y4709D01*
X2129Y4760D02*
X2149Y4700D01*
X2169Y4760D02*
X2149Y4700D01*
X2169Y4760D02*
Y4700D01*
X2172Y4760D02*
Y4700D01*
X2121Y4760D02*
X2132D01*
X2169D02*
X2181D01*
X2121Y4700D02*
X2138D01*
X2161D02*
X2181D01*
X2196Y4760D02*
Y4700D01*
X2199Y4760D02*
Y4700D01*
X2187Y4760D02*
X2222D01*
X2230Y4757D01*
X2233Y4754D01*
X2236Y4749D01*
Y4740D01*
X2233Y4734D01*
X2230Y4731D01*
X2222Y4729D01*
X2199D01*
X2222Y4760D02*
X2227Y4757D01*
X2230Y4754D01*
X2233Y4749D01*
Y4740D01*
X2230Y4734D01*
X2227Y4731D01*
X2222Y4729D01*
X2187Y4700D02*
X2207D01*
X2253Y4760D02*
Y4700D01*
X2255Y4760D02*
Y4700D01*
X2273Y4743D02*
Y4720D01*
X2244Y4760D02*
X2290D01*
Y4743D01*
X2287Y4760D01*
X2255Y4731D02*
X2273D01*
X2244Y4700D02*
X2290D01*
Y4717D01*
X2287Y4700D01*
X2307Y4760D02*
Y4700D01*
X2309Y4760D02*
Y4700D01*
X2298Y4760D02*
X2318D01*
X2298Y4700D02*
X2341D01*
Y4717D01*
X2338Y4700D01*
X2369Y4760D02*
X2361Y4757D01*
X2355Y4751D01*
X2352Y4746D01*
X2349Y4734D01*
Y4726D01*
X2352Y4714D01*
X2355Y4709D01*
X2361Y4703D01*
X2369Y4700D01*
X2375D01*
X2384Y4703D01*
X2389Y4709D01*
X2392Y4714D01*
X2395Y4726D01*
Y4734D01*
X2392Y4746D01*
X2389Y4751D01*
X2384Y4757D01*
X2375Y4760D01*
X2369D01*
X2364Y4757D01*
X2358Y4751D01*
X2355Y4746D01*
X2352Y4734D01*
Y4726D01*
X2355Y4714D01*
X2358Y4709D01*
X2364Y4703D01*
X2369Y4700D01*
X2375D02*
X2381Y4703D01*
X2386Y4709D01*
X2389Y4714D01*
X2392Y4726D01*
Y4734D01*
X2389Y4746D01*
X2386Y4751D01*
X2381Y4757D01*
X2375Y4760D01*
X2457Y4726D02*
X2509D01*
X2610Y4751D02*
X2613Y4743D01*
Y4760D01*
X2610Y4751D01*
X2605Y4757D01*
X2596Y4760D01*
X2590D01*
X2582Y4757D01*
X2576Y4751D01*
X2573Y4746D01*
X2570Y4737D01*
Y4723D01*
X2573Y4714D01*
X2576Y4709D01*
X2582Y4703D01*
X2590Y4700D01*
X2596D01*
X2605Y4703D01*
X2610Y4709D01*
X2590Y4760D02*
X2585Y4757D01*
X2579Y4751D01*
X2576Y4746D01*
X2573Y4737D01*
Y4723D01*
X2576Y4714D01*
X2579Y4709D01*
X2585Y4703D01*
X2590Y4700D01*
X2610Y4723D02*
Y4700D01*
X2613Y4723D02*
Y4700D01*
X2602Y4723D02*
X2622D01*
X2650Y4760D02*
X2641Y4757D01*
X2635Y4751D01*
X2632Y4746D01*
X2630Y4734D01*
Y4726D01*
X2632Y4714D01*
X2635Y4709D01*
X2641Y4703D01*
X2650Y4700D01*
X2655D01*
X2664Y4703D01*
X2670Y4709D01*
X2672Y4714D01*
X2675Y4726D01*
Y4734D01*
X2672Y4746D01*
X2670Y4751D01*
X2664Y4757D01*
X2655Y4760D01*
X2650D01*
X2644Y4757D01*
X2638Y4751D01*
X2635Y4746D01*
X2632Y4734D01*
Y4726D01*
X2635Y4714D01*
X2638Y4709D01*
X2644Y4703D01*
X2650Y4700D01*
X2655D02*
X2661Y4703D01*
X2667Y4709D01*
X2670Y4714D01*
X2672Y4726D01*
Y4734D01*
X2670Y4746D01*
X2667Y4751D01*
X2661Y4757D01*
X2655Y4760D01*
X2692D02*
Y4700D01*
X2695Y4760D02*
X2729Y4706D01*
X2695Y4754D02*
X2729Y4700D01*
Y4760D02*
Y4700D01*
X2684Y4760D02*
X2695D01*
X2721D02*
X2738D01*
X2684Y4700D02*
X2701D01*
X2754Y4760D02*
Y4700D01*
X2757Y4760D02*
Y4700D01*
X2745Y4760D02*
X2765D01*
X2745Y4700D02*
X2765D01*
X2830Y4726D02*
X2882D01*
X2952Y4760D02*
Y4700D01*
X2955Y4760D02*
X2989Y4706D01*
X2955Y4754D02*
X2989Y4700D01*
Y4760D02*
Y4700D01*
X2943Y4760D02*
X2955D01*
X2980D02*
X2998D01*
X2943Y4700D02*
X2960D01*
X3013Y4760D02*
Y4717D01*
X3016Y4709D01*
X3022Y4703D01*
X3031Y4700D01*
X3036D01*
X3045Y4703D01*
X3051Y4709D01*
X3053Y4717D01*
Y4760D01*
X3016D02*
Y4717D01*
X3019Y4709D01*
X3025Y4703D01*
X3031Y4700D01*
X3005Y4760D02*
X3025D01*
X3045D02*
X3062D01*
X3078D02*
Y4700D01*
X3081Y4760D02*
Y4700D01*
X3069Y4760D02*
X3089D01*
X3069Y4700D02*
X3112D01*
Y4717D01*
X3109Y4700D01*
D13*
X4450Y4660D02*
D03*
X4150D02*
D03*
X4450Y3960D02*
D03*
X4150D02*
D03*
X4450Y3260D02*
D03*
X4150D02*
D03*
X4450Y1860D02*
D03*
X4150D02*
D03*
X4450Y2560D02*
D03*
X4150D02*
D03*
X4000Y1450D02*
D03*
Y1750D02*
D03*
Y2850D02*
D03*
Y3150D02*
D03*
Y3550D02*
D03*
Y3850D02*
D03*
Y4250D02*
D03*
Y4550D02*
D03*
Y2150D02*
D03*
Y2450D02*
D03*
X1270Y3300D02*
D03*
X1570D02*
D03*
X1760Y4350D02*
D03*
Y4050D02*
D03*
X3520Y4190D02*
D03*
Y4490D02*
D03*
Y1690D02*
D03*
Y1390D02*
D03*
Y2390D02*
D03*
Y2090D02*
D03*
Y3090D02*
D03*
Y2790D02*
D03*
Y3490D02*
D03*
Y3790D02*
D03*
D14*
X4440Y4240D02*
D03*
X4160Y4540D02*
D03*
X4440Y3540D02*
D03*
X4160Y3840D02*
D03*
X4440Y2840D02*
D03*
X4160Y3140D02*
D03*
X4440Y1440D02*
D03*
X4160Y1740D02*
D03*
X4440Y2140D02*
D03*
X4160Y2440D02*
D03*
X2440Y2695D02*
D03*
D15*
X4440Y4340D02*
D03*
Y4440D02*
D03*
Y4540D02*
D03*
X4160Y4440D02*
D03*
X4440Y3640D02*
D03*
Y3740D02*
D03*
Y3840D02*
D03*
X4160Y3740D02*
D03*
X4440Y2940D02*
D03*
Y3040D02*
D03*
Y3140D02*
D03*
X4160Y3040D02*
D03*
X4440Y1540D02*
D03*
Y1640D02*
D03*
Y1740D02*
D03*
X4160Y1640D02*
D03*
X4440Y2240D02*
D03*
Y2340D02*
D03*
Y2440D02*
D03*
X4160Y2340D02*
D03*
X2080Y4560D02*
D03*
X1980D02*
D03*
X1800Y4860D02*
D03*
X1700D02*
D03*
X1600D02*
D03*
X1500D02*
D03*
X2340Y2695D02*
D03*
X2240D02*
D03*
X2140D02*
D03*
X2040D02*
D03*
X1940D02*
D03*
X1840D02*
D03*
X1740D02*
D03*
X2440Y2395D02*
D03*
X2340D02*
D03*
X2240D02*
D03*
X2140D02*
D03*
X2040D02*
D03*
X1940D02*
D03*
X1840D02*
D03*
X1740D02*
D03*
X2310Y4195D02*
D03*
Y4095D02*
D03*
Y3995D02*
D03*
Y3895D02*
D03*
Y3795D02*
D03*
Y3695D02*
D03*
Y3595D02*
D03*
Y3495D02*
D03*
X2610Y4295D02*
D03*
Y4195D02*
D03*
Y4095D02*
D03*
Y3995D02*
D03*
Y3895D02*
D03*
Y3795D02*
D03*
Y3695D02*
D03*
Y3595D02*
D03*
Y3495D02*
D03*
X2837Y1840D02*
D03*
X2640D02*
D03*
X1960Y4260D02*
D03*
D16*
X1480Y4350D02*
D03*
Y4450D02*
D03*
X1410Y2480D02*
D03*
X1160D02*
D03*
X1410Y2640D02*
D03*
X1160D02*
D03*
D17*
X1880Y4560D02*
D03*
X1400Y4860D02*
D03*
X2310Y4295D02*
D03*
X2060Y4260D02*
D03*
D18*
X1340Y2760D02*
D03*
X1240D02*
D03*
X3080Y1860D02*
D03*
X3180D02*
D03*
X3160Y3977D02*
D03*
X3060D02*
D03*
X3160Y4145D02*
D03*
X3060D02*
D03*
X1600Y3840D02*
D03*
Y3940D02*
D03*
D19*
X2621Y1296D02*
D03*
X2820D02*
D03*
D20*
X3020D02*
D03*
D21*
X1760Y3480D02*
D03*
X1840D02*
D03*
Y3400D02*
D03*
X1760D02*
D03*
X1840Y3560D02*
D03*
X1760D02*
D03*
X1240Y2140D02*
D03*
X1320D02*
D03*
Y2060D02*
D03*
X1240D02*
D03*
X1320Y2220D02*
D03*
X1240D02*
D03*
D22*
X3000Y2160D02*
D03*
X3100D02*
D03*
X3200D02*
D03*
D23*
X3100Y2860D02*
D03*
D24*
X2175Y1852D02*
D03*
X2075D02*
D03*
X2125Y1752D02*
D03*
X1500Y1850D02*
D03*
X1400D02*
D03*
X1450Y1750D02*
D03*
D25*
X1900Y1502D02*
D03*
X2300D02*
D03*
X1225Y1500D02*
D03*
X1625D02*
D03*
D26*
X2025Y1752D02*
D03*
X1350Y1750D02*
D03*
D27*
X1890Y2846D02*
D03*
X2346Y2180D02*
D03*
X2110Y2846D02*
D03*
X2620Y2521D02*
D03*
X2330Y2846D02*
D03*
D28*
X1890Y2924D02*
D03*
X2110D02*
D03*
X2620Y2599D02*
D03*
X2330Y2924D02*
D03*
D29*
X2424Y2180D02*
D03*
D30*
X2855Y3947D02*
D03*
D31*
Y4147D02*
D03*
D32*
X1220Y4040D02*
D03*
D33*
Y3940D02*
D03*
Y3840D02*
D03*
Y3740D02*
D03*
Y3640D02*
D03*
X1320Y4040D02*
D03*
Y3940D02*
D03*
Y3840D02*
D03*
Y3740D02*
D03*
Y3640D02*
D03*
D34*
X3780Y4315D02*
D03*
X3730Y4380D02*
D03*
X3780Y4445D02*
D03*
Y1520D02*
D03*
X3730Y1585D02*
D03*
X3780Y1650D02*
D03*
Y2215D02*
D03*
X3730Y2280D02*
D03*
X3780Y2345D02*
D03*
Y2920D02*
D03*
X3730Y2985D02*
D03*
X3780Y3050D02*
D03*
Y3615D02*
D03*
X3730Y3680D02*
D03*
X3780Y3745D02*
D03*
D35*
X4410Y4825D02*
D03*
X1120D02*
D03*
Y3010D02*
D03*
X4410Y1180D02*
D03*
D36*
X3295Y2895D02*
D03*
X2492Y3090D02*
D03*
X2817Y4221D02*
D03*
X1811Y2220D02*
D03*
X2169Y2624D02*
D03*
X2192Y3279D02*
D03*
X2723Y4221D02*
D03*
D37*
X1800Y3635D02*
D03*
X1280Y2295D02*
D03*
D38*
X1803Y3325D02*
D03*
X1283Y1985D02*
D03*
M02*
