M48
;Layer_Color=9474304
;FILE_FORMAT=2:3
INCH
;TYPE=PLATED
T1F00S00C0.025
T2F00S00C0.030
T3F00S00C0.033
T4F00S00C0.035
T5F00S00C0.039
T6F00S00C0.040
T7F00S00C0.050
T8F00S00C0.060
T9F00S00C0.080
T10F00S00C0.118
;TYPE=NON_PLATED
T11F00S00C0.128
%
T01
X01220Y03640
X01320
Y03740
Y03840
Y03940
Y04040
X01220
Y03940
Y03840
Y03740
T02
X03260Y03120
X02420Y02945
X02330Y02924
Y02846
X02110
Y02924
X01890
Y02846
X02185Y02640
X02620Y02599
Y02521
X02424Y02180
X02346
X01862Y02220
X01320
Y02140
X01240
Y02060
X01320
X01240Y02220
X01160Y02480
Y02640
X01410
Y02480
X01760Y03400
Y03480
X01840
Y03400
Y03560
X01760
X02776Y03604
T03
X01310Y03180
X01610
X01840Y04170
Y04470
X01720
Y04770
T04
X03460Y01782
Y01978
X02175Y01852
X02075
X02125Y01752
X02025
X02040Y02395
X02140
X02240
X02340
X02440
Y02695
X02340
X02240
X02140
X02040
X01940
X01840
X01740
Y02395
X01840
X01940
X01500Y01850
X01400
X01450Y01750
X01350
X01140Y02900
Y03180
X02310Y03495
Y03595
Y03695
Y03795
Y03895
Y03995
Y04095
Y04195
Y04295
X02610
Y04195
Y04095
Y03995
Y03895
Y03795
Y03695
Y03595
Y03495
X02140Y04500
Y04600
X02000
Y04500
T05
X02960Y01720
X03060
X01340Y02760
X01240
X01600Y03840
Y03940
X03060Y03977
X03060Y04145
X03160
X03160Y03977
T06
X03510Y02820
Y02920
Y03020
Y03120
X02855Y03947
Y04147
X03510Y04120
Y04020
Y03920
Y03820
Y03720
Y03620
Y03520
Y03420
Y03320
Y03220
Y04220
Y04320
T07
X01480Y04350
Y04450
Y04670
Y04770
T08
X02860Y01940
X02960
X03060
T09
X02621Y01296
X02820
X03020
T10
X02960Y02640
T11
X01200Y01500
X01650
X01875Y01502
X02325
M30
