M48
;Layer_Color=9474304
;FILE_FORMAT=2:3
INCH
;TYPE=PLATED
T1F00S00C0.030
T2F00S00C0.033
T3F00S00C0.035
T4F00S00C0.039
T5F00S00C0.040
T6F00S00C0.043
T7F00S00C0.050
T8F00S00C0.080
T9F00S00C0.150
;TYPE=NON_PLATED
T10F00S00C0.150
%
T01
X02346Y02180
X02424
X02620Y02521
Y02599
X02185Y02640
X02110Y02846
Y02924
X02330
Y02846
X01890
Y02924
X01320Y02220
X01240
Y02140
Y02060
X01320
Y02140
X01760Y03400
X01840
Y03480
Y03560
X01760
Y03480
X02108Y03228
X02332Y03352
X03017Y03344
T02
X03190Y02700
X03030Y02840
X02890Y02700
X02730Y02840
X01270Y03300
X01570
X01760Y04150
Y04450
T03
X03555Y01310
X03655
X03755
Y01610
X03655
X03555
Y01910
X03655
X03755
Y02210
X03655
X03555
Y02510
X03655
X03755
Y02810
X03655
X03555
X02440Y02695
X02340
X02240
X02140
X02040
X01940
X01840
X01740
Y02395
X01840
X01940
X02040
X02140
X02240
X02340
X02440
X02622Y01800
X02818
X02175Y01852
X02075
X02025Y01752
X02125
X01450Y01750
X01350
X01400Y01850
X01500
X02310Y03495
Y03595
Y03695
Y03795
Y03895
Y03995
Y04095
Y04195
Y04295
X02610
Y04195
Y04095
Y03995
Y03895
Y03795
Y03695
Y03595
Y03495
X01920Y04240
Y04340
X03555Y04445
X03655
X03755
Y04145
X03655
X03555
Y03845
X03655
X03755
Y03545
X03655
X03555
Y03245
X03655
X03755
T04
X03180Y01860
X03080
X01340Y02760
X01240
X01600Y03840
Y03940
X03060Y03977
X03060Y04145
X03160
X03160Y03977
T05
X01220Y03640
X01320
Y03740
Y03840
Y03940
Y04040
X01220
Y03940
Y03840
Y03740
X02855Y03947
Y04147
T06
X03140Y02180
Y02540
Y03020
X03040
X02940
Y02540
X03040
Y02180
X02940
T07
X01160Y02480
Y02640
X01410
Y02480
X01480Y04350
Y04450
T08
X02621Y01296
X02820
X03020
T09
X03965Y01150
X01120Y03010
X03965Y04825
X01120
T10
X01225Y01500
X01625
X01900Y01502
X02300
M30
