%FSLAX23Y23*%
%MOIN*%
G70*
G01*
G75*
G04 Layer_Physical_Order=1*
G04 Layer_Color=255*
%ADD10C,0.020*%
%ADD11C,0.047*%
%ADD12C,0.010*%
%ADD13R,0.067X0.067*%
%ADD14C,0.067*%
%ADD15C,0.055*%
%ADD16C,0.059*%
%ADD17P,0.216X8X22.5*%
%ADD18C,0.070*%
%ADD19C,0.055*%
%ADD20R,0.055X0.055*%
G04:AMPARAMS|DCode=21|XSize=100mil|YSize=60mil|CornerRadius=0mil|HoleSize=0mil|Usage=FLASHONLY|Rotation=0.000|XOffset=0mil|YOffset=0mil|HoleType=Round|Shape=Octagon|*
%AMOCTAGOND21*
4,1,8,0.050,-0.015,0.050,0.015,0.035,0.030,-0.035,0.030,-0.050,0.015,-0.050,-0.015,-0.035,-0.030,0.035,-0.030,0.050,-0.015,0.0*
%
%ADD21OCTAGOND21*%

%ADD22O,0.100X0.060*%
%ADD23C,0.065*%
%ADD24R,0.049X0.049*%
%ADD25C,0.049*%
%ADD26R,0.049X0.049*%
%ADD27R,0.059X0.059*%
%ADD28C,0.116*%
%ADD29C,0.059*%
%ADD30C,0.060*%
%ADD31R,0.059X0.059*%
%ADD32R,0.059X0.059*%
%ADD33P,0.130X8X202.5*%
%ADD34C,0.120*%
%ADD35C,0.050*%
%ADD36R,0.075X0.040*%
%ADD37R,0.070X0.040*%
D10*
X2160Y2695D02*
Y2874D01*
X3017Y3344D02*
X3346Y3015D01*
Y2119D02*
Y3015D01*
Y2119D02*
X3555Y1910D01*
X2471Y3556D02*
X2610Y3695D01*
X2471Y3491D02*
Y3556D01*
X2332Y3352D02*
X2471Y3491D01*
X2384Y3569D02*
X2610Y3795D01*
X2384Y3457D02*
Y3569D01*
X2329Y3402D02*
X2384Y3457D01*
X2282Y3402D02*
X2329D01*
X2108Y3228D02*
X2282Y3402D01*
X1240Y2560D02*
Y2760D01*
X1160Y2480D02*
X1240Y2560D01*
X2110Y2765D02*
Y2846D01*
X2040Y2695D02*
X2110Y2765D01*
X1890Y2745D02*
Y2846D01*
Y2745D02*
X1940Y2695D01*
X2185Y2640D02*
X2487D01*
X2495Y2648D01*
Y2693D01*
X2555Y2753D01*
Y3540D01*
X2610Y3595D01*
X3030Y2630D02*
Y2840D01*
X2940Y2540D02*
X3030Y2630D01*
X2940Y2930D02*
Y3020D01*
Y2930D02*
X3030Y2840D01*
X3446Y2319D02*
X3555Y2210D01*
X3446Y2319D02*
Y3104D01*
X3055Y3495D02*
X3446Y3104D01*
X2610Y3495D02*
X3055D01*
X1555Y1810D02*
X2140Y2395D01*
X1555Y1728D02*
Y1810D01*
X1522Y1695D02*
X1555Y1728D01*
X1405Y1695D02*
X1522D01*
X1350Y1750D02*
X1405Y1695D01*
X3038Y4362D02*
X3555Y3845D01*
X2477Y4362D02*
X3038D01*
X2310Y4195D02*
X2477Y4362D01*
X1223Y1850D02*
X1400D01*
X1185Y1888D02*
X1223Y1850D01*
X1185Y1888D02*
Y2085D01*
X1240Y2140D01*
X1705Y3455D02*
X1760Y3400D01*
X1705Y3455D02*
Y3793D01*
X1920Y4008D01*
Y4240D01*
X2362Y2773D02*
X2440Y2695D01*
X2304Y2773D02*
X2362D01*
X2280Y2797D02*
X2304Y2773D01*
X2280Y2797D02*
Y2874D01*
X2330Y2924D01*
X1890Y2545D02*
X2040Y2395D01*
X1728Y2545D02*
X1890D01*
X1685Y2588D02*
X1728Y2545D01*
X1685Y2588D02*
Y2970D01*
X2310Y3595D01*
X2140Y2695D02*
X2160D01*
X2110Y2924D02*
X2160Y2874D01*
X1320Y4040D02*
X1373Y3987D01*
Y3403D02*
Y3987D01*
X1270Y3300D02*
X1373Y3403D01*
X1270Y2790D02*
Y3300D01*
X1240Y2760D02*
X1270Y2790D01*
D11*
X3140Y1900D02*
Y2180D01*
Y1900D02*
X3180Y1860D01*
X1340Y2710D02*
Y2760D01*
Y2710D02*
X1410Y2640D01*
X3080Y1355D02*
Y1860D01*
X3020Y1296D02*
X3080Y1355D01*
X3040Y1900D02*
Y2180D01*
Y1900D02*
X3080Y1860D01*
X1500Y1850D02*
Y2550D01*
X1410Y2640D02*
X1500Y2550D01*
X2346Y2180D02*
Y2325D01*
X2340Y2395D02*
X2346Y2325D01*
X1760Y3943D02*
Y4150D01*
X1657Y3840D02*
X1760Y3943D01*
X1600Y3840D02*
X1657D01*
X3160Y4017D02*
Y4145D01*
X3160Y3977D02*
X3160Y4017D01*
X3040Y2976D02*
Y3020D01*
Y2976D02*
X3190Y2826D01*
Y2700D02*
Y2826D01*
Y2590D02*
Y2700D01*
X3140Y2540D02*
X3190Y2590D01*
X2940Y2118D02*
Y2180D01*
X2622Y1800D02*
X2940Y2118D01*
X2175Y1852D02*
X2346Y2023D01*
Y2180D01*
X2553Y1363D02*
X2621Y1296D01*
X2553Y1363D02*
Y2663D01*
X2730Y2840D01*
X1529Y3341D02*
X1570Y3300D01*
X1529Y3341D02*
Y3877D01*
X1552Y3900D01*
X1560D01*
X1600Y3940D01*
X3655Y3245D02*
Y3545D01*
Y3845D01*
Y4145D02*
Y4445D01*
Y3845D02*
Y4145D01*
Y2810D02*
Y3245D01*
Y2510D02*
Y2810D01*
Y2210D02*
Y2510D01*
Y1910D02*
Y2210D01*
Y1610D02*
Y1910D01*
Y1310D02*
Y1610D01*
X3040Y2410D02*
Y2540D01*
Y2410D02*
X3140Y2310D01*
Y2180D02*
Y2310D01*
X2440Y2295D02*
Y2395D01*
X2424Y2279D02*
X2440Y2295D01*
X2424Y2180D02*
Y2279D01*
X3755Y1310D02*
Y1610D01*
Y2510D02*
Y2810D01*
Y2210D02*
Y2510D01*
Y1610D02*
Y1910D01*
Y2210D01*
Y3545D02*
Y3845D01*
Y2810D02*
Y3245D01*
Y3545D01*
Y3845D02*
Y4145D01*
Y4445D01*
D12*
X1605Y4751D02*
X1608Y4743D01*
Y4760D01*
X1605Y4751D01*
X1599Y4757D01*
X1591Y4760D01*
X1585D01*
X1576Y4757D01*
X1571Y4751D01*
X1568Y4746D01*
X1565Y4737D01*
Y4723D01*
X1568Y4714D01*
X1571Y4709D01*
X1576Y4703D01*
X1585Y4700D01*
X1591D01*
X1599Y4703D01*
X1605Y4709D01*
X1608Y4714D01*
X1585Y4760D02*
X1579Y4757D01*
X1574Y4751D01*
X1571Y4746D01*
X1568Y4737D01*
Y4723D01*
X1571Y4714D01*
X1574Y4709D01*
X1579Y4703D01*
X1585Y4700D01*
X1642Y4760D02*
X1622Y4700D01*
X1642Y4760D02*
X1662Y4700D01*
X1642Y4751D02*
X1659Y4700D01*
X1628Y4717D02*
X1654D01*
X1616Y4700D02*
X1634D01*
X1651D02*
X1668D01*
X1684Y4760D02*
Y4700D01*
X1687Y4760D02*
X1704Y4709D01*
X1684Y4760D02*
X1704Y4700D01*
X1724Y4760D02*
X1704Y4700D01*
X1724Y4760D02*
Y4700D01*
X1727Y4760D02*
Y4700D01*
X1676Y4760D02*
X1687D01*
X1724D02*
X1736D01*
X1676Y4700D02*
X1693D01*
X1716D02*
X1736D01*
X1751Y4760D02*
Y4700D01*
X1754Y4760D02*
Y4700D01*
X1742Y4760D02*
X1777D01*
X1785Y4757D01*
X1788Y4754D01*
X1791Y4749D01*
Y4740D01*
X1788Y4734D01*
X1785Y4731D01*
X1777Y4729D01*
X1754D01*
X1777Y4760D02*
X1782Y4757D01*
X1785Y4754D01*
X1788Y4749D01*
Y4740D01*
X1785Y4734D01*
X1782Y4731D01*
X1777Y4729D01*
X1742Y4700D02*
X1762D01*
X1808Y4760D02*
Y4700D01*
X1810Y4760D02*
Y4700D01*
X1828Y4743D02*
Y4720D01*
X1799Y4760D02*
X1845D01*
Y4743D01*
X1842Y4760D01*
X1810Y4731D02*
X1828D01*
X1799Y4700D02*
X1845D01*
Y4717D01*
X1842Y4700D01*
X1862Y4760D02*
Y4700D01*
X1864Y4760D02*
Y4700D01*
X1853Y4760D02*
X1873D01*
X1853Y4700D02*
X1896D01*
Y4717D01*
X1893Y4700D01*
X1924Y4760D02*
X1916Y4757D01*
X1910Y4751D01*
X1907Y4746D01*
X1904Y4734D01*
Y4726D01*
X1907Y4714D01*
X1910Y4709D01*
X1916Y4703D01*
X1924Y4700D01*
X1930D01*
X1939Y4703D01*
X1944Y4709D01*
X1947Y4714D01*
X1950Y4726D01*
Y4734D01*
X1947Y4746D01*
X1944Y4751D01*
X1939Y4757D01*
X1930Y4760D01*
X1924D01*
X1919Y4757D01*
X1913Y4751D01*
X1910Y4746D01*
X1907Y4734D01*
Y4726D01*
X1910Y4714D01*
X1913Y4709D01*
X1919Y4703D01*
X1924Y4700D01*
X1930D02*
X1936Y4703D01*
X1941Y4709D01*
X1944Y4714D01*
X1947Y4726D01*
Y4734D01*
X1944Y4746D01*
X1941Y4751D01*
X1936Y4757D01*
X1930Y4760D01*
X2012Y4726D02*
X2064D01*
X2165Y4751D02*
X2168Y4743D01*
Y4760D01*
X2165Y4751D01*
X2160Y4757D01*
X2151Y4760D01*
X2145D01*
X2137Y4757D01*
X2131Y4751D01*
X2128Y4746D01*
X2125Y4737D01*
Y4723D01*
X2128Y4714D01*
X2131Y4709D01*
X2137Y4703D01*
X2145Y4700D01*
X2151D01*
X2160Y4703D01*
X2165Y4709D01*
X2145Y4760D02*
X2140Y4757D01*
X2134Y4751D01*
X2131Y4746D01*
X2128Y4737D01*
Y4723D01*
X2131Y4714D01*
X2134Y4709D01*
X2140Y4703D01*
X2145Y4700D01*
X2165Y4723D02*
Y4700D01*
X2168Y4723D02*
Y4700D01*
X2157Y4723D02*
X2177D01*
X2205Y4760D02*
X2196Y4757D01*
X2190Y4751D01*
X2187Y4746D01*
X2185Y4734D01*
Y4726D01*
X2187Y4714D01*
X2190Y4709D01*
X2196Y4703D01*
X2205Y4700D01*
X2210D01*
X2219Y4703D01*
X2225Y4709D01*
X2227Y4714D01*
X2230Y4726D01*
Y4734D01*
X2227Y4746D01*
X2225Y4751D01*
X2219Y4757D01*
X2210Y4760D01*
X2205D01*
X2199Y4757D01*
X2193Y4751D01*
X2190Y4746D01*
X2187Y4734D01*
Y4726D01*
X2190Y4714D01*
X2193Y4709D01*
X2199Y4703D01*
X2205Y4700D01*
X2210D02*
X2216Y4703D01*
X2222Y4709D01*
X2225Y4714D01*
X2227Y4726D01*
Y4734D01*
X2225Y4746D01*
X2222Y4751D01*
X2216Y4757D01*
X2210Y4760D01*
X2247D02*
Y4700D01*
X2250Y4760D02*
X2284Y4706D01*
X2250Y4754D02*
X2284Y4700D01*
Y4760D02*
Y4700D01*
X2239Y4760D02*
X2250D01*
X2276D02*
X2293D01*
X2239Y4700D02*
X2256D01*
X2309Y4760D02*
Y4700D01*
X2312Y4760D02*
Y4700D01*
X2300Y4760D02*
X2320D01*
X2300Y4700D02*
X2320D01*
X2385Y4726D02*
X2437D01*
X2507Y4760D02*
Y4700D01*
X2510Y4760D02*
X2544Y4706D01*
X2510Y4754D02*
X2544Y4700D01*
Y4760D02*
Y4700D01*
X2498Y4760D02*
X2510D01*
X2535D02*
X2553D01*
X2498Y4700D02*
X2515D01*
X2568Y4760D02*
Y4717D01*
X2571Y4709D01*
X2577Y4703D01*
X2586Y4700D01*
X2591D01*
X2600Y4703D01*
X2606Y4709D01*
X2608Y4717D01*
Y4760D01*
X2571D02*
Y4717D01*
X2574Y4709D01*
X2580Y4703D01*
X2586Y4700D01*
X2560Y4760D02*
X2580D01*
X2600D02*
X2617D01*
X2633D02*
Y4700D01*
X2636Y4760D02*
Y4700D01*
X2624Y4760D02*
X2644D01*
X2624Y4700D02*
X2667D01*
Y4717D01*
X2664Y4700D01*
X1574Y4865D02*
Y4805D01*
X1576Y4865D02*
X1594Y4814D01*
X1574Y4865D02*
X1594Y4805D01*
X1614Y4865D02*
X1594Y4805D01*
X1614Y4865D02*
Y4805D01*
X1616Y4865D02*
Y4805D01*
X1565Y4865D02*
X1576D01*
X1614D02*
X1625D01*
X1565Y4805D02*
X1582D01*
X1605D02*
X1625D01*
X1649Y4845D02*
X1640Y4842D01*
X1635Y4836D01*
X1632Y4828D01*
Y4822D01*
X1635Y4814D01*
X1640Y4808D01*
X1649Y4805D01*
X1655D01*
X1663Y4808D01*
X1669Y4814D01*
X1672Y4822D01*
Y4828D01*
X1669Y4836D01*
X1663Y4842D01*
X1655Y4845D01*
X1649D01*
X1643Y4842D01*
X1638Y4836D01*
X1635Y4828D01*
Y4822D01*
X1638Y4814D01*
X1643Y4808D01*
X1649Y4805D01*
X1655D02*
X1660Y4808D01*
X1666Y4814D01*
X1669Y4822D01*
Y4828D01*
X1666Y4836D01*
X1660Y4842D01*
X1655Y4845D01*
X1715Y4865D02*
Y4805D01*
X1718Y4865D02*
Y4805D01*
X1715Y4836D02*
X1709Y4842D01*
X1704Y4845D01*
X1698D01*
X1689Y4842D01*
X1684Y4836D01*
X1681Y4828D01*
Y4822D01*
X1684Y4814D01*
X1689Y4808D01*
X1698Y4805D01*
X1704D01*
X1709Y4808D01*
X1715Y4814D01*
X1698Y4845D02*
X1692Y4842D01*
X1686Y4836D01*
X1684Y4828D01*
Y4822D01*
X1686Y4814D01*
X1692Y4808D01*
X1698Y4805D01*
X1706Y4865D02*
X1718D01*
X1715Y4805D02*
X1726D01*
X1743Y4845D02*
Y4814D01*
X1746Y4808D01*
X1755Y4805D01*
X1760D01*
X1769Y4808D01*
X1775Y4814D01*
X1746Y4845D02*
Y4814D01*
X1749Y4808D01*
X1755Y4805D01*
X1775Y4845D02*
Y4805D01*
X1778Y4845D02*
Y4805D01*
X1735Y4845D02*
X1746D01*
X1766D02*
X1778D01*
X1775Y4805D02*
X1786D01*
X1802Y4865D02*
Y4805D01*
X1805Y4865D02*
Y4805D01*
X1794Y4865D02*
X1805D01*
X1794Y4805D02*
X1814D01*
X1842Y4845D02*
X1833Y4842D01*
X1828Y4836D01*
X1825Y4828D01*
Y4822D01*
X1828Y4814D01*
X1833Y4808D01*
X1842Y4805D01*
X1848D01*
X1856Y4808D01*
X1862Y4814D01*
X1865Y4822D01*
Y4828D01*
X1862Y4836D01*
X1856Y4842D01*
X1848Y4845D01*
X1842D01*
X1836Y4842D01*
X1830Y4836D01*
X1828Y4828D01*
Y4822D01*
X1830Y4814D01*
X1836Y4808D01*
X1842Y4805D01*
X1848D02*
X1853Y4808D01*
X1859Y4814D01*
X1862Y4822D01*
Y4828D01*
X1859Y4836D01*
X1853Y4842D01*
X1848Y4845D01*
X1965Y4856D02*
X1967Y4865D01*
Y4848D01*
X1965Y4856D01*
X1959Y4862D01*
X1950Y4865D01*
X1942D01*
X1933Y4862D01*
X1927Y4856D01*
Y4851D01*
X1930Y4845D01*
X1933Y4842D01*
X1939Y4839D01*
X1956Y4834D01*
X1962Y4831D01*
X1967Y4825D01*
X1927Y4851D02*
X1933Y4845D01*
X1939Y4842D01*
X1956Y4836D01*
X1962Y4834D01*
X1965Y4831D01*
X1967Y4825D01*
Y4814D01*
X1962Y4808D01*
X1953Y4805D01*
X1945D01*
X1936Y4808D01*
X1930Y4814D01*
X1927Y4822D01*
Y4805D01*
X1930Y4814D01*
X1979Y4828D02*
X2013D01*
Y4834D01*
X2011Y4839D01*
X2008Y4842D01*
X2002Y4845D01*
X1993D01*
X1985Y4842D01*
X1979Y4836D01*
X1976Y4828D01*
Y4822D01*
X1979Y4814D01*
X1985Y4808D01*
X1993Y4805D01*
X1999D01*
X2008Y4808D01*
X2013Y4814D01*
X2011Y4828D02*
Y4836D01*
X2008Y4842D01*
X1993Y4845D02*
X1988Y4842D01*
X1982Y4836D01*
X1979Y4828D01*
Y4822D01*
X1982Y4814D01*
X1988Y4808D01*
X1993Y4805D01*
X2031Y4845D02*
Y4805D01*
X2034Y4845D02*
Y4805D01*
Y4828D02*
X2037Y4836D01*
X2043Y4842D01*
X2048Y4845D01*
X2057D01*
X2060Y4842D01*
Y4839D01*
X2057Y4836D01*
X2054Y4839D01*
X2057Y4842D01*
X2023Y4845D02*
X2034D01*
X2023Y4805D02*
X2043D01*
X2075Y4845D02*
X2092Y4805D01*
X2077Y4845D02*
X2092Y4811D01*
X2109Y4845D02*
X2092Y4805D01*
X2069Y4845D02*
X2086D01*
X2097D02*
X2115D01*
X2140D02*
X2131Y4842D01*
X2126Y4836D01*
X2123Y4828D01*
Y4822D01*
X2126Y4814D01*
X2131Y4808D01*
X2140Y4805D01*
X2146D01*
X2154Y4808D01*
X2160Y4814D01*
X2163Y4822D01*
Y4828D01*
X2160Y4836D01*
X2154Y4842D01*
X2146Y4845D01*
X2140D01*
X2134Y4842D01*
X2129Y4836D01*
X2126Y4828D01*
Y4822D01*
X2129Y4814D01*
X2134Y4808D01*
X2140Y4805D01*
X2146D02*
X2151Y4808D01*
X2157Y4814D01*
X2160Y4822D01*
Y4828D01*
X2157Y4836D01*
X2151Y4842D01*
X2146Y4845D01*
X2200Y4839D02*
X2203Y4845D01*
Y4834D01*
X2200Y4839D01*
X2197Y4842D01*
X2192Y4845D01*
X2180D01*
X2175Y4842D01*
X2172Y4839D01*
Y4834D01*
X2175Y4831D01*
X2180Y4828D01*
X2195Y4822D01*
X2200Y4819D01*
X2203Y4816D01*
X2172Y4836D02*
X2175Y4834D01*
X2180Y4831D01*
X2195Y4825D01*
X2200Y4822D01*
X2203Y4819D01*
Y4811D01*
X2200Y4808D01*
X2195Y4805D01*
X2183D01*
X2177Y4808D01*
X2175Y4811D01*
X2172Y4816D01*
Y4805D01*
X2175Y4811D01*
X2318Y4842D02*
X2315Y4839D01*
X2318Y4836D01*
X2321Y4839D01*
Y4842D01*
X2318Y4845D01*
X2315D01*
X2313Y4842D01*
X2310Y4836D01*
X2304Y4822D01*
X2298Y4814D01*
X2293Y4808D01*
X2287Y4805D01*
X2278D01*
X2270Y4808D01*
X2267Y4814D01*
Y4822D01*
X2270Y4828D01*
X2287Y4839D01*
X2293Y4845D01*
X2295Y4851D01*
Y4856D01*
X2293Y4862D01*
X2287Y4865D01*
X2281Y4862D01*
X2278Y4856D01*
Y4851D01*
X2281Y4842D01*
X2287Y4834D01*
X2301Y4814D01*
X2307Y4808D01*
X2315Y4805D01*
X2318D01*
X2321Y4808D01*
Y4811D01*
X2278Y4805D02*
X2273Y4808D01*
X2270Y4814D01*
Y4822D01*
X2273Y4828D01*
X2278Y4834D01*
Y4851D02*
X2281Y4845D01*
X2304Y4814D01*
X2310Y4808D01*
X2315Y4805D01*
X2423Y4856D02*
X2425Y4848D01*
Y4865D01*
X2423Y4856D01*
X2417Y4862D01*
X2408Y4865D01*
X2403D01*
X2394Y4862D01*
X2388Y4856D01*
X2385Y4851D01*
X2383Y4842D01*
Y4828D01*
X2385Y4819D01*
X2388Y4814D01*
X2394Y4808D01*
X2403Y4805D01*
X2408D01*
X2417Y4808D01*
X2423Y4814D01*
X2403Y4865D02*
X2397Y4862D01*
X2391Y4856D01*
X2388Y4851D01*
X2385Y4842D01*
Y4828D01*
X2388Y4819D01*
X2391Y4814D01*
X2397Y4808D01*
X2403Y4805D01*
X2423Y4828D02*
Y4805D01*
X2425Y4828D02*
Y4805D01*
X2414Y4828D02*
X2434D01*
X2450Y4865D02*
Y4805D01*
X2453Y4865D02*
Y4805D01*
X2442Y4865D02*
X2462D01*
X2442Y4805D02*
X2462D01*
X2493Y4865D02*
X2484Y4862D01*
X2478Y4856D01*
X2475Y4851D01*
X2473Y4839D01*
Y4831D01*
X2475Y4819D01*
X2478Y4814D01*
X2484Y4808D01*
X2493Y4805D01*
X2498D01*
X2507Y4808D01*
X2513Y4814D01*
X2515Y4819D01*
X2518Y4831D01*
Y4839D01*
X2515Y4851D01*
X2513Y4856D01*
X2507Y4862D01*
X2498Y4865D01*
X2493D01*
X2487Y4862D01*
X2481Y4856D01*
X2478Y4851D01*
X2475Y4839D01*
Y4831D01*
X2478Y4819D01*
X2481Y4814D01*
X2487Y4808D01*
X2493Y4805D01*
X2498D02*
X2504Y4808D01*
X2510Y4814D01*
X2513Y4819D01*
X2515Y4831D01*
Y4839D01*
X2513Y4851D01*
X2510Y4856D01*
X2504Y4862D01*
X2498Y4865D01*
X2555Y4839D02*
X2558Y4845D01*
Y4834D01*
X2555Y4839D01*
X2552Y4842D01*
X2547Y4845D01*
X2535D01*
X2529Y4842D01*
X2527Y4839D01*
Y4834D01*
X2529Y4831D01*
X2535Y4828D01*
X2549Y4822D01*
X2555Y4819D01*
X2558Y4816D01*
X2527Y4836D02*
X2529Y4834D01*
X2535Y4831D01*
X2549Y4825D01*
X2555Y4822D01*
X2558Y4819D01*
Y4811D01*
X2555Y4808D01*
X2549Y4805D01*
X2538D01*
X2532Y4808D01*
X2529Y4811D01*
X2527Y4816D01*
Y4805D01*
X2529Y4811D01*
X2622Y4831D02*
X2673D01*
X2740Y4845D02*
X2758Y4805D01*
X2743Y4845D02*
X2758Y4811D01*
X2775Y4845D02*
X2758Y4805D01*
X2735Y4845D02*
X2752D01*
X2763D02*
X2780D01*
X2843Y4854D02*
X2848Y4856D01*
X2857Y4865D01*
Y4805D01*
X2854Y4862D02*
Y4805D01*
X2843D02*
X2868D01*
X2882Y4811D02*
X2879Y4808D01*
X2882Y4805D01*
X2884Y4808D01*
X2882Y4811D01*
X2914Y4865D02*
X2905Y4862D01*
X2900Y4854D01*
X2897Y4839D01*
Y4831D01*
X2900Y4816D01*
X2905Y4808D01*
X2914Y4805D01*
X2920D01*
X2928Y4808D01*
X2934Y4816D01*
X2937Y4831D01*
Y4839D01*
X2934Y4854D01*
X2928Y4862D01*
X2920Y4865D01*
X2914D01*
X2908Y4862D01*
X2905Y4859D01*
X2902Y4854D01*
X2900Y4839D01*
Y4831D01*
X2902Y4816D01*
X2905Y4811D01*
X2908Y4808D01*
X2914Y4805D01*
X2920D02*
X2925Y4808D01*
X2928Y4811D01*
X2931Y4816D01*
X2934Y4831D01*
Y4839D01*
X2931Y4854D01*
X2928Y4859D01*
X2925Y4862D01*
X2920Y4865D01*
X1585Y4970D02*
Y4910D01*
X1588Y4970D02*
Y4910D01*
X1568Y4970D02*
X1565Y4953D01*
Y4970D01*
X1608D01*
Y4953D01*
X1605Y4970D01*
X1576Y4910D02*
X1596D01*
X1622Y4944D02*
Y4941D01*
X1619D01*
Y4944D01*
X1622Y4947D01*
X1628Y4950D01*
X1639D01*
X1645Y4947D01*
X1648Y4944D01*
X1651Y4939D01*
Y4919D01*
X1654Y4913D01*
X1656Y4910D01*
X1648Y4944D02*
Y4919D01*
X1651Y4913D01*
X1656Y4910D01*
X1659D01*
X1648Y4939D02*
X1645Y4936D01*
X1628Y4933D01*
X1619Y4930D01*
X1616Y4924D01*
Y4919D01*
X1619Y4913D01*
X1628Y4910D01*
X1636D01*
X1642Y4913D01*
X1648Y4919D01*
X1628Y4933D02*
X1622Y4930D01*
X1619Y4924D01*
Y4919D01*
X1622Y4913D01*
X1628Y4910D01*
X1676Y4970D02*
Y4910D01*
X1679Y4970D02*
Y4910D01*
X1668Y4970D02*
X1679D01*
X1668Y4910D02*
X1688D01*
X1707Y4970D02*
Y4910D01*
X1710Y4970D02*
Y4910D01*
X1699Y4970D02*
X1710D01*
X1699Y4910D02*
X1719D01*
X1732Y4933D02*
X1767D01*
Y4939D01*
X1764Y4944D01*
X1761Y4947D01*
X1755Y4950D01*
X1747D01*
X1738Y4947D01*
X1732Y4941D01*
X1730Y4933D01*
Y4927D01*
X1732Y4919D01*
X1738Y4913D01*
X1747Y4910D01*
X1752D01*
X1761Y4913D01*
X1767Y4919D01*
X1764Y4933D02*
Y4941D01*
X1761Y4947D01*
X1747Y4950D02*
X1741Y4947D01*
X1735Y4941D01*
X1732Y4933D01*
Y4927D01*
X1735Y4919D01*
X1741Y4913D01*
X1747Y4910D01*
X1784Y4950D02*
Y4910D01*
X1787Y4950D02*
Y4910D01*
Y4933D02*
X1790Y4941D01*
X1796Y4947D01*
X1802Y4950D01*
X1810D01*
X1813Y4947D01*
Y4944D01*
X1810Y4941D01*
X1807Y4944D01*
X1810Y4947D01*
X1776Y4950D02*
X1787D01*
X1776Y4910D02*
X1796D01*
X1910Y4970D02*
Y4910D01*
X1913Y4970D02*
Y4910D01*
X1910Y4941D02*
X1905Y4947D01*
X1899Y4950D01*
X1893D01*
X1885Y4947D01*
X1879Y4941D01*
X1876Y4933D01*
Y4927D01*
X1879Y4919D01*
X1885Y4913D01*
X1893Y4910D01*
X1899D01*
X1905Y4913D01*
X1910Y4919D01*
X1893Y4950D02*
X1888Y4947D01*
X1882Y4941D01*
X1879Y4933D01*
Y4927D01*
X1882Y4919D01*
X1888Y4913D01*
X1893Y4910D01*
X1902Y4970D02*
X1913D01*
X1910Y4910D02*
X1922D01*
X1933Y4933D02*
X1967D01*
Y4939D01*
X1964Y4944D01*
X1961Y4947D01*
X1956Y4950D01*
X1947D01*
X1939Y4947D01*
X1933Y4941D01*
X1930Y4933D01*
Y4927D01*
X1933Y4919D01*
X1939Y4913D01*
X1947Y4910D01*
X1953D01*
X1961Y4913D01*
X1967Y4919D01*
X1964Y4933D02*
Y4941D01*
X1961Y4947D01*
X1947Y4950D02*
X1941Y4947D01*
X1936Y4941D01*
X1933Y4933D01*
Y4927D01*
X1936Y4919D01*
X1941Y4913D01*
X1947Y4910D01*
X2039Y4970D02*
Y4910D01*
X2042Y4970D02*
Y4910D01*
X2030Y4970D02*
X2065D01*
X2073Y4967D01*
X2076Y4964D01*
X2079Y4959D01*
Y4950D01*
X2076Y4944D01*
X2073Y4941D01*
X2065Y4939D01*
X2042D01*
X2065Y4970D02*
X2070Y4967D01*
X2073Y4964D01*
X2076Y4959D01*
Y4950D01*
X2073Y4944D01*
X2070Y4941D01*
X2065Y4939D01*
X2030Y4910D02*
X2050D01*
X2095Y4950D02*
Y4910D01*
X2098Y4950D02*
Y4910D01*
Y4933D02*
X2101Y4941D01*
X2107Y4947D01*
X2113Y4950D01*
X2121D01*
X2124Y4947D01*
Y4944D01*
X2121Y4941D01*
X2118Y4944D01*
X2121Y4947D01*
X2087Y4950D02*
X2098D01*
X2087Y4910D02*
X2107D01*
X2150Y4950D02*
X2142Y4947D01*
X2136Y4941D01*
X2133Y4933D01*
Y4927D01*
X2136Y4919D01*
X2142Y4913D01*
X2150Y4910D01*
X2156D01*
X2165Y4913D01*
X2170Y4919D01*
X2173Y4927D01*
Y4933D01*
X2170Y4941D01*
X2165Y4947D01*
X2156Y4950D01*
X2150D01*
X2145Y4947D01*
X2139Y4941D01*
X2136Y4933D01*
Y4927D01*
X2139Y4919D01*
X2145Y4913D01*
X2150Y4910D01*
X2156D02*
X2162Y4913D01*
X2167Y4919D01*
X2170Y4927D01*
Y4933D01*
X2167Y4941D01*
X2162Y4947D01*
X2156Y4950D01*
X2188D02*
X2205Y4910D01*
X2191Y4950D02*
X2205Y4916D01*
X2222Y4950D02*
X2205Y4910D01*
X2199Y4899D01*
X2193Y4893D01*
X2188Y4890D01*
X2185D01*
X2182Y4893D01*
X2185Y4896D01*
X2188Y4893D01*
X2182Y4950D02*
X2199D01*
X2211D02*
X2228D01*
X2239Y4933D02*
X2273D01*
Y4939D01*
X2270Y4944D01*
X2267Y4947D01*
X2262Y4950D01*
X2253D01*
X2245Y4947D01*
X2239Y4941D01*
X2236Y4933D01*
Y4927D01*
X2239Y4919D01*
X2245Y4913D01*
X2253Y4910D01*
X2259D01*
X2267Y4913D01*
X2273Y4919D01*
X2270Y4933D02*
Y4941D01*
X2267Y4947D01*
X2253Y4950D02*
X2247Y4947D01*
X2242Y4941D01*
X2239Y4933D01*
Y4927D01*
X2242Y4919D01*
X2247Y4913D01*
X2253Y4910D01*
X2317Y4941D02*
X2314Y4939D01*
X2317Y4936D01*
X2319Y4939D01*
Y4941D01*
X2314Y4947D01*
X2308Y4950D01*
X2299D01*
X2291Y4947D01*
X2285Y4941D01*
X2282Y4933D01*
Y4927D01*
X2285Y4919D01*
X2291Y4913D01*
X2299Y4910D01*
X2305D01*
X2314Y4913D01*
X2319Y4919D01*
X2299Y4950D02*
X2294Y4947D01*
X2288Y4941D01*
X2285Y4933D01*
Y4927D01*
X2288Y4919D01*
X2294Y4913D01*
X2299Y4910D01*
X2346D02*
X2343Y4913D01*
X2340Y4921D01*
Y4970D01*
X2337D01*
Y4921D01*
X2340Y4913D01*
X2346Y4910D01*
X2351D01*
X2357Y4913D01*
X2360Y4919D01*
X2329Y4950D02*
X2351D01*
X2387D02*
X2378Y4947D01*
X2373Y4941D01*
X2370Y4933D01*
Y4927D01*
X2373Y4919D01*
X2378Y4913D01*
X2387Y4910D01*
X2393D01*
X2401Y4913D01*
X2407Y4919D01*
X2410Y4927D01*
Y4933D01*
X2407Y4941D01*
X2401Y4947D01*
X2393Y4950D01*
X2387D01*
X2381Y4947D01*
X2375Y4941D01*
X2373Y4933D01*
Y4927D01*
X2375Y4919D01*
X2381Y4913D01*
X2387Y4910D01*
X2393D02*
X2398Y4913D01*
X2404Y4919D01*
X2407Y4927D01*
Y4933D01*
X2404Y4941D01*
X2398Y4947D01*
X2393Y4950D01*
X2481Y4970D02*
Y4910D01*
X2484Y4970D02*
Y4910D01*
X2501Y4953D02*
Y4930D01*
X2473Y4970D02*
X2518D01*
Y4953D01*
X2515Y4970D01*
X2484Y4941D02*
X2501D01*
X2473Y4910D02*
X2493D01*
X2535Y4970D02*
X2532Y4967D01*
X2535Y4964D01*
X2538Y4967D01*
X2535Y4970D01*
Y4950D02*
Y4910D01*
X2538Y4950D02*
Y4910D01*
X2527Y4950D02*
X2538D01*
X2527Y4910D02*
X2547D01*
X2566Y4950D02*
Y4910D01*
X2569Y4950D02*
Y4910D01*
Y4941D02*
X2574Y4947D01*
X2583Y4950D01*
X2589D01*
X2597Y4947D01*
X2600Y4941D01*
Y4910D01*
X2589Y4950D02*
X2594Y4947D01*
X2597Y4941D01*
Y4910D01*
X2557Y4950D02*
X2569D01*
X2557Y4910D02*
X2577D01*
X2589D02*
X2609D01*
X2622Y4944D02*
Y4941D01*
X2619D01*
Y4944D01*
X2622Y4947D01*
X2628Y4950D01*
X2639D01*
X2645Y4947D01*
X2648Y4944D01*
X2651Y4939D01*
Y4919D01*
X2654Y4913D01*
X2656Y4910D01*
X2648Y4944D02*
Y4919D01*
X2651Y4913D01*
X2656Y4910D01*
X2659D01*
X2648Y4939D02*
X2645Y4936D01*
X2628Y4933D01*
X2619Y4930D01*
X2616Y4924D01*
Y4919D01*
X2619Y4913D01*
X2628Y4910D01*
X2636D01*
X2642Y4913D01*
X2648Y4919D01*
X2628Y4933D02*
X2622Y4930D01*
X2619Y4924D01*
Y4919D01*
X2622Y4913D01*
X2628Y4910D01*
X2676Y4970D02*
Y4910D01*
X2679Y4970D02*
Y4910D01*
X2668Y4970D02*
X2679D01*
X2668Y4910D02*
X2688D01*
X2753Y4936D02*
X2804D01*
X2874Y4970D02*
Y4910D01*
X2877Y4970D02*
Y4910D01*
X2866Y4970D02*
X2886D01*
X2866Y4910D02*
X2886D01*
X2917Y4970D02*
Y4910D01*
X2920Y4970D02*
Y4910D01*
X2900Y4970D02*
X2897Y4953D01*
Y4970D01*
X2940D01*
Y4953D01*
X2937Y4970D01*
X2908Y4910D02*
X2928D01*
X2957Y4970D02*
Y4910D01*
X2960Y4970D02*
Y4910D01*
X2948Y4970D02*
X2982D01*
X2991Y4967D01*
X2994Y4964D01*
X2997Y4959D01*
Y4953D01*
X2994Y4947D01*
X2991Y4944D01*
X2982Y4941D01*
Y4970D02*
X2988Y4967D01*
X2991Y4964D01*
X2994Y4959D01*
Y4953D01*
X2991Y4947D01*
X2988Y4944D01*
X2982Y4941D01*
X2960D02*
X2982D01*
X2991Y4939D01*
X2994Y4936D01*
X2997Y4930D01*
Y4921D01*
X2994Y4916D01*
X2991Y4913D01*
X2982Y4910D01*
X2948D01*
X2982Y4941D02*
X2988Y4939D01*
X2991Y4936D01*
X2994Y4930D01*
Y4921D01*
X2991Y4916D01*
X2988Y4913D01*
X2982Y4910D01*
X3030Y4970D02*
X3010Y4910D01*
X3030Y4970D02*
X3050Y4910D01*
X3030Y4961D02*
X3048Y4910D01*
X3016Y4927D02*
X3042D01*
X3005Y4910D02*
X3022D01*
X3039D02*
X3056D01*
X3126Y4970D02*
Y4910D01*
X3129Y4970D02*
X3146Y4919D01*
X3126Y4970D02*
X3146Y4910D01*
X3166Y4970D02*
X3146Y4910D01*
X3166Y4970D02*
Y4910D01*
X3169Y4970D02*
Y4910D01*
X3118Y4970D02*
X3129D01*
X3166D02*
X3178D01*
X3118Y4910D02*
X3135D01*
X3158D02*
X3178D01*
X3190Y4944D02*
Y4941D01*
X3188D01*
Y4944D01*
X3190Y4947D01*
X3196Y4950D01*
X3208D01*
X3213Y4947D01*
X3216Y4944D01*
X3219Y4939D01*
Y4919D01*
X3222Y4913D01*
X3225Y4910D01*
X3216Y4944D02*
Y4919D01*
X3219Y4913D01*
X3225Y4910D01*
X3228D01*
X3216Y4939D02*
X3213Y4936D01*
X3196Y4933D01*
X3188Y4930D01*
X3185Y4924D01*
Y4919D01*
X3188Y4913D01*
X3196Y4910D01*
X3205D01*
X3210Y4913D01*
X3216Y4919D01*
X3196Y4933D02*
X3190Y4930D01*
X3188Y4924D01*
Y4919D01*
X3190Y4913D01*
X3196Y4910D01*
X3245Y4950D02*
Y4910D01*
X3247Y4950D02*
Y4910D01*
Y4933D02*
X3250Y4941D01*
X3256Y4947D01*
X3262Y4950D01*
X3270D01*
X3273Y4947D01*
Y4944D01*
X3270Y4941D01*
X3267Y4944D01*
X3270Y4947D01*
X3236Y4950D02*
X3247D01*
X3236Y4910D02*
X3256D01*
X3339Y4959D02*
X3342Y4956D01*
X3339Y4953D01*
X3336Y4956D01*
Y4959D01*
X3339Y4964D01*
X3342Y4967D01*
X3351Y4970D01*
X3362D01*
X3371Y4967D01*
X3373Y4964D01*
X3376Y4959D01*
Y4953D01*
X3373Y4947D01*
X3365Y4941D01*
X3351Y4936D01*
X3345Y4933D01*
X3339Y4927D01*
X3336Y4919D01*
Y4910D01*
X3362Y4970D02*
X3368Y4967D01*
X3371Y4964D01*
X3373Y4959D01*
Y4953D01*
X3371Y4947D01*
X3362Y4941D01*
X3351Y4936D01*
X3336Y4916D02*
X3339Y4919D01*
X3345D01*
X3359Y4913D01*
X3368D01*
X3373Y4916D01*
X3376Y4919D01*
Y4924D01*
X3345Y4919D02*
X3359Y4910D01*
X3371D01*
X3373Y4913D01*
X3376Y4919D01*
X3402Y4970D02*
X3394Y4967D01*
X3388Y4959D01*
X3385Y4944D01*
Y4936D01*
X3388Y4921D01*
X3394Y4913D01*
X3402Y4910D01*
X3408D01*
X3417Y4913D01*
X3422Y4921D01*
X3425Y4936D01*
Y4944D01*
X3422Y4959D01*
X3417Y4967D01*
X3408Y4970D01*
X3402D01*
X3397Y4967D01*
X3394Y4964D01*
X3391Y4959D01*
X3388Y4944D01*
Y4936D01*
X3391Y4921D01*
X3394Y4916D01*
X3397Y4913D01*
X3402Y4910D01*
X3408D02*
X3414Y4913D01*
X3417Y4916D01*
X3419Y4921D01*
X3422Y4936D01*
Y4944D01*
X3419Y4959D01*
X3417Y4964D01*
X3414Y4967D01*
X3408Y4970D01*
X3434Y4959D02*
X3440Y4961D01*
X3448Y4970D01*
Y4910D01*
X3445Y4967D02*
Y4910D01*
X3434D02*
X3460D01*
X3487Y4970D02*
X3479Y4967D01*
X3473Y4959D01*
X3470Y4944D01*
Y4936D01*
X3473Y4921D01*
X3479Y4913D01*
X3487Y4910D01*
X3493D01*
X3501Y4913D01*
X3507Y4921D01*
X3510Y4936D01*
Y4944D01*
X3507Y4959D01*
X3501Y4967D01*
X3493Y4970D01*
X3487D01*
X3481Y4967D01*
X3479Y4964D01*
X3476Y4959D01*
X3473Y4944D01*
Y4936D01*
X3476Y4921D01*
X3479Y4916D01*
X3481Y4913D01*
X3487Y4910D01*
X3493D02*
X3499Y4913D01*
X3501Y4916D01*
X3504Y4921D01*
X3507Y4936D01*
Y4944D01*
X3504Y4959D01*
X3501Y4964D01*
X3499Y4967D01*
X3493Y4970D01*
D13*
X2940Y2180D02*
D03*
X3140Y2540D02*
D03*
X2940Y3020D02*
D03*
D14*
X3040Y2180D02*
D03*
X3140D02*
D03*
X3040Y2540D02*
D03*
X2940D02*
D03*
X3040Y3020D02*
D03*
X3140D02*
D03*
D15*
X3030Y2840D02*
D03*
X2730D02*
D03*
X3190Y2700D02*
D03*
X2890D02*
D03*
X1760Y4150D02*
D03*
Y4450D02*
D03*
X1570Y3300D02*
D03*
X1270D02*
D03*
D16*
X2622Y1800D02*
D03*
X2818D02*
D03*
X2610Y3495D02*
D03*
Y3595D02*
D03*
Y3695D02*
D03*
Y3795D02*
D03*
Y3895D02*
D03*
Y3995D02*
D03*
Y4095D02*
D03*
Y4195D02*
D03*
Y4295D02*
D03*
X2310Y3495D02*
D03*
Y3595D02*
D03*
Y3695D02*
D03*
Y3795D02*
D03*
Y3895D02*
D03*
Y3995D02*
D03*
Y4095D02*
D03*
Y4195D02*
D03*
X1740Y2395D02*
D03*
X1840D02*
D03*
X1940D02*
D03*
X2040D02*
D03*
X2140D02*
D03*
X2240D02*
D03*
X2340D02*
D03*
X2440D02*
D03*
X1740Y2695D02*
D03*
X1840D02*
D03*
X1940D02*
D03*
X2040D02*
D03*
X2140D02*
D03*
X2240D02*
D03*
X2340D02*
D03*
X1920Y4340D02*
D03*
X3755Y4445D02*
D03*
X3655D02*
D03*
X3755Y4145D02*
D03*
X3655D02*
D03*
X3755Y3845D02*
D03*
X3655D02*
D03*
X3755Y3545D02*
D03*
X3655D02*
D03*
X3755Y3245D02*
D03*
X3655D02*
D03*
X3755Y2810D02*
D03*
X3655D02*
D03*
X3755Y2510D02*
D03*
X3655D02*
D03*
X3755Y2210D02*
D03*
X3655D02*
D03*
X3755Y1910D02*
D03*
X3655D02*
D03*
X3755Y1610D02*
D03*
X3655D02*
D03*
X3755Y1310D02*
D03*
X3655D02*
D03*
D17*
X3965Y1150D02*
D03*
X1120Y3010D02*
D03*
Y4825D02*
D03*
X3965D02*
D03*
D18*
X1160Y2640D02*
D03*
X1410D02*
D03*
X1160Y2480D02*
D03*
X1410D02*
D03*
X1480Y4450D02*
D03*
Y4350D02*
D03*
D19*
X1320Y3640D02*
D03*
Y3740D02*
D03*
Y3840D02*
D03*
Y3940D02*
D03*
Y4040D02*
D03*
X1220Y3640D02*
D03*
Y3740D02*
D03*
Y3840D02*
D03*
Y3940D02*
D03*
D20*
Y4040D02*
D03*
D21*
X2855Y4147D02*
D03*
D22*
Y3947D02*
D03*
D23*
X1600Y3940D02*
D03*
Y3840D02*
D03*
X3060Y4145D02*
D03*
X3160D02*
D03*
X3060Y3977D02*
D03*
X3160D02*
D03*
X3180Y1860D02*
D03*
X3080D02*
D03*
X1240Y2760D02*
D03*
X1340D02*
D03*
D24*
X2330Y2924D02*
D03*
X2620Y2599D02*
D03*
X2110Y2924D02*
D03*
X1890D02*
D03*
D25*
X2330Y2846D02*
D03*
X2620Y2521D02*
D03*
X2110Y2846D02*
D03*
X2346Y2180D02*
D03*
X1890Y2846D02*
D03*
D26*
X2424Y2180D02*
D03*
D27*
X1350Y1750D02*
D03*
X2025Y1752D02*
D03*
D28*
X1625Y1500D02*
D03*
X1225D02*
D03*
X2300Y1502D02*
D03*
X1900D02*
D03*
D29*
X1450Y1750D02*
D03*
X1400Y1850D02*
D03*
X1500D02*
D03*
X2125Y1752D02*
D03*
X2075Y1852D02*
D03*
X2175D02*
D03*
D30*
X1240Y2220D02*
D03*
X1320D02*
D03*
X1240Y2060D02*
D03*
X1320D02*
D03*
Y2140D02*
D03*
X1240D02*
D03*
X1760Y3560D02*
D03*
X1840D02*
D03*
X1760Y3400D02*
D03*
X1840D02*
D03*
Y3480D02*
D03*
X1760D02*
D03*
D31*
X2310Y4295D02*
D03*
X3555Y4445D02*
D03*
Y4145D02*
D03*
Y3845D02*
D03*
Y3545D02*
D03*
Y3245D02*
D03*
Y2810D02*
D03*
Y2510D02*
D03*
Y2210D02*
D03*
Y1910D02*
D03*
Y1610D02*
D03*
Y1310D02*
D03*
D32*
X2440Y2695D02*
D03*
X1920Y4240D02*
D03*
D33*
X3020Y1296D02*
D03*
D34*
X2820D02*
D03*
X2621D02*
D03*
D35*
X3017Y3344D02*
D03*
X2332Y3352D02*
D03*
X2108Y3228D02*
D03*
X2185Y2640D02*
D03*
D36*
X1283Y1985D02*
D03*
X1803Y3325D02*
D03*
D37*
X1280Y2295D02*
D03*
X1800Y3635D02*
D03*
M02*
