%FSLAX23Y23*%
%MOIN*%
G70*
G01*
G75*
G04 Layer_Color=8388736*
%ADD10C,0.020*%
%ADD11C,0.047*%
%ADD12C,0.010*%
%ADD13R,0.067X0.067*%
%ADD14C,0.067*%
%ADD15C,0.055*%
%ADD16C,0.059*%
%ADD17P,0.216X8X22.5*%
%ADD18C,0.070*%
%ADD19C,0.055*%
%ADD20R,0.055X0.055*%
G04:AMPARAMS|DCode=21|XSize=100mil|YSize=60mil|CornerRadius=0mil|HoleSize=0mil|Usage=FLASHONLY|Rotation=0.000|XOffset=0mil|YOffset=0mil|HoleType=Round|Shape=Octagon|*
%AMOCTAGOND21*
4,1,8,0.050,-0.015,0.050,0.015,0.035,0.030,-0.035,0.030,-0.050,0.015,-0.050,-0.015,-0.035,-0.030,0.035,-0.030,0.050,-0.015,0.0*
%
%ADD21OCTAGOND21*%

%ADD22O,0.100X0.060*%
%ADD23C,0.065*%
%ADD24R,0.049X0.049*%
%ADD25C,0.049*%
%ADD26R,0.049X0.049*%
%ADD27R,0.059X0.059*%
%ADD28C,0.116*%
%ADD29C,0.059*%
%ADD30C,0.060*%
%ADD31R,0.059X0.059*%
%ADD32R,0.059X0.059*%
%ADD33P,0.130X8X202.5*%
%ADD34C,0.120*%
%ADD35C,0.050*%
%ADD36R,0.075X0.040*%
%ADD37R,0.070X0.040*%
%ADD38C,0.010*%
%ADD39C,0.002*%
%ADD40C,0.006*%
%ADD41C,0.008*%
%ADD42C,0.024*%
%ADD43C,0.005*%
%ADD44C,0.006*%
%ADD45C,0.008*%
%ADD46R,0.075X0.075*%
%ADD47C,0.075*%
%ADD48C,0.063*%
%ADD49C,0.067*%
%ADD50P,0.225X8X22.5*%
%ADD51C,0.078*%
%ADD52C,0.063*%
%ADD53R,0.063X0.063*%
G04:AMPARAMS|DCode=54|XSize=108mil|YSize=68mil|CornerRadius=0mil|HoleSize=0mil|Usage=FLASHONLY|Rotation=0.000|XOffset=0mil|YOffset=0mil|HoleType=Round|Shape=Octagon|*
%AMOCTAGOND54*
4,1,8,0.054,-0.017,0.054,0.017,0.037,0.034,-0.037,0.034,-0.054,0.017,-0.054,-0.017,-0.037,-0.034,0.037,-0.034,0.054,-0.017,0.0*
%
%ADD54OCTAGOND54*%

%ADD55O,0.108X0.068*%
%ADD56C,0.073*%
%ADD57R,0.057X0.057*%
%ADD58C,0.057*%
%ADD59R,0.057X0.057*%
%ADD60R,0.067X0.067*%
%ADD61C,0.124*%
%ADD62C,0.067*%
%ADD63C,0.068*%
%ADD64R,0.067X0.067*%
%ADD65R,0.067X0.067*%
%ADD66P,0.139X8X202.5*%
%ADD67C,0.128*%
%ADD68C,0.058*%
D46*
X2940Y2180D02*
D03*
X3140Y2540D02*
D03*
X2940Y3020D02*
D03*
D47*
X3040Y2180D02*
D03*
X3140D02*
D03*
X3040Y2540D02*
D03*
X2940D02*
D03*
X3040Y3020D02*
D03*
X3140D02*
D03*
D48*
X3030Y2840D02*
D03*
X2730D02*
D03*
X3190Y2700D02*
D03*
X2890D02*
D03*
X1760Y4150D02*
D03*
Y4450D02*
D03*
X1570Y3300D02*
D03*
X1270D02*
D03*
D49*
X2622Y1800D02*
D03*
X2818D02*
D03*
X2610Y3495D02*
D03*
Y3595D02*
D03*
Y3695D02*
D03*
Y3795D02*
D03*
Y3895D02*
D03*
Y3995D02*
D03*
Y4095D02*
D03*
Y4195D02*
D03*
Y4295D02*
D03*
X2310Y3495D02*
D03*
Y3595D02*
D03*
Y3695D02*
D03*
Y3795D02*
D03*
Y3895D02*
D03*
Y3995D02*
D03*
Y4095D02*
D03*
Y4195D02*
D03*
X1740Y2395D02*
D03*
X1840D02*
D03*
X1940D02*
D03*
X2040D02*
D03*
X2140D02*
D03*
X2240D02*
D03*
X2340D02*
D03*
X2440D02*
D03*
X1740Y2695D02*
D03*
X1840D02*
D03*
X1940D02*
D03*
X2040D02*
D03*
X2140D02*
D03*
X2240D02*
D03*
X2340D02*
D03*
X1920Y4340D02*
D03*
X3755Y4445D02*
D03*
X3655D02*
D03*
X3755Y4145D02*
D03*
X3655D02*
D03*
X3755Y3845D02*
D03*
X3655D02*
D03*
X3755Y3545D02*
D03*
X3655D02*
D03*
X3755Y3245D02*
D03*
X3655D02*
D03*
X3755Y2810D02*
D03*
X3655D02*
D03*
X3755Y2510D02*
D03*
X3655D02*
D03*
X3755Y2210D02*
D03*
X3655D02*
D03*
X3755Y1910D02*
D03*
X3655D02*
D03*
X3755Y1610D02*
D03*
X3655D02*
D03*
X3755Y1310D02*
D03*
X3655D02*
D03*
D50*
X3965Y1150D02*
D03*
X1120Y3010D02*
D03*
Y4825D02*
D03*
X3965D02*
D03*
D51*
X1160Y2640D02*
D03*
X1410D02*
D03*
X1160Y2480D02*
D03*
X1410D02*
D03*
X1480Y4450D02*
D03*
Y4350D02*
D03*
D52*
X1320Y3640D02*
D03*
Y3740D02*
D03*
Y3840D02*
D03*
Y3940D02*
D03*
Y4040D02*
D03*
X1220Y3640D02*
D03*
Y3740D02*
D03*
Y3840D02*
D03*
Y3940D02*
D03*
D53*
Y4040D02*
D03*
D54*
X2855Y4147D02*
D03*
D55*
Y3947D02*
D03*
D56*
X1600Y3940D02*
D03*
Y3840D02*
D03*
X3060Y4145D02*
D03*
X3160D02*
D03*
X3060Y3977D02*
D03*
X3160D02*
D03*
X3180Y1860D02*
D03*
X3080D02*
D03*
X1240Y2760D02*
D03*
X1340D02*
D03*
D57*
X2330Y2924D02*
D03*
X2620Y2599D02*
D03*
X2110Y2924D02*
D03*
X1890D02*
D03*
D58*
X2330Y2846D02*
D03*
X2620Y2521D02*
D03*
X2110Y2846D02*
D03*
X2346Y2180D02*
D03*
X1890Y2846D02*
D03*
D59*
X2424Y2180D02*
D03*
D60*
X1350Y1750D02*
D03*
X2025Y1752D02*
D03*
D61*
X1625Y1500D02*
D03*
X1225D02*
D03*
X2300Y1502D02*
D03*
X1900D02*
D03*
D62*
X1450Y1750D02*
D03*
X1400Y1850D02*
D03*
X1500D02*
D03*
X2125Y1752D02*
D03*
X2075Y1852D02*
D03*
X2175D02*
D03*
D63*
X1240Y2220D02*
D03*
X1320D02*
D03*
X1240Y2060D02*
D03*
X1320D02*
D03*
Y2140D02*
D03*
X1240D02*
D03*
X1760Y3560D02*
D03*
X1840D02*
D03*
X1760Y3400D02*
D03*
X1840D02*
D03*
Y3480D02*
D03*
X1760D02*
D03*
D64*
X2310Y4295D02*
D03*
X3555Y4445D02*
D03*
Y4145D02*
D03*
Y3845D02*
D03*
Y3545D02*
D03*
Y3245D02*
D03*
Y2810D02*
D03*
Y2510D02*
D03*
Y2210D02*
D03*
Y1910D02*
D03*
Y1610D02*
D03*
Y1310D02*
D03*
D65*
X2440Y2695D02*
D03*
X1920Y4240D02*
D03*
D66*
X3020Y1296D02*
D03*
D67*
X2820D02*
D03*
X2621D02*
D03*
D68*
X3017Y3344D02*
D03*
X2332Y3352D02*
D03*
X2108Y3228D02*
D03*
X2185Y2640D02*
D03*
M02*
