%FSLAX23Y23*%
%MOIN*%
G70*
G01*
G75*
%ADD10C,0.020*%
%ADD11C,0.047*%
%ADD12C,0.010*%
%ADD13C,0.059*%
%ADD14O,0.100X0.060*%
G04:AMPARAMS|DCode=15|XSize=100mil|YSize=60mil|CornerRadius=0mil|HoleSize=0mil|Usage=FLASHONLY|Rotation=0.000|XOffset=0mil|YOffset=0mil|HoleType=Round|Shape=Octagon|*
%AMOCTAGOND15*
4,1,8,0.050,-0.015,0.050,0.015,0.035,0.030,-0.035,0.030,-0.050,0.015,-0.050,-0.015,-0.035,-0.030,0.035,-0.030,0.050,-0.015,0.0*
%
%ADD15OCTAGOND15*%

%ADD16C,0.065*%
%ADD17R,0.059X0.059*%
%ADD18C,0.055*%
%ADD19R,0.059X0.059*%
%ADD20C,0.070*%
%ADD21C,0.049*%
%ADD22R,0.049X0.049*%
%ADD23C,0.060*%
%ADD24C,0.050*%
%ADD25R,0.050X0.050*%
G04:AMPARAMS|DCode=26|XSize=80mil|YSize=100mil|CornerRadius=0mil|HoleSize=0mil|Usage=FLASHONLY|Rotation=0.000|XOffset=0mil|YOffset=0mil|HoleType=Round|Shape=Octagon|*
%AMOCTAGOND26*
4,1,8,-0.020,0.050,0.020,0.050,0.040,0.030,0.040,-0.030,0.020,-0.050,-0.020,-0.050,-0.040,-0.030,-0.040,0.030,-0.020,0.050,0.0*
%
%ADD26OCTAGOND26*%

%ADD27P,0.213X8X22.5*%
%ADD28C,0.120*%
%ADD29P,0.130X8X202.5*%
%ADD30C,0.059*%
%ADD31C,0.116*%
%ADD32R,0.059X0.059*%
%ADD33R,0.049X0.049*%
%ADD34R,0.110X0.110*%
%ADD35C,0.110*%
%ADD36R,0.050X0.050*%
%ADD37R,0.070X0.040*%
%ADD38R,0.075X0.040*%
%ADD39R,0.040X0.070*%
%ADD40R,0.040X0.075*%
D13*
X4882Y5560D02*
D03*
X5078D02*
D03*
X3360Y4695D02*
D03*
X3260D02*
D03*
X3160D02*
D03*
X3060D02*
D03*
X2960D02*
D03*
X2860D02*
D03*
X2760D02*
D03*
X3460Y4395D02*
D03*
X3360D02*
D03*
X3260D02*
D03*
X3160D02*
D03*
X3060D02*
D03*
X2960D02*
D03*
X2860D02*
D03*
X2760D02*
D03*
X2160Y4900D02*
D03*
X5305Y6315D02*
D03*
X5355Y6115D02*
D03*
X5405Y6315D02*
D03*
X5455Y6115D02*
D03*
X5005Y6315D02*
D03*
X5055Y6115D02*
D03*
X5105Y6315D02*
D03*
X5155Y6115D02*
D03*
X5205Y6315D02*
D03*
X5255Y6115D02*
D03*
X5505Y6315D02*
D03*
X5555Y6115D02*
D03*
X5605Y6315D02*
D03*
X5655Y6115D02*
D03*
X4480Y3782D02*
D03*
Y3978D02*
D03*
X3020Y6600D02*
D03*
X3160D02*
D03*
X3330Y6195D02*
D03*
Y6095D02*
D03*
Y5995D02*
D03*
Y5895D02*
D03*
Y5795D02*
D03*
Y5695D02*
D03*
Y5595D02*
D03*
Y5495D02*
D03*
X3630Y6295D02*
D03*
Y6195D02*
D03*
Y6095D02*
D03*
Y5995D02*
D03*
Y5895D02*
D03*
Y5795D02*
D03*
Y5695D02*
D03*
Y5595D02*
D03*
Y5495D02*
D03*
D14*
X3925Y5892D02*
D03*
D15*
Y6092D02*
D03*
D16*
X3980Y3720D02*
D03*
X4080D02*
D03*
X4230Y6090D02*
D03*
X4130D02*
D03*
X2360Y4760D02*
D03*
X2260D02*
D03*
X2620Y5840D02*
D03*
Y5940D02*
D03*
X4230Y5922D02*
D03*
X4130D02*
D03*
D17*
X3460Y4695D02*
D03*
X2160Y5180D02*
D03*
X3020Y6500D02*
D03*
X3160D02*
D03*
D18*
X4730Y6020D02*
D03*
Y6320D02*
D03*
X2330Y5180D02*
D03*
X2630D02*
D03*
X2860Y6170D02*
D03*
Y6470D02*
D03*
X2740Y6770D02*
D03*
Y6470D02*
D03*
X3310Y6760D02*
D03*
X3010D02*
D03*
Y6860D02*
D03*
X3310D02*
D03*
X4305Y4900D02*
D03*
X4605D02*
D03*
X4400Y5035D02*
D03*
X4700D02*
D03*
X4505Y5140D02*
D03*
X4805D02*
D03*
D19*
X4955Y6115D02*
D03*
X3330Y6295D02*
D03*
D20*
X2500Y6450D02*
D03*
Y6350D02*
D03*
Y6770D02*
D03*
Y6670D02*
D03*
D21*
X3130Y4846D02*
D03*
X2910D02*
D03*
X3350D02*
D03*
X3640Y4521D02*
D03*
X3366Y4180D02*
D03*
D22*
X3130Y4924D02*
D03*
X2910D02*
D03*
X3350D02*
D03*
X3640Y4599D02*
D03*
D23*
X2260Y4140D02*
D03*
X2340D02*
D03*
Y4060D02*
D03*
X2260D02*
D03*
X2340Y4220D02*
D03*
X2260D02*
D03*
X2430Y4480D02*
D03*
X2180D02*
D03*
X2430Y4640D02*
D03*
X2180D02*
D03*
X4000Y5040D02*
D03*
Y5120D02*
D03*
X4080D02*
D03*
Y5040D02*
D03*
X3920Y5120D02*
D03*
Y5040D02*
D03*
X2780Y5480D02*
D03*
X2860D02*
D03*
Y5400D02*
D03*
X2780D02*
D03*
X2860Y5560D02*
D03*
X2780D02*
D03*
D24*
X4560Y4520D02*
D03*
X4660D02*
D03*
X4760D02*
D03*
X4860D02*
D03*
X4960D02*
D03*
X4560Y4620D02*
D03*
X4660D02*
D03*
X4760D02*
D03*
X4860D02*
D03*
X2340Y5640D02*
D03*
Y5740D02*
D03*
Y5840D02*
D03*
Y5940D02*
D03*
Y6040D02*
D03*
X2240Y5640D02*
D03*
Y5740D02*
D03*
Y5840D02*
D03*
Y5940D02*
D03*
D25*
X4960Y4620D02*
D03*
D26*
X3880Y3940D02*
D03*
X3980D02*
D03*
X4080D02*
D03*
D27*
X3980Y4640D02*
D03*
D28*
X3641Y3296D02*
D03*
X3841D02*
D03*
X4605Y3295D02*
D03*
D29*
X4041Y3296D02*
D03*
X4405Y3295D02*
D03*
D30*
X2520Y3850D02*
D03*
X2420D02*
D03*
X2470Y3750D02*
D03*
X3195Y3852D02*
D03*
X3095D02*
D03*
X3145Y3752D02*
D03*
D31*
X2220Y3500D02*
D03*
X2670D02*
D03*
X2895Y3502D02*
D03*
X3345D02*
D03*
D32*
X2370Y3750D02*
D03*
X3045Y3752D02*
D03*
D33*
X3444Y4180D02*
D03*
D34*
X5800Y4551D02*
D03*
X5460D02*
D03*
X5780Y5531D02*
D03*
X5460D02*
D03*
D35*
X5800Y3809D02*
D03*
X5460D02*
D03*
X5780Y4789D02*
D03*
X5460D02*
D03*
D36*
X2240Y6040D02*
D03*
M02*
