%FSLAX23Y23*%
%MOIN*%
G70*
G01*
G75*
G04 Layer_Physical_Order=1*
G04 Layer_Color=255*
%ADD10C,0.020*%
%ADD11C,0.047*%
%ADD12C,0.010*%
%ADD13C,0.059*%
%ADD14O,0.100X0.060*%
G04:AMPARAMS|DCode=15|XSize=100mil|YSize=60mil|CornerRadius=0mil|HoleSize=0mil|Usage=FLASHONLY|Rotation=0.000|XOffset=0mil|YOffset=0mil|HoleType=Round|Shape=Octagon|*
%AMOCTAGOND15*
4,1,8,0.050,-0.015,0.050,0.015,0.035,0.030,-0.035,0.030,-0.050,0.015,-0.050,-0.015,-0.035,-0.030,0.035,-0.030,0.050,-0.015,0.0*
%
%ADD15OCTAGOND15*%

%ADD16C,0.065*%
%ADD17R,0.059X0.059*%
%ADD18C,0.055*%
%ADD19R,0.059X0.059*%
%ADD20C,0.070*%
%ADD21C,0.049*%
%ADD22R,0.049X0.049*%
%ADD23C,0.060*%
%ADD24C,0.050*%
%ADD25R,0.050X0.050*%
G04:AMPARAMS|DCode=26|XSize=80mil|YSize=100mil|CornerRadius=0mil|HoleSize=0mil|Usage=FLASHONLY|Rotation=0.000|XOffset=0mil|YOffset=0mil|HoleType=Round|Shape=Octagon|*
%AMOCTAGOND26*
4,1,8,-0.020,0.050,0.020,0.050,0.040,0.030,0.040,-0.030,0.020,-0.050,-0.020,-0.050,-0.040,-0.030,-0.040,0.030,-0.020,0.050,0.0*
%
%ADD26OCTAGOND26*%

%ADD27P,0.213X8X22.5*%
%ADD28C,0.120*%
%ADD29P,0.130X8X202.5*%
%ADD30C,0.059*%
%ADD31C,0.116*%
%ADD32R,0.059X0.059*%
%ADD33R,0.049X0.049*%
%ADD34R,0.110X0.110*%
%ADD35C,0.110*%
%ADD36R,0.050X0.050*%
%ADD37R,0.070X0.040*%
%ADD38R,0.075X0.040*%
%ADD39R,0.040X0.070*%
%ADD40R,0.040X0.075*%
D10*
X4931Y6349D02*
X4955Y6373D01*
X5447D01*
X3618D02*
X4955D01*
X2370Y3750D02*
X2425Y3695D01*
X2624D01*
X2672Y3743D01*
Y3907D01*
X3160Y4395D01*
X5374Y5891D02*
Y6034D01*
X5455Y6115D01*
X5205Y6315D02*
X5290Y6230D01*
X5340D01*
X5455Y6115D01*
X3205Y4640D02*
X3507D01*
X3515Y4648D01*
Y5480D01*
X3630Y5595D01*
X2910Y4545D02*
X3060Y4395D01*
X2752Y4545D02*
X2910D01*
X2705Y4592D02*
X2752Y4545D01*
X2705Y4592D02*
Y4970D01*
X3330Y5595D01*
X2910Y4745D02*
Y4846D01*
Y4745D02*
X2960Y4695D01*
X3130Y4765D02*
Y4846D01*
X3060Y4695D02*
X3130Y4765D01*
X3350Y4924D02*
X3460Y4814D01*
Y4695D02*
Y4814D01*
X4805Y4675D02*
Y5140D01*
Y4675D02*
X4860Y4620D01*
X5447Y6373D02*
X5505Y6315D01*
X3499Y6254D02*
X3618Y6373D01*
X3499Y5664D02*
Y6254D01*
X3330Y5495D02*
X3499Y5664D01*
X5092Y6178D02*
X5155Y6115D01*
X4992Y6178D02*
X5092D01*
X4931Y6239D02*
X4992Y6178D01*
X4931Y6239D02*
Y6349D01*
X4955Y6373D02*
X5447D01*
X4760Y4620D02*
Y4975D01*
X4700Y5035D02*
X4760Y4975D01*
X4605Y4675D02*
Y4900D01*
Y4675D02*
X4660Y4620D01*
X3322Y5387D02*
X3630Y5695D01*
X2290Y5220D02*
X2330Y5180D01*
X2290Y5220D02*
Y5990D01*
X2340Y6040D01*
X3260Y4695D02*
X3350Y4785D01*
Y4846D01*
X3330Y6295D02*
Y6430D01*
X3160Y6600D02*
X3330Y6430D01*
X2240Y3850D02*
X2420D01*
X2205Y3885D02*
X2240Y3850D01*
X2205Y3885D02*
Y4085D01*
X2260Y4140D01*
X3160Y4695D02*
Y4736D01*
X3180Y4756D01*
Y4874D01*
X3130Y4924D02*
X3180Y4874D01*
X2160Y4860D02*
Y4900D01*
Y4860D02*
X2260Y4760D01*
X3010Y6685D02*
Y6760D01*
Y6685D02*
X3020Y6675D01*
Y6600D02*
Y6675D01*
X3010Y6760D02*
Y6860D01*
D11*
X3366Y4142D02*
X3392Y4116D01*
X3366Y4142D02*
Y4180D01*
Y4023D02*
Y4142D01*
X5180Y4089D02*
Y5262D01*
Y4089D02*
X5460Y3809D01*
X5605Y6315D02*
X5724Y6196D01*
Y5893D02*
Y6196D01*
X5686Y5855D02*
X5724Y5893D01*
X5686Y4883D02*
Y5855D01*
Y4883D02*
X5780Y4789D01*
X5555Y4884D02*
Y6115D01*
X5460Y4789D02*
X5555Y4884D01*
X4230Y5962D02*
Y6090D01*
X4230Y5922D02*
X4230Y5962D01*
X3366Y4142D02*
Y4180D01*
X3392Y4116D02*
X3680D01*
X4230Y4666D01*
Y5922D01*
X4560Y3862D02*
Y4520D01*
X4480Y3782D02*
X4560Y3862D01*
X3980Y3356D02*
Y3720D01*
Y3356D02*
X4041Y3296D01*
X2360Y4550D02*
X2430Y4480D01*
X2360Y4550D02*
Y4760D01*
X2520Y3850D02*
Y4390D01*
X2430Y4480D02*
X2520Y4390D01*
X4605Y3295D02*
X5078Y3768D01*
Y5560D01*
X3310Y6860D02*
X3401Y6769D01*
Y6431D02*
Y6769D01*
X5248Y4985D02*
Y6008D01*
X5355Y6115D01*
X4400Y4995D02*
Y5035D01*
X4305Y4900D02*
X4400Y4995D01*
X3444Y4180D02*
Y4326D01*
X3460Y4395D01*
X4852Y5786D02*
Y6275D01*
Y5786D02*
X5078Y5560D01*
X4659Y5783D02*
X4882Y5560D01*
X4659Y5783D02*
Y6249D01*
X4730Y6320D01*
X3080Y6420D02*
X3160Y6500D01*
X2910Y6420D02*
X3080D01*
X2860Y6470D02*
X2910Y6420D01*
X3841Y3296D02*
X3968Y3168D01*
X4107D01*
X4139Y3200D01*
Y3661D01*
X4080Y3720D02*
X4139Y3661D01*
X2340Y5840D02*
X2427Y5753D01*
Y4827D02*
Y5753D01*
X2360Y4760D02*
X2427Y4827D01*
X2740Y5888D02*
Y6470D01*
X2692Y5840D02*
X2740Y5888D01*
X2620Y5840D02*
X2692D01*
X4352Y4620D02*
X4560D01*
X4305Y4667D02*
X4352Y4620D01*
X4305Y4667D02*
Y4900D01*
X3131Y6760D02*
X3310D01*
X3091Y6720D02*
X3131Y6760D01*
X3091Y6569D02*
Y6720D01*
Y6569D02*
X3160Y6500D01*
X3195Y3852D02*
X3366Y4023D01*
X3641Y3296D02*
X3880Y3535D01*
Y3940D01*
X2549Y5261D02*
X2630Y5180D01*
X2549Y5261D02*
Y5873D01*
X2576Y5900D01*
X2580D01*
X2620Y5940D01*
X3630Y5895D02*
X3699Y5826D01*
Y5304D02*
Y5826D01*
X3576Y5181D02*
X3699Y5304D01*
X3576Y4544D02*
Y5181D01*
Y4544D02*
X3599Y4521D01*
X3640D01*
X5780Y4680D02*
Y4789D01*
Y4680D02*
X5800Y4660D01*
Y4551D02*
Y4660D01*
X5460Y4551D02*
Y4789D01*
X3980Y3830D02*
Y3940D01*
X3980Y3830D02*
X3980Y3830D01*
X3980Y3720D02*
Y3830D01*
X3360Y4290D02*
Y4395D01*
Y4290D02*
X3366Y4284D01*
Y4180D02*
Y4284D01*
X4080Y3830D02*
Y3940D01*
X4080Y3830D02*
X4080Y3830D01*
X4080Y3720D02*
Y3830D01*
D12*
X3795Y6656D02*
X3798Y6648D01*
Y6665D01*
X3795Y6656D01*
X3789Y6662D01*
X3781Y6665D01*
X3775D01*
X3766Y6662D01*
X3761Y6656D01*
X3758Y6651D01*
X3755Y6642D01*
Y6628D01*
X3758Y6619D01*
X3761Y6614D01*
X3766Y6608D01*
X3775Y6605D01*
X3781D01*
X3789Y6608D01*
X3795Y6614D01*
X3798Y6619D01*
X3775Y6665D02*
X3769Y6662D01*
X3764Y6656D01*
X3761Y6651D01*
X3758Y6642D01*
Y6628D01*
X3761Y6619D01*
X3764Y6614D01*
X3769Y6608D01*
X3775Y6605D01*
X3832Y6665D02*
X3812Y6605D01*
X3832Y6665D02*
X3852Y6605D01*
X3832Y6656D02*
X3849Y6605D01*
X3818Y6622D02*
X3844D01*
X3806Y6605D02*
X3824D01*
X3841D02*
X3858D01*
X3874Y6665D02*
Y6605D01*
X3877Y6665D02*
X3894Y6614D01*
X3874Y6665D02*
X3894Y6605D01*
X3914Y6665D02*
X3894Y6605D01*
X3914Y6665D02*
Y6605D01*
X3917Y6665D02*
Y6605D01*
X3866Y6665D02*
X3877D01*
X3914D02*
X3926D01*
X3866Y6605D02*
X3883D01*
X3906D02*
X3926D01*
X3941Y6665D02*
Y6605D01*
X3944Y6665D02*
Y6605D01*
X3932Y6665D02*
X3967D01*
X3975Y6662D01*
X3978Y6659D01*
X3981Y6654D01*
Y6645D01*
X3978Y6639D01*
X3975Y6636D01*
X3967Y6634D01*
X3944D01*
X3967Y6665D02*
X3972Y6662D01*
X3975Y6659D01*
X3978Y6654D01*
Y6645D01*
X3975Y6639D01*
X3972Y6636D01*
X3967Y6634D01*
X3932Y6605D02*
X3952D01*
X3998Y6665D02*
Y6605D01*
X4000Y6665D02*
Y6605D01*
X4018Y6648D02*
Y6625D01*
X3989Y6665D02*
X4035D01*
Y6648D01*
X4032Y6665D01*
X4000Y6636D02*
X4018D01*
X3989Y6605D02*
X4035D01*
Y6622D01*
X4032Y6605D01*
X4052Y6665D02*
Y6605D01*
X4054Y6665D02*
Y6605D01*
X4043Y6665D02*
X4063D01*
X4043Y6605D02*
X4086D01*
Y6622D01*
X4083Y6605D01*
X4114Y6665D02*
X4106Y6662D01*
X4100Y6656D01*
X4097Y6651D01*
X4094Y6639D01*
Y6631D01*
X4097Y6619D01*
X4100Y6614D01*
X4106Y6608D01*
X4114Y6605D01*
X4120D01*
X4129Y6608D01*
X4134Y6614D01*
X4137Y6619D01*
X4140Y6631D01*
Y6639D01*
X4137Y6651D01*
X4134Y6656D01*
X4129Y6662D01*
X4120Y6665D01*
X4114D01*
X4109Y6662D01*
X4103Y6656D01*
X4100Y6651D01*
X4097Y6639D01*
Y6631D01*
X4100Y6619D01*
X4103Y6614D01*
X4109Y6608D01*
X4114Y6605D01*
X4120D02*
X4126Y6608D01*
X4131Y6614D01*
X4134Y6619D01*
X4137Y6631D01*
Y6639D01*
X4134Y6651D01*
X4131Y6656D01*
X4126Y6662D01*
X4120Y6665D01*
X4202Y6631D02*
X4254D01*
X4355Y6656D02*
X4358Y6648D01*
Y6665D01*
X4355Y6656D01*
X4350Y6662D01*
X4341Y6665D01*
X4335D01*
X4327Y6662D01*
X4321Y6656D01*
X4318Y6651D01*
X4315Y6642D01*
Y6628D01*
X4318Y6619D01*
X4321Y6614D01*
X4327Y6608D01*
X4335Y6605D01*
X4341D01*
X4350Y6608D01*
X4355Y6614D01*
X4335Y6665D02*
X4330Y6662D01*
X4324Y6656D01*
X4321Y6651D01*
X4318Y6642D01*
Y6628D01*
X4321Y6619D01*
X4324Y6614D01*
X4330Y6608D01*
X4335Y6605D01*
X4355Y6628D02*
Y6605D01*
X4358Y6628D02*
Y6605D01*
X4347Y6628D02*
X4367D01*
X4395Y6665D02*
X4386Y6662D01*
X4380Y6656D01*
X4377Y6651D01*
X4375Y6639D01*
Y6631D01*
X4377Y6619D01*
X4380Y6614D01*
X4386Y6608D01*
X4395Y6605D01*
X4400D01*
X4409Y6608D01*
X4415Y6614D01*
X4417Y6619D01*
X4420Y6631D01*
Y6639D01*
X4417Y6651D01*
X4415Y6656D01*
X4409Y6662D01*
X4400Y6665D01*
X4395D01*
X4389Y6662D01*
X4383Y6656D01*
X4380Y6651D01*
X4377Y6639D01*
Y6631D01*
X4380Y6619D01*
X4383Y6614D01*
X4389Y6608D01*
X4395Y6605D01*
X4400D02*
X4406Y6608D01*
X4412Y6614D01*
X4415Y6619D01*
X4417Y6631D01*
Y6639D01*
X4415Y6651D01*
X4412Y6656D01*
X4406Y6662D01*
X4400Y6665D01*
X4437D02*
Y6605D01*
X4440Y6665D02*
X4474Y6611D01*
X4440Y6659D02*
X4474Y6605D01*
Y6665D02*
Y6605D01*
X4429Y6665D02*
X4440D01*
X4466D02*
X4483D01*
X4429Y6605D02*
X4446D01*
X4499Y6665D02*
Y6605D01*
X4502Y6665D02*
Y6605D01*
X4490Y6665D02*
X4510D01*
X4490Y6605D02*
X4510D01*
X4575Y6631D02*
X4627D01*
X4697Y6665D02*
Y6605D01*
X4700Y6665D02*
X4734Y6611D01*
X4700Y6659D02*
X4734Y6605D01*
Y6665D02*
Y6605D01*
X4688Y6665D02*
X4700D01*
X4725D02*
X4743D01*
X4688Y6605D02*
X4705D01*
X4758Y6665D02*
Y6622D01*
X4761Y6614D01*
X4767Y6608D01*
X4776Y6605D01*
X4781D01*
X4790Y6608D01*
X4796Y6614D01*
X4798Y6622D01*
Y6665D01*
X4761D02*
Y6622D01*
X4764Y6614D01*
X4770Y6608D01*
X4776Y6605D01*
X4750Y6665D02*
X4770D01*
X4790D02*
X4807D01*
X4823D02*
Y6605D01*
X4826Y6665D02*
Y6605D01*
X4814Y6665D02*
X4834D01*
X4814Y6605D02*
X4857D01*
Y6622D01*
X4854Y6605D01*
X3795Y6761D02*
X3798Y6753D01*
Y6770D01*
X3795Y6761D01*
X3789Y6767D01*
X3781Y6770D01*
X3775D01*
X3766Y6767D01*
X3761Y6761D01*
X3758Y6756D01*
X3755Y6747D01*
Y6733D01*
X3758Y6724D01*
X3761Y6719D01*
X3766Y6713D01*
X3775Y6710D01*
X3781D01*
X3789Y6713D01*
X3795Y6719D01*
X3798Y6724D01*
X3775Y6770D02*
X3769Y6767D01*
X3764Y6761D01*
X3761Y6756D01*
X3758Y6747D01*
Y6733D01*
X3761Y6724D01*
X3764Y6719D01*
X3769Y6713D01*
X3775Y6710D01*
X3824Y6750D02*
X3815Y6747D01*
X3809Y6741D01*
X3806Y6733D01*
Y6727D01*
X3809Y6719D01*
X3815Y6713D01*
X3824Y6710D01*
X3829D01*
X3838Y6713D01*
X3844Y6719D01*
X3846Y6727D01*
Y6733D01*
X3844Y6741D01*
X3838Y6747D01*
X3829Y6750D01*
X3824D01*
X3818Y6747D01*
X3812Y6741D01*
X3809Y6733D01*
Y6727D01*
X3812Y6719D01*
X3818Y6713D01*
X3824Y6710D01*
X3829D02*
X3835Y6713D01*
X3841Y6719D01*
X3844Y6727D01*
Y6733D01*
X3841Y6741D01*
X3835Y6747D01*
X3829Y6750D01*
X3864D02*
Y6710D01*
X3867Y6750D02*
Y6710D01*
Y6741D02*
X3872Y6747D01*
X3881Y6750D01*
X3887D01*
X3895Y6747D01*
X3898Y6741D01*
Y6710D01*
X3887Y6750D02*
X3892Y6747D01*
X3895Y6741D01*
Y6710D01*
X3855Y6750D02*
X3867D01*
X3855Y6710D02*
X3875D01*
X3887D02*
X3907D01*
X3932D02*
X3929Y6713D01*
X3926Y6721D01*
Y6770D01*
X3923D01*
Y6721D01*
X3926Y6713D01*
X3932Y6710D01*
X3937D01*
X3943Y6713D01*
X3946Y6719D01*
X3914Y6750D02*
X3937D01*
X3964D02*
Y6710D01*
X3967Y6750D02*
Y6710D01*
Y6733D02*
X3970Y6741D01*
X3976Y6747D01*
X3981Y6750D01*
X3990D01*
X3993Y6747D01*
Y6744D01*
X3990Y6741D01*
X3987Y6744D01*
X3990Y6747D01*
X3956Y6750D02*
X3967D01*
X3956Y6710D02*
X3976D01*
X4019Y6750D02*
X4010Y6747D01*
X4005Y6741D01*
X4002Y6733D01*
Y6727D01*
X4005Y6719D01*
X4010Y6713D01*
X4019Y6710D01*
X4025D01*
X4033Y6713D01*
X4039Y6719D01*
X4042Y6727D01*
Y6733D01*
X4039Y6741D01*
X4033Y6747D01*
X4025Y6750D01*
X4019D01*
X4013Y6747D01*
X4008Y6741D01*
X4005Y6733D01*
Y6727D01*
X4008Y6719D01*
X4013Y6713D01*
X4019Y6710D01*
X4025D02*
X4030Y6713D01*
X4036Y6719D01*
X4039Y6727D01*
Y6733D01*
X4036Y6741D01*
X4030Y6747D01*
X4025Y6750D01*
X4059Y6770D02*
Y6710D01*
X4062Y6770D02*
Y6710D01*
X4051Y6770D02*
X4062D01*
X4051Y6710D02*
X4071D01*
X4170Y6770D02*
Y6710D01*
X4173Y6770D02*
Y6710D01*
X4170Y6741D02*
X4164Y6747D01*
X4158Y6750D01*
X4153D01*
X4144Y6747D01*
X4138Y6741D01*
X4135Y6733D01*
Y6727D01*
X4138Y6719D01*
X4144Y6713D01*
X4153Y6710D01*
X4158D01*
X4164Y6713D01*
X4170Y6719D01*
X4153Y6750D02*
X4147Y6747D01*
X4141Y6741D01*
X4138Y6733D01*
Y6727D01*
X4141Y6719D01*
X4147Y6713D01*
X4153Y6710D01*
X4161Y6770D02*
X4173D01*
X4170Y6710D02*
X4181D01*
X4192Y6733D02*
X4227D01*
Y6739D01*
X4224Y6744D01*
X4221Y6747D01*
X4215Y6750D01*
X4207D01*
X4198Y6747D01*
X4192Y6741D01*
X4189Y6733D01*
Y6727D01*
X4192Y6719D01*
X4198Y6713D01*
X4207Y6710D01*
X4212D01*
X4221Y6713D01*
X4227Y6719D01*
X4224Y6733D02*
Y6741D01*
X4221Y6747D01*
X4207Y6750D02*
X4201Y6747D01*
X4195Y6741D01*
X4192Y6733D01*
Y6727D01*
X4195Y6719D01*
X4201Y6713D01*
X4207Y6710D01*
X4295Y6750D02*
X4313Y6710D01*
X4298Y6750D02*
X4313Y6716D01*
X4330Y6750D02*
X4313Y6710D01*
X4290Y6750D02*
X4307D01*
X4318D02*
X4335D01*
X4347Y6733D02*
X4381D01*
Y6739D01*
X4378Y6744D01*
X4375Y6747D01*
X4369Y6750D01*
X4361D01*
X4352Y6747D01*
X4347Y6741D01*
X4344Y6733D01*
Y6727D01*
X4347Y6719D01*
X4352Y6713D01*
X4361Y6710D01*
X4367D01*
X4375Y6713D01*
X4381Y6719D01*
X4378Y6733D02*
Y6741D01*
X4375Y6747D01*
X4361Y6750D02*
X4355Y6747D01*
X4349Y6741D01*
X4347Y6733D01*
Y6727D01*
X4349Y6719D01*
X4355Y6713D01*
X4361Y6710D01*
X4399Y6770D02*
Y6710D01*
X4401Y6770D02*
Y6710D01*
X4390Y6770D02*
X4401D01*
X4390Y6710D02*
X4410D01*
X4438Y6750D02*
X4429Y6747D01*
X4424Y6741D01*
X4421Y6733D01*
Y6727D01*
X4424Y6719D01*
X4429Y6713D01*
X4438Y6710D01*
X4444D01*
X4452Y6713D01*
X4458Y6719D01*
X4461Y6727D01*
Y6733D01*
X4458Y6741D01*
X4452Y6747D01*
X4444Y6750D01*
X4438D01*
X4432Y6747D01*
X4427Y6741D01*
X4424Y6733D01*
Y6727D01*
X4427Y6719D01*
X4432Y6713D01*
X4438Y6710D01*
X4444D02*
X4449Y6713D01*
X4455Y6719D01*
X4458Y6727D01*
Y6733D01*
X4455Y6741D01*
X4449Y6747D01*
X4444Y6750D01*
X4504Y6741D02*
X4501Y6739D01*
X4504Y6736D01*
X4507Y6739D01*
Y6741D01*
X4501Y6747D01*
X4495Y6750D01*
X4487D01*
X4478Y6747D01*
X4473Y6741D01*
X4470Y6733D01*
Y6727D01*
X4473Y6719D01*
X4478Y6713D01*
X4487Y6710D01*
X4493D01*
X4501Y6713D01*
X4507Y6719D01*
X4487Y6750D02*
X4481Y6747D01*
X4475Y6741D01*
X4473Y6733D01*
Y6727D01*
X4475Y6719D01*
X4481Y6713D01*
X4487Y6710D01*
X4525Y6770D02*
X4522Y6767D01*
X4525Y6764D01*
X4527Y6767D01*
X4525Y6770D01*
Y6750D02*
Y6710D01*
X4527Y6750D02*
Y6710D01*
X4516Y6750D02*
X4527D01*
X4516Y6710D02*
X4536D01*
X4581Y6770D02*
Y6710D01*
X4584Y6770D02*
Y6710D01*
X4581Y6741D02*
X4575Y6747D01*
X4570Y6750D01*
X4564D01*
X4555Y6747D01*
X4550Y6741D01*
X4547Y6733D01*
Y6727D01*
X4550Y6719D01*
X4555Y6713D01*
X4564Y6710D01*
X4570D01*
X4575Y6713D01*
X4581Y6719D01*
X4564Y6750D02*
X4558Y6747D01*
X4553Y6741D01*
X4550Y6733D01*
Y6727D01*
X4553Y6719D01*
X4558Y6713D01*
X4564Y6710D01*
X4573Y6770D02*
X4584D01*
X4581Y6710D02*
X4593D01*
X4607Y6744D02*
Y6741D01*
X4604D01*
Y6744D01*
X4607Y6747D01*
X4612Y6750D01*
X4624D01*
X4629Y6747D01*
X4632Y6744D01*
X4635Y6739D01*
Y6719D01*
X4638Y6713D01*
X4641Y6710D01*
X4632Y6744D02*
Y6719D01*
X4635Y6713D01*
X4641Y6710D01*
X4644D01*
X4632Y6739D02*
X4629Y6736D01*
X4612Y6733D01*
X4604Y6730D01*
X4601Y6724D01*
Y6719D01*
X4604Y6713D01*
X4612Y6710D01*
X4621D01*
X4627Y6713D01*
X4632Y6719D01*
X4612Y6733D02*
X4607Y6730D01*
X4604Y6724D01*
Y6719D01*
X4607Y6713D01*
X4612Y6710D01*
X4687Y6770D02*
Y6710D01*
X4689Y6770D02*
Y6710D01*
X4687Y6741D02*
X4681Y6747D01*
X4675Y6750D01*
X4669D01*
X4661Y6747D01*
X4655Y6741D01*
X4652Y6733D01*
Y6727D01*
X4655Y6719D01*
X4661Y6713D01*
X4669Y6710D01*
X4675D01*
X4681Y6713D01*
X4687Y6719D01*
X4669Y6750D02*
X4664Y6747D01*
X4658Y6741D01*
X4655Y6733D01*
Y6727D01*
X4658Y6719D01*
X4664Y6713D01*
X4669Y6710D01*
X4678Y6770D02*
X4689D01*
X4687Y6710D02*
X4698D01*
X4769Y6770D02*
Y6710D01*
X4772Y6770D02*
X4789Y6719D01*
X4769Y6770D02*
X4789Y6710D01*
X4809Y6770D02*
X4789Y6710D01*
X4809Y6770D02*
Y6710D01*
X4812Y6770D02*
Y6710D01*
X4760Y6770D02*
X4772D01*
X4809D02*
X4820D01*
X4760Y6710D02*
X4777D01*
X4800D02*
X4820D01*
X4844Y6750D02*
X4836Y6747D01*
X4830Y6741D01*
X4827Y6733D01*
Y6727D01*
X4830Y6719D01*
X4836Y6713D01*
X4844Y6710D01*
X4850D01*
X4858Y6713D01*
X4864Y6719D01*
X4867Y6727D01*
Y6733D01*
X4864Y6741D01*
X4858Y6747D01*
X4850Y6750D01*
X4844D01*
X4838Y6747D01*
X4833Y6741D01*
X4830Y6733D01*
Y6727D01*
X4833Y6719D01*
X4838Y6713D01*
X4844Y6710D01*
X4850D02*
X4856Y6713D01*
X4861Y6719D01*
X4864Y6727D01*
Y6733D01*
X4861Y6741D01*
X4856Y6747D01*
X4850Y6750D01*
X4893Y6710D02*
X4890Y6713D01*
X4887Y6721D01*
Y6770D01*
X4884D01*
Y6721D01*
X4887Y6713D01*
X4893Y6710D01*
X4899D01*
X4904Y6713D01*
X4907Y6719D01*
X4876Y6750D02*
X4899D01*
X4934D02*
X4926Y6747D01*
X4920Y6741D01*
X4917Y6733D01*
Y6727D01*
X4920Y6719D01*
X4926Y6713D01*
X4934Y6710D01*
X4940D01*
X4948Y6713D01*
X4954Y6719D01*
X4957Y6727D01*
Y6733D01*
X4954Y6741D01*
X4948Y6747D01*
X4940Y6750D01*
X4934D01*
X4928Y6747D01*
X4923Y6741D01*
X4920Y6733D01*
Y6727D01*
X4923Y6719D01*
X4928Y6713D01*
X4934Y6710D01*
X4940D02*
X4946Y6713D01*
X4951Y6719D01*
X4954Y6727D01*
Y6733D01*
X4951Y6741D01*
X4946Y6747D01*
X4940Y6750D01*
X4974D02*
Y6710D01*
X4977Y6750D02*
Y6710D01*
Y6733D02*
X4980Y6741D01*
X4986Y6747D01*
X4992Y6750D01*
X5000D01*
X5003Y6747D01*
Y6744D01*
X5000Y6741D01*
X4997Y6744D01*
X5000Y6747D01*
X4966Y6750D02*
X4977D01*
X4966Y6710D02*
X4986D01*
X5075Y6770D02*
Y6710D01*
X5078Y6770D02*
Y6710D01*
X5066Y6770D02*
X5095D01*
X5103Y6767D01*
X5109Y6761D01*
X5112Y6756D01*
X5115Y6747D01*
Y6733D01*
X5112Y6724D01*
X5109Y6719D01*
X5103Y6713D01*
X5095Y6710D01*
X5066D01*
X5095Y6770D02*
X5100Y6767D01*
X5106Y6761D01*
X5109Y6756D01*
X5112Y6747D01*
Y6733D01*
X5109Y6724D01*
X5106Y6719D01*
X5100Y6713D01*
X5095Y6710D01*
X5163Y6761D02*
X5166Y6753D01*
Y6770D01*
X5163Y6761D01*
X5157Y6767D01*
X5148Y6770D01*
X5143D01*
X5134Y6767D01*
X5128Y6761D01*
X5126Y6756D01*
X5123Y6747D01*
Y6733D01*
X5126Y6724D01*
X5128Y6719D01*
X5134Y6713D01*
X5143Y6710D01*
X5148D01*
X5157Y6713D01*
X5163Y6719D01*
X5166Y6724D01*
X5143Y6770D02*
X5137Y6767D01*
X5131Y6761D01*
X5128Y6756D01*
X5126Y6747D01*
Y6733D01*
X5128Y6724D01*
X5131Y6719D01*
X5137Y6713D01*
X5143Y6710D01*
X5228Y6736D02*
X5280D01*
X5347Y6750D02*
X5364Y6710D01*
X5350Y6750D02*
X5364Y6716D01*
X5381Y6750D02*
X5364Y6710D01*
X5341Y6750D02*
X5358D01*
X5370D02*
X5387D01*
X5449Y6759D02*
X5455Y6761D01*
X5463Y6770D01*
Y6710D01*
X5461Y6767D02*
Y6710D01*
X5449D02*
X5475D01*
X5488Y6716D02*
X5485Y6713D01*
X5488Y6710D01*
X5491Y6713D01*
X5488Y6716D01*
X5520Y6770D02*
X5512Y6767D01*
X5506Y6759D01*
X5503Y6744D01*
Y6736D01*
X5506Y6721D01*
X5512Y6713D01*
X5520Y6710D01*
X5526D01*
X5535Y6713D01*
X5540Y6721D01*
X5543Y6736D01*
Y6744D01*
X5540Y6759D01*
X5535Y6767D01*
X5526Y6770D01*
X5520D01*
X5515Y6767D01*
X5512Y6764D01*
X5509Y6759D01*
X5506Y6744D01*
Y6736D01*
X5509Y6721D01*
X5512Y6716D01*
X5515Y6713D01*
X5520Y6710D01*
X5526D02*
X5532Y6713D01*
X5535Y6716D01*
X5537Y6721D01*
X5540Y6736D01*
Y6744D01*
X5537Y6759D01*
X5535Y6764D01*
X5532Y6767D01*
X5526Y6770D01*
X3775Y6875D02*
Y6815D01*
X3778Y6875D02*
Y6815D01*
X3758Y6875D02*
X3755Y6858D01*
Y6875D01*
X3798D01*
Y6858D01*
X3795Y6875D01*
X3766Y6815D02*
X3786D01*
X3812Y6849D02*
Y6846D01*
X3809D01*
Y6849D01*
X3812Y6852D01*
X3818Y6855D01*
X3829D01*
X3835Y6852D01*
X3838Y6849D01*
X3841Y6844D01*
Y6824D01*
X3844Y6818D01*
X3846Y6815D01*
X3838Y6849D02*
Y6824D01*
X3841Y6818D01*
X3846Y6815D01*
X3849D01*
X3838Y6844D02*
X3835Y6841D01*
X3818Y6838D01*
X3809Y6835D01*
X3806Y6829D01*
Y6824D01*
X3809Y6818D01*
X3818Y6815D01*
X3826D01*
X3832Y6818D01*
X3838Y6824D01*
X3818Y6838D02*
X3812Y6835D01*
X3809Y6829D01*
Y6824D01*
X3812Y6818D01*
X3818Y6815D01*
X3866Y6875D02*
Y6815D01*
X3869Y6875D02*
Y6815D01*
X3858Y6875D02*
X3869D01*
X3858Y6815D02*
X3878D01*
X3897Y6875D02*
Y6815D01*
X3900Y6875D02*
Y6815D01*
X3889Y6875D02*
X3900D01*
X3889Y6815D02*
X3909D01*
X3922Y6838D02*
X3957D01*
Y6844D01*
X3954Y6849D01*
X3951Y6852D01*
X3945Y6855D01*
X3937D01*
X3928Y6852D01*
X3922Y6846D01*
X3920Y6838D01*
Y6832D01*
X3922Y6824D01*
X3928Y6818D01*
X3937Y6815D01*
X3942D01*
X3951Y6818D01*
X3957Y6824D01*
X3954Y6838D02*
Y6846D01*
X3951Y6852D01*
X3937Y6855D02*
X3931Y6852D01*
X3925Y6846D01*
X3922Y6838D01*
Y6832D01*
X3925Y6824D01*
X3931Y6818D01*
X3937Y6815D01*
X3974Y6855D02*
Y6815D01*
X3977Y6855D02*
Y6815D01*
Y6838D02*
X3980Y6846D01*
X3986Y6852D01*
X3992Y6855D01*
X4000D01*
X4003Y6852D01*
Y6849D01*
X4000Y6846D01*
X3997Y6849D01*
X4000Y6852D01*
X3966Y6855D02*
X3977D01*
X3966Y6815D02*
X3986D01*
X4100Y6875D02*
Y6815D01*
X4103Y6875D02*
Y6815D01*
X4100Y6846D02*
X4095Y6852D01*
X4089Y6855D01*
X4083D01*
X4075Y6852D01*
X4069Y6846D01*
X4066Y6838D01*
Y6832D01*
X4069Y6824D01*
X4075Y6818D01*
X4083Y6815D01*
X4089D01*
X4095Y6818D01*
X4100Y6824D01*
X4083Y6855D02*
X4078Y6852D01*
X4072Y6846D01*
X4069Y6838D01*
Y6832D01*
X4072Y6824D01*
X4078Y6818D01*
X4083Y6815D01*
X4092Y6875D02*
X4103D01*
X4100Y6815D02*
X4112D01*
X4123Y6838D02*
X4157D01*
Y6844D01*
X4154Y6849D01*
X4151Y6852D01*
X4146Y6855D01*
X4137D01*
X4129Y6852D01*
X4123Y6846D01*
X4120Y6838D01*
Y6832D01*
X4123Y6824D01*
X4129Y6818D01*
X4137Y6815D01*
X4143D01*
X4151Y6818D01*
X4157Y6824D01*
X4154Y6838D02*
Y6846D01*
X4151Y6852D01*
X4137Y6855D02*
X4131Y6852D01*
X4126Y6846D01*
X4123Y6838D01*
Y6832D01*
X4126Y6824D01*
X4131Y6818D01*
X4137Y6815D01*
X4229Y6875D02*
Y6815D01*
X4232Y6875D02*
Y6815D01*
X4220Y6875D02*
X4255D01*
X4263Y6872D01*
X4266Y6869D01*
X4269Y6864D01*
Y6855D01*
X4266Y6849D01*
X4263Y6846D01*
X4255Y6844D01*
X4232D01*
X4255Y6875D02*
X4260Y6872D01*
X4263Y6869D01*
X4266Y6864D01*
Y6855D01*
X4263Y6849D01*
X4260Y6846D01*
X4255Y6844D01*
X4220Y6815D02*
X4240D01*
X4285Y6855D02*
Y6815D01*
X4288Y6855D02*
Y6815D01*
Y6838D02*
X4291Y6846D01*
X4297Y6852D01*
X4303Y6855D01*
X4311D01*
X4314Y6852D01*
Y6849D01*
X4311Y6846D01*
X4308Y6849D01*
X4311Y6852D01*
X4277Y6855D02*
X4288D01*
X4277Y6815D02*
X4297D01*
X4340Y6855D02*
X4332Y6852D01*
X4326Y6846D01*
X4323Y6838D01*
Y6832D01*
X4326Y6824D01*
X4332Y6818D01*
X4340Y6815D01*
X4346D01*
X4355Y6818D01*
X4360Y6824D01*
X4363Y6832D01*
Y6838D01*
X4360Y6846D01*
X4355Y6852D01*
X4346Y6855D01*
X4340D01*
X4335Y6852D01*
X4329Y6846D01*
X4326Y6838D01*
Y6832D01*
X4329Y6824D01*
X4335Y6818D01*
X4340Y6815D01*
X4346D02*
X4352Y6818D01*
X4357Y6824D01*
X4360Y6832D01*
Y6838D01*
X4357Y6846D01*
X4352Y6852D01*
X4346Y6855D01*
X4378D02*
X4395Y6815D01*
X4381Y6855D02*
X4395Y6821D01*
X4412Y6855D02*
X4395Y6815D01*
X4389Y6804D01*
X4383Y6798D01*
X4378Y6795D01*
X4375D01*
X4372Y6798D01*
X4375Y6801D01*
X4378Y6798D01*
X4372Y6855D02*
X4389D01*
X4401D02*
X4418D01*
X4429Y6838D02*
X4463D01*
Y6844D01*
X4460Y6849D01*
X4457Y6852D01*
X4452Y6855D01*
X4443D01*
X4435Y6852D01*
X4429Y6846D01*
X4426Y6838D01*
Y6832D01*
X4429Y6824D01*
X4435Y6818D01*
X4443Y6815D01*
X4449D01*
X4457Y6818D01*
X4463Y6824D01*
X4460Y6838D02*
Y6846D01*
X4457Y6852D01*
X4443Y6855D02*
X4437Y6852D01*
X4432Y6846D01*
X4429Y6838D01*
Y6832D01*
X4432Y6824D01*
X4437Y6818D01*
X4443Y6815D01*
X4507Y6846D02*
X4504Y6844D01*
X4507Y6841D01*
X4509Y6844D01*
Y6846D01*
X4504Y6852D01*
X4498Y6855D01*
X4489D01*
X4481Y6852D01*
X4475Y6846D01*
X4472Y6838D01*
Y6832D01*
X4475Y6824D01*
X4481Y6818D01*
X4489Y6815D01*
X4495D01*
X4504Y6818D01*
X4509Y6824D01*
X4489Y6855D02*
X4484Y6852D01*
X4478Y6846D01*
X4475Y6838D01*
Y6832D01*
X4478Y6824D01*
X4484Y6818D01*
X4489Y6815D01*
X4536D02*
X4533Y6818D01*
X4530Y6826D01*
Y6875D01*
X4527D01*
Y6826D01*
X4530Y6818D01*
X4536Y6815D01*
X4541D01*
X4547Y6818D01*
X4550Y6824D01*
X4519Y6855D02*
X4541D01*
X4577D02*
X4568Y6852D01*
X4563Y6846D01*
X4560Y6838D01*
Y6832D01*
X4563Y6824D01*
X4568Y6818D01*
X4577Y6815D01*
X4583D01*
X4591Y6818D01*
X4597Y6824D01*
X4600Y6832D01*
Y6838D01*
X4597Y6846D01*
X4591Y6852D01*
X4583Y6855D01*
X4577D01*
X4571Y6852D01*
X4565Y6846D01*
X4563Y6838D01*
Y6832D01*
X4565Y6824D01*
X4571Y6818D01*
X4577Y6815D01*
X4583D02*
X4588Y6818D01*
X4594Y6824D01*
X4597Y6832D01*
Y6838D01*
X4594Y6846D01*
X4588Y6852D01*
X4583Y6855D01*
X4671Y6875D02*
Y6815D01*
X4674Y6875D02*
Y6815D01*
X4691Y6858D02*
Y6835D01*
X4663Y6875D02*
X4708D01*
Y6858D01*
X4705Y6875D01*
X4674Y6846D02*
X4691D01*
X4663Y6815D02*
X4683D01*
X4725Y6875D02*
X4722Y6872D01*
X4725Y6869D01*
X4728Y6872D01*
X4725Y6875D01*
Y6855D02*
Y6815D01*
X4728Y6855D02*
Y6815D01*
X4717Y6855D02*
X4728D01*
X4717Y6815D02*
X4737D01*
X4756Y6855D02*
Y6815D01*
X4759Y6855D02*
Y6815D01*
Y6846D02*
X4764Y6852D01*
X4773Y6855D01*
X4779D01*
X4787Y6852D01*
X4790Y6846D01*
Y6815D01*
X4779Y6855D02*
X4784Y6852D01*
X4787Y6846D01*
Y6815D01*
X4747Y6855D02*
X4759D01*
X4747Y6815D02*
X4767D01*
X4779D02*
X4799D01*
X4812Y6849D02*
Y6846D01*
X4809D01*
Y6849D01*
X4812Y6852D01*
X4818Y6855D01*
X4829D01*
X4835Y6852D01*
X4838Y6849D01*
X4841Y6844D01*
Y6824D01*
X4844Y6818D01*
X4846Y6815D01*
X4838Y6849D02*
Y6824D01*
X4841Y6818D01*
X4846Y6815D01*
X4849D01*
X4838Y6844D02*
X4835Y6841D01*
X4818Y6838D01*
X4809Y6835D01*
X4806Y6829D01*
Y6824D01*
X4809Y6818D01*
X4818Y6815D01*
X4826D01*
X4832Y6818D01*
X4838Y6824D01*
X4818Y6838D02*
X4812Y6835D01*
X4809Y6829D01*
Y6824D01*
X4812Y6818D01*
X4818Y6815D01*
X4866Y6875D02*
Y6815D01*
X4869Y6875D02*
Y6815D01*
X4858Y6875D02*
X4869D01*
X4858Y6815D02*
X4878D01*
X4943Y6841D02*
X4994D01*
X5064Y6875D02*
Y6815D01*
X5067Y6875D02*
Y6815D01*
X5056Y6875D02*
X5076D01*
X5056Y6815D02*
X5076D01*
X5107Y6875D02*
Y6815D01*
X5110Y6875D02*
Y6815D01*
X5090Y6875D02*
X5087Y6858D01*
Y6875D01*
X5130D01*
Y6858D01*
X5127Y6875D01*
X5098Y6815D02*
X5118D01*
X5147Y6875D02*
Y6815D01*
X5150Y6875D02*
Y6815D01*
X5138Y6875D02*
X5172D01*
X5181Y6872D01*
X5184Y6869D01*
X5187Y6864D01*
Y6858D01*
X5184Y6852D01*
X5181Y6849D01*
X5172Y6846D01*
Y6875D02*
X5178Y6872D01*
X5181Y6869D01*
X5184Y6864D01*
Y6858D01*
X5181Y6852D01*
X5178Y6849D01*
X5172Y6846D01*
X5150D02*
X5172D01*
X5181Y6844D01*
X5184Y6841D01*
X5187Y6835D01*
Y6826D01*
X5184Y6821D01*
X5181Y6818D01*
X5172Y6815D01*
X5138D01*
X5172Y6846D02*
X5178Y6844D01*
X5181Y6841D01*
X5184Y6835D01*
Y6826D01*
X5181Y6821D01*
X5178Y6818D01*
X5172Y6815D01*
X5220Y6875D02*
X5200Y6815D01*
X5220Y6875D02*
X5240Y6815D01*
X5220Y6866D02*
X5238Y6815D01*
X5206Y6832D02*
X5232D01*
X5195Y6815D02*
X5212D01*
X5229D02*
X5246D01*
X5316Y6875D02*
Y6815D01*
X5319Y6875D02*
Y6815D01*
X5336Y6858D02*
Y6835D01*
X5308Y6875D02*
X5354D01*
Y6858D01*
X5351Y6875D01*
X5319Y6846D02*
X5336D01*
X5308Y6815D02*
X5328D01*
X5365Y6838D02*
X5399D01*
Y6844D01*
X5396Y6849D01*
X5393Y6852D01*
X5388Y6855D01*
X5379D01*
X5370Y6852D01*
X5365Y6846D01*
X5362Y6838D01*
Y6832D01*
X5365Y6824D01*
X5370Y6818D01*
X5379Y6815D01*
X5385D01*
X5393Y6818D01*
X5399Y6824D01*
X5396Y6838D02*
Y6846D01*
X5393Y6852D01*
X5379Y6855D02*
X5373Y6852D01*
X5368Y6846D01*
X5365Y6838D01*
Y6832D01*
X5368Y6824D01*
X5373Y6818D01*
X5379Y6815D01*
X5417Y6875D02*
Y6815D01*
X5419Y6875D02*
Y6815D01*
Y6846D02*
X5425Y6852D01*
X5431Y6855D01*
X5437D01*
X5445Y6852D01*
X5451Y6846D01*
X5454Y6838D01*
Y6832D01*
X5451Y6824D01*
X5445Y6818D01*
X5437Y6815D01*
X5431D01*
X5425Y6818D01*
X5419Y6824D01*
X5437Y6855D02*
X5442Y6852D01*
X5448Y6846D01*
X5451Y6838D01*
Y6832D01*
X5448Y6824D01*
X5442Y6818D01*
X5437Y6815D01*
X5408Y6875D02*
X5419D01*
X5519Y6864D02*
X5522Y6861D01*
X5519Y6858D01*
X5516Y6861D01*
Y6864D01*
X5519Y6869D01*
X5522Y6872D01*
X5530Y6875D01*
X5542D01*
X5550Y6872D01*
X5553Y6869D01*
X5556Y6864D01*
Y6858D01*
X5553Y6852D01*
X5545Y6846D01*
X5530Y6841D01*
X5525Y6838D01*
X5519Y6832D01*
X5516Y6824D01*
Y6815D01*
X5542Y6875D02*
X5547Y6872D01*
X5550Y6869D01*
X5553Y6864D01*
Y6858D01*
X5550Y6852D01*
X5542Y6846D01*
X5530Y6841D01*
X5516Y6821D02*
X5519Y6824D01*
X5525D01*
X5539Y6818D01*
X5547D01*
X5553Y6821D01*
X5556Y6824D01*
Y6829D01*
X5525Y6824D02*
X5539Y6815D01*
X5550D01*
X5553Y6818D01*
X5556Y6824D01*
X5582Y6875D02*
X5573Y6872D01*
X5568Y6864D01*
X5565Y6849D01*
Y6841D01*
X5568Y6826D01*
X5573Y6818D01*
X5582Y6815D01*
X5588D01*
X5596Y6818D01*
X5602Y6826D01*
X5605Y6841D01*
Y6849D01*
X5602Y6864D01*
X5596Y6872D01*
X5588Y6875D01*
X5582D01*
X5576Y6872D01*
X5573Y6869D01*
X5571Y6864D01*
X5568Y6849D01*
Y6841D01*
X5571Y6826D01*
X5573Y6821D01*
X5576Y6818D01*
X5582Y6815D01*
X5588D02*
X5593Y6818D01*
X5596Y6821D01*
X5599Y6826D01*
X5602Y6841D01*
Y6849D01*
X5599Y6864D01*
X5596Y6869D01*
X5593Y6872D01*
X5588Y6875D01*
X5614Y6864D02*
X5619Y6866D01*
X5628Y6875D01*
Y6815D01*
X5625Y6872D02*
Y6815D01*
X5614D02*
X5639D01*
X5667Y6875D02*
X5658Y6872D01*
X5653Y6864D01*
X5650Y6849D01*
Y6841D01*
X5653Y6826D01*
X5658Y6818D01*
X5667Y6815D01*
X5673D01*
X5681Y6818D01*
X5687Y6826D01*
X5690Y6841D01*
Y6849D01*
X5687Y6864D01*
X5681Y6872D01*
X5673Y6875D01*
X5667D01*
X5661Y6872D01*
X5658Y6869D01*
X5655Y6864D01*
X5653Y6849D01*
Y6841D01*
X5655Y6826D01*
X5658Y6821D01*
X5661Y6818D01*
X5667Y6815D01*
X5673D02*
X5678Y6818D01*
X5681Y6821D01*
X5684Y6826D01*
X5687Y6841D01*
Y6849D01*
X5684Y6864D01*
X5681Y6869D01*
X5678Y6872D01*
X5673Y6875D01*
D13*
X4882Y5560D02*
D03*
X5078D02*
D03*
X3360Y4695D02*
D03*
X3260D02*
D03*
X3160D02*
D03*
X3060D02*
D03*
X2960D02*
D03*
X2860D02*
D03*
X2760D02*
D03*
X3460Y4395D02*
D03*
X3360D02*
D03*
X3260D02*
D03*
X3160D02*
D03*
X3060D02*
D03*
X2960D02*
D03*
X2860D02*
D03*
X2760D02*
D03*
X2160Y4900D02*
D03*
X5305Y6315D02*
D03*
X5355Y6115D02*
D03*
X5405Y6315D02*
D03*
X5455Y6115D02*
D03*
X5005Y6315D02*
D03*
X5055Y6115D02*
D03*
X5105Y6315D02*
D03*
X5155Y6115D02*
D03*
X5205Y6315D02*
D03*
X5255Y6115D02*
D03*
X5505Y6315D02*
D03*
X5555Y6115D02*
D03*
X5605Y6315D02*
D03*
X5655Y6115D02*
D03*
X4480Y3782D02*
D03*
Y3978D02*
D03*
X3020Y6600D02*
D03*
X3160D02*
D03*
X3330Y6195D02*
D03*
Y6095D02*
D03*
Y5995D02*
D03*
Y5895D02*
D03*
Y5795D02*
D03*
Y5695D02*
D03*
Y5595D02*
D03*
Y5495D02*
D03*
X3630Y6295D02*
D03*
Y6195D02*
D03*
Y6095D02*
D03*
Y5995D02*
D03*
Y5895D02*
D03*
Y5795D02*
D03*
Y5695D02*
D03*
Y5595D02*
D03*
Y5495D02*
D03*
D14*
X3925Y5892D02*
D03*
D15*
Y6092D02*
D03*
D16*
X3980Y3720D02*
D03*
X4080D02*
D03*
X4230Y6090D02*
D03*
X4130D02*
D03*
X2360Y4760D02*
D03*
X2260D02*
D03*
X2620Y5840D02*
D03*
Y5940D02*
D03*
X4230Y5922D02*
D03*
X4130D02*
D03*
D17*
X3460Y4695D02*
D03*
X2160Y5180D02*
D03*
X3020Y6500D02*
D03*
X3160D02*
D03*
D18*
X4730Y6020D02*
D03*
Y6320D02*
D03*
X2330Y5180D02*
D03*
X2630D02*
D03*
X2860Y6170D02*
D03*
Y6470D02*
D03*
X2740Y6770D02*
D03*
Y6470D02*
D03*
X3310Y6760D02*
D03*
X3010D02*
D03*
Y6860D02*
D03*
X3310D02*
D03*
X4305Y4900D02*
D03*
X4605D02*
D03*
X4400Y5035D02*
D03*
X4700D02*
D03*
X4505Y5140D02*
D03*
X4805D02*
D03*
D19*
X4955Y6115D02*
D03*
X3330Y6295D02*
D03*
D20*
X2500Y6450D02*
D03*
Y6350D02*
D03*
Y6770D02*
D03*
Y6670D02*
D03*
D21*
X3130Y4846D02*
D03*
X2910D02*
D03*
X3350D02*
D03*
X3640Y4521D02*
D03*
X3366Y4180D02*
D03*
D22*
X3130Y4924D02*
D03*
X2910D02*
D03*
X3350D02*
D03*
X3640Y4599D02*
D03*
D23*
X2260Y4140D02*
D03*
X2340D02*
D03*
Y4060D02*
D03*
X2260D02*
D03*
X2340Y4220D02*
D03*
X2260D02*
D03*
X2430Y4480D02*
D03*
X2180D02*
D03*
X2430Y4640D02*
D03*
X2180D02*
D03*
X4000Y5040D02*
D03*
Y5120D02*
D03*
X4080D02*
D03*
Y5040D02*
D03*
X3920Y5120D02*
D03*
Y5040D02*
D03*
X2780Y5480D02*
D03*
X2860D02*
D03*
Y5400D02*
D03*
X2780D02*
D03*
X2860Y5560D02*
D03*
X2780D02*
D03*
D24*
X4560Y4520D02*
D03*
X4660D02*
D03*
X4760D02*
D03*
X4860D02*
D03*
X4960D02*
D03*
X4560Y4620D02*
D03*
X4660D02*
D03*
X4760D02*
D03*
X4860D02*
D03*
X2340Y5640D02*
D03*
Y5740D02*
D03*
Y5840D02*
D03*
Y5940D02*
D03*
Y6040D02*
D03*
X2240Y5640D02*
D03*
Y5740D02*
D03*
Y5840D02*
D03*
Y5940D02*
D03*
X5180Y5262D02*
D03*
X5374Y5891D02*
D03*
X3205Y4640D02*
D03*
X3401Y6431D02*
D03*
X5248Y4985D02*
D03*
X3322Y5387D02*
D03*
X4852Y6275D02*
D03*
D25*
X4960Y4620D02*
D03*
D26*
X3880Y3940D02*
D03*
X3980D02*
D03*
X4080D02*
D03*
D27*
X3980Y4640D02*
D03*
D28*
X3641Y3296D02*
D03*
X3841D02*
D03*
X4605Y3295D02*
D03*
D29*
X4041Y3296D02*
D03*
X4405Y3295D02*
D03*
D30*
X2520Y3850D02*
D03*
X2420D02*
D03*
X2470Y3750D02*
D03*
X3195Y3852D02*
D03*
X3095D02*
D03*
X3145Y3752D02*
D03*
D31*
X2220Y3500D02*
D03*
X2670D02*
D03*
X2895Y3502D02*
D03*
X3345D02*
D03*
D32*
X2370Y3750D02*
D03*
X3045Y3752D02*
D03*
D33*
X3444Y4180D02*
D03*
D34*
X5800Y4551D02*
D03*
X5460D02*
D03*
X5780Y5531D02*
D03*
X5460D02*
D03*
D35*
X5800Y3809D02*
D03*
X5460D02*
D03*
X5780Y4789D02*
D03*
X5460D02*
D03*
D36*
X2240Y6040D02*
D03*
D37*
X2300Y4295D02*
D03*
X2820Y5635D02*
D03*
D38*
X2303Y3985D02*
D03*
X2822Y5325D02*
D03*
D39*
X3845Y5080D02*
D03*
D40*
X4155Y5082D02*
D03*
M02*
