%FSLAX23Y23*%
%MOIN*%
G70*
G01*
G75*
%ADD10C,0.020*%
%ADD11C,0.047*%
%ADD12C,0.010*%
%ADD13C,0.059*%
%ADD14O,0.100X0.060*%
G04:AMPARAMS|DCode=15|XSize=100mil|YSize=60mil|CornerRadius=0mil|HoleSize=0mil|Usage=FLASHONLY|Rotation=0.000|XOffset=0mil|YOffset=0mil|HoleType=Round|Shape=Octagon|*
%AMOCTAGOND15*
4,1,8,0.050,-0.015,0.050,0.015,0.035,0.030,-0.035,0.030,-0.050,0.015,-0.050,-0.015,-0.035,-0.030,0.035,-0.030,0.050,-0.015,0.0*
%
%ADD15OCTAGOND15*%

%ADD16C,0.065*%
%ADD17R,0.059X0.059*%
%ADD18C,0.055*%
%ADD19R,0.059X0.059*%
%ADD20C,0.070*%
%ADD21C,0.049*%
%ADD22R,0.049X0.049*%
%ADD23C,0.060*%
%ADD24C,0.050*%
%ADD25R,0.050X0.050*%
G04:AMPARAMS|DCode=26|XSize=80mil|YSize=100mil|CornerRadius=0mil|HoleSize=0mil|Usage=FLASHONLY|Rotation=0.000|XOffset=0mil|YOffset=0mil|HoleType=Round|Shape=Octagon|*
%AMOCTAGOND26*
4,1,8,-0.020,0.050,0.020,0.050,0.040,0.030,0.040,-0.030,0.020,-0.050,-0.020,-0.050,-0.040,-0.030,-0.040,0.030,-0.020,0.050,0.0*
%
%ADD26OCTAGOND26*%

%ADD27P,0.213X8X22.5*%
%ADD28C,0.120*%
%ADD29P,0.130X8X202.5*%
%ADD30C,0.059*%
%ADD31C,0.116*%
%ADD32R,0.059X0.059*%
%ADD33R,0.049X0.049*%
%ADD34R,0.110X0.110*%
%ADD35C,0.110*%
%ADD36R,0.050X0.050*%
%ADD37R,0.070X0.040*%
%ADD38R,0.075X0.040*%
%ADD39R,0.040X0.070*%
%ADD40R,0.040X0.075*%
%ADD41C,0.010*%
%ADD42C,0.002*%
%ADD43C,0.006*%
%ADD44C,0.008*%
%ADD45C,0.024*%
%ADD46C,0.005*%
%ADD47C,0.012*%
%ADD48C,0.006*%
%ADD49C,0.008*%
%ADD50R,0.075X0.031*%
%ADD51R,0.220X0.031*%
%ADD52R,0.220X0.031*%
D12*
X2175Y3965D02*
Y4315D01*
Y3965D02*
X2425D01*
Y4315D01*
X2175D02*
X2425D01*
X2180Y4640D02*
X2430D01*
Y4480D02*
Y4640D01*
X2180Y4480D02*
X2430D01*
X2180D02*
Y4640D01*
X4365Y4735D02*
X5155D01*
X4365Y4405D02*
Y4735D01*
Y4405D02*
X5155D01*
Y4735D01*
X3541Y3096D02*
Y3410D01*
X3540Y3450D02*
Y3496D01*
X4141Y3096D02*
Y3410D01*
X4141Y3450D02*
Y3496D01*
X3540D02*
X4141D01*
X3540Y3095D02*
X4141D01*
X4141Y3450D02*
X4180D01*
Y3411D02*
Y3450D01*
X4141Y3410D02*
X4180D01*
X3541D02*
X3580D01*
Y3411D02*
Y3450D01*
X3541D02*
X3580D01*
X4260Y3450D02*
X4304D01*
X4305Y3451D02*
Y3461D01*
Y3495D01*
X4661Y3411D02*
X4705D01*
X4705Y3095D02*
Y3411D01*
X4661Y3451D02*
X4706D01*
X4661Y3411D02*
Y3451D01*
X4261Y3411D02*
X4305D01*
X4260D02*
Y3450D01*
X4706Y3455D02*
Y3495D01*
X4305Y3495D02*
X4705D01*
X4305Y3095D02*
X4705D01*
X4305D02*
Y3411D01*
X3825Y4955D02*
X4175D01*
Y5205D01*
X3825D02*
X4175D01*
X3825Y4955D02*
Y5205D01*
X2695Y5305D02*
Y5655D01*
Y5305D02*
X2945D01*
Y5655D01*
X2695D02*
X2945D01*
X2125Y5445D02*
Y6235D01*
Y5445D02*
X2455D01*
Y6235D01*
X2125D02*
X2455D01*
X2475Y3980D02*
X2495D01*
X2485D01*
Y3920D01*
X2475D01*
X2495D01*
X2525D02*
Y3980D01*
X2565Y3920D01*
Y3980D01*
X2585Y3920D02*
Y3980D01*
X2615D01*
X2625Y3970D01*
Y3950D01*
X2615Y3940D01*
X2585D01*
X2645Y3980D02*
Y3930D01*
X2655Y3920D01*
X2675D01*
X2685Y3930D01*
Y3980D01*
X2705D02*
X2745D01*
X2725D01*
Y3920D01*
X3105Y3975D02*
X3085D01*
X3075Y3965D01*
Y3925D01*
X3085Y3915D01*
X3105D01*
X3115Y3925D01*
Y3965D01*
X3105Y3975D01*
X3135D02*
Y3925D01*
X3145Y3915D01*
X3165D01*
X3175Y3925D01*
Y3975D01*
X3195D02*
X3235D01*
X3215D01*
Y3915D01*
X3255D02*
Y3975D01*
X3285D01*
X3295Y3965D01*
Y3945D01*
X3285Y3935D01*
X3255D01*
X3315Y3975D02*
Y3925D01*
X3325Y3915D01*
X3345D01*
X3355Y3925D01*
Y3975D01*
X3375D02*
X3415D01*
X3395D01*
Y3915D01*
X2875Y3150D02*
X2865Y3160D01*
X2845D01*
X2835Y3150D01*
Y3110D01*
X2845Y3100D01*
X2865D01*
X2875Y3110D01*
Y3130D01*
X2855D01*
X2895Y3100D02*
Y3160D01*
X2935Y3100D01*
Y3160D01*
X2955D02*
Y3100D01*
X2985D01*
X2995Y3110D01*
Y3150D01*
X2985Y3160D01*
X2955D01*
X3165Y3100D02*
Y3160D01*
X3195D01*
X3205Y3150D01*
Y3130D01*
X3195Y3120D01*
X3165D01*
X3185D02*
X3205Y3100D01*
X3225Y3160D02*
X3265Y3100D01*
Y3160D02*
X3225Y3100D01*
X3300Y3160D02*
X3340D01*
X3320D01*
Y3100D01*
X3360Y3160D02*
X3400Y3100D01*
Y3160D02*
X3360Y3100D01*
X2625Y3095D02*
Y3155D01*
X2655D01*
X2665Y3145D01*
Y3125D01*
X2655Y3115D01*
X2625D01*
X2645D02*
X2665Y3095D01*
X2685Y3155D02*
X2725Y3095D01*
Y3155D02*
X2685Y3095D01*
X2485Y3155D02*
X2525D01*
X2505D01*
Y3095D01*
X2545Y3155D02*
X2585Y3095D01*
Y3155D02*
X2545Y3095D01*
X2200Y3145D02*
X2190Y3155D01*
X2170D01*
X2160Y3145D01*
Y3105D01*
X2170Y3095D01*
X2190D01*
X2200Y3105D01*
Y3125D01*
X2180D01*
X2220Y3095D02*
Y3155D01*
X2260Y3095D01*
Y3155D01*
X2280D02*
Y3095D01*
X2310D01*
X2320Y3105D01*
Y3145D01*
X2310Y3155D01*
X2280D01*
X2385Y3125D02*
X2425D01*
X3060D02*
X3100D01*
X2540Y5700D02*
Y5680D01*
Y5690D01*
X2480D01*
Y5700D01*
Y5680D01*
X2530Y5610D02*
X2540Y5620D01*
Y5640D01*
X2530Y5650D01*
X2490D01*
X2480Y5640D01*
Y5620D01*
X2490Y5610D01*
X2540Y5590D02*
X2480D01*
Y5560D01*
X2490Y5550D01*
X2530D01*
X2540Y5560D01*
Y5590D01*
X2480Y5490D02*
Y5530D01*
X2520Y5490D01*
X2530D01*
X2540Y5500D01*
Y5520D01*
X2530Y5530D01*
X2150Y5360D02*
Y5420D01*
X2180D01*
X2190Y5410D01*
Y5390D01*
X2180Y5380D01*
X2150D01*
X2210Y5360D02*
X2230D01*
X2220D01*
Y5420D01*
X2210Y5410D01*
X4685Y5585D02*
X4675Y5595D01*
X4655D01*
X4645Y5585D01*
Y5545D01*
X4655Y5535D01*
X4675D01*
X4685Y5545D01*
X4705Y5535D02*
X4725D01*
X4715D01*
Y5595D01*
X4705Y5585D01*
X2603Y6074D02*
X2593Y6084D01*
X2573D01*
X2563Y6074D01*
Y6034D01*
X2573Y6024D01*
X2593D01*
X2603Y6034D01*
X2663Y6024D02*
X2623D01*
X2663Y6064D01*
Y6074D01*
X2653Y6084D01*
X2633D01*
X2623Y6074D01*
X2256Y4907D02*
X2246Y4917D01*
X2226D01*
X2216Y4907D01*
Y4867D01*
X2226Y4857D01*
X2246D01*
X2256Y4867D01*
X2276Y4907D02*
X2286Y4917D01*
X2306D01*
X2316Y4907D01*
Y4897D01*
X2306Y4887D01*
X2296D01*
X2306D01*
X2316Y4877D01*
Y4867D01*
X2306Y4857D01*
X2286D01*
X2276Y4867D01*
X4126Y6237D02*
X4116Y6247D01*
X4096D01*
X4086Y6237D01*
Y6197D01*
X4096Y6187D01*
X4116D01*
X4126Y6197D01*
X4176Y6187D02*
Y6247D01*
X4146Y6217D01*
X4186D01*
X4135Y5820D02*
X4125Y5830D01*
X4105D01*
X4095Y5820D01*
Y5780D01*
X4105Y5770D01*
X4125D01*
X4135Y5780D01*
X4195Y5830D02*
X4155D01*
Y5800D01*
X4175Y5810D01*
X4185D01*
X4195Y5800D01*
Y5780D01*
X4185Y5770D01*
X4165D01*
X4155Y5780D01*
X3298Y5108D02*
X3288Y5118D01*
X3268D01*
X3258Y5108D01*
Y5068D01*
X3268Y5058D01*
X3288D01*
X3298Y5068D01*
X3358Y5118D02*
X3338Y5108D01*
X3318Y5088D01*
Y5068D01*
X3328Y5058D01*
X3348D01*
X3358Y5068D01*
Y5078D01*
X3348Y5088D01*
X3318D01*
X3607Y4782D02*
X3597Y4792D01*
X3577D01*
X3567Y4782D01*
Y4742D01*
X3577Y4732D01*
X3597D01*
X3607Y4742D01*
X3627Y4792D02*
X3667D01*
Y4782D01*
X3627Y4742D01*
Y4732D01*
X3097Y5108D02*
X3087Y5118D01*
X3067D01*
X3057Y5108D01*
Y5068D01*
X3067Y5058D01*
X3087D01*
X3097Y5068D01*
X3117Y5108D02*
X3127Y5118D01*
X3147D01*
X3157Y5108D01*
Y5098D01*
X3147Y5088D01*
X3157Y5078D01*
Y5068D01*
X3147Y5058D01*
X3127D01*
X3117Y5068D01*
Y5078D01*
X3127Y5088D01*
X3117Y5098D01*
Y5108D01*
X3127Y5088D02*
X3147D01*
X3220Y4200D02*
X3210Y4210D01*
X3190D01*
X3180Y4200D01*
Y4160D01*
X3190Y4150D01*
X3210D01*
X3220Y4160D01*
X3240D02*
X3250Y4150D01*
X3270D01*
X3280Y4160D01*
Y4200D01*
X3270Y4210D01*
X3250D01*
X3240Y4200D01*
Y4190D01*
X3250Y4180D01*
X3280D01*
X2877Y5108D02*
X2867Y5118D01*
X2847D01*
X2837Y5108D01*
Y5068D01*
X2847Y5058D01*
X2867D01*
X2877Y5068D01*
X2897Y5058D02*
X2917D01*
X2907D01*
Y5118D01*
X2897Y5108D01*
X2947D02*
X2957Y5118D01*
X2977D01*
X2987Y5108D01*
Y5068D01*
X2977Y5058D01*
X2957D01*
X2947Y5068D01*
Y5108D01*
X4318Y4172D02*
X4308Y4182D01*
X4288D01*
X4278Y4172D01*
Y4132D01*
X4288Y4122D01*
X4308D01*
X4318Y4132D01*
X4338Y4122D02*
X4358D01*
X4348D01*
Y4182D01*
X4338Y4172D01*
X4388Y4122D02*
X4408D01*
X4398D01*
Y4182D01*
X4388Y4172D01*
X3976Y3867D02*
X3966Y3877D01*
X3946D01*
X3936Y3867D01*
Y3827D01*
X3946Y3817D01*
X3966D01*
X3976Y3827D01*
X3996Y3817D02*
X4016D01*
X4006D01*
Y3877D01*
X3996Y3867D01*
X4086Y3817D02*
X4046D01*
X4086Y3857D01*
Y3867D01*
X4076Y3877D01*
X4056D01*
X4046Y3867D01*
X2107Y6612D02*
Y6552D01*
X2137D01*
X2147Y6562D01*
Y6602D01*
X2137Y6612D01*
X2107D01*
X2167Y6552D02*
X2187D01*
X2177D01*
Y6612D01*
X2167Y6602D01*
X5676Y5680D02*
Y5620D01*
X5706D01*
X5716Y5630D01*
Y5670D01*
X5706Y5680D01*
X5676D01*
X5736Y5670D02*
X5746Y5680D01*
X5766D01*
X5776Y5670D01*
Y5660D01*
X5766Y5650D01*
X5756D01*
X5766D01*
X5776Y5640D01*
Y5630D01*
X5766Y5620D01*
X5746D01*
X5736Y5630D01*
X5356Y5680D02*
Y5620D01*
X5386D01*
X5396Y5630D01*
Y5670D01*
X5386Y5680D01*
X5356D01*
X5446Y5620D02*
Y5680D01*
X5416Y5650D01*
X5456D01*
X2129Y5303D02*
Y5243D01*
X2159D01*
X2169Y5253D01*
Y5293D01*
X2159Y5303D01*
X2129D01*
X2229D02*
X2189D01*
Y5273D01*
X2209Y5283D01*
X2219D01*
X2229Y5273D01*
Y5253D01*
X2219Y5243D01*
X2199D01*
X2189Y5253D01*
X5696Y4700D02*
Y4640D01*
X5726D01*
X5736Y4650D01*
Y4690D01*
X5726Y4700D01*
X5696D01*
X5796D02*
X5776Y4690D01*
X5756Y4670D01*
Y4650D01*
X5766Y4640D01*
X5786D01*
X5796Y4650D01*
Y4660D01*
X5786Y4670D01*
X5756D01*
X5356Y4700D02*
Y4640D01*
X5386D01*
X5396Y4650D01*
Y4690D01*
X5386Y4700D01*
X5356D01*
X5416D02*
X5456D01*
Y4690D01*
X5416Y4650D01*
Y4640D01*
X2780Y4070D02*
X2760D01*
X2770D01*
Y4020D01*
X2760Y4010D01*
X2750D01*
X2740Y4020D01*
X2800Y4010D02*
X2820D01*
X2810D01*
Y4070D01*
X2800Y4060D01*
X3455Y4065D02*
X3435D01*
X3445D01*
Y4015D01*
X3435Y4005D01*
X3425D01*
X3415Y4015D01*
X3515Y4005D02*
X3475D01*
X3515Y4045D01*
Y4055D01*
X3505Y4065D01*
X3485D01*
X3475Y4055D01*
X3120Y6355D02*
Y6415D01*
X3150D01*
X3160Y6405D01*
Y6385D01*
X3150Y6375D01*
X3120D01*
X3220Y6355D02*
X3180D01*
X3220Y6395D01*
Y6405D01*
X3210Y6415D01*
X3190D01*
X3180Y6405D01*
X2970Y6345D02*
Y6405D01*
X3000D01*
X3010Y6395D01*
Y6375D01*
X3000Y6365D01*
X2970D01*
X3030Y6395D02*
X3040Y6405D01*
X3060D01*
X3070Y6395D01*
Y6385D01*
X3060Y6375D01*
X3050D01*
X3060D01*
X3070Y6365D01*
Y6355D01*
X3060Y6345D01*
X3040D01*
X3030Y6355D01*
X4227Y4770D02*
Y4830D01*
X4257D01*
X4267Y4820D01*
Y4800D01*
X4257Y4790D01*
X4227D01*
X4317Y4770D02*
Y4830D01*
X4287Y4800D01*
X4327D01*
X2836Y6532D02*
Y6592D01*
X2866D01*
X2876Y6582D01*
Y6562D01*
X2866Y6552D01*
X2836D01*
X2856D02*
X2876Y6532D01*
X2896D02*
X2916D01*
X2906D01*
Y6592D01*
X2896Y6582D01*
X2308Y5244D02*
Y5304D01*
X2338D01*
X2348Y5294D01*
Y5274D01*
X2338Y5264D01*
X2308D01*
X2328D02*
X2348Y5244D01*
X2368Y5294D02*
X2378Y5304D01*
X2398D01*
X2408Y5294D01*
Y5284D01*
X2398Y5274D01*
X2388D01*
X2398D01*
X2408Y5264D01*
Y5254D01*
X2398Y5244D01*
X2378D01*
X2368Y5254D01*
X4706Y6382D02*
Y6442D01*
X4736D01*
X4746Y6432D01*
Y6412D01*
X4736Y6402D01*
X4706D01*
X4726D02*
X4746Y6382D01*
X4796D02*
Y6442D01*
X4766Y6412D01*
X4806D01*
X2855Y6710D02*
Y6770D01*
X2885D01*
X2895Y6760D01*
Y6740D01*
X2885Y6730D01*
X2855D01*
X2875D02*
X2895Y6710D01*
X2955Y6770D02*
X2915D01*
Y6740D01*
X2935Y6750D01*
X2945D01*
X2955Y6740D01*
Y6720D01*
X2945Y6710D01*
X2925D01*
X2915Y6720D01*
X2855Y6835D02*
Y6895D01*
X2885D01*
X2895Y6885D01*
Y6865D01*
X2885Y6855D01*
X2855D01*
X2875D02*
X2895Y6835D01*
X2955Y6895D02*
X2935Y6885D01*
X2915Y6865D01*
Y6845D01*
X2925Y6835D01*
X2945D01*
X2955Y6845D01*
Y6855D01*
X2945Y6865D01*
X2915D01*
X4870Y5110D02*
Y5170D01*
X4900D01*
X4910Y5160D01*
Y5140D01*
X4900Y5130D01*
X4870D01*
X4890D02*
X4910Y5110D01*
X4930Y5170D02*
X4970D01*
Y5160D01*
X4930Y5120D01*
Y5110D01*
X4760Y4995D02*
Y5055D01*
X4790D01*
X4800Y5045D01*
Y5025D01*
X4790Y5015D01*
X4760D01*
X4780D02*
X4800Y4995D01*
X4820Y5045D02*
X4830Y5055D01*
X4850D01*
X4860Y5045D01*
Y5035D01*
X4850Y5025D01*
X4860Y5015D01*
Y5005D01*
X4850Y4995D01*
X4830D01*
X4820Y5005D01*
Y5015D01*
X4830Y5025D01*
X4820Y5035D01*
Y5045D01*
X4830Y5025D02*
X4850D01*
X4660Y4860D02*
Y4920D01*
X4690D01*
X4700Y4910D01*
Y4890D01*
X4690Y4880D01*
X4660D01*
X4680D02*
X4700Y4860D01*
X4720Y4870D02*
X4730Y4860D01*
X4750D01*
X4760Y4870D01*
Y4910D01*
X4750Y4920D01*
X4730D01*
X4720Y4910D01*
Y4900D01*
X4730Y4890D01*
X4760D01*
X2340Y4560D02*
X2350Y4570D01*
Y4590D01*
X2340Y4600D01*
X2330D01*
X2320Y4590D01*
Y4570D01*
X2310Y4560D01*
X2300D01*
X2290Y4570D01*
Y4590D01*
X2300Y4600D01*
X2290Y4540D02*
Y4520D01*
Y4530D01*
X2350D01*
X2340Y4540D01*
X2220Y4400D02*
X2210Y4410D01*
X2190D01*
X2180Y4400D01*
Y4390D01*
X2190Y4380D01*
X2210D01*
X2220Y4370D01*
Y4360D01*
X2210Y4350D01*
X2190D01*
X2180Y4360D01*
X2240Y4400D02*
X2250Y4410D01*
X2270D01*
X2280Y4400D01*
Y4390D01*
X2270Y4380D01*
X2260D01*
X2270D01*
X2280Y4370D01*
Y4360D01*
X2270Y4350D01*
X2250D01*
X2240Y4360D01*
X3505Y6460D02*
Y6410D01*
X3515Y6400D01*
X3535D01*
X3545Y6410D01*
Y6460D01*
X3565Y6400D02*
X3585D01*
X3575D01*
Y6460D01*
X3565Y6450D01*
X4917Y6588D02*
Y6538D01*
X4927Y6528D01*
X4947D01*
X4957Y6538D01*
Y6588D01*
X5017Y6528D02*
X4977D01*
X5017Y6568D01*
Y6578D01*
X5007Y6588D01*
X4987D01*
X4977Y6578D01*
X2726Y4819D02*
Y4769D01*
X2736Y4759D01*
X2756D01*
X2766Y4769D01*
Y4819D01*
X2786Y4809D02*
X2796Y4819D01*
X2816D01*
X2826Y4809D01*
Y4799D01*
X2816Y4789D01*
X2806D01*
X2816D01*
X2826Y4779D01*
Y4769D01*
X2816Y4759D01*
X2796D01*
X2786Y4769D01*
X3915Y4380D02*
Y4340D01*
X3935Y4320D01*
X3955Y4340D01*
Y4380D01*
X3975Y4320D02*
Y4380D01*
X4005D01*
X4015Y4370D01*
Y4350D01*
X4005Y4340D01*
X3975D01*
X3995D02*
X4015Y4320D01*
X4035D02*
X4055D01*
X4045D01*
Y4380D01*
X4035Y4370D01*
X3842Y6310D02*
Y6300D01*
X3862Y6280D01*
X3882Y6300D01*
Y6310D01*
X3862Y6280D02*
Y6250D01*
X3902D02*
X3922D01*
X3912D01*
Y6310D01*
X3902Y6300D01*
X2740Y5740D02*
X2730Y5750D01*
X2710D01*
X2700Y5740D01*
Y5730D01*
X2710Y5720D01*
X2730D01*
X2740Y5710D01*
Y5700D01*
X2730Y5690D01*
X2710D01*
X2700Y5700D01*
X2800Y5690D02*
X2760D01*
X2800Y5730D01*
Y5740D01*
X2790Y5750D01*
X2770D01*
X2760Y5740D01*
X2716Y6832D02*
Y6892D01*
X2746D01*
X2756Y6882D01*
Y6862D01*
X2746Y6852D01*
X2716D01*
X2736D02*
X2756Y6832D01*
X2816D02*
X2776D01*
X2816Y6872D01*
Y6882D01*
X2806Y6892D01*
X2786D01*
X2776Y6882D01*
X2107Y6932D02*
Y6872D01*
X2137D01*
X2147Y6882D01*
Y6922D01*
X2137Y6932D01*
X2107D01*
X2207Y6872D02*
X2167D01*
X2207Y6912D01*
Y6922D01*
X2197Y6932D01*
X2177D01*
X2167Y6922D01*
X4215Y3180D02*
X4205Y3170D01*
Y3150D01*
X4215Y3140D01*
X4255D01*
X4265Y3150D01*
Y3170D01*
X4255Y3180D01*
X4265Y3210D02*
Y3230D01*
X4255Y3240D01*
X4235D01*
X4225Y3230D01*
Y3210D01*
X4235Y3200D01*
X4255D01*
X4265Y3210D01*
Y3260D02*
X4225D01*
Y3290D01*
X4235Y3300D01*
X4265D01*
Y3320D02*
Y3340D01*
Y3330D01*
X4205D01*
X4215Y3320D01*
X3460Y3170D02*
X3450Y3160D01*
Y3140D01*
X3460Y3130D01*
X3500D01*
X3510Y3140D01*
Y3160D01*
X3500Y3170D01*
X3510Y3200D02*
Y3220D01*
X3500Y3230D01*
X3480D01*
X3470Y3220D01*
Y3200D01*
X3480Y3190D01*
X3500D01*
X3510Y3200D01*
Y3250D02*
X3470D01*
Y3280D01*
X3480Y3290D01*
X3510D01*
Y3350D02*
Y3310D01*
X3470Y3350D01*
X3460D01*
X3450Y3340D01*
Y3320D01*
X3460Y3310D01*
X3730Y5155D02*
X3720Y5165D01*
X3700D01*
X3690Y5155D01*
Y5145D01*
X3700Y5135D01*
X3720D01*
X3730Y5125D01*
Y5115D01*
X3720Y5105D01*
X3700D01*
X3690Y5115D01*
X3780Y5105D02*
Y5165D01*
X3750Y5135D01*
X3790D01*
X3570Y3540D02*
X3610D01*
X3590Y3560D02*
Y3520D01*
X3630Y3570D02*
Y3530D01*
X3650Y3510D01*
X3670Y3530D01*
Y3570D01*
X3755Y3540D02*
X3795D01*
X3775Y3560D02*
Y3520D01*
X3855Y3570D02*
X3815D01*
Y3540D01*
X3835Y3550D01*
X3845D01*
X3855Y3540D01*
Y3520D01*
X3845Y3510D01*
X3825D01*
X3815Y3520D01*
X3875Y3570D02*
Y3530D01*
X3895Y3510D01*
X3915Y3530D01*
Y3570D01*
X4010Y3560D02*
X4000Y3570D01*
X3980D01*
X3970Y3560D01*
Y3520D01*
X3980Y3510D01*
X4000D01*
X4010Y3520D01*
Y3540D01*
X3990D01*
X4030Y3510D02*
Y3570D01*
X4070Y3510D01*
Y3570D01*
X4090D02*
Y3510D01*
X4120D01*
X4130Y3520D01*
Y3560D01*
X4120Y3570D01*
X4090D01*
X4530Y3550D02*
X4570D01*
X4550Y3570D02*
Y3530D01*
X4590Y3520D02*
X4610D01*
X4600D01*
Y3580D01*
X4590Y3570D01*
X4680Y3520D02*
X4640D01*
X4680Y3560D01*
Y3570D01*
X4670Y3580D01*
X4650D01*
X4640Y3570D01*
X4700Y3580D02*
Y3540D01*
X4720Y3520D01*
X4740Y3540D01*
Y3580D01*
X4345Y3565D02*
X4335Y3575D01*
X4315D01*
X4305Y3565D01*
Y3525D01*
X4315Y3515D01*
X4335D01*
X4345Y3525D01*
Y3545D01*
X4325D01*
X4365Y3515D02*
Y3575D01*
X4405Y3515D01*
Y3575D01*
X4425D02*
Y3515D01*
X4455D01*
X4465Y3525D01*
Y3565D01*
X4455Y3575D01*
X4425D01*
X2450Y4265D02*
Y4205D01*
X2490D01*
X2510Y4265D02*
X2530D01*
X2520D01*
Y4205D01*
X2510D01*
X2530D01*
X2560D02*
Y4265D01*
X2600Y4205D01*
Y4265D01*
X2620D02*
Y4205D01*
Y4225D01*
X2660Y4265D01*
X2630Y4235D01*
X2660Y4205D01*
X2450Y4095D02*
Y4035D01*
X2490D01*
X2510D02*
Y4075D01*
X2530Y4095D01*
X2550Y4075D01*
Y4035D01*
Y4065D01*
X2510D01*
X2610Y4085D02*
X2600Y4095D01*
X2580D01*
X2570Y4085D01*
Y4075D01*
X2580Y4065D01*
X2600D01*
X2610Y4055D01*
Y4045D01*
X2600Y4035D01*
X2580D01*
X2570Y4045D01*
X2630Y4095D02*
X2670D01*
X2650D01*
Y4035D01*
X2500Y4700D02*
X2560D01*
Y4670D01*
X2550Y4660D01*
X2530D01*
X2520Y4670D01*
Y4700D01*
Y4680D02*
X2500Y4660D01*
X2560Y4600D02*
Y4640D01*
X2500D01*
Y4600D01*
X2530Y4640D02*
Y4620D01*
X2550Y4540D02*
X2560Y4550D01*
Y4570D01*
X2550Y4580D01*
X2540D01*
X2530Y4570D01*
Y4550D01*
X2520Y4540D01*
X2510D01*
X2500Y4550D01*
Y4570D01*
X2510Y4580D01*
X2560Y4480D02*
Y4520D01*
X2500D01*
Y4480D01*
X2530Y4520D02*
Y4500D01*
X2560Y4460D02*
Y4420D01*
Y4440D01*
X2500D01*
X2970Y5650D02*
X2990D01*
X2980D01*
Y5590D01*
X2970D01*
X2990D01*
X3060Y5640D02*
X3050Y5650D01*
X3030D01*
X3020Y5640D01*
Y5600D01*
X3030Y5590D01*
X3050D01*
X3060Y5600D01*
X3080Y5650D02*
Y5590D01*
X3110D01*
X3120Y5600D01*
Y5640D01*
X3110Y5650D01*
X3080D01*
X3180Y5590D02*
X3140D01*
X3180Y5630D01*
Y5640D01*
X3170Y5650D01*
X3150D01*
X3140Y5640D01*
X3015Y5365D02*
X2975D01*
Y5305D01*
X3015D01*
X2975Y5335D02*
X2995D01*
X3035Y5305D02*
Y5365D01*
X3075Y5305D01*
Y5365D01*
X3135Y5355D02*
X3125Y5365D01*
X3105D01*
X3095Y5355D01*
Y5315D01*
X3105Y5305D01*
X3125D01*
X3135Y5315D01*
X3185Y5365D02*
X3165D01*
X3155Y5355D01*
Y5315D01*
X3165Y5305D01*
X3185D01*
X3195Y5315D01*
Y5355D01*
X3185Y5365D01*
X3215D02*
Y5305D01*
X3245D01*
X3255Y5315D01*
Y5355D01*
X3245Y5365D01*
X3215D01*
X3315D02*
X3275D01*
Y5305D01*
X3315D01*
X3275Y5335D02*
X3295D01*
X3335Y5305D02*
Y5365D01*
X3365D01*
X3375Y5355D01*
Y5335D01*
X3365Y5325D01*
X3335D01*
X3355D02*
X3375Y5305D01*
X4086Y5301D02*
X4058Y5272D01*
X4100Y5230D01*
X4128Y5258D01*
X4079Y5251D02*
X4093Y5265D01*
X4142Y5272D02*
X4100Y5315D01*
X4171Y5301D01*
X4128Y5343D01*
X4178Y5378D02*
X4164D01*
X4149Y5364D01*
Y5350D01*
X4178Y5322D01*
X4192D01*
X4206Y5336D01*
Y5350D01*
Y5421D02*
X4192Y5407D01*
Y5393D01*
X4220Y5364D01*
X4234D01*
X4248Y5378D01*
Y5393D01*
X4220Y5421D01*
X4206D01*
X4227Y5442D02*
X4270Y5400D01*
X4291Y5421D01*
Y5435D01*
X4263Y5463D01*
X4248D01*
X4227Y5442D01*
X4298Y5513D02*
X4270Y5484D01*
X4312Y5442D01*
X4340Y5470D01*
X4291Y5463D02*
X4305Y5477D01*
X4354Y5484D02*
X4312Y5527D01*
X4333Y5548D01*
X4347D01*
X4362Y5534D01*
Y5520D01*
X4340Y5499D01*
X4354Y5513D02*
X4383Y5513D01*
X4404Y5520D02*
X4432Y5548D01*
X4397Y5612D02*
X4439Y5569D01*
X4461Y5591D01*
Y5605D01*
X4453Y5612D01*
X4439D01*
X4418Y5591D01*
X4439Y5612D01*
Y5626D01*
X4432Y5633D01*
X4418D01*
X4397Y5612D01*
X3906Y5301D02*
X3878Y5272D01*
X3920Y5230D01*
X3948Y5258D01*
X3899Y5251D02*
X3913Y5265D01*
X3962Y5272D02*
X3920Y5315D01*
X3991Y5301D01*
X3948Y5343D01*
X3998Y5378D02*
X3984D01*
X3969Y5364D01*
Y5350D01*
X3998Y5322D01*
X4012D01*
X4026Y5336D01*
Y5350D01*
Y5421D02*
X4012Y5407D01*
Y5393D01*
X4040Y5364D01*
X4054D01*
X4068Y5378D01*
Y5393D01*
X4040Y5421D01*
X4026D01*
X4047Y5442D02*
X4090Y5400D01*
X4111Y5421D01*
Y5435D01*
X4083Y5463D01*
X4068D01*
X4047Y5442D01*
X4118Y5513D02*
X4090Y5484D01*
X4132Y5442D01*
X4160Y5470D01*
X4111Y5463D02*
X4125Y5477D01*
X4174Y5484D02*
X4132Y5527D01*
X4153Y5548D01*
X4167D01*
X4182Y5534D01*
Y5520D01*
X4160Y5499D01*
X4174Y5513D02*
X4203Y5513D01*
X4224Y5520D02*
X4252Y5548D01*
X4259Y5569D02*
X4231Y5598D01*
Y5626D01*
X4259Y5626D01*
X4288Y5598D01*
X4266Y5619D01*
X4238Y5591D01*
X4610Y4320D02*
Y4380D01*
X4630Y4360D01*
X4650Y4380D01*
Y4320D01*
X4700Y4380D02*
X4680D01*
X4670Y4370D01*
Y4330D01*
X4680Y4320D01*
X4700D01*
X4710Y4330D01*
Y4370D01*
X4700Y4380D01*
X4730D02*
X4770D01*
X4750D01*
Y4320D01*
X4820Y4380D02*
X4800D01*
X4790Y4370D01*
Y4330D01*
X4800Y4320D01*
X4820D01*
X4830Y4330D01*
Y4370D01*
X4820Y4380D01*
X4850Y4320D02*
Y4380D01*
X4880D01*
X4890Y4370D01*
Y4350D01*
X4880Y4340D01*
X4850D01*
X4870D02*
X4890Y4320D01*
D41*
X5187Y5560D02*
G03*
X5187Y5560I-207J0D01*
G01*
X3516Y4695D02*
G03*
X3516Y4695I-5J0D01*
G01*
X4687Y3880D02*
G03*
X4687Y3880I-207J0D01*
G01*
X3335Y6346D02*
G03*
X3335Y6346I-5J0D01*
G01*
D42*
X3995Y6127D02*
G03*
X3855Y6127I-70J0D01*
G01*
Y5857D02*
G03*
X3995Y5857I70J0D01*
G01*
Y6127D01*
X3855Y5857D02*
Y6127D01*
D43*
X4015D02*
G03*
X3835Y6127I-90J0D01*
G01*
Y5857D02*
G03*
X4015Y5857I90J0D01*
G01*
Y6127D01*
X3835Y5857D02*
Y6127D01*
D44*
X3500Y4570D02*
G03*
X3500Y4520I0J-25D01*
G01*
X3228Y4885D02*
G03*
X3228Y4885I-98J0D01*
G01*
X3008D02*
G03*
X3008Y4885I-98J0D01*
G01*
X3448D02*
G03*
X3448Y4885I-98J0D01*
G01*
X3738Y4560D02*
G03*
X3738Y4560I-98J0D01*
G01*
X3503Y4180D02*
G03*
X3503Y4180I-98J0D01*
G01*
X3455Y6362D02*
G03*
X3505Y6362I25J0D01*
G01*
X4130Y3657D02*
Y3783D01*
X3930Y3657D02*
Y3783D01*
X4130D01*
X3930Y3657D02*
X4130D01*
X2720Y4649D02*
X3500D01*
X2720Y4441D02*
X3500D01*
Y4570D02*
Y4649D01*
Y4441D02*
Y4520D01*
X2720Y4441D02*
Y4649D01*
X4730Y6270D02*
Y6279D01*
Y6061D02*
Y6070D01*
Y6270D02*
X4760D01*
Y6070D02*
Y6270D01*
X4700Y6070D02*
X4760D01*
X4700D02*
Y6270D01*
X4730D01*
X4080Y6027D02*
Y6153D01*
X4280Y6027D02*
Y6153D01*
X4080Y6027D02*
X4280D01*
X4080Y6153D02*
X4280D01*
X2210Y4697D02*
Y4823D01*
X2410Y4697D02*
Y4823D01*
X2210Y4697D02*
X2410D01*
X2210Y4823D02*
X2410D01*
X2197Y4963D02*
Y5117D01*
X2123Y4963D02*
Y5117D01*
Y4963D02*
X2197D01*
X2557Y5990D02*
X2683D01*
X2557Y5790D02*
X2683D01*
X2557D02*
Y5990D01*
X2683Y5790D02*
Y5990D01*
X2580Y5180D02*
X2589D01*
X2371D02*
X2380D01*
X2580Y5150D02*
Y5180D01*
X2380Y5150D02*
X2580D01*
X2380D02*
Y5210D01*
X2580D01*
Y5180D02*
Y5210D01*
X4911Y6474D02*
X5699D01*
X4911Y6297D02*
Y6494D01*
Y6297D02*
X4945D01*
X4911Y6494D02*
X5699D01*
Y6297D02*
Y6494D01*
X5665Y6297D02*
X5699D01*
X2860Y6420D02*
Y6429D01*
Y6211D02*
Y6220D01*
Y6420D02*
X2890D01*
Y6220D02*
Y6420D01*
X2830Y6220D02*
X2890D01*
X2830D02*
Y6420D01*
X2860D01*
X2740Y6511D02*
Y6520D01*
Y6720D02*
Y6729D01*
X2710Y6520D02*
X2740D01*
X2710D02*
Y6720D01*
X2770D01*
Y6520D02*
Y6720D01*
X2740Y6520D02*
X2770D01*
X2970Y6450D02*
Y6650D01*
Y6450D02*
X3070D01*
Y6650D01*
X2970D02*
X3070D01*
X3110Y6450D02*
Y6650D01*
Y6450D02*
X3210D01*
Y6650D01*
X3110D02*
X3210D01*
X3051Y6760D02*
X3060D01*
X3260D02*
X3269D01*
X3060D02*
Y6790D01*
X3260D01*
Y6730D02*
Y6790D01*
X3060Y6730D02*
X3260D01*
X3060D02*
Y6760D01*
X3260Y6860D02*
X3269D01*
X3051D02*
X3060D01*
X3260Y6830D02*
Y6860D01*
X3060Y6830D02*
X3260D01*
X3060D02*
Y6890D01*
X3260D01*
Y6860D02*
Y6890D01*
X4555Y4900D02*
X4564D01*
X4346D02*
X4355D01*
X4555Y4870D02*
Y4900D01*
X4355Y4870D02*
X4555D01*
X4355D02*
Y4930D01*
X4555D01*
Y4900D02*
Y4930D01*
X4650Y5035D02*
X4659D01*
X4441D02*
X4450D01*
X4650Y5005D02*
Y5035D01*
X4450Y5005D02*
X4650D01*
X4450D02*
Y5065D01*
X4650D01*
Y5035D02*
Y5065D01*
X4755Y5140D02*
X4764D01*
X4546D02*
X4555D01*
X4755Y5110D02*
Y5140D01*
X4555Y5110D02*
X4755D01*
X4555D02*
Y5170D01*
X4755D01*
Y5140D02*
Y5170D01*
X2145Y3078D02*
X2745D01*
X2145D02*
Y3473D01*
Y3527D02*
Y3888D01*
X2392D01*
X2745Y3527D02*
Y3888D01*
Y3078D02*
Y3473D01*
X2548Y3888D02*
X2745D01*
X2448D02*
X2492D01*
X2820Y3080D02*
X3420D01*
X2820D02*
Y3475D01*
Y3529D02*
Y3890D01*
X3067D01*
X3420Y3529D02*
Y3890D01*
Y3080D02*
Y3475D01*
X3223Y3890D02*
X3420D01*
X3123D02*
X3167D01*
X4079Y5859D02*
Y5985D01*
X4280Y5859D02*
Y5985D01*
X4079Y5859D02*
X4280D01*
X4079Y5985D02*
X4280D01*
X3376Y5428D02*
Y6362D01*
X3584Y5428D02*
Y6362D01*
X3376D02*
X3455D01*
X3505D02*
X3584D01*
X3376Y5428D02*
X3584D01*
X5690Y3991D02*
X5910D01*
X5690D02*
Y4369D01*
X5910Y3991D02*
Y4369D01*
X5350Y3991D02*
X5570D01*
X5350D02*
Y4369D01*
X5570Y3991D02*
Y4369D01*
X5670Y4971D02*
X5890D01*
X5670D02*
Y5349D01*
X5890Y4971D02*
Y5349D01*
X5350Y4971D02*
X5570D01*
X5350D02*
Y5349D01*
X5570Y4971D02*
Y5349D01*
D45*
X3472Y4610D02*
G03*
X3472Y4610I-12J0D01*
G01*
X3427Y6322D02*
G03*
X3427Y6322I-12J0D01*
G01*
D46*
X2195Y6495D02*
G03*
X2195Y6305I0J-95D01*
G01*
Y6815D02*
G03*
X2195Y6625I0J-95D01*
G01*
X2650Y6280D02*
Y6325D01*
X2550D02*
X2650D01*
X2550D02*
Y6475D01*
X2650D01*
Y6520D01*
X2195Y6305D02*
X2295D01*
X2195Y6495D02*
X2295D01*
Y6280D02*
X2650D01*
X2295D02*
Y6520D01*
X2650D01*
Y6600D02*
Y6645D01*
X2550D02*
X2650D01*
X2550D02*
Y6795D01*
X2650D01*
Y6840D01*
X2195Y6625D02*
X2295D01*
X2195Y6815D02*
X2295D01*
Y6600D02*
X2650D01*
X2295D02*
Y6840D01*
X2650D01*
D47*
X4080Y4000D02*
Y4140D01*
X3980Y4000D02*
Y4140D01*
X3880Y4000D02*
Y4140D01*
X3780Y4690D02*
Y4740D01*
Y4690D02*
X3830D01*
Y4590D02*
Y4690D01*
X3780Y4590D02*
X3830D01*
X3780Y4140D02*
Y4590D01*
Y4140D02*
X4180D01*
Y4590D01*
X4130D02*
X4180D01*
X4130D02*
Y4690D01*
X4180D01*
Y4740D01*
X3780D02*
X4180D01*
D48*
X4830Y5560D02*
X4791D01*
X4810Y5541D02*
Y5580D01*
X4480Y4065D02*
Y4026D01*
X4499Y4045D02*
X4460D01*
X4840Y6090D02*
X4860D01*
X4850D01*
Y6149D01*
X4840Y6139D01*
X5724Y6085D02*
X5744D01*
X5734D01*
Y6144D01*
X5724Y6134D01*
X5813Y6144D02*
X5773D01*
Y6115D01*
X5793Y6124D01*
X5803D01*
X5813Y6115D01*
Y6095D01*
X5803Y6085D01*
X5783D01*
X5773Y6095D01*
X3130Y5022D02*
Y4982D01*
X3150Y5002D02*
X3110D01*
X2910Y5022D02*
Y4982D01*
X2930Y5002D02*
X2890D01*
X3350Y5022D02*
Y4982D01*
X3370Y5002D02*
X3330D01*
X3640Y4697D02*
Y4657D01*
X3660Y4677D02*
X3620D01*
X3542Y4180D02*
X3502D01*
X3522Y4160D02*
Y4200D01*
D49*
X5027Y4535D02*
X5060D01*
X5027Y4502D01*
Y4493D01*
X5035Y4485D01*
X5052D01*
X5060Y4493D01*
X5050Y4645D02*
X5033D01*
X5042D01*
Y4595D01*
X5050Y4603D01*
X4485Y4637D02*
X4477Y4645D01*
X4460D01*
X4452Y4637D01*
Y4603D01*
X4460Y4595D01*
X4477D01*
X4485Y4603D01*
Y4612D01*
X4477Y4620D01*
X4452D01*
X4500Y4540D02*
X4483D01*
X4492D01*
Y4490D01*
X4500Y4498D01*
X4458D02*
X4450Y4490D01*
X4433D01*
X4425Y4498D01*
Y4532D01*
X4433Y4540D01*
X4450D01*
X4458Y4532D01*
Y4498D01*
X2220Y6120D02*
Y6103D01*
Y6112D01*
X2270D01*
X2262Y6120D01*
X2265Y5552D02*
Y5585D01*
X2240D01*
X2248Y5568D01*
Y5560D01*
X2240Y5552D01*
X2223D01*
X2215Y5560D01*
Y5577D01*
X2223Y5585D01*
X2315D02*
Y5568D01*
Y5577D01*
X2365D01*
X2357Y5585D01*
Y5543D02*
X2365Y5535D01*
Y5518D01*
X2357Y5510D01*
X2323D01*
X2315Y5518D01*
Y5535D01*
X2323Y5543D01*
X2357D01*
X2370Y6092D02*
X2362Y6108D01*
X2345Y6125D01*
X2328D01*
X2320Y6117D01*
Y6100D01*
X2328Y6092D01*
X2337D01*
X2345Y6100D01*
Y6125D01*
D50*
X2160Y5105D02*
D03*
D51*
X5800Y4357D02*
D03*
X5460D02*
D03*
Y5337D02*
D03*
D52*
X5780Y5337D02*
D03*
M02*
